<svg xmlns="http://www.w3.org/2000/svg" xmlns:xlink="http://www.w3.org/1999/xlink" viewBox="0 0 657.96659 60.37992"><defs><style>.a{fill:none;}.b{fill:#19366c;}.b,.c,.d,.e,.f,.g,.l,.m{fill-rule:evenodd;}.c{fill:#e1ac43;}.d{fill:#c12631;}.e{fill:#fff;}.f{fill:#2f567d;}.g{fill:#d7a03e;}.h{clip-path:url(#a);}.i{fill:#123479;}.j{fill:#1992cd;}.k{fill:#1b2c57;}.l{fill:#f3961a;}.m{fill:#040000;}.n{fill:#d83538;}.o{fill:#1d60ad;}.p{fill:#ebaa17;}.q{fill:#82b028;}</style><clipPath id="a" transform="translate(-26.08387 -4.35363)"><rect class="a" x="113.54986" y="-37" width="420.80854" height="136.69534"/></clipPath></defs><title>2</title><path class="b" d="M26.08387,62.79524h90.04846V5.821H26.08387V62.79524Z" transform="translate(-26.08387 -4.35363)"/><path class="c" d="M71.18086,52.51039A24.588,24.588,0,1,0,63.069,34.25865a24.51312,24.51312,0,0,0,8.11189,18.25174Z" transform="translate(-26.08387 -4.35363)"/><path class="c" d="M109.03494,47.9723a.77467.77467,0,0,1,.82082-.77266.76293.76293,0,0,1,.77266.77266.80475.80475,0,0,1-.77266.82082.81415.81415,0,0,1-.82082-.80744Q109.03488,47.979,109.03494,47.9723Zm.82082.62715a.63228.63228,0,0,0,.57949-.62766.58693.58693,0,0,0-.57949-.57949.59855.59855,0,0,0-.62766.57949A.63885.63885,0,0,0,109.85576,48.59945Zm-.145-.24082h-.145v-.72449h.29a.291.291,0,0,1,.19317.04816c.04816.04919.09633.09684.09633.145,0,.09684-.04816.19316-.144.19316l.144.33817h-.19317l-.09633-.29h-.145v.29Zm0-.43449h.19316c.04816,0,.04816-.04919.04816-.09684a.04717.04717,0,0,0-.04816-.04816h-.19316v.145Z" transform="translate(-26.08387 -4.35363)"/><path class="d" d="M79.14723,31.65221a24.50036,24.50036,0,0,0-.4345-2.607H63.64847A26.17865,26.17865,0,0,1,64.373,26.4378H77.98875q-.44394-1.32738-1.014-2.60746H65.38644q.6684-1.334,1.44847-2.60746h8.69087a16.22026,16.22026,0,0,0-1.88246-2.607H68.71788a24.97117,24.97117,0,0,1,2.46246-2.607A24.61976,24.61976,0,1,0,54.66709,58.88482a24.4273,24.4273,0,0,0,16.51325-6.3734A32.00192,32.00192,0,0,0,73.691,49.90447h-4.9736a25.71384,25.71384,0,0,1-1.883-2.607h8.69138a22.71761,22.71761,0,0,0,1.449-2.608H65.38644a20.88824,20.88824,0,0,1-1.014-2.60695H77.98824a26.46733,26.46733,0,0,0,.72449-2.608,24.65352,24.65352,0,0,0,.4345-2.607,23.5364,23.5364,0,0,0,0-5.21544Z" transform="translate(-26.08387 -4.35363)"/><path class="e" d="M109.03494,39.95726a.77467.77467,0,0,1,.82082-.77266.76293.76293,0,0,1,.77266.77266.80475.80475,0,0,1-.77266.82082.81364.81364,0,0,1-.82082-.80641Q109.03488,39.96447,109.03494,39.95726Zm.82082.62766a.633.633,0,0,0,.57949-.62766.58728.58728,0,0,0-.57949-.57949.59855.59855,0,0,0-.62766.57949A.63954.63954,0,0,0,109.85576,40.58492Zm-.145-.24133h-.145v-.7245h.29a.29092.29092,0,0,1,.19317.04817c.04816.04918.09633.09684.09633.145,0,.09684-.04816.19316-.144.19316l.144.33817h-.19317l-.09633-.29h-.145v.29Zm0-.434h.19316c.04816,0,.04816-.04919.04816-.09684a.04717.04717,0,0,0-.04816-.04817h-.19316v.145Z" transform="translate(-26.08387 -4.35363)"/><path class="b" d="M62.82765,41.35758a6.8222,6.8222,0,0,1-2.028.33816,1.938,1.938,0,0,1-2.028-2.22164,6.6007,6.6007,0,0,1,.09633-.91664l.14448-.96582.145-.82185,1.159-6.95238H62.8753l-.28949,1.5448h1.59348L63.793,33.92152H62.2l-.72449,4.15227c0,.145-.04817.289-.04817.38632,0,.53133.2895.77266.91766.77266a4.2168,4.2168,0,0,0,.82082-.09684l-.33816,2.22165Zm8.25637-.09736a9.08952,9.08952,0,0,1-2.75247.43552c-2.84879,0-4.53859-1.54532-4.53859-4.53911,0-3.47593,1.9798-6.0834,4.68359-6.0834A3.411,3.411,0,0,1,72.04933,34.791a10.94462,10.94462,0,0,1-.33714,2.51063H66.40042v.29c0,1.20664.77266,1.78613,2.31747,1.78613a6.552,6.552,0,0,0,2.80063-.62765l-.4345,2.51011ZM69.49054,35.225v-.48215a1.18031,1.18031,0,0,0-1.25531-1.30347c-.869,0-1.44848.62765-1.6898,1.78613h2.94511V35.225ZM42.40345,41.50258H39.74783l1.54531-9.60853-3.42828,9.60853h-1.8343l-.19316-9.56036-1.64216,9.56036H31.63646l2.07613-12.506h3.8141l.14552,7.72556L40.231,28.99658H44.4801Zm6.42208-4.53911c-.28949,0-.33817-.04817-.53133-.04817-1.49664,0-2.2693.57949-2.2693,1.54532a.94194.94194,0,0,0,.96531,1.06266c1.304,0,1.78664-1.06317,1.83532-2.55982Zm2.1243,4.53911H48.63237l.04816-1.06266a3.01955,3.01955,0,0,1-2.80063,1.25582,2.55454,2.55454,0,0,1-2.36562-2.80114,5.29975,5.29975,0,0,1,.19265-1.303c.43449-1.594,2.028-2.55981,4.44227-2.608a10.1248,10.1248,0,0,1,1.15847.04816,2.02117,2.02117,0,0,0,.09633-.67531c0-.67582-.53082-.869-1.78613-.869a10.33914,10.33914,0,0,0-2.22114.28949l-.33765.145h-.19316l.38633-2.2693a9.87344,9.87344,0,0,1,3.09012-.53133c2.31746,0,3.52461,1.014,3.52461,2.99379a8.45439,8.45439,0,0,1-.145,1.9793l-.53082,3.62145-.09633.62765-.09632.53031v.33817l-.04868.29052Zm32.97783-10.043a5.08277,5.08277,0,0,1,2.36563.67582l.43449-2.75246c-.24133-.09633-.29-.09633-.62766-.24133l-1.11082-.24133a4.35829,4.35829,0,0,0-1.20664-.14449,4.81725,4.81725,0,0,0-2.897.53082,6.468,6.468,0,0,0-1.593,1.304l-.29-.09684-2.75195,1.93164.145-1.06215h-2.8493l-1.593,10.13986h2.65614l.96582-5.45575a9.16668,9.16668,0,0,1,.57949-1.0145,1.4947,1.4947,0,0,1,1.448-.62765h.19316c-.04816.57949-.09684,1.25582-.09684,1.93164,0,3.33145,1.88348,5.40809,4.78044,5.40809a7.46616,7.46616,0,0,0,2.31746-.38632l.48214-2.84931a5.038,5.038,0,0,1-2.26878.62766c-1.54532,0-2.463-1.1098-2.463-3.04144,0-2.70482,1.35164-4.63595,3.38013-4.63595Zm22.54747-2.463-.57949,3.57328a2.71136,2.71136,0,0,0-2.41379-1.40031,4.01071,4.01071,0,0,0-3.52461,2.2693l-1.69031-1.014.145-1.06214h-2.8493L93.9215,41.50258h2.70378l.86848-5.45575s.67633-.77265.8695-1.01449a1.488,1.488,0,0,1,1.159-.62766,9.48243,9.48243,0,0,0-.48316,2.99431c0,2.55879,1.35215,4.24808,3.28328,4.24808a3.07535,3.07535,0,0,0,2.463-1.158l-.145,1.014h2.55879l2.02848-12.506h-2.75246v-.00051ZM103.241,39.08776c-.91766,0-1.35216-.62765-1.35216-1.97929,0-1.97929.82083-3.42777,2.07562-3.42777.91766,0,1.40082.724,1.40082,2.028,0,1.97929-.86949,3.37909-2.12429,3.37909ZM90.92821,36.96347c-.289,0-.33714-.04817-.53031-.04817-1.49715,0-2.2698.57949-2.2698,1.54532a.9423.9423,0,0,0,.96582,1.06266c1.30347,0,1.78613-1.06317,1.83429-2.55982Zm2.12429,4.53911H90.73607l.04816-1.06266a3.01992,3.01992,0,0,1-2.80114,1.25582,2.59554,2.59554,0,0,1-2.462-2.80114c.04817-2.41379,1.83429-3.91094,4.73125-3.91094a10.13332,10.13332,0,0,1,1.159.04816,2.01123,2.01123,0,0,0,.09684-.67531c0-.67582-.53133-.869-1.78716-.869a9.93413,9.93413,0,0,0-2.22062.28949l-.38633.145h-.145l.38633-2.2693a9.87588,9.87588,0,0,1,3.09012-.53133c2.31746,0,3.52461,1.014,3.52461,2.99379a8.45439,8.45439,0,0,1-.145,1.9793l-.53031,3.62145-.09683.62765-.09633.53031-.04919.33817ZM56.50241,33.5357a17.228,17.228,0,0,1,2.028.145l.38633-2.36614a23.10747,23.10747,0,0,0-2.41379-.19317c-2.94563,0-3.9591,1.59348-3.9591,3.47645a2.86117,2.86117,0,0,0,1.97929,2.752c1.11032.53133,1.30348.62868,1.30348,1.06266,0,.62765-.57949,1.014-1.64164,1.014a8.638,8.638,0,0,1-2.36614-.38633l-.28949,2.31747H51.578l.48265.09684a2.24166,2.24166,0,0,0,.67582.09632,10.35061,10.35061,0,0,0,1.54481.09633c2.94562,0,4.20094-1.1098,4.20094-3.37961a2.82176,2.82176,0,0,0-2.028-2.80012c-1.11031-.53133-1.25531-.57949-1.25531-1.06266,0-.48265.48265-.869,1.30347-.869Z" transform="translate(-26.08387 -4.35363)"/><path class="e" d="M87.45227,28.61077l-.43552,2.70379a5.08584,5.08584,0,0,0-2.36562-.67582c-2.02746,0-3.42726,1.93165-3.42726,4.6836,0,1.88348.96582,3.04144,2.5096,3.04144a5.04191,5.04191,0,0,0,2.26981-.62765l-.48214,2.8493a8.99236,8.99236,0,0,1-2.36562.33817c-2.84931,0-4.63544-2.02849-4.63544-5.35993,0-4.49044,2.462-7.58,5.98656-7.58a8.16519,8.16519,0,0,1,1.20767.09633l1.10979.28949c.33817.14449.38633.14449.62818.24133Zm-8.54586,1.883a.61489.61489,0,0,0-.29-.04817c-.86847,0-1.35215.4345-2.17246,1.64165l.24133-1.54532h-2.462l-1.594,10.188h2.65614c.96583-6.2284,1.20664-7.29106,2.51063-7.29106h.19316a9.16791,9.16791,0,0,1,1.014-2.94563h-.09684v.00051ZM63.50347,40.58492a5.82374,5.82374,0,0,1-1.93164.33816,1.962,1.962,0,0,1-2.1243-2.22164,6.60238,6.60238,0,0,1,.09633-.91664l.14449-1.0145.145-.77266,1.159-6.95238H63.648l-.28949,1.49664h1.35215l-.38633,2.51062H62.97265l-.7245,4.20095c0,.19316-.04816.33816-.04816.43449,0,.53133.28949.77266.91766.77266a2.60094,2.60094,0,0,0,.72449-.09684l-.33868,2.22113ZM53.21913,33.777a2.92452,2.92452,0,0,0,2.028,2.80012c1.11032.53133,1.25532.67633,1.25532,1.159,0,.62766-.48266.91766-1.54532.91766A7.2538,7.2538,0,0,1,52.591,38.2193l-.38633,2.36562h.145l.48316.09684a2.23927,2.23927,0,0,0,.67582.09633c.62766.04816,1.159.09633,1.49664.09633,2.80063,0,4.10411-1.06164,4.10411-3.37961a2.79344,2.79344,0,0,0-1.883-2.84931c-1.11082-.48214-1.25531-.62714-1.25531-1.06163q0-.86923,1.30347-.869a15.27712,15.27712,0,0,1,1.93113.19317l.38633-2.36614a20.4111,20.4111,0,0,0-2.36562-.19316c-2.99328,0-4.00727,1.54531-4.00727,3.42828Zm54.65734,6.9529h-2.55879l.144-1.014a3.17589,3.17589,0,0,1-2.463,1.1098c-1.93062,0-3.23409-1.64114-3.23409-4.19992,0-3.38012,1.9793-6.22891,4.34492-6.22891a2.99271,2.99271,0,0,1,2.55879,1.40031l.57949-3.57328h2.65614l-2.02746,12.506Zm-3.96013-2.41481c1.25583,0,2.1243-1.3998,2.1243-3.42726,0-1.25583-.48214-1.97981-1.3998-1.97981-1.20664,0-2.07665,1.3998-2.07665,3.42777C102.56419,37.6398,102.99869,38.31511,103.91634,38.31511ZM71.663,40.48859a8.8844,8.8844,0,0,1-2.75195.43449c-2.9938,0-4.5386-1.594-4.5386-4.53911,0-3.52409,1.9798-6.0834,4.6836-6.0834a3.411,3.411,0,0,1,3.57277,3.71778,13.80243,13.80243,0,0,1-.289,2.51062H67.02859a.71334.71334,0,0,0-.04868.29c0,1.159.77266,1.78613,2.36614,1.78613a6.50224,6.50224,0,0,0,2.75247-.62766Zm-1.49613-6.03626v-.53082A1.15834,1.15834,0,0,0,68.91156,32.618c-.82031,0-1.44848.67582-1.6898,1.83429h2.94511ZM43.07978,40.72992H40.42416L41.969,31.1214l-3.42828,9.60852h-1.8343l-.19316-9.56036-1.64164,9.56036H32.40911l2.07614-12.506h3.8141l.145,7.72555,2.5593-7.72555h4.15227l-2.07613,12.506Zm6.61473-4.53911a3.214,3.214,0,0,0-.62765-.04816c-1.49664,0-2.2693.53133-2.2693,1.54531a.96607.96607,0,0,0,.96531,1.06266c1.11082,0,1.88348-1.06266,1.93164-2.55981Zm1.93114,4.53911H49.40451l.04868-1.06266a3.32729,3.32729,0,0,1-2.80063,1.20664,2.45968,2.45968,0,0,1-2.4143-2.752c0-2.462,1.69032-3.91095,4.6836-3.91095a8.58283,8.58283,0,0,1,1.06215.04817,1.65292,1.65292,0,0,0,.09632-.62715c0-.67582-.43449-.91766-1.6898-.91766a7.74111,7.74111,0,0,0-2.22114.2895l-.38633.09632-.24133.04817.38633-2.2693a10.89677,10.89677,0,0,1,3.18645-.53133c2.31746,0,3.52461,1.014,3.52461,2.94563a10.767,10.767,0,0,1-.24184,2.028l-.53082,3.62145-.09632.62765-.04868.53031-.04816.33817-.04765.291ZM91.7977,36.19081a3.20882,3.20882,0,0,0-.62766-.04816c-1.49715,0-2.2698.53133-2.2698,1.54531a.96644.96644,0,0,0,.96582,1.06266c1.06214,0,1.88347-1.06266,1.93164-2.55981Zm1.93113,4.53911H91.50821l.04816-1.06266a3.38894,3.38894,0,0,1-2.80114,1.20664,2.49425,2.49425,0,0,1-2.462-2.752c0-2.462,1.73848-3.91095,4.73125-3.91095a8.57083,8.57083,0,0,1,1.06164.04817A1.64475,1.64475,0,0,0,92.183,33.632c0-.67582-.4345-.91766-1.69032-.91766a7.73734,7.73734,0,0,0-2.22062.2895l-.38633.09632-.24132.04817.38632-2.2693a10.89419,10.89419,0,0,1,3.18645-.53133c2.31745,0,3.52461,1.014,3.52461,2.94563a10.75348,10.75348,0,0,1-.24133,2.028l-.53133,3.62145-.09633.62765-.09683.53031-.04816.33817v.291h.001Zm7.14658-10.23618a.36548.36548,0,0,0-.24235-.04817c-.86848,0-1.3998.4345-2.22063,1.64165l.24133-1.54532H96.24l-1.64215,10.188H97.3016c.91766-6.2284,1.20766-7.29106,2.463-7.29106h.19316a10.49864,10.49864,0,0,1,1.014-2.94563h-.09633v.00051Z" transform="translate(-26.08387 -4.35363)"/><path class="f" d="M220.90388,11.09089c0-4.5032-2.3403-6.73726-6.88008-6.73726H134.02714a6.36033,6.36033,0,0,0-5.03541,1.84368,6.55193,6.55193,0,0,0-1.84417,4.89358V56.76332a6.605,6.605,0,0,0,1.84417,4.89309,6.83114,6.83114,0,0,0,5.03541,1.84417H214.0238c4.53978,0,6.88008-2.26863,6.88008-6.73675ZM214.0238,5.41754c3.75851,0,5.67385,1.91484,5.67385,5.67335V56.76332c0,3.7936-1.91534,5.67285-5.67385,5.67285H134.02714a5.47336,5.47336,0,0,1-5.81517-5.67334V11.09089c0-3.75851,1.87925-5.67335,5.81517-5.67335Z" transform="translate(-26.08387 -4.35363)"/><path class="f" d="M134.66508,8.04149c-1.52445,0-2.48212.24806-3.01383.78026a5.09777,5.09777,0,0,0-.67352,3.04941v9.8929h86.096v-9.8929c0-2.58836-1.27739-3.82967-3.83017-3.82967Z" transform="translate(-26.08387 -4.35363)"/><path class="g" d="M130.97773,55.84124c0,2.62293,1.24081,3.971,3.68735,3.971h78.57845c2.55278,0,3.83018-1.34755,3.83018-3.971V45.94783h-86.096Z" transform="translate(-26.08387 -4.35363)"/><path class="f" d="M159.48729,25.98412a1.8227,1.8227,0,0,1-.24806,1.06391l-6.20555,10.8155-.39039-13.19138h-9.92848l3.333,1.59561a2.7218,2.7218,0,0,1,1.45379,2.37588l.92159,14.00722h4.858l11.63134-17.97871h-5.957A1.76477,1.76477,0,0,1,159.48729,25.98412Zm40.14091-.78027.38938-.5322h-6.06374c.21248.21248.28364.31922.28364.38988a6.80923,6.80923,0,0,1-.28364.67353l-8.8295,16.09846c-.21248.28364-.426.5322-.67352.81635h4.99982l-.24856-.53221a7.624,7.624,0,0,1,.78027-2.5172l1.06391-1.986h5.14164c.21348,1.66678.3553,3.04991.426,4.07874l-.426.95717h6.20555l-.92209-1.34755-1.84317-16.099Zm-3.68835,9.89341H192.252l3.15564-6.06373Zm-15.31869-11.3472a8.17663,8.17663,0,0,0-4.99982,1.59561,4.02893,4.02893,0,0,0-2.37588,3.54654,5.69225,5.69225,0,0,0,1.70185,4.21955l3.44029,2.37538c1.24131.887,1.84418,1.66677,1.84418,2.37638a2.159,2.159,0,0,1-.92209,1.73744,3.322,3.322,0,0,1-2.12782.67352c-1.24131,0-3.36863-.886-6.31179-2.5172v3.29747a13.05537,13.05537,0,0,0,6.70168,2.09274,7.76073,7.76073,0,0,0,5.28446-1.84418,5.03318,5.03318,0,0,0,2.37538-4.07773,5.07,5.07,0,0,0-1.84418-3.68835L180.089,31.16135c-1.098-.88651-1.70135-1.66678-1.70135-2.26914,0-1.38263.81535-2.09224,2.48213-2.09224,1.13457,0,2.80134.63844,5.0349,1.986l.67452-3.43978a11.81547,11.81547,0,0,0-5.958-1.59612ZM167.43029,42.65037c-.07116-.74469-.213-1.41822-.28415-2.12782l4.5037-14.53843,1.06391-1.312h-6.4892c.07116.31923.14182.74469.213,1.06391A5.52831,5.52831,0,0,1,166.36638,26.8l-4.5032,14.3966-.92209,1.4543h6.4892Z" transform="translate(-26.08387 -4.35363)"/><g class="h"><path class="i" d="M264.4808,11.36621c-2.16051-2.46252-6.06595-3.51825-11.062-3.51825H238.91866a2.0766,2.0766,0,0,0-2.05209,1.75137l-6.035,38.29416a1.24415,1.24415,0,0,0,1.23,1.43776h8.95178l2.24827-14.26012-.06969.44656a2.07015,2.07015,0,0,1,2.04306-1.75138h4.2539c8.3568,0,14.90027-3.39435,16.81169-13.21343q.08517-.43558.14842-.84923c.56788-3.62924-.00387-6.0995-1.96691-8.33615" transform="translate(-26.08387 -4.35363)"/><path class="j" d="M374.07042,29.58855c-.54723,3.5931-3.2911,3.5931-5.94463,3.5931h-1.51l1.05961-6.70867a.83362.83362,0,0,1,.82342-.70339h.69307c1.80687,0,3.51308,0,4.39328,1.02863a3.3457,3.3457,0,0,1,.48528,2.79033m-1.15511-9.37511H362.90522a1.39389,1.39389,0,0,0-1.37581,1.17447l-4.04482,25.66668a.83507.83507,0,0,0,.82342.9641h5.13669a.9737.9737,0,0,0,.96152-.82084l1.14866-7.27913a1.39121,1.39121,0,0,1,1.37323-1.17447h3.1672c6.5951,0,10.39986-3.18914,11.39365-9.51449.44784-2.76452.01807-4.93794-1.27643-6.45959-1.42356-1.67265-3.94673-2.558-7.29591-2.558" transform="translate(-26.08387 -4.35363)"/><path class="i" d="M302.673,29.58855c-.54723,3.5931-3.2911,3.5931-5.94591,3.5931h-1.51l1.0596-6.70867a.83362.83362,0,0,1,.82342-.70339h.69307c1.80687,0,3.51308,0,4.39329,1.02863a3.34083,3.34083,0,0,1,.48656,2.79033m-1.15511-9.37511h-10.0101a1.39238,1.39238,0,0,0-1.37451,1.17447l-4.04611,25.66668a.83378.83378,0,0,0,.82341.9641h4.78048a1.39106,1.39106,0,0,0,1.37323-1.17447L294.15745,39.92a1.39,1.39,0,0,1,1.37322-1.17447h3.16719c6.5951,0,10.39987-3.19043,11.39365-9.51578.44785-2.76452.01807-4.93794-1.27643-6.45959-1.42355-1.67265-3.94673-2.558-7.29591-2.558m23.239,18.59147a5.34561,5.34561,0,0,1-5.41031,4.57785,3.7138,3.7138,0,0,1-3.97-4.66045,5.36311,5.36311,0,0,1,5.37159-4.6127,4.04,4.04,0,0,1,3.19559,1.30612,4.12625,4.12625,0,0,1,.81309,3.38918m6.68028-9.33123h-4.79338a.835.835,0,0,0-.826.706L325.61,31.518l-.33557-.48528c-1.03766-1.50616-3.35176-2.01079-5.662-2.01079a11.02239,11.02239,0,0,0-10.69929,9.641,9.04955,9.04955,0,0,0,1.78494,7.3656,7.5006,7.5006,0,0,0,6.03626,2.4367,9.178,9.178,0,0,0,6.6364-2.74129l-.21425,1.33193a.83379.83379,0,0,0,.82471.9641h4.31586a1.39122,1.39122,0,0,0,1.37452-1.17447l2.59158-16.40773a.83507.83507,0,0,0-.826-.9641" transform="translate(-26.08387 -4.35363)"/><path class="j" d="M396.1556,38.80362a5.34561,5.34561,0,0,1-5.41031,4.57785,3.7138,3.7138,0,0,1-3.97-4.66045,5.36216,5.36216,0,0,1,5.37159-4.6127,4.04,4.04,0,0,1,3.19559,1.30612,4.12629,4.12629,0,0,1,.8131,3.38918m6.68027-9.33123h-4.79339a.835.835,0,0,0-.826.706L397.0074,31.518l-.33556-.48528c-1.03766-1.50616-3.35176-2.01079-5.662-2.01079a11.02437,11.02437,0,0,0-10.69929,9.641,9.05,9.05,0,0,0,1.78623,7.3656,7.50058,7.50058,0,0,0,6.03625,2.4367,9.17922,9.17922,0,0,0,6.6377-2.74129l-.21425,1.33193a.83119.83119,0,0,0,.82212.9641h4.31457a1.39353,1.39353,0,0,0,1.3758-1.17447l2.59157-16.40773a.83507.83507,0,0,0-.826-.9641" transform="translate(-26.08387 -4.35363)"/><path class="i" d="M356.96834,29.47368h-4.8192a1.38536,1.38536,0,0,0-1.14866.61047l-6.64672,9.78811-2.81744-9.40609a1.39387,1.39387,0,0,0-1.33321-.99378h-4.7353a.83506.83506,0,0,0-.78987,1.10478l5.30448,15.57269-4.98956,7.04036a.835.835,0,0,0,.68145,1.31644h4.814a1.39352,1.39352,0,0,0,1.14221-.59756l16.02183-23.12543a.83375.83375,0,0,0-.684-1.31" transform="translate(-26.08387 -4.35363)"/><path class="j" d="M408.485,20.91941,404.3756,47.05588a.835.835,0,0,0,.82472.96409h4.1313a1.39239,1.39239,0,0,0,1.37452-1.17447l4.05128-25.668a.83378.83378,0,0,0-.82472-.9641h-4.623a.83247.83247,0,0,0-.82472.70469" transform="translate(-26.08387 -4.35363)"/><path class="i" d="M264.4808,11.36621c-2.16051-2.46252-6.06595-3.51825-11.062-3.51825H238.91866a2.0766,2.0766,0,0,0-2.05209,1.75137l-6.035,38.29416a1.24415,1.24415,0,0,0,1.23,1.43776h8.95178l2.24827-14.26012-.06969.44656a2.07015,2.07015,0,0,1,2.04306-1.75138h4.2539c8.3568,0,14.90027-3.39435,16.81169-13.21343q.08517-.43558.14842-.84923c.56788-3.62924-.00387-6.0995-1.96691-8.33615" transform="translate(-26.08387 -4.35363)"/><path class="i" d="M245.67638,19.7514a1.8172,1.8172,0,0,1,1.79268-1.532h11.36783a23.89885,23.89885,0,0,1,3.74927.271,15.75076,15.75076,0,0,1,1.8585.41558,10.26892,10.26892,0,0,1,2.00176.7976c.57046-3.63053-.00258-6.09949-1.96562-8.33744-2.1618-2.46122-6.06594-3.51695-11.06195-3.51695H238.91737a2.07661,2.07661,0,0,0-2.04951,1.75137l-6.03755,38.29029A1.24417,1.24417,0,0,0,232.059,49.33h8.95307l2.24827-14.26141Z" transform="translate(-26.08387 -4.35363)"/><path class="j" d="M266.44771,19.70236q-.06645.42594-.14842.84923C264.38787,30.36938,257.8444,33.765,249.4876,33.765h-4.2552a2.06758,2.06758,0,0,0-2.04177,1.75138l-2.17857,13.81227-.6195,3.91834a1.08926,1.08926,0,0,0,1.07638,1.25965h7.54629a1.8166,1.8166,0,0,0,1.79267-1.532l.07357-.38461,1.42227-9.01373.09034-.49818a1.81591,1.81591,0,0,1,1.794-1.532h1.1293c7.3101,0,13.034-2.96844,14.70668-11.55885.69694-3.58794.33556-6.58606-1.51-8.69107a7.20674,7.20674,0,0,0-2.06629-1.59393" transform="translate(-26.08387 -4.35363)"/><path class="k" d="M264.446,18.906q-.43752-.12971-.90215-.23231c-.30975-.06841-.62982-.12906-.95764-.18069a23.43969,23.43969,0,0,0-3.75056-.2749H247.46906a1.812,1.812,0,0,0-1.79268,1.53326l-2.416,15.31973-.0697.44526A2.0676,2.0676,0,0,1,245.2324,33.765h4.2552c8.3568,0,14.90027-3.39435,16.81169-13.21342.05678-.29039.10454-.57175.14842-.84924a10.32264,10.32264,0,0,0-1.572-.66338c-.14068-.04646-.28394-.09034-.42978-.13422" transform="translate(-26.08387 -4.35363)"/></g><path class="l" d="M509.66479,56.05639c-7.65632,5.661-18.79279,8.67717-28.398,8.67717A51.4893,51.4893,0,0,1,446.55812,51.509c-.696-.64963-.0928-1.53126.78883-1.02085a69.74577,69.74577,0,0,0,34.70867,9.18758,69.05861,69.05861,0,0,0,26.49553-5.429c1.29924-.51043,2.3665.88163,1.11364,1.80967Z" transform="translate(-26.08387 -4.35363)"/><path class="l" d="M512.86654,52.39062c-.97445-1.25286-6.49628-.60322-8.95558-.27842-.74243.09281-.88163-.55682-.1856-1.02084,4.40818-3.10894,11.60049-2.1809,12.43572-1.16s-.232,8.25954-4.36178,11.6933c-.64963.51042-1.25286.232-.97445-.464C511.75289,58.84049,513.841,53.68987,512.86654,52.39062Z" transform="translate(-26.08387 -4.35363)"/><path class="m" d="M504.05016,29.28245V26.26632a.70613.70613,0,0,1,.74244-.74243h13.45657a.77323.77323,0,0,1,.78884.74243v2.55211c0,.41761-.37121.97444-1.02085,1.90248l-6.9603,9.93a15.11708,15.11708,0,0,1,7.65633,1.62407,1.38242,1.38242,0,0,1,.696,1.16v3.20173c0,.464-.464.97444-.97445.696a15.3505,15.3505,0,0,0-14.199.0464.72839.72839,0,0,1-.97445-.696V43.62065a3.4674,3.4674,0,0,1,.51043-2.04168l8.07394-11.55409H504.839a.77323.77323,0,0,1-.78884-.74243Zm-49.04687,18.7h-4.08337a.83793.83793,0,0,1-.74243-.696V26.31271a.77322.77322,0,0,1,.78883-.74243h3.805a.75625.75625,0,0,1,.74243.696V29.004h.0928a5.40751,5.40751,0,0,1,5.38263-3.89776c2.55211,0,4.17618,1.25286,5.28983,3.89776a5.81537,5.81537,0,0,1,5.661-3.89776,5.752,5.752,0,0,1,4.733,2.3201c1.29925,1.76327,1.02085,4.31537,1.02085,6.58908v13.271a.77322.77322,0,0,1-.78884.74244h-4.037a.79725.79725,0,0,1-.74243-.74244V36.14993a27.82886,27.82886,0,0,0-.09281-3.94416,2.15266,2.15266,0,0,0-2.4129-1.80968,2.73246,2.73246,0,0,0-2.45931,1.71688,12.8576,12.8576,0,0,0-.37121,4.037V47.28642a.77323.77323,0,0,1-.78884.74243h-4.08337a.79724.79724,0,0,1-.74243-.74243V36.14995c0-2.3201.37121-5.80025-2.50571-5.80025-2.92332,0-2.83052,3.34095-2.83052,5.80025V47.28642a.815.815,0,0,1-.83524.696Zm75.63519-22.87616c6.07866,0,9.3732,5.197,9.3732,11.8325,0,6.40347-3.61935,11.50768-9.3732,11.50768-5.93944,0-9.18758-5.197-9.18758-11.6933-.04641-6.54268,3.24814-11.64689,9.18758-11.64689Zm0,4.31538c-3.01613,0-3.20173,4.12977-3.20173,6.68188s-.04641,8.02753,3.15533,8.02753c3.15532,0,3.34094-4.40818,3.34094-7.09949a20.30465,20.30465,0,0,0-.60322-5.56824,2.56572,2.56572,0,0,0-2.69131-2.04168Zm17.21513,18.56078h-4.08337a.79725.79725,0,0,1-.74243-.74243V26.21992a.802.802,0,0,1,.78884-.696h3.805a.79342.79342,0,0,1,.74244.60322v3.20173h.09281c1.16-2.87693,2.73771-4.22258,5.56823-4.22258a5.4037,5.4037,0,0,1,4.7794,2.4593c1.06724,1.67047,1.06724,4.501,1.06724,6.54268V47.33279a.76346.76346,0,0,1-.78884.64963h-4.08337a.84423.84423,0,0,1-.74243-.64963V35.91791c0-2.3201.27841-5.661-2.55211-5.661a2.68621,2.68621,0,0,0-2.3665,1.67047,9.63315,9.63315,0,0,0-.64963,3.99057V47.24a.84977.84977,0,0,1-.83523.74244Zm-54.5223-10.02282a8.29668,8.29668,0,0,1-.74244,4.36178,3.284,3.284,0,0,1-2.83052,1.85608c-1.57766,0-2.5057-1.20646-2.5057-2.96973,0-3.48014,3.10894-4.12977,6.07866-4.12977Zm4.12977,9.97642a.839.839,0,0,1-.97444.09281,10.24675,10.24675,0,0,1-2.36651-2.73771c-2.22729,2.27369-3.85135,2.96972-6.72828,2.96972-3.43374,0-6.12506-2.1345-6.12506-6.35708a6.94582,6.94582,0,0,1,4.36178-6.68188c2.22728-.97444,5.33622-1.16,7.70272-1.43846V33.273a5.01221,5.01221,0,0,0-.51042-2.96973,2.74767,2.74767,0,0,0-2.27369-1.06724,3.08973,3.08973,0,0,0-3.29455,2.4593c-.0928.37121-.32481.74244-.696.74244l-3.94417-.41762a.71419.71419,0,0,1-.60322-.83523c.928-4.8258,5.24341-6.26426,9.14119-6.26426,1.99528,0,4.59379.51042,6.17146,2.04168,1.99527,1.85608,1.80967,4.36178,1.80967,7.0531v6.35708a5.74861,5.74861,0,0,0,1.53126,3.805c.27841.37121.32482.83522,0,1.06723-.88164.696-2.3665,1.99528-3.20173,2.69131Zm-57.724-9.97642a8.29668,8.29668,0,0,1-.74244,4.36178,3.284,3.284,0,0,1-2.83052,1.85608c-1.57766,0-2.5057-1.20646-2.5057-2.96973,0-3.48014,3.10893-4.12977,6.07866-4.12977Zm4.08337,9.97642a.839.839,0,0,1-.97444.09281,10.24675,10.24675,0,0,1-2.36651-2.73771c-2.22729,2.27369-3.85136,2.96972-6.72828,2.96972-3.43374,0-6.12506-2.1345-6.12506-6.35708a6.94584,6.94584,0,0,1,4.36178-6.68188c2.2273-.97444,5.33623-1.16,7.70273-1.43846V33.273a5.01228,5.01228,0,0,0-.51042-2.96973,2.7477,2.7477,0,0,0-2.2737-1.06724,3.08972,3.08972,0,0,0-3.29454,2.4593c-.0928.37121-.32481.74244-.696.74244l-3.94416-.41762a.71421.71421,0,0,1-.60323-.83523c.928-4.8258,5.24342-6.26426,9.14118-6.26426,1.99529,0,4.59379.51042,6.17147,2.04168,1.99528,1.85608,1.80967,4.36178,1.80967,7.0531v6.35708a5.74856,5.74856,0,0,0,1.53126,3.805c.27842.37121.32482.83522,0,1.06723-.88163.696-2.3665,1.99528-3.20173,2.69131Z" transform="translate(-26.08387 -4.35363)"/><path class="n" d="M585.80221,21.98037c-7.959,0-14.59122,3.37615-14.59122,13.56332,0,8.0704,4.45976,13.15231,14.79635,13.15231,12.16694,0,12.9468-8.01469,12.9468-8.01469h-5.89527s-1.2639,4.3156-7.411,4.3156c-5.00664,0-8.60749-3.38217-8.60749-8.12233H599.571V33.89965c0-4.68972-2.97719-11.91928-13.76883-11.91928Zm-.20588,3.80184c4.76575,0,8.01469,2.9196,8.01469,7.29542H577.17063C577.17063,28.43194,581.41171,25.78221,585.59633,25.78221Z" transform="translate(-26.08387 -4.35363)"/><path class="o" d="M599.5669,12.11576V43.58021c0,1.78594-.1276,4.29377-.1276,4.29377h5.62278s.20212-1.801.20212-3.44729c0,0,2.77808,4.34647,10.33208,4.34647,7.95447,0,13.35782-5.523,13.35782-13.435,0-7.36091-4.963-13.281-13.345-13.281-7.84908,0-10.288,4.23844-10.288,4.23844V12.11576ZM614.15774,25.949c5.40184,0,8.83708,4.00922,8.83708,9.38924,0,5.76919-3.96744,9.54317-8.79831,9.54317-5.76543,0-8.87548-4.50191-8.87548-9.492,0-4.64983,2.7905-9.44043,8.83671-9.44043Z" transform="translate(-26.08387 -4.35363)"/><path class="p" d="M642.9288,21.98037c-11.97348,0-12.74131,6.55583-12.74131,7.60368h5.95965s.31239-3.82743,6.37064-3.82743c3.93659,0,6.98717,1.80212,6.98717,5.266v1.233h-6.98717c-9.27595,0-14.17983,2.71371-14.17983,8.22057,0,5.41915,4.53089,8.36773,10.65426,8.36773,8.34515,0,11.03328-4.61106,11.03328-4.61106,0,1.83411.14114,3.6415.14114,3.6415h5.298s-.20512-2.24023-.20512-3.67349V31.81261C655.25947,23.68952,648.7074,21.98037,642.9288,21.98037ZM649.505,35.9547v1.644c0,2.14425-1.32336,7.47533-9.113,7.47533-4.26555,0-6.09439-2.12882-6.09439-4.59827,0-4.49212,6.15875-4.5211,15.20736-4.5211Z" transform="translate(-26.08387 -4.35363)"/><path class="q" d="M652.05005,23.00865h6.7045l9.62222,19.27756,9.6-19.27756h6.07368L666.56411,57.32871h-6.371l5.04579-9.56726-13.18882-24.7528Z" transform="translate(-26.08387 -4.35363)"/></svg>