<svg xmlns="http://www.w3.org/2000/svg" xmlns:xlink="http://www.w3.org/1999/xlink" viewBox="0 0 418.36725 38.3925"><defs><style>.a{fill:none;}.b{fill:#19366c;}.b,.c,.d,.e,.f,.g,.l,.m{fill-rule:evenodd;}.c{fill:#e1ac43;}.d{fill:#c12631;}.e{fill:#fff;}.f{fill:#2f567d;}.g{fill:#d7a03e;}.h{clip-path:url(#a);}.i{fill:#123479;}.j{fill:#1992cd;}.k{fill:#1b2c57;}.l{fill:#f3961a;}.m{fill:#040000;}.n{fill:#d83538;}.o{fill:#1d60ad;}.p{fill:#ebaa17;}.q{fill:#82b028;}</style><clipPath id="a" transform="translate(-145.88355 -16.18355)"><rect class="a" x="201.49868" y="-10.11111" width="267.57059" height="86.91757"/></clipPath></defs><title>12</title><path class="b" d="M145.88355,53.34357h57.25719v-36.227H145.88355v36.227Z" transform="translate(-145.88355 -16.18355)"/><path class="c" d="M174.55841,46.804a15.63424,15.63424,0,1,0-5.15794-11.60535A15.58666,15.58666,0,0,0,174.55841,46.804Z" transform="translate(-145.88355 -16.18355)"/><path class="c" d="M198.62788,43.91842a.49257.49257,0,0,1,.52192-.49129.4851.4851,0,0,1,.49129.49129.5117.5117,0,0,1-.49129.52192.51768.51768,0,0,1-.52192-.51341Zm.52192.39877a.402.402,0,0,0,.36847-.39909.3732.3732,0,0,0-.36847-.36847.38059.38059,0,0,0-.3991.36847A.4062.4062,0,0,0,199.1498,44.31719Zm-.0922-.15312h-.0922V43.7034h.18439a.185.185,0,0,1,.12283.03062c.03062.03128.06125.06158.06125.0922,0,.06158-.03063.12283-.09155.12283l.09155.215H199.211l-.06125-.1844h-.0922v.1844Zm0-.27627h.12282c.03062,0,.03062-.03128.03062-.06158a.03.03,0,0,0-.03062-.03062h-.12282v.0922Z" transform="translate(-145.88355 -16.18355)"/><path class="d" d="M179.62381,33.54131a15.5778,15.5778,0,0,0-.27627-1.65762H169.769a16.64571,16.64571,0,0,1,.46067-1.658h8.65758q-.28229-.844-.64474-1.658H170.874q.425-.8482.921-1.65795h5.52608a10.31417,10.31417,0,0,0-1.197-1.65762h-3.13183a15.87656,15.87656,0,0,1,1.56575-1.65763,15.65754,15.65754,0,1,0,0,23.21,20.34848,20.34848,0,0,0,1.59638-1.65763H172.992a16.35019,16.35019,0,0,1-1.19728-1.65762h5.5264a14.44728,14.44728,0,0,0,.92134-1.65828H170.874a13.28125,13.28125,0,0,1-.64474-1.65763h8.65758a16.82773,16.82773,0,0,0,.46067-1.65828,15.67622,15.67622,0,0,0,.27627-1.65762,14.96465,14.96465,0,0,0,0-3.31623Z" transform="translate(-145.88355 -16.18355)"/><path class="e" d="M198.62788,38.82207a.49258.49258,0,0,1,.52192-.4913.48511.48511,0,0,1,.49129.4913.5117.5117,0,0,1-.49129.52192.51736.51736,0,0,1-.52192-.51276Zm.52192.39909a.40252.40252,0,0,0,.36847-.39909.37342.37342,0,0,0-.36847-.36847.38059.38059,0,0,0-.3991.36847A.40665.40665,0,0,0,199.1498,39.22116Zm-.0922-.15345h-.0922V38.607h.18439a.185.185,0,0,1,.12283.03063c.03062.03128.06125.06158.06125.0922,0,.06157-.03063.12282-.09155.12282l.09155.215H199.211l-.06125-.18439h-.0922v.18439Zm0-.27594h.12282c.03062,0,.03062-.03128.03062-.06158a.03.03,0,0,0-.03062-.03062h-.12282v.0922Z" transform="translate(-145.88355 -16.18355)"/><path class="b" d="M169.247,39.71246a4.338,4.338,0,0,1-1.28948.215,1.23226,1.23226,0,0,1-1.28949-1.41263,4.19828,4.19828,0,0,1,.06125-.58284l.09188-.61412.0922-.52257.73694-4.42066h1.627l-.18407.98226h1.01321l-.24565,1.62733h-1.01288l-.46067,2.64021c0,.0922-.03063.18375-.03063.24565,0,.33785.18407.49129.58349.49129a2.68152,2.68152,0,0,0,.52192-.06157l-.215,1.41263Zm5.2498-.0619a5.77984,5.77984,0,0,1-1.75015.27692,2.60616,2.60616,0,0,1-2.88586-2.88619c0-2.21017,1.25886-3.86812,2.97806-3.86812a2.16889,2.16889,0,0,1,2.27174,2.36394,6.959,6.959,0,0,1-.21437,1.59638h-3.37748v.1844c0,.76724.4913,1.13571,1.47356,1.13571a4.16611,4.16611,0,0,0,1.78078-.3991l-.27627,1.59606Zm-1.01321-3.8375v-.30657a.75051.75051,0,0,0-.79819-.82882c-.55254,0-.921.3991-1.07446,1.13571h1.87265v-.00032Zm-17.22329,3.99159h-1.68858l.98259-6.10956-2.17987,6.10956h-1.16633l-.12283-6.07894-1.04416,6.07894h-1.627l1.32011-7.95191h2.42519L153.252,36.765l1.627-4.91228h2.70179Zm4.08347-2.88618c-.18407,0-.215-.03063-.33785-.03063-.95163,0-1.44293.36847-1.44293.98259a.59893.59893,0,0,0,.61379.67569c.82914,0,1.136-.676,1.167-1.62765Zm1.35073,2.88618H160.221l.03062-.67569a1.92,1.92,0,0,1-1.78077.79852,1.6243,1.6243,0,0,1-1.50418-1.78111,3.37026,3.37026,0,0,1,.12249-.82848c.27628-1.01354,1.28949-1.62766,2.82462-1.65828a6.43837,6.43837,0,0,1,.73661.03062,1.28518,1.28518,0,0,0,.06125-.42939c0-.42972-.33752-.55254-1.13571-.55254a6.57441,6.57441,0,0,0-1.41231.18407l-.21469.0922h-.12283l.24565-1.44293a6.278,6.278,0,0,1,1.96485-.33785c1.47356,0,2.24112.64474,2.24112,1.9036a5.37517,5.37517,0,0,1-.0922,1.25853l-.33752,2.3027-.06125.39909-.06125.3372v.215l-.031.18472Zm20.96892-6.38583a3.23179,3.23179,0,0,1,1.50418.42972l.27627-1.75016c-.15345-.06125-.1844-.06125-.3991-.15344l-.70631-.15345a2.77129,2.77129,0,0,0-.76724-.09187,3.06308,3.06308,0,0,0-1.842.33752,4.11244,4.11244,0,0,0-1.01288.82914l-.1844-.06158-1.74983,1.22823.0922-.67536h-1.81173L175.0497,39.805h1.6889l.61412-3.469a5.82772,5.82772,0,0,1,.36847-.64507.95039.95039,0,0,1,.92068-.39909h.12283c-.03063.36847-.06158.79851-.06158,1.22823,0,2.1183,1.19761,3.43873,3.03963,3.43873a4.74722,4.74722,0,0,0,1.47356-.24564l.30657-1.81173a3.20352,3.20352,0,0,1-1.4426.39909c-.98259,0-1.56608-.70566-1.56608-1.93389,0-1.71986.85943-2.94776,2.14924-2.94776Zm14.33678-1.56608-.36847,2.27207a1.724,1.724,0,0,0-1.5348-.89039,2.5502,2.5502,0,0,0-2.24112,1.44293l-1.07479-.64474.0922-.67537h-1.81172L189.018,39.80466h1.7192l.55222-3.469s.43-.4913.55287-.64507a.94619.94619,0,0,1,.73694-.39909,6.02936,6.02936,0,0,0-.30722,1.90392c0,1.627.85977,2.70114,2.08767,2.70114a1.95547,1.95547,0,0,0,1.56609-.73629l-.0922.64474h1.627l1.28981-7.95192h-1.75015v-.00032Zm-2.0564,6.41646c-.58349,0-.85976-.39909-.85976-1.25853,0-1.25853.52192-2.17955,1.31978-2.17955.58349,0,.89071.46035.89071,1.28949,0,1.25853-.55287,2.14859-1.35073,2.14859Zm-7.82909-1.35073c-.18375,0-.21438-.03063-.3372-.03063-.952,0-1.44325.36847-1.44325.98259a.59916.59916,0,0,0,.61411.67569c.82882,0,1.13571-.676,1.16634-1.62765Zm1.35073,2.88618h-1.4729l.03062-.67569a1.92022,1.92022,0,0,1-1.7811.79852,1.65038,1.65038,0,0,1-1.56543-1.78111c.03062-1.5348,1.16633-2.48676,3.00836-2.48676a6.444,6.444,0,0,1,.73694.03062,1.27894,1.27894,0,0,0,.06157-.42939c0-.42972-.33785-.55254-1.13636-.55254a6.31677,6.31677,0,0,0-1.412.18407l-.24565.0922h-.0922l.24565-1.44293a6.2795,6.2795,0,0,1,1.96485-.33785c1.47355,0,2.24112.64474,2.24112,1.9036a5.37574,5.37574,0,0,1-.0922,1.25853l-.3372,2.3027-.06157.39909-.06125.3372-.03127.215Zm-23.24034-5.06573a10.95582,10.95582,0,0,1,1.28949.0922l.24564-1.5045a14.69322,14.69322,0,0,0-1.5348-.12283c-1.873,0-2.51739,1.01322-2.51739,2.2105a1.81927,1.81927,0,0,0,1.25853,1.74983c.706.33784.82882.39974.82882.67569,0,.39909-.36847.64474-1.04384.64474a5.49245,5.49245,0,0,1-1.50451-.24565l-.18407,1.47356h.031l.3069.06157a1.42508,1.42508,0,0,0,.42972.06125,6.58154,6.58154,0,0,0,.98226.06125c1.873,0,2.67116-.70566,2.67116-2.14892a1.7942,1.7942,0,0,0-1.28948-1.78045c-.706-.33785-.79819-.36847-.79819-.67569,0-.3069.3069-.55254.82882-.55254Z" transform="translate(-145.88355 -16.18355)"/><path class="e" d="M184.90456,31.60742l-.27692,1.7192a3.23375,3.23375,0,0,0-1.50418-.42972c-1.28915,0-2.17922,1.22823-2.17922,2.97806,0,1.19761.61412,1.9339,1.59573,1.9339a3.2059,3.2059,0,0,0,1.44326-.3991l-.30657,1.81173a5.71773,5.71773,0,0,1-1.50418.215c-1.81173,0-2.94744-1.28981-2.94744-3.4081,0-2.85524,1.56543-4.81976,3.80655-4.81976a5.19159,5.19159,0,0,1,.76789.06125l.70567.18407c.215.09187.24564.09187.39942.15345Zm-5.43387,1.19728a.391.391,0,0,0-.1844-.03063c-.55221,0-.85976.27628-1.38135,1.04384l.15344-.98259H176.493l-1.01354,6.478h1.6889c.61412-3.96032.76724-4.636,1.59638-4.636h.12282a5.82957,5.82957,0,0,1,.64474-1.873h-.06157v.00032Zm-9.79394,6.41646a3.70283,3.70283,0,0,1-1.22823.215,1.2475,1.2475,0,0,1-1.35073-1.41264,4.19707,4.19707,0,0,1,.06125-.58284l.09187-.64507.0922-.49129.73694-4.42066h1.68857l-.18407.95163h.85976l-.24564,1.59638h-.85944l-.46067,2.67116c0,.12283-.03063.215-.03063.27627,0,.33785.18408.4913.5835.4913a1.65377,1.65377,0,0,0,.46067-.06158l-.21535,1.41231Zm-6.53929-4.32879a1.85955,1.85955,0,0,0,1.28948,1.78045c.706.33785.79819.43005.79819.73694,0,.3991-.30689.5835-.98259.5835a4.61235,4.61235,0,0,1-1.5045-.27627l-.24565,1.50417h.0922l.30722.06158a1.42365,1.42365,0,0,0,.42972.06125c.3991.03063.73694.06125.95164.06125,1.78078,0,2.60959-.675,2.60959-2.14892a1.77621,1.77621,0,0,0-1.19728-1.81173c-.70632-.30657-.79819-.39876-.79819-.675q0-.55269.82881-.55254a9.71315,9.71315,0,0,1,1.22791.12283l.24564-1.50451a12.97867,12.97867,0,0,0-1.50417-.12282c-1.90328,0-2.548.98258-2.548,2.17987Zm34.75381,4.421h-1.627l.09155-.64474a2.01936,2.01936,0,0,1-1.56608.70567c-1.22758,0-2.05639-1.04351-2.05639-2.67052,0-2.14924,1.25853-3.96064,2.76271-3.96064a1.9029,1.9029,0,0,1,1.627.89039l.36847-2.27207h1.6889l-1.28915,7.95192Zm-2.518-1.53545c.79852,0,1.35073-.89006,1.35073-2.17922,0-.79852-.30656-1.25886-.89006-1.25886-.76723,0-1.32043.89006-1.32043,2.17955C194.51346,37.34851,194.78974,37.77791,195.37322,37.77791Zm-20.50824,1.382a5.6491,5.6491,0,0,1-1.74983.27628A2.58016,2.58016,0,0,1,170.22929,36.55c0-2.24079,1.25886-3.86812,2.97806-3.86812a2.16889,2.16889,0,0,1,2.27174,2.36394,8.776,8.776,0,0,1-.18375,1.59638h-3.37715a.45358.45358,0,0,0-.031.1844c0,.73694.4913,1.1357,1.50451,1.1357a4.13451,4.13451,0,0,0,1.75015-.39909Zm-.95131-3.83814v-.33752a.73654.73654,0,0,0-.79819-.82882c-.52159,0-.921.42972-1.07446,1.16634Zm-17.2233,3.99159H155.0018l.98226-6.10956-2.17987,6.10956h-1.16633l-.12283-6.07894-1.04383,6.07894h-1.56576l1.32011-7.95192h2.42519l.0922,4.91229,1.62733-4.91229h2.64021l-1.3201,7.95192Zm4.206-2.88618a2.04317,2.04317,0,0,0-.39909-.03063c-.95164,0-1.44293.33785-1.44293.98259a.61428.61428,0,0,0,.61379.67569c.70631,0,1.19761-.67569,1.22823-1.62766Zm1.22791,2.88618h-1.41231l.031-.67569a2.11565,2.11565,0,0,1-1.78078.76724,1.564,1.564,0,0,1-1.53513-1.74982c0-1.56543,1.07479-2.48677,2.97806-2.48677a5.459,5.459,0,0,1,.67537.03062,1.05106,1.05106,0,0,0,.06124-.39877c0-.42971-.27627-.58349-1.07446-.58349a4.922,4.922,0,0,0-1.4123.18408l-.24565.06124-.15345.03063.24565-1.44293a6.92862,6.92862,0,0,1,2.0261-.33785c1.47355,0,2.24112.64474,2.24112,1.873a6.84615,6.84615,0,0,1-.15378,1.28948l-.33752,2.30269-.06124.3991-.031.33719-.03062.215-.0303.185Zm25.54335-2.88618a2.0398,2.0398,0,0,0-.39909-.03063c-.952,0-1.44326.33785-1.44326.98259a.61452.61452,0,0,0,.61412.67569c.67536,0,1.1976-.67569,1.22823-1.62766Zm1.22791,2.88618h-1.412l.03062-.67569a2.15484,2.15484,0,0,1-1.7811.76724,1.586,1.586,0,0,1-1.56543-1.74982c0-1.56543,1.10541-2.48677,3.00836-2.48677a5.45123,5.45123,0,0,1,.675.03062,1.04572,1.04572,0,0,0,.06158-.39877c0-.42971-.27628-.58349-1.07479-.58349a4.91971,4.91971,0,0,0-1.412.18408l-.24564.06124-.15345.03063.24565-1.44293a6.92694,6.92694,0,0,1,2.02609-.33785c1.47356,0,2.24112.64474,2.24112,1.873a6.838,6.838,0,0,1-.15344,1.28948l-.33785,2.30269-.06125.3991-.06157.33719-.03063.215v.185h.00065Zm4.54414-6.50866a.23239.23239,0,0,0-.1541-.03063c-.55222,0-.89006.27628-1.412,1.04384l.15345-.98259h-1.53481l-1.04416,6.478h1.7192c.58349-3.96032.76789-4.636,1.56608-4.636h.12283a6.67486,6.67486,0,0,1,.64474-1.873h-.06125v.00032Z" transform="translate(-145.88355 -16.18355)"/><path class="f" d="M269.75961,20.46742c0-2.86335-1.48808-4.28387-4.37469-4.28387H214.51914a4.04423,4.04423,0,0,0-3.20176,1.17229,4.16605,4.16605,0,0,0-1.17262,3.11158V49.50818a4.19973,4.19973,0,0,0,1.17262,3.11126,4.34355,4.34355,0,0,0,3.20176,1.17262h50.86578c2.88661,0,4.37469-1.44251,4.37469-4.28356ZM265.38492,16.86c2.38984,0,3.60771,1.21755,3.60771,3.60739V49.50818c0,2.41215-1.21787,3.60708-3.60771,3.60708H214.51914a3.48024,3.48024,0,0,1-3.69757-3.60739V20.46742c0-2.38984,1.19492-3.60739,3.69757-3.60739Z" transform="translate(-145.88355 -16.18355)"/><path class="f" d="M214.92477,18.52846a2.68009,2.68009,0,0,0-1.91633.49613,3.24132,3.24132,0,0,0-.42827,1.939V27.254h54.744V20.96356a2.1438,2.1438,0,0,0-2.43541-2.4351Z" transform="translate(-145.88355 -16.18355)"/><path class="g" d="M212.58018,48.92187c0,1.6678.789,2.525,2.34459,2.525h49.964a2.1993,2.1993,0,0,0,2.43542-2.525V42.63116h-54.744Z" transform="translate(-145.88355 -16.18355)"/><path class="f" d="M230.708,29.93726a1.159,1.159,0,0,1-.15773.67649l-3.9458,6.877-.24822-8.38772h-6.313l2.11932,1.01457a1.73065,1.73065,0,0,1,.92439,1.5107l.586,8.90647h3.089l7.39577-11.43174h-3.78775A1.12212,1.12212,0,0,1,230.708,29.93726Zm25.52354-.49613.24759-.3384h-3.85562c.1351.13511.18035.203.18035.24791a4.33266,4.33266,0,0,1-.18035.42826l-5.61423,10.23618c-.1351.18036-.27085.33841-.42826.51908h3.17913l-.15805-.3384a4.84764,4.84764,0,0,1,.49614-1.60056l.67648-1.2628H254.044c.13574,1.05982.22592,1.93928.27085,2.59346l-.27085.60862h3.94579l-.5863-.85684-1.172-10.2365Zm-2.34523,6.29071h-2.34492l2.00652-3.85561Zm-9.74037-7.2151a5.19905,5.19905,0,0,0-3.17913,1.01457,2.56179,2.56179,0,0,0-1.5107,2.25506,3.61941,3.61941,0,0,0,1.08212,2.683l2.1875,1.51038c.78929.564,1.17262,1.05981,1.17262,1.511a1.37278,1.37278,0,0,1-.58631,1.10474,2.11223,2.11223,0,0,1-1.353.42826,10.53688,10.53688,0,0,1-4.01334-1.60056v2.0967a8.30121,8.30121,0,0,0,4.26125,1.33066,4.93466,4.93466,0,0,0,3.36012-1.17261,2.958,2.958,0,0,0,.33777-4.93806l-2.09733-1.5107c-.69816-.56369-1.08181-1.05982-1.08181-1.44283,0-.87915.51844-1.33035,1.57826-1.33035a7.09014,7.09014,0,0,1,3.20143,1.26279l.4289-2.18718a7.51287,7.51287,0,0,0-3.78838-1.01489Zm-8.3874,12.01774c-.04525-.47351-.13543-.90177-.18068-1.353l2.86368-9.24425.67648-.83421h-4.12615c.04525.203.09018.47351.13543.67649a3.51493,3.51493,0,0,1-.04525.67648l-2.86335,9.15406-.58631.92472h4.12615Z" transform="translate(-145.88355 -16.18355)"/><g class="h"><path class="i" d="M297.46794,20.64248c-1.37376-1.56579-3.857-2.23707-7.03373-2.23707h-9.21993a1.32041,1.32041,0,0,0-1.30482,1.11361l-3.83732,24.34929a.79112.79112,0,0,0,.78207.9142h5.692l1.42956-9.06728-.04432.28394a1.3163,1.3163,0,0,1,1.29908-1.11361h2.70484c5.31366,0,9.47432-2.15829,10.68969-8.40174q.05417-.277.09438-.54c.36108-2.30764-.00246-3.87836-1.25066-5.30053" transform="translate(-145.88355 -16.18355)"/><path class="j" d="M367.15036,32.22914c-.34795,2.28467-2.09264,2.28467-3.77988,2.28467h-.96015l.67375-4.26571a.53005.53005,0,0,1,.52357-.44725h.44068c1.1489,0,2.23379,0,2.79347.65406a2.12736,2.12736,0,0,1,.30856,1.77423m-.73447-5.96115H360.051a.88628.88628,0,0,0-.87481.74678l-2.5719,16.32013a.531.531,0,0,0,.52357.613H360.394a.61914.61914,0,0,0,.61139-.52193l.73037-4.62843a.8846.8846,0,0,1,.87316-.74678h2.01386c4.19349,0,6.61274-2.02781,7.24464-6.04978a4.90139,4.90139,0,0,0-.81161-4.10732c-.90517-1.06355-2.50953-1.62651-4.6391-1.62651" transform="translate(-145.88355 -16.18355)"/><path class="i" d="M321.7524,32.22914c-.348,2.28467-2.09264,2.28467-3.7807,2.28467h-.96015l.67375-4.26571a.53005.53005,0,0,1,.52357-.44725h.44068c1.1489,0,2.23379,0,2.79347.65406a2.12426,2.12426,0,0,1,.30938,1.77423m-.73447-5.96115H314.653a.88533.88533,0,0,0-.874.74678L311.20632,43.3349a.53014.53014,0,0,0,.52357.613h3.03966a.88449.88449,0,0,0,.87316-.74679l.69509-4.40275a.88386.88386,0,0,1,.87316-.74678h2.01386c4.19348,0,6.61274-2.02863,7.24463-6.0506a4.90139,4.90139,0,0,0-.81161-4.10732c-.90517-1.06355-2.50953-1.62651-4.6391-1.62651m14.7765,11.82136a3.399,3.399,0,0,1-3.44014,2.91082,2.36142,2.36142,0,0,1-2.5243-2.96334,3.41013,3.41013,0,0,1,3.41552-2.933,2.56879,2.56879,0,0,1,2.03191.83049,2.62364,2.62364,0,0,1,.517,2.155m4.24765-5.93325H336.995a.531.531,0,0,0-.52521.44889l-.13295.85183-.21337-.30856c-.65979-.95769-2.13121-1.27856-3.60016-1.27856a7.00858,7.00858,0,0,0-6.80313,6.1302,5.75415,5.75415,0,0,0,1.135,4.68341,4.76927,4.76927,0,0,0,3.83815,1.54937,5.8358,5.8358,0,0,0,4.21975-1.743l-.13623.84691a.53014.53014,0,0,0,.52439.613h2.74423a.88461.88461,0,0,0,.874-.74679l1.64785-10.43283a.531.531,0,0,0-.52521-.613" transform="translate(-145.88355 -16.18355)"/><path class="j" d="M381.1932,38.08853a3.399,3.399,0,0,1-3.44014,2.91082,2.36141,2.36141,0,0,1-2.5243-2.96334,3.40951,3.40951,0,0,1,3.41552-2.933,2.56881,2.56881,0,0,1,2.03191.83049,2.62371,2.62371,0,0,1,.517,2.155m4.24764-5.93325H382.393a.531.531,0,0,0-.52521.44889l-.13295.85183-.21336-.30856c-.6598-.95769-2.13121-1.27856-3.60016-1.27856a7.00984,7.00984,0,0,0-6.80313,6.1302,5.75441,5.75441,0,0,0,1.13578,4.68341,4.76925,4.76925,0,0,0,3.83814,1.54937,5.83659,5.83659,0,0,0,4.22057-1.743l-.13623.84691a.52854.52854,0,0,0,.52274.613h2.74342a.88608.88608,0,0,0,.8748-.74679l1.64784-10.43283a.531.531,0,0,0-.52521-.613" transform="translate(-145.88355 -16.18355)"/><path class="i" d="M356.276,32.1561h-3.06428a.88089.88089,0,0,0-.73037.38816L348.25506,38.768l-1.79146-5.98085a.88629.88629,0,0,0-.84772-.63189h-3.01094a.53094.53094,0,0,0-.50223.70247l3.37284,9.90187-3.1726,4.47661a.531.531,0,0,0,.43329.83706h3.061a.88608.88608,0,0,0,.72628-.38L356.711,32.98905a.53014.53014,0,0,0-.43494-.83295" transform="translate(-145.88355 -16.18355)"/><path class="j" d="M389.0328,26.71688l-2.61293,16.61883a.531.531,0,0,0,.5244.613h2.62688a.88534.88534,0,0,0,.874-.74678l2.576-16.32095a.53013.53013,0,0,0-.5244-.613H389.5572a.52933.52933,0,0,0-.5244.44807" transform="translate(-145.88355 -16.18355)"/><path class="i" d="M297.46794,20.64248c-1.37376-1.56579-3.857-2.23707-7.03373-2.23707h-9.21993a1.32041,1.32041,0,0,0-1.30482,1.11361l-3.83732,24.34929a.79112.79112,0,0,0,.78207.9142h5.692l1.42956-9.06728-.04432.28394a1.3163,1.3163,0,0,1,1.29908-1.11361h2.70484c5.31366,0,9.47432-2.15829,10.68969-8.40174q.05417-.277.09438-.54c.36108-2.30764-.00246-3.87836-1.25066-5.30053" transform="translate(-145.88355 -16.18355)"/><path class="i" d="M285.51117,25.9742a1.15547,1.15547,0,0,1,1.13987-.97411h7.22823a15.19622,15.19622,0,0,1,2.384.17234,10.01721,10.01721,0,0,1,1.18173.26424,6.53013,6.53013,0,0,1,1.27282.50716c.36272-2.30847-.00164-3.87836-1.24984-5.30135-1.37458-1.565-3.857-2.23625-7.03373-2.23625h-9.22075a1.32042,1.32042,0,0,0-1.30318,1.11361l-3.839,24.34683a.79112.79112,0,0,0,.78125.915h5.6928l1.42956-9.06811Z" transform="translate(-145.88355 -16.18355)"/><path class="j" d="M298.7186,25.943q-.04226.27084-.09438.54c-1.21537,6.24263-5.376,8.40174-10.68969,8.40174h-2.70566a1.31467,1.31467,0,0,0-1.29826,1.11361l-1.38524,8.78252-.39391,2.49147a.6926.6926,0,0,0,.68441.801h4.7983a1.15509,1.15509,0,0,0,1.13987-.97411l.04678-.24455.90435-5.73137.05744-.31676a1.15465,1.15465,0,0,1,1.1407-.97411h.71806c4.64812,0,8.28767-1.88748,9.35123-7.34968.44314-2.28138.21336-4.18774-.96016-5.52621a4.58221,4.58221,0,0,0-1.31385-1.01349" transform="translate(-145.88355 -16.18355)"/><path class="k" d="M297.44578,25.43668q-.27821-.08249-.57363-.14772c-.19695-.0435-.40048-.08206-.60892-.11489a14.90427,14.90427,0,0,0-2.38479-.1748H286.651a1.15219,1.15219,0,0,0-1.13987.97493l-1.53624,9.741-.04432.28312a1.31469,1.31469,0,0,1,1.29826-1.11362h2.70566c5.31366,0,9.47432-2.15829,10.68969-8.40174.03611-.18464.06648-.36354.09438-.54a6.5636,6.5636,0,0,0-.99954-.42181c-.08946-.02954-.18055-.05745-.27328-.08535" transform="translate(-145.88355 -16.18355)"/></g><path class="l" d="M453.36788,49.05868c-4.86827,3.59957-11.94938,5.51737-18.05684,5.51737a32.73938,32.73938,0,0,1-22.06946-8.40882c-.44257-.41307-.059-.97365.50157-.64911A44.3478,44.3478,0,0,0,435.81262,51.36a43.91082,43.91082,0,0,0,16.84715-3.452c.82612-.32455,1.50473.56059.70811,1.15068Z" transform="translate(-145.88355 -16.18355)"/><path class="l" d="M455.4037,46.7278c-.6196-.79662-4.13065-.38355-5.69439-.177-.47207.059-.56058-.35405-.118-.6491,2.80294-1.97681,7.37615-1.38672,7.90723-.73762s-.14752,5.25182-2.77343,7.43517c-.41306.32456-.79663.14753-.6196-.295C454.69559,50.829,456.0233,47.55393,455.4037,46.7278Z" transform="translate(-145.88355 -16.18355)"/><path class="m" d="M449.79782,32.0345V30.1167a.449.449,0,0,1,.47208-.47207h8.55634a.49165.49165,0,0,1,.50158.47207v1.62276c0,.26554-.236.6196-.6491,1.20969l-4.4257,6.314a9.61215,9.61215,0,0,1,4.86827,1.03266.879.879,0,0,1,.44257.73761v2.03582c0,.29505-.29505.6196-.6196.44257a9.76061,9.76061,0,0,0-9.02842.02951.46315.46315,0,0,1-.6196-.44257V41.15143a2.20478,2.20478,0,0,1,.32455-1.2982l5.13381-7.34665h-4.4552a.49167.49167,0,0,1-.50159-.47208ZM418.61143,43.92486H416.015a.53279.53279,0,0,1-.47207-.44256V30.1462a.49166.49166,0,0,1,.50158-.47208h2.41937a.48087.48087,0,0,1,.47208.44257v1.74077h.059a3.56175,3.56175,0,0,1,6.78606,0,3.69772,3.69772,0,0,1,3.59957-2.47838,3.65736,3.65736,0,0,1,3.00947,1.47523c.82613,1.12117.64911,2.74393.64911,4.18966V43.4823a.49166.49166,0,0,1-.50158.47207h-2.56691a.50693.50693,0,0,1-.47208-.47207V36.40118a17.69442,17.69442,0,0,0-.059-2.50789,1.36876,1.36876,0,0,0-1.53424-1.15068,1.73745,1.73745,0,0,0-1.56375,1.09168,8.17553,8.17553,0,0,0-.236,2.5669V43.4823a.49166.49166,0,0,1-.50158.47208h-2.59641a.50693.50693,0,0,1-.47208-.47208V36.40119c0-1.47523.236-3.68808-1.59324-3.68808-1.8588,0-1.79979,2.12434-1.79979,3.68808V43.4823a.5182.5182,0,0,1-.53108.44257ZM466.704,29.37909c3.86511,0,5.95994,3.30452,5.95994,7.52368,0,4.07163-2.30136,7.31714-5.95994,7.31714-3.77659,0-5.84191-3.30452-5.84191-7.43517-.02951-4.16015,2.06532-7.40566,5.84191-7.40566Zm0,2.74392c-1.9178,0-2.03582,2.62591-2.03582,4.24867s-.0295,5.10429,2.00632,5.10429c2.00631,0,2.12433-2.80293,2.12433-4.5142a12.91084,12.91084,0,0,0-.38355-3.54056A1.63142,1.63142,0,0,0,466.704,32.123Zm10.94622,11.80185h-2.5964a.50693.50693,0,0,1-.47208-.47207V30.0872a.51.51,0,0,1,.50158-.44257h2.41939a.50449.50449,0,0,1,.47207.38355V32.064h.059c.73761-1.82929,1.74077-2.68492,3.54055-2.68492a3.43593,3.43593,0,0,1,3.039,1.56374c.67861,1.06217.67861,2.86195.67861,4.16015v8.40882a.48545.48545,0,0,1-.50159.41307h-2.5964a.53683.53683,0,0,1-.47208-.41307V36.25365c0-1.47523.177-3.59957-1.62275-3.59957a1.708,1.708,0,0,0-1.50474,1.06217,6.12524,6.12524,0,0,0-.41306,2.5374v7.19913a.54033.54033,0,0,1-.53108.47208Zm-34.66794-6.373a5.27548,5.27548,0,0,1-.47207,2.77344,2.08812,2.08812,0,0,1-1.79979,1.18018c-1.00315,0-1.59325-.76712-1.59325-1.88829,0-2.21285,1.97682-2.62591,3.86511-2.62591Zm2.62591,6.3435a.53345.53345,0,0,1-.6196.059,6.51516,6.51516,0,0,1-1.50473-1.74077,5.16871,5.16871,0,0,1-4.27818,1.88829,3.69513,3.69513,0,0,1-3.89461-4.04213,4.4165,4.4165,0,0,1,2.77343-4.24867,18.42043,18.42043,0,0,1,4.89777-.91464v-.32456a3.18693,3.18693,0,0,0-.32455-1.88829,1.74708,1.74708,0,0,0-1.44572-.6786,1.96459,1.96459,0,0,0-2.09483,1.56374c-.059.236-.20654.47207-.44257.47207l-2.5079-.26554a.45411.45411,0,0,1-.38355-.53108c.59009-3.06848,3.334-3.98312,5.81241-3.98312a5.83913,5.83913,0,0,1,3.92411,1.2982c1.2687,1.18019,1.15068,2.77343,1.15068,4.48471v4.04214a3.6552,3.6552,0,0,0,.97365,2.41938c.177.236.20654.53108,0,.6786-.56059.44257-1.50474,1.2687-2.03582,1.71127Zm-36.70375-6.3435a5.27549,5.27549,0,0,1-.47208,2.77344,2.0881,2.0881,0,0,1-1.79978,1.18018c-1.00316,0-1.59325-.76712-1.59325-1.88829,0-2.21285,1.97681-2.62591,3.86511-2.62591Zm2.5964,6.3435a.53344.53344,0,0,1-.61959.059,6.515,6.515,0,0,1-1.50474-1.74077,5.16872,5.16872,0,0,1-4.27817,1.88829,3.69513,3.69513,0,0,1-3.89461-4.04213,4.4165,4.4165,0,0,1,2.77343-4.24867,18.42036,18.42036,0,0,1,4.89777-.91464v-.32456a3.187,3.187,0,0,0-.32455-1.88829,1.74711,1.74711,0,0,0-1.44573-.6786,1.9646,1.9646,0,0,0-2.09483,1.56374c-.059.236-.20653.47207-.44257.47207l-2.50789-.26554a.45412.45412,0,0,1-.38356-.53108c.59009-3.06848,3.334-3.98312,5.81241-3.98312a5.83917,5.83917,0,0,1,3.92412,1.2982c1.2687,1.18019,1.15067,2.77343,1.15067,4.48471v4.04214a3.65516,3.65516,0,0,0,.97366,2.41938c.177.236.20653.53108,0,.6786-.56059.44257-1.50474,1.2687-2.03582,1.71127Z" transform="translate(-145.88355 -16.18355)"/><path class="n" d="M501.77976,27.39149c-5.06071,0-9.27781,2.14672-9.27781,8.62422,0,5.13155,2.83573,8.36288,9.40824,8.36288,7.73634,0,8.23221-5.09613,8.23221-5.09613h-3.7485s-.80365,2.74407-4.71226,2.74407a5.13142,5.13142,0,0,1-5.47306-5.16458h14.32607v-1.8916c0-2.982-1.893-7.57886-8.75489-7.57886Zm-.13091,2.41739c3.0303,0,5.09613,1.85642,5.09613,4.63879h-10.4536C496.29138,31.49371,498.98807,29.80888,501.64885,29.80888Z" transform="translate(-145.88355 -16.18355)"/><path class="o" d="M510.532,21.11909V41.12572c0,1.13558-.08113,2.73019-.08113,2.73019h3.57524s.12852-1.14516.12852-2.192c0,0,1.76643,2.7637,6.56963,2.7637a8.11833,8.11833,0,0,0,8.49356-8.54261,8.07313,8.07313,0,0,0-8.48542-8.44473c-4.99083,0-6.54164,2.695-6.54164,2.695V21.11909Zm9.27757,8.79581c3.43475,0,5.61905,2.54926,5.61905,5.97014,0,3.66833-2.5227,6.068-5.5944,6.068-3.66594,0-5.64346-2.86253-5.64346-6.03547,0-2.95659,1.77434-6.00268,5.61881-6.00268Z" transform="translate(-145.88355 -16.18355)"/><path class="p" d="M538.10363,27.39149c-7.61332,0-8.10154,4.16851-8.10154,4.83479h3.78943s.19864-2.43367,4.05077-2.43367c2.50307,0,4.44278,1.14587,4.44278,3.34836v.784h-4.44278c-5.8981,0-9.01623,1.72551-9.01623,5.227,0,3.44576,2.881,5.32061,6.7745,5.32061,5.30625,0,7.01549-2.93194,7.01549-2.93194,0,1.16622.08975,2.31545.08975,2.31545h3.3687s-.13043-1.42445-.13043-2.33579V33.6433C545.94407,28.47825,541.778,27.39149,538.10363,27.39149Zm4.18144,8.88556V37.3224c0,1.36342-.84146,4.75319-5.79447,4.75319-2.71224,0-3.87511-1.35361-3.87511-2.92381,0-2.85631,3.916-2.87474,9.66958-2.87474Z" transform="translate(-145.88355 -16.18355)"/><path class="q" d="M543.90337,28.04531h4.26305l6.11827,12.25762,6.10416-12.25761h3.86194L553.13212,49.86769h-4.051l3.20835-6.08334-8.38609-15.739Z" transform="translate(-145.88355 -16.18355)"/></svg>