<svg xmlns="http://www.w3.org/2000/svg" xmlns:xlink="http://www.w3.org/1999/xlink" viewBox="0 0 704.9027 64.68713"><defs><style>.a{fill:none;}.b{fill:#19366c;}.b,.c,.d,.e,.f,.g,.l,.m{fill-rule:evenodd;}.c{fill:#e1ac43;}.d{fill:#c12631;}.e{fill:#fff;}.f{fill:#2f567d;}.g{fill:#d7a03e;}.h{clip-path:url(#a);}.i{fill:#123479;}.j{fill:#1992cd;}.k{fill:#1b2c57;}.l{fill:#f3961a;}.m{fill:#040000;}.n{fill:#d83538;}.o{fill:#1d60ad;}.p{fill:#ebaa17;}.q{fill:#82b028;}</style><clipPath id="a" transform="translate(-2.61582 -2.42801)"><rect class="a" x="96.3212" y="-41.87559" width="450.82695" height="146.44652"/></clipPath></defs><title>2</title><path class="b" d="M2.61582,65.03856H99.08789V4H2.61582V65.03855Z" transform="translate(-2.61582 -2.42801)"/><path class="c" d="M50.9298,54.02a26.342,26.342,0,1,0-8.69055-19.55373A26.26181,26.26181,0,0,0,50.9298,54.02Z" transform="translate(-2.61582 -2.42801)"/><path class="c" d="M91.48421,49.15822a.82993.82993,0,0,1,.87937-.82777.81736.81736,0,0,1,.82778.82777.86217.86217,0,0,1-.82778.87938.87225.87225,0,0,1-.87937-.865Q91.48414,49.1654,91.48421,49.15822Zm.87937.67188a.67739.67739,0,0,0,.62083-.67243.6288.6288,0,0,0-.62083-.62083.64125.64125,0,0,0-.67243.62083A.68441.68441,0,0,0,92.36358,49.8301Zm-.15534-.258h-.15535v-.77618h.31068a.3117.3117,0,0,1,.207.0516c.05159.0527.1032.10375.1032.15534,0,.10375-.0516.20695-.15425.20695l.15425.36229h-.207l-.1032-.31069h-.15534v.31069Zm0-.46549h.20694c.05159,0,.05159-.05269.05159-.10375a.05053.05053,0,0,0-.05159-.0516h-.20694v.15535Z" transform="translate(-2.61582 -2.42801)"/><path class="d" d="M59.46445,31.67394A26.248,26.248,0,0,0,58.999,28.881H42.86009a28.04454,28.04454,0,0,1,.77618-2.79346H58.22334q-.47561-1.42207-1.08632-2.79347H44.722q.71609-1.42914,1.55181-2.79347h9.31083a17.37751,17.37751,0,0,0-2.01675-2.79291H48.29113a26.7515,26.7515,0,0,1,2.63812-2.79292A26.376,26.376,0,1,0,33.238,60.84919a26.16989,26.16989,0,0,0,17.69123-6.828A34.2846,34.2846,0,0,0,53.619,51.22822H48.29058a27.54862,27.54862,0,0,1-2.01729-2.79291h9.31138a24.3387,24.3387,0,0,0,1.55235-2.794H44.722a22.3768,22.3768,0,0,1-1.08631-2.79291H58.22279a28.358,28.358,0,0,0,.77617-2.794,26.41086,26.41086,0,0,0,.46549-2.79292,25.21566,25.21566,0,0,0,0-5.58748Z" transform="translate(-2.61582 -2.42801)"/><path class="e" d="M91.48421,40.57143a.82993.82993,0,0,1,.87937-.82778.81736.81736,0,0,1,.82778.82778.86217.86217,0,0,1-.82778.87937.87168.87168,0,0,1-.87937-.86393Q91.48414,40.57914,91.48421,40.57143Zm.87937.67243a.67821.67821,0,0,0,.62083-.67243.62916.62916,0,0,0-.62083-.62083.64125.64125,0,0,0-.67243.62083A.68516.68516,0,0,0,92.36358,41.24386Zm-.15534-.25855h-.15535v-.77618h.31068a.3117.3117,0,0,1,.207.0516c.05159.0527.1032.10375.1032.15535,0,.10375-.0516.20694-.15425.20694l.15425.36229h-.207l-.1032-.31069h-.15534v.31069Zm0-.46494h.20694c.05159,0,.05159-.05269.05159-.10374a.05053.05053,0,0,0-.05159-.0516h-.20694v.15534Z" transform="translate(-2.61582 -2.42801)"/><path class="b" d="M41.98072,42.07163a7.30842,7.30842,0,0,1-2.17264.36229,2.07622,2.07622,0,0,1-2.17264-2.38012,7.07258,7.07258,0,0,1,.1032-.982l.1548-1.03472.15534-.88047,1.24166-7.44833h2.74133l-.31015,1.655h1.70715l-.41388,2.74187h-1.7066l-.77618,4.44847c0,.15535-.0516.3096-.0516.41389,0,.56923.31014.82778.98312.82778a4.51789,4.51789,0,0,0,.87937-.10375l-.36229,2.38013Zm8.84534-.10429a9.7381,9.7381,0,0,1-2.94882.46658c-3.052,0-4.86236-1.65555-4.86236-4.86291,0-3.72389,2.121-6.51736,5.0177-6.51736a3.65435,3.65435,0,0,1,3.82764,3.983,11.72529,11.72529,0,0,1-.36119,2.68973H45.80835v.31069c0,1.29271.82778,1.91354,2.48278,1.91354a7.01938,7.01938,0,0,0,3.00042-.67243l-.46549,2.68918Zm-1.70715-6.46576V34.985a1.26452,1.26452,0,0,0-1.34486-1.39646c-.931,0-1.55181.67243-1.81035,1.91354h3.15521v-.00054ZM20.09956,42.227H17.25449L18.91,31.933,15.2372,42.227H13.27206l-.20695-10.24235L11.30582,42.227H8.5645l2.22423-13.39811h4.08618l.1559,8.27666,2.74132-8.27666h4.55221Zm6.88019-4.86291c-.31014,0-.36228-.0516-.56923-.0516-1.6034,0-2.43118.62083-2.43118,1.65555a1.00913,1.00913,0,0,0,1.03417,1.13846c1.397,0,1.9141-1.139,1.96624-2.74241ZM29.25559,42.227H26.77281l.0516-1.13847A3.235,3.235,0,0,1,23.824,42.43392a2.73677,2.73677,0,0,1-2.53438-3.001,5.67778,5.67778,0,0,1,.2064-1.39591c.46548-1.7077,2.17263-2.74242,4.75916-2.794a10.8462,10.8462,0,0,1,1.24111.0516,2.1654,2.1654,0,0,0,.1032-.72348c0-.724-.56868-.931-1.91355-.931a11.07634,11.07634,0,0,0-2.37957.31014l-.36175.15534h-.20694l.41389-2.43118a10.578,10.578,0,0,1,3.31055-.56923c2.48278,0,3.776,1.08631,3.776,3.20735a9.05735,9.05735,0,0,1-.15534,2.12049l-.56868,3.87979-.1032.67243-.1032.56814v.36229l-.05215.31124ZM64.5859,31.46754a5.44544,5.44544,0,0,1,2.53438.724l.46548-2.94881c-.25854-.1032-.31069-.1032-.67243-.25854l-1.19006-.25855a4.66926,4.66926,0,0,0-1.29272-.15479,5.161,5.161,0,0,0-3.10361.56868,6.92969,6.92969,0,0,0-1.7066,1.397l-.31069-.10375-2.94826,2.06944.15534-1.13792H53.46417l-1.7066,10.86318h2.84562l1.03472-5.84493a9.81881,9.81881,0,0,1,.62083-1.08686A1.60129,1.60129,0,0,1,57.81,34.6233h.20694c-.0516.62083-.10374,1.3454-.10374,2.06943,0,3.5691,2.01784,5.79388,5.12144,5.79388a7.99875,7.99875,0,0,0,2.48278-.41388l.51654-3.05256a5.39753,5.39753,0,0,1-2.43063.67243c-1.65555,0-2.63867-1.189-2.63867-3.25841,0-2.89776,1.44806-4.96665,3.62124-4.96665Zm24.1559-2.63867L88.121,32.65706a2.90479,2.90479,0,0,0-2.586-1.50021A4.29683,4.29683,0,0,0,81.759,33.588l-1.81089-1.08631.15535-1.13792H77.05085L75.29264,42.227h2.89667l.93042-5.84493s.72459-.82778.93153-1.08687a1.59422,1.59422,0,0,1,1.24166-.67243,10.15862,10.15862,0,0,0-.51763,3.20791c0,2.74132,1.44861,4.55112,3.5175,4.55112a3.29472,3.29472,0,0,0,2.63867-1.24057l-.15534,1.08631h2.74132l2.17318-13.3981H88.74181v-.00055ZM85.277,39.6399c-.98312,0-1.44861-.67242-1.44861-2.12048,0-2.12049.87937-3.6723,2.22368-3.6723.98312,0,1.50075.77563,1.50075,2.17264,0,2.12049-.93152,3.62014-2.27583,3.62014ZM72.08583,37.36407c-.30959,0-.36119-.0516-.56813-.0516-1.604,0-2.43173.62083-2.43173,1.65555a1.00952,1.00952,0,0,0,1.03472,1.13846c1.39646,0,1.91355-1.139,1.96514-2.74241ZM74.36166,42.227H71.88l.05159-1.13847a3.23536,3.23536,0,0,1-3.001,1.34541A2.78069,2.78069,0,0,1,66.293,39.433c.0516-2.586,1.96514-4.18993,5.06875-4.18993a10.8553,10.8553,0,0,1,1.24166.0516,2.15468,2.15468,0,0,0,.10375-.72348c0-.724-.56924-.931-1.91465-.931a10.64263,10.64263,0,0,0-2.379.31014l-.41389.15534H67.8443l.41389-2.43118a10.58057,10.58057,0,0,1,3.31056-.56923c2.48277,0,3.776,1.08631,3.776,3.20735a9.05735,9.05735,0,0,1-.15534,2.12049l-.56814,3.87979-.10374.67243-.1032.56814-.0527.36229Zm-39.1574-8.5352a18.45865,18.45865,0,0,1,2.17264.15534l.41389-2.53492a24.75649,24.75649,0,0,0-2.586-.20695c-3.15575,0-4.24152,1.70715-4.24152,3.72445A3.06526,3.06526,0,0,0,33.08378,37.778c1.18951.56923,1.39646.67353,1.39646,1.13846,0,.67243-.62083,1.08632-1.75875,1.08632a9.254,9.254,0,0,1-2.53493-.41389l-.31014,2.48278h.05215l.51709.10375a2.40129,2.40129,0,0,0,.724.1032,11.089,11.089,0,0,0,1.655.1032c3.15575,0,4.50061-1.189,4.50061-3.6207a3.023,3.023,0,0,0-2.17263-2.99986c-1.18952-.56923-1.34486-.62083-1.34486-1.13846,0-.51709.51709-.931,1.39646-.931Z" transform="translate(-2.61582 -2.42801)"/><path class="e" d="M68.36193,28.41553l-.46658,2.89667a5.44853,5.44853,0,0,0-2.53437-.724c-2.17209,0-3.67175,2.06944-3.67175,5.0177,0,2.01784,1.03472,3.25841,2.68863,3.25841a5.40156,5.40156,0,0,0,2.43172-.67243L66.293,41.2444a9.63356,9.63356,0,0,1-2.53438.36229c-3.05256,0-4.9661-2.17318-4.9661-5.74227,0-4.81076,2.63757-8.12077,6.41361-8.12077a8.74832,8.74832,0,0,1,1.29381.1032l1.189.31015c.36229.15479.41389.15479.673.25854Zm-9.15547,2.01729a.65885.65885,0,0,0-.31069-.0516c-.93043,0-1.44861.46549-2.32744,1.75875l.25855-1.65555H54.1893L52.48161,41.3992h2.84561c1.03472-6.6727,1.29271-7.81116,2.68972-7.81116h.20694a9.82214,9.82214,0,0,1,1.08632-3.15576h-.10375v.00055Zm-16.50172,10.811a6.23894,6.23894,0,0,1-2.06943.36229A2.1019,2.1019,0,0,1,38.35948,39.226a7.07258,7.07258,0,0,1,.1032-.982l.15479-1.08686.15534-.82778L40.01448,28.881h2.84506l-.31014,1.6034H43.998l-.41389,2.68972H42.13606l-.77618,4.50062c0,.20694-.0516.36229-.0516.46548,0,.56924.31014.82778.98312.82778a2.78626,2.78626,0,0,0,.77618-.10375l-.36284,2.37958Zm-11.018-7.29354a3.13315,3.13315,0,0,0,2.17263,2.99987c1.18952.56923,1.34486.72457,1.34486,1.24166,0,.67243-.51709.98312-1.65555.98312a7.77127,7.77127,0,0,1-2.53493-.46548l-.41388,2.53437h.15534l.51764.10375a2.39891,2.39891,0,0,0,.724.1032c.67243.0516,1.24166.1032,1.6034.1032,3.00041,0,4.39687-1.13737,4.39687-3.6207a2.9927,2.9927,0,0,0-2.01729-3.05256c-1.19007-.51653-1.34486-.67188-1.34486-1.13736q0-.93124,1.39646-.931a16.36649,16.36649,0,0,1,2.06889.20694l.41388-2.53493a21.86744,21.86744,0,0,0-2.53437-.20694c-3.20681,0-4.29312,1.65555-4.29312,3.67284ZM90.2431,41.3992H87.50178l.15425-1.08631a3.40245,3.40245,0,0,1-2.63868,1.189c-2.06834,0-3.4648-1.7582-3.4648-4.49951,0-3.62125,2.1205-6.67326,4.65487-6.67326a3.20618,3.20618,0,0,1,2.74132,1.50021l.62083-3.82819h2.84562L90.2431,41.39921Zm-4.24263-2.58707c1.34542,0,2.27584-1.49966,2.27584-3.67174,0-1.34541-.51654-2.121-1.49966-2.121-1.29271,0-2.22478,1.49966-2.22478,3.67229C84.55187,38.08865,85.01736,38.81213,86.00047,38.81213ZM51.44634,41.14066a9.51838,9.51838,0,0,1-2.94827.46549c-3.20736,0-4.86236-1.7077-4.86236-4.86291,0-3.77549,2.121-6.51736,5.0177-6.51736a3.65435,3.65435,0,0,1,3.82764,3.983,14.78716,14.78716,0,0,1-.30959,2.68972H46.48133a.76426.76426,0,0,0-.05215.31069c0,1.24167.82778,1.91355,2.53493,1.91355a6.9661,6.9661,0,0,0,2.94881-.67243ZM49.84348,34.6738v-.56868a1.241,1.241,0,0,0-1.34486-1.39646c-.87882,0-1.5518.724-1.81034,1.96514h3.1552ZM20.82414,41.3992H17.97907l1.655-10.29394L15.96123,41.3992H13.99609l-.207-10.24234L12.03039,41.3992H9.39227l2.22424-13.3981h4.08618l.15534,8.27665L18.5999,28.0011h4.44847L20.82414,41.3992Zm7.08659-4.8629a3.44309,3.44309,0,0,0-.67243-.0516c-1.60341,0-2.43118.56923-2.43118,1.65555a1.035,1.035,0,0,0,1.03417,1.13846c1.19006,0,2.01784-1.13846,2.06944-2.74242Zm2.06889,4.8629H27.6l.05215-1.13846a3.56463,3.56463,0,0,1-3.00042,1.29271c-1.5518,0-2.58652-1.189-2.58652-2.94826,0-2.63758,1.8109-4.18993,5.0177-4.18993a9.19623,9.19623,0,0,1,1.13792.0516,1.77068,1.77068,0,0,0,.1032-.67188c0-.724-.46549-.98312-1.81035-.98312a8.2936,8.2936,0,0,0-2.37958.31014l-.41389.1032-.25854.0516.41389-2.43118a11.674,11.674,0,0,1,3.41375-.56923c2.48278,0,3.776,1.08631,3.776,3.15575a11.53581,11.53581,0,0,1-.25909,2.17264l-.56869,3.87979-.10319.67242-.05215.56814-.0516.36229-.05105.31179Zm43.03773-4.8629a3.43747,3.43747,0,0,0-.67243-.0516c-1.60395,0-2.43173.56923-2.43173,1.65555a1.03539,1.03539,0,0,0,1.03472,1.13846c1.13791,0,2.01784-1.13846,2.06944-2.74242Zm2.06889,4.8629h-2.379l.05159-1.13846a3.63067,3.63067,0,0,1-3.001,1.29271,2.67217,2.67217,0,0,1-2.63757-2.94826c0-2.63758,1.86249-4.18993,5.06875-4.18993a9.18352,9.18352,0,0,1,1.13738.0516,1.7622,1.7622,0,0,0,.10374-.67188c0-.724-.46549-.98312-1.81089-.98312a8.28973,8.28973,0,0,0-2.379.31014l-.41388.1032-.25854.0516.41389-2.43118a11.67115,11.67115,0,0,1,3.41374-.56923c2.48278,0,3.776,1.08631,3.776,3.15575a11.52039,11.52039,0,0,1-.25854,2.17264l-.56923,3.87979-.1032.67242-.10375.56814-.05159.36229v.31179h.00109Zm7.65638-10.96638a.39162.39162,0,0,0-.25965-.0516c-.93042,0-1.49965.46549-2.379,1.75875l.25854-1.65555h-2.586L76.01721,41.3992h2.89666c.98312-6.6727,1.29381-7.81116,2.63868-7.81116h.20694a11.247,11.247,0,0,1,1.08632-3.15576h-.1032v.00055Z" transform="translate(-2.61582 -2.42801)"/><path class="f" d="M211.33333,9.64587c0-4.82443-2.50724-7.21786-7.37087-7.21786H118.25922c-2.431,0-4.21668.64587-5.3946,1.9752a7.01932,7.01932,0,0,0-1.97573,5.24266V58.57635a7.07613,7.07613,0,0,0,1.97573,5.24213,7.31838,7.31838,0,0,0,5.3946,1.97573h85.70324c4.86363,0,7.37087-2.43047,7.37087-7.21732Zm-7.37087-6.078c4.02662,0,6.0786,2.05143,6.0786,6.07805V58.57635c0,4.06421-2.052,6.07752-6.0786,6.07752H118.25922a5.86382,5.86382,0,0,1-6.23-6.078V9.64587c0-4.02662,2.01331-6.078,6.23-6.078Z" transform="translate(-2.61582 -2.42801)"/><path class="f" d="M118.94268,6.37894c-1.6332,0-2.65919.26575-3.22882.83592a5.46138,5.46138,0,0,0-.72157,3.26694V21.08041h92.23765V10.4818c0-2.773-1.36852-4.10286-4.1034-4.10286Z" transform="translate(-2.61582 -2.42801)"/><path class="g" d="M114.99229,57.58849c0,2.81,1.32932,4.25426,3.95039,4.25426h84.18385c2.73488,0,4.1034-1.44368,4.1034-4.25426V46.98933H114.99229Z" transform="translate(-2.61582 -2.42801)"/><path class="f" d="M145.53559,25.60151a1.95275,1.95275,0,0,1-.26576,1.13981l-6.64823,11.587L138.20337,24.196H127.56663l3.57082,1.70944a2.916,2.916,0,0,1,1.5575,2.54536l.98733,15.00643h5.20454L151.34789,24.196H144.966A1.89066,1.89066,0,0,1,145.53559,25.60151ZM188.54,24.76558l.41715-.57016h-6.49629c.22763.22764.30387.342.30387.41769a7.29913,7.29913,0,0,1-.30387.72157l-9.45935,17.24685c-.22764.30387-.45635.57017-.72157.87458h5.35648l-.2663-.57017a8.168,8.168,0,0,1,.83594-2.69677l1.1398-2.12766h5.50842c.22871,1.78567.38065,3.26747.45635,4.36969l-.45635,1.02545h6.64823l-.98787-1.44368-1.97465-17.24738Zm-3.95147,10.59916h-3.95092l3.38076-6.49629ZM168.177,23.20809a8.75986,8.75986,0,0,0-5.35649,1.70943,4.31634,4.31634,0,0,0-2.54536,3.79953,6.09828,6.09828,0,0,0,1.82326,4.52055l3.6857,2.54483c1.32986.95028,1.97573,1.78567,1.97573,2.5459a2.31307,2.31307,0,0,1-.98786,1.86138,3.559,3.559,0,0,1-2.27961.72157c-1.32986,0-3.60893-.94921-6.76205-2.69677v3.5327a13.98663,13.98663,0,0,0,7.17974,2.242,8.31439,8.31439,0,0,0,5.66144-1.97573,5.39226,5.39226,0,0,0,2.54483-4.36862,5.43168,5.43168,0,0,0-1.97574-3.95146l-3.53376-2.54536c-1.17632-.94975-1.82272-1.78568-1.82272-2.431,0-1.48127.87351-2.24149,2.65918-2.24149,1.21551,0,3.00119.684,5.39407,2.12766l.72265-3.68516a12.65847,12.65847,0,0,0-6.383-1.71ZM154.04519,43.45665c-.07624-.79781-.22818-1.51939-.30441-2.27961l4.825-15.57553,1.1398-1.40556h-6.9521c.07623.342.15193.79781.22817,1.13981a5.92319,5.92319,0,0,1-.07623,1.1398L148.081,41.89915l-.98786,1.558h6.9521Z" transform="translate(-2.61582 -2.42801)"/><g class="h"><path class="i" d="M258.01881,9.94083c-2.31463-2.63818-6.49866-3.76923-11.85106-3.76923H230.6332a2.22475,2.22475,0,0,0-2.19848,1.87631l-6.46547,41.02588a1.33288,1.33288,0,0,0,1.3177,1.54032h9.59036L235.286,35.33674l-.07467.47841a2.21785,2.21785,0,0,1,2.18881-1.87631h4.55735c8.95294,0,15.96319-3.63648,18.011-14.156q.09125-.46665.159-.90981c.60838-3.88813-.00415-6.53461-2.10722-8.93081" transform="translate(-2.61582 -2.42801)"/><path class="j" d="M375.426,29.46306c-.58627,3.84942-3.52587,3.84942-6.36869,3.84942h-1.61775l1.13519-7.18724a.8931.8931,0,0,1,.88216-.75357h.74251c1.93577,0,3.76369,0,4.70669,1.102a3.5844,3.5844,0,0,1,.51989,2.98938m-1.23751-10.04388H363.46435a1.49331,1.49331,0,0,0-1.474,1.25825L357.657,48.175a.89455.89455,0,0,0,.88216,1.03287h5.50312a1.04316,1.04316,0,0,0,1.03011-.87939l1.23059-7.79838a1.49046,1.49046,0,0,1,1.47119-1.25825h3.39313c7.06556,0,11.14174-3.41664,12.20642-10.19321.47979-2.96173.01936-5.29019-1.36748-6.92038-1.52511-1.792-4.22828-2.7405-7.81636-2.7405" transform="translate(-2.61582 -2.42801)"/><path class="i" d="M298.93546,29.46306c-.58626,3.84942-3.52587,3.84942-6.37007,3.84942h-1.61774l1.13518-7.18724a.89311.89311,0,0,1,.88216-.75357h.74251c1.93577,0,3.76369,0,4.70668,1.102a3.57916,3.57916,0,0,1,.52128,2.98938M297.698,19.41918H286.97378a1.49171,1.49171,0,0,0-1.47257,1.25825L281.16647,48.175a.89319.89319,0,0,0,.88216,1.03287h5.12149a1.49027,1.49027,0,0,0,1.47118-1.25825l1.17115-7.41814a1.4892,1.4892,0,0,1,1.47118-1.25825h3.39313c7.06555,0,11.14174-3.418,12.20641-10.19459.47979-2.96173.01935-5.29019-1.36749-6.92038-1.5251-1.792-4.22827-2.7405-7.81636-2.7405m24.89677,19.91769a5.72693,5.72693,0,0,1-5.79625,4.90441,3.9787,3.9787,0,0,1-4.25316-4.9929,5.74567,5.74567,0,0,1,5.75477-4.94175,4.32817,4.32817,0,0,1,3.42354,1.39929,4.42055,4.42055,0,0,1,.87109,3.63095m7.15682-9.99687h-5.13531a.89459.89459,0,0,0-.88492.75634l-.224,1.43523-.35951-.51989c-1.11168-1.6136-3.59085-2.15424-6.06587-2.15424a11.80868,11.80868,0,0,0-11.46253,10.32872,9.69506,9.69506,0,0,0,1.91227,7.891,8.03567,8.03567,0,0,0,6.46686,2.61053,9.83268,9.83268,0,0,0,7.1098-2.93684l-.22952,1.42693a.89325.89325,0,0,0,.88354,1.03288h4.62372A1.49045,1.49045,0,0,0,327.86,47.95105l2.77646-17.57818a.8946.8946,0,0,0-.88493-1.03287" transform="translate(-2.61582 -2.42801)"/><path class="j" d="M399.08664,39.33549a5.72693,5.72693,0,0,1-5.79625,4.90441,3.9787,3.9787,0,0,1-4.25316-4.9929,5.74466,5.74466,0,0,1,5.75477-4.94175,4.32817,4.32817,0,0,1,3.42354,1.39929,4.42058,4.42058,0,0,1,.8711,3.63095m7.15682-9.99687h-5.13533a.89459.89459,0,0,0-.88492.75634l-.224,1.43523-.3595-.51989c-1.11168-1.6136-3.59085-2.15424-6.06586-2.15424a11.81079,11.81079,0,0,0-11.46252,10.32872,9.69547,9.69547,0,0,0,1.91365,7.891,8.03563,8.03563,0,0,0,6.46684,2.61053,9.834,9.834,0,0,0,7.1112-2.93684l-.22953,1.42693a.89051.89051,0,0,0,.88077,1.03288h4.62234a1.49293,1.49293,0,0,0,1.47394-1.25825L407.127,30.37287a.89461.89461,0,0,0-.88493-1.03287" transform="translate(-2.61582 -2.42801)"/><path class="i" d="M357.104,29.34h-5.163a1.48419,1.48419,0,0,0-1.23059.654l-7.12087,10.48634L340.5711,30.40329a1.49331,1.49331,0,0,0-1.42832-1.06467h-5.0731a.8946.8946,0,0,0-.8462,1.18358l5.68286,16.68357-5.34548,7.54259a.8946.8946,0,0,0,.73006,1.41035h5.15745a1.49291,1.49291,0,0,0,1.22368-.64019L357.8368,30.74344A.89322.89322,0,0,0,357.104,29.34" transform="translate(-2.61582 -2.42801)"/><path class="j" d="M412.29552,20.17551,407.893,48.17642a.89461.89461,0,0,0,.88355,1.03287h4.426a1.49172,1.49172,0,0,0,1.47257-1.25825l4.34028-27.499a.89319.89319,0,0,0-.88355-1.03288h-4.95281a.89184.89184,0,0,0-.88355.755" transform="translate(-2.61582 -2.42801)"/><path class="i" d="M258.01881,9.94083c-2.31463-2.63818-6.49866-3.76923-11.85106-3.76923H230.6332a2.22475,2.22475,0,0,0-2.19848,1.87631l-6.46547,41.02588a1.33288,1.33288,0,0,0,1.3177,1.54032h9.59036L235.286,35.33674l-.07467.47841a2.21785,2.21785,0,0,1,2.18881-1.87631h4.55735c8.95294,0,15.96319-3.63648,18.011-14.156q.09125-.46665.159-.90981c.60838-3.88813-.00415-6.53461-2.10722-8.93081" transform="translate(-2.61582 -2.42801)"/><path class="i" d="M237.873,18.92418a1.94683,1.94683,0,0,1,1.92056-1.64126H251.9723a25.60415,25.60415,0,0,1,4.01672.29036,16.87829,16.87829,0,0,1,1.99108.44523,11.00178,11.00178,0,0,1,2.14455.8545c.61116-3.88951-.00276-6.5346-2.10584-8.93219-2.316-2.6368-6.49865-3.76784-11.851-3.76784H230.63182A2.22476,2.22476,0,0,0,228.4361,8.0493L221.96786,49.071a1.3329,1.3329,0,0,0,1.31633,1.5417h9.59174L235.28458,35.334Z" transform="translate(-2.61582 -2.42801)"/><path class="j" d="M260.126,18.87164q-.07119.45632-.159.90981c-2.04776,10.51814-9.058,14.156-18.01095,14.156h-4.55874a2.21507,2.21507,0,0,0-2.18742,1.87631l-2.334,14.79758-.66369,4.19785a1.167,1.167,0,0,0,1.15317,1.34951H241.45a1.9462,1.9462,0,0,0,1.92056-1.64125l.07881-.41205,1.52373-9.65672.09679-.53372a1.94544,1.94544,0,0,1,1.92194-1.64126h1.20986c7.83157,0,13.96381-3.18019,15.75578-12.3834.74666-3.84388.3595-7.05588-1.61775-9.311a7.721,7.721,0,0,0-2.21369-1.70763" transform="translate(-2.61582 -2.42801)"/><path class="k" d="M257.98148,18.01852q-.46873-.139-.96651-.24889c-.33184-.07328-.67475-.13827-1.02595-.19358a25.11175,25.11175,0,0,0-4.01811-.29451H239.79354a1.94129,1.94129,0,0,0-1.92056,1.64264l-2.5884,16.41256-.07467.477a2.21508,2.21508,0,0,1,2.18742-1.87632h4.55874c8.95293,0,15.96319-3.63648,18.01095-14.156.06084-.31111.112-.61254.159-.90982a11.059,11.059,0,0,0-1.68412-.7107c-.15072-.04978-.3042-.09679-.46044-.1438" transform="translate(-2.61582 -2.42801)"/></g><path class="l" d="M520.693,57.819c-8.20249,6.06488-20.13338,9.29616-30.42378,9.29616a55.16227,55.16227,0,0,1-37.18462-14.16793c-.74568-.696-.09942-1.64049.84511-1.09367a74.721,74.721,0,0,0,37.18462,9.843,73.98464,73.98464,0,0,0,28.38558-5.81632c1.39193-.54683,2.53532.94453,1.19309,1.93877Z" transform="translate(-2.61582 -2.42801)"/><path class="l" d="M524.12317,53.89172c-1.044-1.34223-6.95969-.64625-9.59442-.29828-.7954.09943-.94453-.59655-.19885-1.09367,4.72265-3.33071,12.428-2.33647,13.32283-1.2428s-.24856,8.84874-4.67293,12.52744c-.696.54684-1.34223.24856-1.044-.49712C522.93008,60.80169,525.16712,55.28365,524.12317,53.89172Z" transform="translate(-2.61582 -2.42801)"/><path class="m" d="M514.67788,29.13513V25.90384a.7565.7565,0,0,1,.7954-.79539h14.41649a.82839.82839,0,0,1,.84511.79539V28.638c0,.4474-.39769,1.04395-1.09367,2.03819L522.1844,41.31458a16.19547,16.19547,0,0,1,8.20249,1.73992,1.481,1.481,0,0,1,.74568,1.2428v3.43013c0,.49712-.49712,1.044-1.044.74568a16.44556,16.44556,0,0,0-15.21189.04971.78033.78033,0,0,1-1.04395-.74568v-3.281a3.71482,3.71482,0,0,1,.54683-2.18733l8.6499-12.3783H515.523a.82839.82839,0,0,1-.84512-.79539Zm-52.54563,20.034h-4.37466a.89774.89774,0,0,1-.7954-.74569V25.95354a.82838.82838,0,0,1,.8451-.79539h4.07639a.8102.8102,0,0,1,.7954.74568v2.933h.09942a5.79323,5.79323,0,0,1,5.7666-4.17581c2.73416,0,4.47408,1.34223,5.66717,4.17581a6.23021,6.23021,0,0,1,6.06487-4.17581,6.16226,6.16226,0,0,1,5.07063,2.4856c1.39193,1.88905,1.09367,4.62321,1.09367,7.05912V48.42339a.82838.82838,0,0,1-.84511.7954h-4.325a.85412.85412,0,0,1-.7954-.7954V36.4925a29.81426,29.81426,0,0,0-.09943-4.22552,2.30621,2.30621,0,0,0-2.585-1.93877,2.92738,2.92738,0,0,0-2.63474,1.83935,13.77454,13.77454,0,0,0-.3977,4.325V48.42341a.82838.82838,0,0,1-.8451.7954h-4.37467a.85412.85412,0,0,1-.79539-.7954V36.49252c0-2.4856.3977-6.214-2.68445-6.214-3.13186,0-3.03244,3.57928-3.03244,6.214V48.42341a.87312.87312,0,0,1-.89482.74568Zm81.03063-24.508c6.51228,0,10.04184,5.56776,10.04184,12.67657,0,6.86026-3.87754,12.32859-10.04184,12.32859-6.36314,0-9.843-5.56776-9.843-12.52745-.04972-7.0094,3.47984-12.47772,9.843-12.47772Zm0,4.62322c-3.23129,0-3.43013,4.42437-3.43013,7.15853S539.683,45.043,543.11316,45.043c3.38041,0,3.57928-4.72265,3.57928-7.60594a21.75309,21.75309,0,0,0-.64626-5.96545,2.74874,2.74874,0,0,0-2.88329-2.18732Zm18.44317,19.88482H557.2314a.85413.85413,0,0,1-.7954-.7954V25.85413a.85924.85924,0,0,1,.84511-.74568h4.07639a.85.85,0,0,1,.7954.64625v3.43013h.09943c1.2428-3.08216,2.933-4.5238,5.96545-4.5238a5.78918,5.78918,0,0,1,5.12033,2.63473c1.14337,1.78964,1.14337,4.82207,1.14337,7.0094V48.47309a.8179.8179,0,0,1-.84511.696h-4.37465a.90446.90446,0,0,1-.7954-.696V36.24393c0-2.4856.29828-6.06488-2.73416-6.06488a2.87784,2.87784,0,0,0-2.53532,1.78964,10.32034,10.32034,0,0,0-.696,4.27524V48.37366a.9104.9104,0,0,1-.89482.7954ZM503.19439,38.43127a8.88854,8.88854,0,0,1-.79539,4.67293,3.51823,3.51823,0,0,1-3.03244,1.98848c-1.69021,0-2.68445-1.29251-2.68445-3.18157,0-3.7284,3.33072-4.42437,6.51228-4.42437Zm4.42437,10.68809a.89879.89879,0,0,1-1.04395.09943,10.97752,10.97752,0,0,1-2.53532-2.933c-2.38617,2.43589-4.12609,3.18157-7.20825,3.18157-3.67869,0-6.562-2.28676-6.562-6.81056a7.44129,7.44129,0,0,1,4.67293-7.15853c2.38617-1.044,5.71688-1.2428,8.2522-1.54107v-.54684a5.36968,5.36968,0,0,0-.54684-3.18157,2.94367,2.94367,0,0,0-2.43588-1.14337,3.31013,3.31013,0,0,0-3.52956,2.63473c-.09943.39769-.348.7954-.74568.7954l-4.22553-.44741a.76514.76514,0,0,1-.64625-.89481c.99424-5.17,5.61746-6.71112,9.79328-6.71112,2.13761,0,4.92149.54683,6.6117,2.18732,2.13761,1.98849,1.93876,4.67293,1.93876,7.55624v6.81056c0,2.03819.84512,2.933,1.6405,4.07639.29827.39769.348.89481,0,1.14337-.94453.74568-2.53532,2.13761-3.43013,2.8833ZM445.777,38.43127a8.88855,8.88855,0,0,1-.7954,4.67293,3.5182,3.5182,0,0,1-3.03243,1.98848c-1.69021,0-2.68445-1.29251-2.68445-3.18157,0-3.7284,3.3307-4.42437,6.51228-4.42437Zm4.37466,10.68809a.89879.89879,0,0,1-1.04395.09943,10.97734,10.97734,0,0,1-2.53532-2.933c-2.38618,2.43589-4.1261,3.18157-7.20825,3.18157-3.67869,0-6.562-2.28676-6.562-6.81056a7.4413,7.4413,0,0,1,4.67293-7.15853c2.38618-1.044,5.71689-1.2428,8.2522-1.54107v-.54684a5.36975,5.36975,0,0,0-.54683-3.18157,2.9437,2.9437,0,0,0-2.43589-1.14337,3.31013,3.31013,0,0,0-3.52956,2.63473c-.09942.39769-.348.7954-.74568.7954l-4.22552-.44741a.76516.76516,0,0,1-.64626-.89481c.99424-5.17,5.61746-6.71112,9.79327-6.71112,2.13762,0,4.92149.54683,6.61171,2.18732,2.13762,1.98849,1.93876,4.67293,1.93876,7.55624v6.81056c0,2.03819.84511,2.933,1.6405,4.07639.29828.39769.348.89481,0,1.14337-.94452.74568-2.53532,2.13761-3.43013,2.8833Z" transform="translate(-2.61582 -2.42801)"/><path class="n" d="M602.26172,21.31215c-8.52674,0-15.63209,3.617-15.63209,14.53087,0,8.64609,4.77789,14.09053,15.85185,14.09053,13.03487,0,13.87036-8.58642,13.87036-8.58642H610.036s-1.35406,4.62345-7.93964,4.62345c-5.36379,0-9.22151-3.62344-9.22151-8.70174h24.13786V34.0817c0-5.02427-3.18956-12.76955-14.751-12.76955Zm-.22057,4.07305c5.10572,0,8.58642,3.12787,8.58642,7.81584H593.0144C593.0144,28.224,597.558,25.3852,602.04115,25.3852Z" transform="translate(-2.61582 -2.42801)"/><path class="o" d="M617.00831,10.74385v33.709c0,1.91334-.1367,4.60007-.1367,4.60007h6.02388s.21654-1.92947.21654-3.6932c0,0,2.97625,4.65652,11.06912,4.65652,8.5219,0,14.3107-5.917,14.3107-14.39336,0-7.886-5.317-14.22843-14.297-14.22843-8.409,0-11.02194,4.54079-11.02194,4.54079V10.74385Zm15.63168,14.82c5.78718,0,9.46748,4.29522,9.46748,10.059,0,6.18074-4.25047,10.22394-9.426,10.22394-6.1767,0-9.50861-4.82306-9.50861-10.1691,0-4.98153,2.98956-10.11386,9.46708-10.11386Z" transform="translate(-2.61582 -2.42801)"/><path class="p" d="M663.46343,21.31215c-12.82761,0-13.6502,7.02349-13.6502,8.14609H656.198s.33468-4.10046,6.8251-4.10046c4.2174,0,7.48559,1.93067,7.48559,5.64162v1.321H663.0231c-9.93765,0-15.19135,2.90731-15.19135,8.807,0,5.80573,4.8541,8.96465,11.41428,8.96465,8.94046,0,11.82034-4.94,11.82034-4.94,0,1.96495.15121,3.90127.15121,3.90127h5.67589s-.21976-2.4-.21976-3.93555v-13.272C676.67371,23.14323,669.65425,21.31215,663.46343,21.31215Zm7.04527,14.97119v1.76132c0,2.29721-1.41777,8.00858-9.76305,8.00858-4.56983,0-6.52913-2.28067-6.52913-4.92628,0-4.81257,6.59808-4.84362,16.29218-4.84362Z" transform="translate(-2.61582 -2.42801)"/><path class="q" d="M673.23535,22.41378h7.18277l10.30861,20.65273,10.28484-20.65272h6.50695L688.78477,59.18207h-6.8255L687.365,48.93233,673.23535,22.41379Z" transform="translate(-2.61582 -2.42801)"/></svg>