<svg xmlns="http://www.w3.org/2000/svg" viewBox="0 0 296.70014 85.33333"><defs><style>.a{fill:#221f20;}.b{fill:#ed901f;}.c{fill:#eb5f1b;}.d{fill:#dc171f;}.e{fill:#ee9a23;}.f{fill:#fff;}.f,.g,.h{fill-rule:evenodd;}.g{fill:#dfa43c;}.h{fill:#1d5891;}.i{fill:#253366;}.j{fill:#2b88b7;}.k{fill:#1e254e;}</style></defs><title>3</title><path class="a" d="M136.30993,102.02648v.21492h.20041a.21108.21108,0,0,0,.10747-.0274.09563.09563,0,0,0,.04029-.08221.09187.09187,0,0,0-.04029-.08006.193.193,0,0,0-.10747-.0274h-.20041Zm.20257-.15205a.37176.37176,0,0,1,.24071.06985.23105.23105,0,0,1,.08435.19021.21816.21816,0,0,1-.0677.1671.33.33,0,0,1-.19235.08006l.26865.30626h-.20686l-.24716-.30412h-.08006v.30412h-.173v-.813h.37612Zm-.05373,1.09395a.6449.6449,0,0,0,.26381-.05373.691.691,0,0,0,.21493-.14561.67861.67861,0,0,0,.1456-.21492.68236.68236,0,0,0-.36053-.89246.67622.67622,0,0,0-.26381-.05051.705.705,0,0,0-.26866.05051.6861.6861,0,0,0-.21975.1456.69421.69421,0,0,0-.14347.75223.64059.64059,0,0,0,.14347.21492.68821.68821,0,0,0,.21975.14561.66915.66915,0,0,0,.26866.05373m0-1.55818a.89943.89943,0,0,1,.63133.2579.86712.86712,0,0,1,.19021.95855.90709.90709,0,0,1-.19021.27886.95914.95914,0,0,1-.28316.18806.87748.87748,0,0,1-.34817.06985.892.892,0,0,1-.35248-.06985.91776.91776,0,0,1-.28531-.18806.90672.90672,0,0,1-.18751-.288.86715.86715,0,0,1,.1902-.95855.849.849,0,0,1,.28532-.18806.892.892,0,0,1,.35247-.06985M54.18668,98.27609a2.67024,2.67024,0,1,1,2.67524,2.82354,2.64647,2.64647,0,0,1-2.67524-2.82354m7.13971,0V93.86482H59.40874v1.07461a3.34216,3.34216,0,0,0-2.78538-1.29222,4.6365,4.6365,0,0,0,0,9.26205,3.34431,3.34431,0,0,0,2.78538-1.29222v1.07085h1.9155v-4.4118Zm64.79464,0a2.6705,2.6705,0,1,1,2.67578,2.82354,2.64658,2.64658,0,0,1-2.67578-2.82354m7.14186,0V90.324h-1.91926v4.61545a3.34215,3.34215,0,0,0-2.78538-1.29222,4.6365,4.6365,0,0,0,0,9.26205,3.34359,3.34359,0,0,0,2.78538-1.29222v1.07085h1.91926ZM85.12683,95.36175a2.18977,2.18977,0,0,1,2.232,2.139H82.78311a2.27077,2.27077,0,0,1,2.34426-2.139m.03815-1.71937a4.6349,4.6349,0,0,0,.12842,9.26206,5.35626,5.35626,0,0,0,3.615-1.23581l-.93975-1.42116a4.205,4.205,0,0,1-2.56563.92255,2.44921,2.44921,0,0,1-2.63763-2.16h6.54814c.0188-.23856.03815-.47928.03815-.73718-.01935-2.74939-1.71938-4.631-4.18776-4.631m23.15246,4.631a2.67939,2.67939,0,1,1-.00054,0m7.1397,0V93.86482H113.5395v1.07461a3.345,3.345,0,0,0-2.78538-1.29222,4.6365,4.6365,0,0,0,0,9.26205,3.34647,3.34647,0,0,0,2.78538-1.29222v1.07085h1.91711v-4.4118Zm-17.96854,0a4.455,4.455,0,0,0,4.70464,4.631,4.60989,4.60989,0,0,0,3.17009-1.05151l-.92094-1.55012a3.87609,3.87609,0,0,1-2.31041.79414,2.8288,2.8288,0,0,1,0-5.64708,3.88576,3.88576,0,0,1,2.31041.79414l.92094-1.55012a4.61526,4.61526,0,0,0-3.17009-1.0515,4.45468,4.45468,0,0,0-4.70465,4.631m24.72139-4.631a2.60292,2.60292,0,0,0-2.32492,1.29222V93.86482h-1.90045v8.81825h1.91979V97.73986c0-1.45932.627-2.27011,1.88057-2.27011a3.10949,3.10949,0,0,1,1.19926.22191l.591-1.8075a4.07756,4.07756,0,0,0-1.36636-.24071M70.80711,94.566a6.59383,6.59383,0,0,0-3.59618-.92256c-2.23412,0-3.67248,1.07085-3.67248,2.823,0,1.43783,1.07085,2.32492,3.04276,2.60164l.90589.129c1.05151.14776,1.548.42447,1.548.92255,0,.68184-.6985,1.07086-2.01006,1.07086a4.6985,4.6985,0,0,1-2.93315-.92256l-.901,1.49531a6.36209,6.36209,0,0,0,3.81809,1.14446c2.54682,0,4.0228-1.19926,4.0228-2.87834,0-1.55012-1.16165-2.36091-3.08091-2.63762l-.90375-.1311c-.83013-.10746-1.49531-.27456-1.49531-.8656,0-.64476.627-1.0327,1.67907-1.0327a5.68849,5.68849,0,0,1,2.74939.756l.83014-1.55012Zm24.74343-.92094a2.59689,2.59689,0,0,0-2.32277,1.29222V93.86482H91.32733v8.81825H93.245V97.73986c0-1.45932.627-2.27011,1.88057-2.27011a3.10949,3.10949,0,0,1,1.19926.22191l.591-1.8075a4.07757,4.07757,0,0,0-1.36637-.24071m-16.36307.22137H76.05068V91.18958H74.11209v2.67524H72.3234v1.75269h1.78869v4.0228c0,2.046.79413,3.26466,3.06263,3.26466a4.505,4.505,0,0,0,2.39907-.68183l-.554-1.642a3.54976,3.54976,0,0,1-1.69788.49862c-.95856,0-1.27126-.591-1.27126-1.476V95.61912h3.1357Zm-28.67,8.8204V97.151A3.28336,3.28336,0,0,0,47.047,93.6456a3.41389,3.41389,0,0,0-3.09971,1.56893,3.23662,3.23662,0,0,0-2.91434-1.56893A2.91708,2.91708,0,0,0,38.4501,94.955v-1.0902H36.53085v8.81825h1.9343V97.79359a2.0642,2.0642,0,0,1,2.16-2.34426c1.27341,0,1.91764.83014,1.91764,2.32492V102.682h1.9386V97.79252a2.08061,2.08061,0,0,1,2.15781-2.34426c1.30941,0,1.9343.83013,1.9343,2.32492v4.90773Z" transform="translate(-30.96652 -19.55556)"/><path class="b" d="M137.40334,73.3516V72.06207h-.33581l-.38847.88494-.38632-.88494h-.33689V73.3516h.23856v-.97144l.36322.83819h.24716l.36322-.84034v.97359h.23533Zm-2.13041,0V72.28291h.42984V72.0653h-1.09824v.21761h.42984v1.0687h.23856Z" transform="translate(-30.96652 -19.55556)"/><path class="c" d="M99.23484,78.88208H70.17418v-52.226h29.0612Z" transform="translate(-30.96652 -19.55556)"/><path class="d" d="M72.0166,52.77015a33.15964,33.15964,0,0,1,12.68469-26.113,33.21435,33.21435,0,1,0,.00053,52.226,33.15935,33.15935,0,0,1-12.68522-26.113" transform="translate(-30.96652 -19.55556)"/><path class="e" d="M138.44088,52.77015a33.21262,33.21262,0,0,1-53.738,26.113,33.2173,33.2173,0,0,0,0-52.226,33.21223,33.21223,0,0,1,53.73745,26.113" transform="translate(-30.96652 -19.55556)"/><path class="f" d="M168.55556,24.88889h80v80h-80Z" transform="translate(-30.96652 -19.55556)"/><path class="g" d="M177.36835,86.19126c14.88971-6.38112,35.782-12.165,63.45224-6.37365l.29011-7.0182c-29.19338-3.18745-50.1409,6.11053-63.74235,12.7v.69186Z" transform="translate(-30.96652 -19.55556)"/><path class="h" d="M192.93871,67.685l6.45334-21.2783h5.75816L198.69646,67.685Zm-2.574-21.27249-5.1796,9.01991c-1.31856,2.36236-2.08928,3.55558-2.4599,5.04845h-.07886c.09173-1.89255-.17224-4.2159-.19714-5.52906l-.57191-8.5393H172.1846l-.09961.57233c2.4902,0,3.96688,1.25091,4.3732,3.80959L178.34742,67.685h5.96526l12.06167-21.2725ZM235.143,67.685l-.159-3.16462-7.19-.00581-1.47046,3.17h-6.25122l11.335-21.23763h7.67312l1.91952,21.23763H235.143V67.685Zm-.66032-12.55141a48.81853,48.81853,0,0,1-.01037-4.99865h-.08508c-.35029,1.05626-1.85561,4.22835-2.51759,5.78846l-2.1424,4.66413h5.04846l-.293-5.45394ZM211.19516,68.28967a16.102,16.102,0,0,1-8.68912-2.43915L205.249,61.6616c1.729.967,3.0866,2.083,6.21013,2.083a2.67215,2.67215,0,0,0,2.52174-1.21272c.801-1.38413-.18469-2.1287-2.43417-3.402l-1.11062-.72216c-3.33437-2.27852-4.77661-4.44251-3.207-8.22013,1.00438-2.41632,3.65353-4.24786,8.02383-4.24786a12.89245,12.89245,0,0,1,7.48594,2.57735l-3.15342,3.69836a7.00351,7.00351,0,0,0-4.46243-1.95688,2.684,2.684,0,0,0-2.457,1.10067c-.59972,1.18824.19382,1.99838,1.94609,3.08618l1.32063.84c4.04823,2.55328,5.01277,5.23065,3.998,7.73371-1.7448,4.30845-5.16134,5.2705-8.7356,5.2705Zm31.37978-18.5918h-.37934V47.39112h.8753c.557,0,.84126.19507.84126.66322a.59017.59017,0,0,1-.60221.62919l.64621,1.01434h-.42873l-.596-.98612h-.35651v.98612Zm.42291-1.30943c.28472,0,.535-.0278.535-.36232,0-.27849-.27309-.3121-.50094-.3121h-.45737v.67442Zm-.0112,2.20092a2.08436,2.08436,0,1,1,2.03947-2.08388A2.0054,2.0054,0,0,1,242.98665,50.58936Zm0-3.80543a1.72668,1.72668,0,1,0,1.59372,1.72155A1.61739,1.61739,0,0,0,242.98665,46.78393Z" transform="translate(-30.96652 -19.55556)"/><path class="i" d="M318.7162,37.371c-3.2917-3.75188-9.242-5.36041-16.8542-5.36041H279.76929a3.16391,3.16391,0,0,0-3.12469,2.668l-9.199,58.34231a1.89637,1.89637,0,0,0,1.87406,2.19226h13.63927l3.42541-21.72679-.1063.68035a3.15348,3.15348,0,0,1,3.11287-2.66851h6.48135c12.7326,0,22.70244-5.17166,25.61475-20.1322q.12969-.66371.22608-1.29386h0c.86722-5.52956-.00591-9.2935-2.99689-12.70119" transform="translate(-30.96652 -19.55556)"/><path class="i" d="M291.60325,48.08021a2.77272,2.77272,0,0,1,1.1937-.26931h17.32029a36.14516,36.14516,0,0,1,5.71217.41483q.73376.117,1.45923.27923,1.02774.22678,2.02926.55444a15.63571,15.63571,0,0,1,2.39542,1.01274c.867-5.53168-.00614-9.29349-2.99712-12.70119-3.29359-3.75188-9.242-5.36041-16.8542-5.36041H279.76739a3.16313,3.16313,0,0,0-3.12279,2.668l-9.199,58.34018a1.89558,1.89558,0,0,0,1.87217,2.19274h13.64116l7.10667-45.0666a2.768,2.768,0,0,1,1.53765-2.06469Z" transform="translate(-30.96652 -19.55556)"/><path class="j" d="M321.487,51.366c-2.91231,14.95842-12.88191,20.1322-25.61475,20.1322H289.389a3.14949,3.14949,0,0,0-3.11075,2.66852l-4.26144,27.01468a1.66007,1.66007,0,0,0,1.638,1.91917h11.49757a2.76632,2.76632,0,0,0,2.73159-2.334l.112-.58586,2.167-13.73377.13961-.759a2.76632,2.76632,0,0,1,2.73136-2.334h1.72073c11.13778,0,19.85888-4.52485,22.40738-17.61134,1.06377-5.46884.51334-10.0348-2.30069-13.24193a10.985,10.985,0,0,0-3.14831-2.4285c-.06685.42287-.13938.8514-.22607,1.29386Z" transform="translate(-30.96652 -19.55556)"/><path class="k" d="M318.66518,48.857q-.68113-.1989-1.37442-.352-.72549-.15953-1.45922-.27734a35.9424,35.9424,0,0,0-5.71453-.417H292.79884a2.76673,2.76673,0,0,0-2.73159,2.33613l-3.681,23.33957-.1063.68035a3.15015,3.15015,0,0,1,3.11121-2.66851h6.48324c12.73261,0,22.70221-5.17166,25.61452-20.1322.0867-.44247.15946-.87124.22631-1.29386a15.72522,15.72522,0,0,0-2.39543-1.01085q-.32538-.10787-.65437-.20434" transform="translate(-30.96652 -19.55556)"/></svg>