<svg xmlns="http://www.w3.org/2000/svg" xmlns:xlink="http://www.w3.org/1999/xlink" viewBox="0 0 1047.99985 836.37456"><defs><style>.a{fill:#69685a;}.b{fill:#abcd03;}.c{fill:#fefbda;}.d{fill:#7d4597;}.e{fill:#7c4698;}.f{fill:#fffcdb;}.g{fill:#8c8a78;}.h{isolation:isolate;}</style></defs><title>3000</title><path class="a" d="M940.4,1039.4l.1-1c-2.2,1.1-1.8.2-2.7,2.7,2.6-.7,1.9-.9,2.6-1.7Z" transform="translate(-309.48806 -204.72542)"/><path class="b" d="M885.188,315.12541l-.3,1.1Zm26.8-2.6c.1-.1.2.1.2.2Zm-26.8,2.6c.1-2.7,6.7-27.9,7.6-31.3,1.4-5.4,2.6-10.5,3.9-15.5.8-3.3,3.7-12.8,3.8-15.6-1.8,1.3-6.8,12.3-8.1,14.5-6.7,11.1-23.2,50.3-27.2,64.7-3.6,12.9-13.3,46-12.4,56.8l9.3,6.8,1.9.8-.3.5c3.4-.1.7-.2,1.8.8v414.9l.6-.2c-.9-1.9-.4-309.7-.4-363.3,0-16.7-.8-35.4.1-51.9l3.9,1.4c1.8-.7,11.7,1.2,14.5,1.5,17.2-26.6,29.8-43.4,48.1-66.8l13-15.8c.9-1.2,1.4-1.4,2.3-2.5l39.2-42.8,36.6001-35.1c1.5-1.1,1.9-.9,2.4-2.8l-17.1,6.5a209.0617,209.0617,0,0,0-27.9,13.1c-16.8,9.4-31.2,18.5-45.2,32.5-6.8,6.8-11.3,10.9-17.2,18.5-1.2,1.6-4.3,5.7-5.5,6.6.6-2.7,6-11.8,7.7-14.9,6.7-12,14.6-23,22.5-34.3,5.5-7.9,13.8-18.3,19.7-26a76.64223,76.64223,0,0,1,5.2-6.4c.9-1,20.2-23.6,20.6-25.1-2.6,1.7-5,3.5-7.6,5.5l-36.60009,30.2c-2.2,2.1-4.3,4.7-6.6,6.5-5.5,4.4-20.3,21.3-25.7,27.9-12.3,15.2-16.3,22.6-25.4,38.2-.5.8.1,0-.6.9a4.14175,4.14175,0,0,1-.9,1.2Z" transform="translate(-309.48806 -204.72542)"/><path class="b" d="M900.38806,252.62541h.5l-.4-.6Z" transform="translate(-309.48806 -204.72542)"/><path class="c" d="M865.988,812.42543c10.7-20.4,13.5-54.5,13.6-80.2.3-34.8-12-67.3-11.1-82.4,6.9,29.5,18.1,52.5,19.1,86.1.4,14.3-1.8,34.9-3.9,49.1-2.4,16.5-9.1,26.3-16.9,35.4l-.1.6c4.2-2.4,8.4-6.5,11.3-9.6,10.8-12,16.8-25.8,20.4-42.6,4.4-20.6,9.1-55.4,6.9-76.9-1.1-11.1-4.6-24.2-7.5-34.4-10.1-35.1-21.5-34.1-25.7-58.4-2-11.4-1.5-28.2-1.1-40.2,1.5,11.4,2.2,24.5,4.3,35.9,2.1,11.7,8.1,18.6,13,27.5,23.9,43.9,29,82.5,20.2,132.9-2,11.3-4.3,22.1-8.1,32.2-6.5,17.1-8.5,16.2-13.8,26.1,6.6-5.7,16.1-23.6,20-34.6,7.3-20.2,15.2-70.1,16.6-92.5,1.2-19.5-.6-32.2-3.9-50.4-6-33.1-16.6-53.5-29.8-79.5-7.6-15.1-12.1-19.4-15.2-39.5-2.2-14.7-4.3-35.9-4-50.9.7,1.4.5,1.5.7,3.4l2.1,20.4c.9,7.5,1.9,15.1,3.2,22.4,3.6,20,5.9,20,14.8,36.7,11,20.9,25.4,45.7,31.5,71.4,6.8,28.5,9.4,64.4,5,94.3-2.2,15.1-11.9,56.7-18.3,72.1-1.2,2.9-3,6-3.9,8.8,3.5-2.9,9.4-12.9,12-18,4-7.5,5.7-12.4,7.8-21.7,11.2-50.6,15.5-110.2,8.4-161.4-12.7-91.3-53.1-95.7-56-149.8-.5-9.6.9-25.1.6-28.6l-.1-13.5-8.7-4.3-3.9-1.4c-.9,16.5-.1,35.2-.1,51.9.3,53.90012-.29993,361.7001.6,363.60013Zm-2.5-154.5c-2.8,5.8-1.5,9.2-8.2,19.7-11.6,18-23.9,29.6-25.2,57.7-.8,18,4.3,30.6,10.3,44.7,5,11.6,13.8,27.2,23.2,31.8Z" transform="translate(-309.48806 -204.72542)"/><path class="d" d="M1126.28808,581.42543v237.4c0,8.7,10.1,16.3,20,16.3H1265.488a20.35671,20.35671,0,0,0,15.9-7.2c4.6-5.1,4.1-10.3,4.1-19.6v-187c0-9.8.19995-13,3.1-20a35.18391,35.18391,0,0,1,10.1-13.6c14-10.8,27.9-12.3,45.7-12.6,7.2-.1,12.4-3.4,12.6-11,.1-4.1.5-6.9.5-11.6V439.12541c0-11.1-3.4-19.4-12.4-23.8a23.96073,23.96073,0,0,0-10.2-2.4c-40.5,0-66.1-1.5-102.9,14.7-24.6,10.8-39.5,22.5-57.1,40.1-10.5,10.5-25,30.6-31.1,44.5-5.80005,13.1-7.5,17.3-11.6,31.5-2.99987,9.09991-5.8999,25.8999-5.8999,37.7Zm-247.9-165.1c1.2,6.8-.2,13.6,3.3,30,4.1,19.4,10,31.3,20.7,46.6,4.6,6.5,8.7,13.7,12.9,20.8,8.3,14.2,15.4,29.3,20.1,47.1,4.6,17.2,9.4,37.1,12,55.2,5.6,40.1,5.2,85.6-2.8,124.6-6,29.6-12.8,48.3-30.3,70.5-7.8,9.9-14.7,14-17,16.8,20.6-1.7,55.4-14.2,71.6-22.6,11.30005-5.9,20.1-10.5,29.30005-17.4,2.4-1.7,4.6-3.5,6.8-5.3l11.9-11.1c1.8-1.7,3.4-3.9,5.4-6.2,33-37,45.30005-94.7,33-144.3-15.6-63.1-57.3-93.2-108.6-125.6-4.9-3.1-9.5-5.7-14.8-8.8-13.2-7.8-26.1-21.9-33-36.9-6.3-13.8-7.5-22.7-4.8-39l-15.6-7.9-.10022,13.5Z" transform="translate(-309.48806 -204.72542)"/><path class="e" d="M309.48806,289.9254v115.6c0,9.4,8.2,18.6,14.7,21.5,8.1,3.7,23.3,2.6,33.6,2.6h54.6c8.9,0,20.4-.7,25.4,10.8,2.5,5.9,1.4,45,1.4,53.2v291.5c0,9.1-1.1,28.3.8,35.4,2.4,8.7,10.4,15.6,21.2,15.6h125.5c11.1,0,19.1-6.3,22-14.2,2.4-6.5,1.1-26.6,1.1-35.7v-328.2c0-6.3.1-12.2,2-16.4,6.7-14.9,26.5-12,42.6-12h55.2c6.4,0,10.8-.9,15-3.4a40.35362,40.35362,0,0,0,5.2-3.7,26.04377,26.04377,0,0,0,8.7-19.1v-110.8c0-14.8-11.9-26.8-25.7-26.8h-378.1c-13.3,0-25.2,12.3-25.2,24.1Z" transform="translate(-309.48806 -204.72542)"/><path class="f" d="M863.688,396.82539l.3-.5-1.9-.8-36.1-14.6c4.1,7.6,11.7,23.4,13.9,32.5,2.8,11.5,3.5,30.2-1.4,40.5-8.7,18.4-30.6,34.7-47.5,44.9-19.5,11.7-24.4,15.6-40.5,28.8l-24.9,21.2c-7.9,7.9-9.5,8.7-16.9,17.8a75.6508,75.6508,0,0,0-5,6.6,108.74312,108.74312,0,0,0-8.8,14.3c-22,45.6-22.4,105.9,4.5,149.6,16.8,27.3,42.2,54.3,71,67.7,8.3,3.9,23.9,11.5,33.4,12.9-8.1-7.1-14.2-1.7-39.9-33.2a275.333,275.333,0,0,1-28.7-43.7,194.41415,194.41415,0,0,1-19.7-52.7c-5.3-23.9,1.1-39.5,9.9-58.6,9.1-19.7,17.7-28,30.8-42.2,8.5-9.1,41.1-31.8,52.4-38.5,24.8-14.7,28.4-20.1,38.7-51.7l8.4-27.9c-4.1,21.6-6.6,41.9-16.5,60.2-5.7,10.4-10.9,12.9-19.6,19.3-27.1,19.8-53.5,32.9-74.8,61.3a142.24329,142.24329,0,0,0-20,37.8c-4.3,12.3-6.3,18.8-4.2,33.1,5.5,37.9,28.9,75.4,51.9,103.6l16.1,18.1c5.3,5.8,19,12.1,28.6,15,7.6,2.3,22.8,7.2,30.2,7.8-3.9-.7-15.9-6.2-20-8.1-18.1-8.2-35.1-22.3-47.1-37.5-15-19.1-28.2-55.4-21.2-87.2,6.5-29.5,29.3-51.4,49.6-63.4,6.4-3.7,12.2-6.6,17.7-10.7,17.1-12.8,24.6-31.5,31.4-52.5-.2,5.4-4,17.3-5.7,22.4-11.9,33.8-31.9,34.5-56.4,56.5-13.1,11.8-28,34-31.7,52.8-5.5,28.2,13.9,61.5,29.1,81.8,16.9,22.5,32.7,32,60,39.2,1.9.5,8.9,2.8,10.7,1.9-.8-1.5-.4-.8-2.4-1.8-12.4-6.6-20.6-20-26-32.8-7.8-18.5-11.9-28.4-10.1-51.4,3.8-49,25.9-49.3,36.3-74,2.4-5.8,2.1-6.2,2.1-13.2v-125.5c.00006-41.29984-.99994-83.69983.00006-125.09986Z" transform="translate(-309.48806 -204.72542)"/><path d="M883.88806,816.72542c.9-1.5.2-1.1,2.2-2.3Zm-.8,22.1h-10.5c-8.9-.1-17.9-.4-24.7-.5l-23.9-2.4a204.02788,204.02788,0,0,1-22-4.3,196.755,196.755,0,0,1-63.1-28.3c-8.3-5.7-21.8-16.7-28.6-24-12.9-14-18.1-21.6-27.4-37.7-21.2-36.6-25-91-14-130.7,7.8-28.4,18.6-42.7,34.8-63.4,3.4-4.4,12-12.7,15.9-16.7,10.9-10.9,31.6-25.4,44.3-33.9,5.4-3.6,10.4-6.9,15.8-10.5,2.7-1.8,5.1-3.4,7.9-5.3,11.6-7.7,29.6-17.1,36-29.2,18.4-34.4-9.5-75.4-10.8-81.3a13.51465,13.51465,0,0,1,2.8-2.4c1.4-1,1.8-1.5,2.9-2.3a74.20358,74.20358,0,0,1,8.6,5.6l17,11.3c2.9,2,5.7,4,8.7,5.7l9.3,6.8-36.1-14.6c4.1,7.6,11.7,23.4,13.9,32.5,2.8,11.5,3.5,30.2-1.4,40.5-8.7,18.4-30.6,34.7-47.5,44.9-19.5,11.7-24.4,15.6-40.5,28.8l-24.8,21.2c-7.9,7.9-9.5,8.7-16.9,17.8a75.64859,75.64859,0,0,0-5,6.6,108.74435,108.74435,0,0,0-8.8,14.3c-22,45.6-22.4,105.9,4.5,149.6,16.8,27.3,42.2,54.3,71,67.7,8.3,3.9,23.9,11.5,33.4,12.9-8.1-7.1-14.2-1.7-39.9-33.2a275.33294,275.33294,0,0,1-28.7-43.7,194.41361,194.41361,0,0,1-19.7-52.7c-5.3-23.9,1.1-39.5,9.9-58.6,9.1-19.7,17.7-28,30.8-42.2,8.5-9.1,41.1-31.8,52.4-38.5,24.8-14.7,28.4-20.1,38.7-51.7l8.4-27.9c-4.1,21.6-6.6,41.9-16.5,60.2-5.7,10.4-10.9,12.9-19.6,19.3-27.1,19.8-53.5,32.9-74.8,61.3a142.24329,142.24329,0,0,0-20,37.8c-4.3,12.3-6.3,18.8-4.2,33.1,5.5,37.9,28.9,75.4,51.9,103.6l16.1,18.1c5.3,5.8,19,12.1,28.6,15,7.6,2.3,22.8,7.2,30.2,7.8-3.9-.7-15.9-6.2-20-8.1-18.1-8.2-35.1-22.3-47.1-37.5-15-19.1-28.2-55.4-21.2-87.2,6.5-29.5,29.3-51.4,49.6-63.4,6.4-3.7,12.2-6.6,17.7-10.7,17.1-12.8,24.6-31.5,31.4-52.5-.2,5.4-4,17.3-5.7,22.4-11.9,33.8-31.9,34.5-56.4,56.5-13.1,11.8-28,34-31.7,52.8-5.5,28.2,13.9,61.5,29.1,81.8,16.9,22.5,32.7,32,60,39.2,1.9.5,8.9,2.8,10.7,1.9-.8-1.5-.4-.8-2.4-1.8-12.4-6.6-20.6-20-26-32.8-7.8-18.5-11.9-28.4-10.1-51.4,3.8-49,25.9-49.3,36.3-74,2.4-5.8,2.1-6.2,2.1-13.2v-125.5c0-41.5-.9-83.9.1-125.2,3.4-.1.7-.2,1.8.8v414.9l.6-.2c10.7-20.4,13.5-54.5,13.6-80.2.3-34.8-12-67.3-11.1-82.4,6.9,29.5,18.1,52.5,19.1,86.1.4,14.3-1.8,34.9-3.9,49.1-2.4,16.5-9.1,26.3-16.9,35.4-1.3.7-1.1.1-1.6,1.6,1.6-.5,1.1-.6,1.5-1,4.2-2.4,8.4-6.5,11.3-9.6,10.8-12,16.8-25.8,20.4-42.6,4.4-20.6,9.1-55.4,6.9-76.9-1.1-11.1-4.6-24.2-7.5-34.4-10.1-35.1-21.5-34.1-25.7-58.4-2-11.4-1.5-28.2-1.1-40.2,1.5,11.4,2.2,24.5,4.3,35.9,2.1,11.7,8.1,18.6,13,27.5,23.9,43.9,29,82.5,20.2,132.9-2,11.3-4.3,22.1-8.1,32.2-6.5,17.1-8.5,16.2-13.8,26.1,6.6-5.7,16.1-23.6,20-34.6,7.3-20.2,15.2-70.1,16.6-92.5,1.2-19.5-.6-32.2-3.9-50.4-6-33.1-16.6-53.5-29.8-79.5-7.6-15.1-12.1-19.4-15.2-39.5-2.2-14.7-4.3-35.9-4-50.9.7,1.4.5,1.5.7,3.4l2.1,20.4c.9,7.5,1.9,15.1,3.2,22.4,3.6,20,5.9,20,14.8,36.7,11,20.9,25.4,45.7,31.5,71.4,6.8,28.5,9.4,64.4,5,94.3-2.2,15.1-11.9,56.7-18.3,72.1-1.2,2.9-3,6-3.9,8.8,3.5-2.9,9.4-12.9,12-18,4-7.5,5.7-12.4,7.8-21.7,11.2-50.6,15.5-110.2,8.4-161.4-12.7-91.3-53.1-95.7-56-149.8-.5-9.6.9-25.1.6-28.6,1.2,6.8-.2,13.6,3.3,30,4.1,19.4,10,31.3,20.7,46.6,4.6,6.5,8.7,13.7,12.9,20.8,8.3,14.2,15.4,29.3,20.1,47.1,4.6,17.2,9.4,37.1,12,55.2,5.6,40.1,5.2,85.6-2.8,124.6-6,29.6-12.8,48.3-30.3,70.5-7.8,9.9-14.7,14-17,16.8,20.6-1.7,55.4-14.2,71.6-22.6,11.3-5.9,20.1-10.5,29.3-17.4,2.4-1.7,4.6-3.5,6.80005-5.3l11.9-11.1c1.80005-1.7,3.4-3.9,5.4-6.2,33-37,45.30005-94.7,33-144.3-15.6-63.1-57.3-93.2-108.6-125.6-4.9-3.1-9.5-5.7-14.8-8.8-13.2-7.8-26.1-21.9-33-36.9-6.3-13.8-7.5-22.7-4.8-39l-15.4-7.9-8.7-4.3c1.8-.7,11.7,1.2,14.5,1.5l25.7,3.3c0,2.5-.6,3.8-1,5.8-4.1,19.2,4,40.2,16.9,52.9,12.9,12.8,13.9,13,30,22a422.05794,422.05794,0,0,1,51.6,33.5l17.19995,15.4c2.4,2.4,3.9,4.4,6.30005,6.8a35.73725,35.73725,0,0,1,3.1,3.7c15.80005,17.7,27.30005,40.4,34.69995,62.9,9.80005,29.6,10.7,62.8,4.2,92.3a168.652,168.652,0,0,1-5.9,20.3,172.13758,172.13758,0,0,1-7.6,18.1c-2.4,4.8-8.9,16.7-12.1,21-7.5,10.3-11.6,16-20.69995,25-6.9,6.9-6.8,6.4-13.4,12.3-16.6,14.9-49,29.6-69.8,34.7-11.7,2.9-21,5.1-33,6.4l-11.9,1.2c-4.7,1.50048-9.99994,1.7005-15.79993,1.80047Zm-19.6-180.9.1,153.9c-9.4-4.6-18.3-20.2-23.2-31.8-6-14.1-11.1-26.8-10.3-44.7,1.3-28.1,13.6-39.7,25.2-57.7,6.80005-10.50006,5.50006-13.9,8.2-19.7Z" transform="translate(-309.48806 -204.72542)"/><path class="g" d="M886.08807,814.42543c-2,1.2-1.3.8-2.2,2.3Z" transform="translate(-309.48806 -204.72542)"/><image class="h" width="896" height="896" transform="translate(361.21106 206.76106) scale(0.43056 0.42609)" xlink:href="v2ray.png"/></svg>