<svg xmlns="http://www.w3.org/2000/svg" xmlns:xlink="http://www.w3.org/1999/xlink" viewBox="0 0 192.43 192.82"><defs><linearGradient id="未命名的渐变_474" x1="98.59" y1="5.04" x2="100.84" y2="197.46" gradientUnits="userSpaceOnUse"><stop offset="0" stop-color="#3fa9f5" stop-opacity="0.8"/><stop offset="0.02" stop-color="#37a2ee" stop-opacity="0.81"/><stop offset="0.07" stop-color="#1e8ed9" stop-opacity="0.85"/><stop offset="0.14" stop-color="#0d80c9" stop-opacity="0.88"/><stop offset="0.23" stop-color="#0377c1" stop-opacity="0.9"/><stop offset="0.38" stop-color="#0075be" stop-opacity="0.9"/><stop offset="0.38" stop-color="#0273bd" stop-opacity="0.9"/><stop offset="0.53" stop-color="#1757ad" stop-opacity="0.9"/><stop offset="0.67" stop-color="#2743a2" stop-opacity="0.9"/><stop offset="0.83" stop-color="#30379b" stop-opacity="0.9"/><stop offset="1" stop-color="#339" stop-opacity="0.9"/></linearGradient><linearGradient id="linear-gradient" x1="97.77" y1="165.26" x2="97.77" y2="163.61" gradientUnits="userSpaceOnUse"><stop offset="0" stop-color="#3f4a52"/><stop offset="0.52" stop-color="#747d85"/><stop offset="1" stop-color="#b5bdc8"/></linearGradient><linearGradient id="linear-gradient-2" x1="97.77" y1="164.95" x2="97.77" y2="142.12" gradientUnits="userSpaceOnUse"><stop offset="0.01" stop-color="#8898a3"/><stop offset="0.03" stop-color="#364b56"/><stop offset="0.15" stop-color="#6d7e89"/><stop offset="0.19" stop-color="#50636e"/><stop offset="0.23" stop-color="#8898a3"/><stop offset="0.27" stop-color="#d8ebf2"/><stop offset="0.41" stop-color="#a5b6c0"/><stop offset="0.65" stop-color="#8898a3"/><stop offset="1" stop-color="#364b56"/></linearGradient><linearGradient id="linear-gradient-3" x1="4782.62" y1="163.8" x2="4786.08" y2="162.49" gradientTransform="matrix(-1, 0, 0, 1, 4896.98, 0)" gradientUnits="userSpaceOnUse"><stop offset="0" stop-color="#b5bdc8"/><stop offset="1"/></linearGradient><linearGradient id="linear-gradient-4" x1="81.18" y1="163.8" x2="84.65" y2="162.49" gradientTransform="matrix(1, 0, 0, 1, 0, 0)" xlink:href="#linear-gradient-3"/><linearGradient id="linear-gradient-5" x1="77.58" y1="161.25" x2="110.88" y2="161.25" gradientUnits="userSpaceOnUse"><stop offset="0"/><stop offset="0.5" stop-color="#b5bdc8"/><stop offset="1"/></linearGradient><linearGradient id="linear-gradient-6" x1="37.89" y1="70.26" x2="158.64" y2="139.97" gradientUnits="userSpaceOnUse"><stop offset="0" stop-color="#364b56"/><stop offset="0.13" stop-color="#8898a3"/><stop offset="0.3" stop-color="#d8ebf2"/><stop offset="0.68" stop-color="#8898a3"/><stop offset="1" stop-color="#364b56"/></linearGradient><linearGradient id="linear-gradient-7" x1="99.26" y1="142.63" x2="96.93" y2="139.14" gradientUnits="userSpaceOnUse"><stop offset="0" stop-color="#009ac2"/><stop offset="0.26" stop-color="#00abd4"/><stop offset="0.84" stop-color="#00e3ff"/><stop offset="0.87" stop-color="#00defb"/><stop offset="0.9" stop-color="#00d0ee"/><stop offset="0.93" stop-color="#00b9d9"/><stop offset="0.97" stop-color="#0099bc"/><stop offset="1" stop-color="#00789e"/></linearGradient></defs><g style="isolation:isolate"><g id="图层_1" data-name="图层 1"><path d="M196,109a9.58,9.58,0,1,0-19.15,0l0,.2a78.48,78.48,0,1,1-58.35-85.3l1.83.49,1,.1c8.26,0,17.29-4.35,21.35-10.89a15.36,15.36,0,0,0,2.54-10h-46a96.41,96.41,0,1,0,96.75,105.65Z" transform="translate(-3.54 -3.55)" style="fill:url(#未命名的渐变_474)"/><polyline points="126.6 156.72 158.21 126.39 158.22 119.59 116.19 122.46" style="fill:#fff;stroke:#999"/><polyline points="95.56 90.46 57.64 115.86 127.56 148.99 158.2 119.87" style="fill:#f30;stroke:#999"/><polyline points="57.65 115.8 57.62 122.68 126.86 156.8 127.56 148.99" style="fill:#c30;stroke:#999"/><path d="M130.24,159.87s1.3-.5,5.24-4.65l-5.08,5.13" transform="translate(-3.54 -3.55)" style="fill:#c30;stroke:#999"/><path d="M131,153.92l-.11-1.34,5-4.62S131.85,151.55,131,153.92Z" transform="translate(-3.54 -3.55)" style="fill:#c30;stroke:#999"/><path d="M131.7,152.29l30-28.39,0-.51S132.22,150.66,131.7,152.29Z" transform="translate(-3.54 -3.55)" style="fill:#c30;stroke:#999"/><polyline points="57.73 122.58 126.47 156.47 126.63 155.87 57.73 121.83" style="fill:#f63;stroke:#999;opacity:0.62"/><polyline points="137.09 136.52 145.06 133 156.52 55.55 111.78 27.01 104.13 29.85" style="fill:#fff;stroke:#999"/><polyline points="98.78 103.05 136.93 136.54 147.42 58.94 103.17 29.67" style="fill:#336;stroke:#999"/><polygon points="148.18 58.83 137.5 136.34 136.79 136.64 147.42 58.94 148.18 58.83" style="fill:#003;stroke:#999"/><polygon points="156.84 55.58 145.68 133.02 144.96 133.31 156.08 55.68 156.84 55.58" style="fill:#003;stroke:#999"/><polygon points="147.87 59.25 148.26 58.68 103.85 29.36 103.07 29.79 147.87 59.25" style="fill:#336;stroke:#999;opacity:0.58"/><polygon points="155.74 55.76 156.88 55.48 111.83 26.98 110.68 27.26 155.74 55.76" style="fill:#336;stroke:#999;opacity:0.53"/><polyline points="137.5 136.34 144.42 133.53 155.47 55.87 150.15 57.91 146.9 67.09" style="fill:#afafaf;stroke:#999;opacity:0.6900000000000001"/><polygon points="156.15 55.71 144.99 133.15 144.54 133.33 155.66 55.7 156.15 55.71" style="fill:#274066;stroke:#999"/><path d="M107.36,33.76l8.37-3.3s-4.12-.62-9.09,2.8" transform="translate(-3.54 -3.55)" style="fill:#336;stroke:#999"/><path d="M108.35,33.47s1.94-2.38,6.26-2.44" transform="translate(-3.54 -3.55)" style="fill:#fff;stroke:#999"/><path d="M115.73,30.46s-3.29-1.83-8.59,2.53l1.19-.12s3.89-3,6.56-2.07" transform="translate(-3.54 -3.55)" style="fill:#336;stroke:#999"/><path d="M114.39,163.61l.35.23c.29.2.43.38.41.44s-.08.23-.46.42A21.94,21.94,0,0,1,111,165H84.52a21.67,21.67,0,0,1-3.67-.25c-.38-.2-.48-.36-.46-.42s.12-.24.41-.44l.31-.21c-.08,0-1,.35-1,.65s.23.49.64.71h0a21.24,21.24,0,0,0,3.75.26H111a21.58,21.58,0,0,0,3.76-.26h0c.4-.22.64-.42.65-.71a.67.67,0,0,0-.22-.43A3.76,3.76,0,0,0,114.39,163.61Z" transform="translate(-3.54 -3.55)" style="fill:url(#linear-gradient)"/><path d="M111.54,160c-1.23-4.25-1.78-16.94-1.78-16.94,0-1.21-1-.93-2.18-.93H88c-1.21,0-2.18-.28-2.18.93,0,0-.56,12.69-1.79,16.94-1,3.37-5.29,3.56-3.2,4.67a20.77,20.77,0,0,0,3.72.26H111a20.77,20.77,0,0,0,3.72-.26C116.84,163.58,112.51,163.39,111.54,160Z" transform="translate(-3.54 -3.55)" style="fill:url(#linear-gradient-2)"/><path d="M111.54,160c1,3.36,5.3,3.56,3.2,4.66A20.77,20.77,0,0,1,111,165h-.75Z" transform="translate(-3.54 -3.55)" style="mix-blend-mode:screen;fill:url(#linear-gradient-3)"/><path d="M84,160c-1,3.36-5.29,3.56-3.2,4.66a20.77,20.77,0,0,0,3.72.26h.75Z" transform="translate(-3.54 -3.55)" style="mix-blend-mode:screen;fill:url(#linear-gradient-4)"/><polygon points="77.58 161.4 77.58 161.11 110.88 161.11 110.88 161.4 77.58 161.4 77.58 161.4" style="mix-blend-mode:screen;fill:url(#linear-gradient-5)"/><path d="M154.86,65.76H41.67a2.32,2.32,0,0,0-2.33,2.32v74.07a2.32,2.32,0,0,0,2.33,2.32H154.86a2.32,2.32,0,0,0,2.33-2.32V68.08A2.32,2.32,0,0,0,154.86,65.76Zm2,76.39a2,2,0,0,1-2,2H41.67a2,2,0,0,1-2-2V68.08a2,2,0,0,1,2-2H154.86a2,2,0,0,1,2,2Z" transform="translate(-3.54 -3.55)" style="fill:#fff"/><path d="M154.86,65.9H41.67a2.19,2.19,0,0,0-2.19,2.18v74.07a2.19,2.19,0,0,0,2.19,2.18H154.86a2.19,2.19,0,0,0,2.19-2.18V68.08A2.19,2.19,0,0,0,154.86,65.9Zm-2.65,70.63H44.31V71.21h107.9Z" transform="translate(-3.54 -3.55)" style="fill:url(#linear-gradient-6)"/><path d="M98.27,143.14a2,2,0,1,1,2-2,2,2,0,0,1-2,2Zm0-3.09a1.1,1.1,0,1,0,1.09,1.09,1.09,1.09,0,0,0-1.09-1.09Z" transform="translate(-3.54 -3.55)" style="fill:url(#linear-gradient-7)"/><rect id="LAPTOP" x="40.77" y="67.66" width="107.84" height="65.32" style="fill:none;stroke:#364b56;stroke-width:0.10607000000000001px"/></g></g></svg>