<?xml version="1.0" encoding="utf-8"?>
<!-- Generator: Adobe Illustrator 23.0.6, SVG Export Plug-In . SVG Version: 6.00 Build 0)  -->
<svg version="1.1" id="图层_1" xmlns="http://www.w3.org/2000/svg" xmlns:xlink="http://www.w3.org/1999/xlink" x="0px" y="0px"
	 viewBox="0 0 2494.7 700.6" style="enable-background:new 0 0 2494.7 700.6;" xml:space="preserve">
<style type="text/css">
	.st0{fill:#932279;}
	.st1{fill:#EFA724;}
	.st2{fill:#262577;}
	.st3{fill:#9CCD2A;}
	.st4{fill:#FFFFFF;}
</style>
<title>M_05</title>
<path d="M2146.6,394.6c0,21.2-6.7,39.1-20.1,53.6c-13.4,14.5-30.5,21.8-51.2,21.8l-163.5-0.3V426h134.7c9,0,16.6-2.2,22.8-6.6
	c7-5.1,10.6-12,10.6-20.7c0-20.5-13.9-30.8-41.6-30.8h-68c-19.6,0-36.8-6.3-51.5-19c-14.7-12.7-22.1-28.8-22.1-48.4
	c0-21.7,7.2-39.2,21.5-52.5c14.5-13.6,33.6-20.4,57.1-20.4h156.2v41.5h-137.7c-6.2,0-12.4,2.8-18.8,8.3c-6.2,5.3-9.2,11.6-9.2,19
	c-0.1,8,3.1,15.6,8.9,21.1c6,5.5,14,8.4,22.1,8.3h75c23.3,0,41.6,6.3,54.8,19C2139.8,357.2,2146.6,373.8,2146.6,394.6L2146.6,394.6z
	 M1823.5,346.9c0-23.7-5.4-42.6-16.2-56.7c-12.1-15.7-30-23.5-53.8-23.5c-23.3,0-40.9,8.4-52.8,25.2c-9.9,14.1-14.9,32.4-14.9,55
	c0,26,4,45.3,11.9,57.7c11,17.3,31.4,25.9,61.1,25.9c25.1,0,42.7-8.4,52.8-25.2C1819.5,392.1,1823.5,372.7,1823.5,346.9
	L1823.5,346.9z M1882.2,348.2c0,47-12.4,80.6-37.3,100.9c-20.3,16.4-49.8,24.5-88.5,24.5c-42.9,0-74.6-9.4-95.1-28.3
	c-22.5-20.7-33.7-54-33.7-99.9c0-37.6,10-66.8,30-87.8c21.8-22.8,54.4-34.2,97.7-34.2c47.8,0,81.4,10.9,101,32.8
	C1873.7,275.7,1882.2,306.3,1882.2,348.2L1882.2,348.2z M1612.8,327.8h-44.6v81.2c0,7.4,2.4,13.5,7.3,18.3
	c5.5,4.8,12.8,7.3,21.8,7.3h13.5v34.9h-42.6c-12.8,0-23.7-4.8-32.7-14.5c-5-5.3-8.6-11.9-10.2-19c-1.5-6.9-2.3-15.1-2.3-24.5v-83.6
	h-29.1v-37.3h29.1v-62.9h45.2v62.9h44.6L1612.8,327.8L1612.8,327.8z M1481,469.6h-45.9V351.7c0.1-2.8-0.6-5.5-2-8
	c-1.5-2.7-3.4-5.2-5.6-7.3c-4.1-3.8-9.6-5.9-15.2-5.9h-44.9v138.9h-45.9v-179h87.8c15.6,0,27,0.9,34,2.8
	c10.8,2.6,20.2,9.1,26.4,18.3c7.4,10.7,11.3,23.3,11.2,36.3L1481,469.6L1481,469.6z M1292.7,470.6h-80.6c-19.6,0-36.7-8.8-51.2-26.3
	c-14.3-17.7-21.5-38.1-21.5-61.2c0-25.1,7.8-46.8,23.4-65c15.9-18.4,33.5-27.7,52.8-27.6h76.6v37h-56.1c-6.1-0.1-12.2,0.6-18.2,2.1
	c-5,1.3-9.7,3.8-13.5,7.3c-7.7,6.9-11.6,16.2-11.6,28h99.1v37.3h-98.7c-0.1,4.8,0.5,9.5,1.7,14.2c1.3,3.7,3.9,7.5,7.6,11.4
	c3.7,3.6,8.2,6.3,13.2,7.6c6.3,1.2,12.7,1.8,19.1,1.7h57.8L1292.7,470.6L1292.7,470.6z M1122.7,469.6h-102
	c-10.4,0-20.7-1.5-30.7-4.5c-19.6-6.2-35.1-20.5-46.6-42.9c-10.3-20.3-15.5-43.9-15.5-70.9c0-26,4.6-49.1,13.9-69.1
	c10.1-22.1,24.5-37.2,43.3-45.3c14.1-6.1,29.2-9.3,44.6-9.3h92.5v46.3H1026c-15.6,0-27,8.9-34,26.6c-5.5,13.8-8.3,31.9-8.3,54.3
	c0,18.9,3.5,34.9,10.6,48c8.1,15.4,19.6,23.2,34.3,23.2l94.1-0.3L1122.7,469.6L1122.7,469.6z"/>
<path class="st0" d="M560.9,331.9l18.3,18.2l-18.3,18.2H432.3v60.5L353.9,350l78.4-77.4v59.2H560.9z"/>
<path class="st1" d="M619.1,310.5L601,328.8l-18.2-18.3V181.9h-60.5l78.7-78.4l77.4,78.4h-59.2V310.5z"/>
<path class="st2" d="M640.5,368.8l-18.3-18.2l18.3-18.2h128.6v-60.5l78.4,78.7L769.1,428v-59.2L640.5,368.8z"/>
<path class="st3" d="M582.2,390.1l18.2-18.3l18.2,18.3v128.6h60.5l-78.7,78.4L523,518.7h59.2V390.1L582.2,390.1z M427.7,177.3h156.3
	v156.3H427.7V177.3z"/>
<path class="st4" d="M422.1,171.7h167.4v167.4H422.1L422.1,171.7L422.1,171.7z M433.3,328h145.1V182.9H433.3V328z"/>
<path class="st0" d="M617.4,177.3h156.3v156.3H617.4V177.3z"/>
<path class="st4" d="M611.8,171.7h167.4v167.4H611.8V171.7z M623,328h145.1V182.9H623V328z"/>
<path class="st1" d="M617.4,367.1h156.3v156.3H617.4V367.1z"/>
<path class="st4" d="M611.8,361.5h167.4v167.4H611.8V361.5z M623,517.7h145.1V372.6H623V517.7z"/>
<path class="st2" d="M427.7,367.1h156.3v156.3H427.7V367.1z"/>
<path class="st4" d="M422.1,361.5h167.4v167.4H422.1L422.1,361.5L422.1,361.5z M433.3,517.7h145.1V372.6H433.3V517.7z"/>
<path class="st4" d="M466.5,468.7L348.1,350.3l118.4-118.4l118.4,118.4L466.5,468.7L466.5,468.7z M363.9,350.3l102.6,102.6
	l102.6-102.6L466.5,247.7L363.9,350.3L363.9,350.3z M600.7,334.5L482.3,216.2L600.7,97.8l118.4,118.4L600.7,334.5z M498.1,216.2
	l102.6,102.6l102.6-102.6L600.7,113.6L498.1,216.2z M734.8,468.7L616.5,350.3l118.4-118.4l118.4,118.4L734.8,468.7L734.8,468.7z
	 M632.2,350.3l102.6,102.6l102.6-102.6L734.8,247.7L632.2,350.3L632.2,350.3z M600.7,602.9L482.3,484.5l118.4-118.4l118.4,118.4
	L600.7,602.9z M498.1,484.5l102.6,102.6l102.6-102.6L600.7,381.9L498.1,484.5z"/>
</svg>
