<svg xmlns="http://www.w3.org/2000/svg" viewBox="0 0 2494.68337 700.63233"><defs><style>.a{fill:#932279;}.b{fill:#efa724;}.c{fill:#262577;}.d{fill:#9ccd2a;}.e{fill:#fff;}</style></defs><title>M_05</title><path d="M2664.81176,1049.23286q0,44.106-27.93457,74.313-27.94431,30.207-70.99811,30.20457L2339.147,1153.272v-60.40915h186.88084q18.7833,0,31.60079-9.10969,14.66058-10.545,14.66535-28.76441,0-42.67067-57.71431-42.66819h-94.36315q-40.75942,0-71.45208-26.37227-30.683-26.36248-30.688-67.12186,0-45.06522,29.77006-72.87279,30.22894-28.28111,79.24862-28.286H2643.746v57.52883H2452.74007q-12.82248,0-26.10383,11.51164-12.82986,11.021-12.82971,26.36251a39.18189,39.18189,0,0,0,12.36592,29.25261,44.42,44.42,0,0,0,30.69272,11.50188h103.97568q48.551,0,76.03634,26.36738,27.937,25.89387,27.93933,69.04046ZM2216.6493,983.07278q0-49.37841-22.44715-78.62862-25.19085-32.60162-74.65957-32.60163-48.551,0-73.28772,34.99865-20.614,29.24773-20.6115,76.23156,0,54.175,16.49117,80.0639,22.906,35.95556,84.73588,35.96039,52.21243,0,73.28281-35.00353,16.49131-27.3145,16.49608-81.02076Zm81.52853,1.91859q0,97.79759-51.75832,139.99466-42.14343,34.03694-122.75645,34.0418-89.31754,0-131.915-39.31431-46.72024-43.15394-46.72024-138.55937,0-78.14283,41.682-121.77523,45.34341-47.46714,135.58139-47.46227,99.39393,0,140.16058,45.54367Q2298.18029,897.73637,2298.17783,984.99137Zm-373.78119-28.286h-61.83955V1069.366q0,15.34152,10.07631,25.41053,11.453,10.069,30.22893,10.06655H1921.648V1153.272h-59.09108q-26.56032,0-45.34347-20.1429a57.02809,57.02809,0,0,1-14.20156-26.36739q-3.20736-14.38218-3.20259-34.0418V956.70539h-40.31016V904.92747h40.31016V817.66759h62.74762v87.25988h61.83956v51.77792Zm-182.863,196.56662h-63.67028V989.79033a21.74061,21.74061,0,0,0-2.74848-11.02833,38.772,38.772,0,0,0-7.78179-10.06655,30.77558,30.77558,0,0,0-21.07052-8.15284h-62.29366V1153.2818h-63.68027V904.92259h121.84361q32.51377,0,47.17421,3.83233a61.80832,61.80832,0,0,1,36.64393,25.41051,87.96394,87.96394,0,0,1,15.57342,50.3426v168.75906Zm-261.19864,1.44016H1368.57261q-40.76668,0-70.9932-36.43882-29.78231-36.9075-29.77989-84.86282,0-52.25634,32.52353-90.13045,32.98241-38.35743,73.28772-38.35255h106.27012v51.29459h-77.88175a96.48363,96.48363,0,0,0-25.19085,2.88033,43.50821,43.50821,0,0,0-18.78084,10.06655Q1341.99025,983.55118,1342,1008h137.412v51.7828H1342.45887a73.14257,73.14257,0,0,0,2.28961,19.65471q2.7461,7.67439,10.53034,15.82237a41.11568,41.11568,0,0,0,18.322,10.545,126.407,126.407,0,0,0,26.56263,2.397h80.1616v46.51029Zm-235.7198-1.44016H1103.07784a149.58306,149.58306,0,0,1-42.59984-6.22937q-40.75931-12.94689-64.58326-59.45233-21.522-42.18734-21.5294-98.28332,0-54.18228,19.23972-95.89115,21.07539-46.02453,60.004-62.80621a155.75878,155.75878,0,0,1,61.83471-12.93716H1243.6973V881.914H1110.40061q-32.51377,0-47.17912,36.91239-11.44575,28.76442-11.44817,75.2747,0,39.30944,14.65559,66.63855,16.9452,32.12563,47.638,32.1232l130.54323-.47843V1153.272Z" transform="translate(-170.13315 -637.55313)"/><path class="a" d="M465.26135,962.28544l25.33729,25.20061-25.33729,25.19082H286.87509v83.95479L178.08584,987.48605,286.87509,880.17113v82.11431Z" transform="translate(-170.13315 -637.55313)"/><path class="b" d="M546.03314,932.68133l-25.19082,25.33729-25.20061-25.33729V754.29507H411.6869L520.83741,645.50582l107.31,108.78925H546.03314Z" transform="translate(-170.13315 -637.55313)"/><path class="c" d="M575.64211,1013.45312,550.295,988.2623l25.34707-25.20061H754.02349V879.10688l108.78924,109.1505-108.78924,107.31v-82.1143Z" transform="translate(-170.13315 -637.55313)"/><path class="d" d="M494.86546,1043.06209l25.19082-25.34707,25.20061,25.34707v178.38626h83.95479L520.06116,1330.23271,412.756,1221.44831h82.10941V1043.06205ZM280.47975,747.89973H497.22833V964.65319H280.47975Z" transform="translate(-170.13315 -637.55313)"/><path class="e" d="M272.74186,740.16184H504.97109V972.39106H272.737V740.157Zm15.47576,216.74855H489.48557V755.64249H288.21762v201.2679Z" transform="translate(-170.13315 -637.55313)"/><path class="a" d="M543.67027,747.89973H760.414V964.65319H543.67027Z" transform="translate(-170.13315 -637.55313)"/><path class="e" d="M535.93239,740.16184H768.1665V972.39106H535.93239V740.16184ZM551.413,956.91039H752.681V755.64249H551.413v201.2679Z" transform="translate(-170.13315 -637.55313)"/><path class="b" d="M543.67027,1011.09025H760.414V1227.8388H543.67027Z" transform="translate(-170.13315 -637.55313)"/><path class="e" d="M535.93239,1003.35237H768.1665v232.23411H535.93239ZM551.413,1220.101H752.681V1018.833H551.413Z" transform="translate(-170.13315 -637.55313)"/><path class="c" d="M280.47975,1011.09025H497.22833V1227.8388H280.47975Z" transform="translate(-170.13315 -637.55313)"/><path class="e" d="M272.74186,1003.35237H504.97109v232.23411H272.737V1003.35237ZM288.21762,1220.101H489.48557V1018.833H288.21762Z" transform="translate(-170.13315 -637.55313)"/><path class="e" d="M334.34712,1152.08568l-164.214-164.21886L334.34224,823.65774l164.214,164.20908L334.34714,1152.08568ZM192.02867,987.86682l142.31845,142.31845L476.65579,987.86682,334.34222,845.55813,192.02866,987.86682Zm328.41817-21.89065L356.23776,801.7671l164.20908-164.214,164.214,164.214-164.214,164.2091ZM378.13815,801.76708,520.44684,944.07577,662.76529,801.76708,520.44684,659.44865,378.13815,801.7671Zm328.41819,350.3186L542.34725,987.86682l164.20909-164.2091,164.20914,164.2091-164.2091,164.21886ZM564.23789,987.86682l142.31845,142.31845L848.86988,987.86682,706.55631,845.55813,564.23785,987.86682Zm-43.79105,350.31856L356.23776,1173.97632l164.20908-164.2091,164.214,164.2091-164.214,164.20914ZM378.13815,1173.97629l142.30869,142.31357,142.31845-142.31357L520.44684,1031.66271Z" transform="translate(-170.13315 -637.55313)"/></svg>