<?xml version="1.0" encoding="utf-8"?>
<!-- Generator: Adobe Illustrator 23.0.6, SVG Export Plug-In . SVG Version: 6.00 Build 0)  -->
<svg version="1.1" id="图层_1" xmlns="http://www.w3.org/2000/svg" xmlns:xlink="http://www.w3.org/1999/xlink" x="0px" y="0px"
	 viewBox="0 0 336 235.2" style="enable-background:new 0 0 336 235.2;" xml:space="preserve">
<style type="text/css">
	.st0{fill:#646464;}
	.st1{fill:url(#SVGID_1_);}
	.st2{fill:url(#SVGID_2_);}
</style>
<title>Artboard 1</title>
<g>
	<path class="st0" d="M155.9,110.6c0-8.7-2.5-13.1-7.4-13.4c-2-0.1-3.9,0.2-5.8,0.9c-1.5,0.5-2.5,1.1-3,1.6v20.7
		c3.2,2,6,2.9,8.4,2.8C153.3,122.9,155.9,118.7,155.9,110.6L155.9,110.6z M162,111c0,4.4-1,8.1-3.1,11c-2.3,3.3-5.5,5-9.6,5.1
		c-3.1,0.1-6.3-0.9-9.6-2.9V143l-5.3-1.9V99.3c0.9-1.1,2-2,3.4-2.8c3.2-1.8,7-2.8,11.5-2.8l0.1,0.1c4.1-0.1,7.3,1.6,9.5,5.1
		C161,102,162,106,162,111L162,111z M194.5,123.3c0,5.9-0.6,10-1.8,12.3c-1.2,2.3-3.5,4.1-6.8,5.4c-2.7,1.1-5.6,1.6-8.8,1.7
		l-0.9-3.3c3.2-0.4,5.5-0.9,6.8-1.3c2.6-0.9,4.3-2.2,5.3-4c0.8-1.5,1.2-4.2,1.2-8.4v-1.4c-3.6,1.6-7.4,2.5-11.4,2.5
		c-2.6,0-4.9-0.8-6.9-2.5c-2.2-1.8-3.3-4.1-3.3-6.8V95.5l5.3-1.8v22.2c0,2.4,0.8,4.2,2.3,5.5c1.5,1.3,3.5,1.9,6,1.9
		c2.4-0.1,5-1,7.8-2.8V94.5h5.3L194.5,123.3z M215.2,126.7c-0.6,0-1.2,0.1-1.7,0.1c-3,0-5.3-0.7-7-2.1c-1.7-1.4-2.5-3.4-2.5-5.9
		V97.8h-3.6v-3.3h3.6v-8.9l5.3-1.9v10.8h6v3.3h-6v20.8c0,2,0.5,3.4,1.6,4.2c0.9,0.7,2.4,1.1,4.4,1.2L215.2,126.7z M247.3,126.3H242
		v-20.5c0-2.1-0.5-3.9-1.5-5.4c-1.1-1.7-2.7-2.5-4.7-2.5c-2.4,0-5.5,1.3-9.1,3.9v24.6h-5.3v-49l5.3-1.7V98c3.4-2.5,7.1-3.7,11.1-3.7
		c2.8,0,5.1,0.9,6.8,2.8c1.7,1.9,2.6,4.2,2.6,7.1V126.3z M275.6,109.8c0-3.3-0.6-6.1-1.9-8.3c-1.5-2.7-3.8-4.1-7-4.2
		c-5.8,0.3-8.7,4.5-8.7,12.5c0,3.7,0.6,6.7,1.8,9.2c1.6,3.1,3.9,4.7,7,4.6C272.6,123.6,275.6,119,275.6,109.8L275.6,109.8z
		 M281.4,109.8c0,4.7-1.2,8.7-3.6,11.8c-2.7,3.5-6.3,5.3-11,5.3c-4.7,0-8.3-1.8-10.9-5.3c-2.4-3.2-3.6-7.1-3.6-11.8
		c0-4.5,1.3-8.2,3.9-11.3c2.7-3.2,6.3-4.9,10.7-4.9s8,1.6,10.8,4.9C280.1,101.6,281.4,105.4,281.4,109.8L281.4,109.8z M311.8,126.3
		h-5.3v-21.7c0-2.4-0.7-4.2-2.1-5.6c-1.4-1.3-3.3-2-5.7-1.9c-2.5,0-4.9,0.9-7.2,2.5v26.7h-5.3V99c3.1-2.2,5.9-3.7,8.4-4.4
		c2.4-0.6,4.6-0.9,6.4-0.9c1.3,0,2.4,0.1,3.6,0.4c2.1,0.5,3.8,1.4,5.1,2.7c1.5,1.5,2.2,3.2,2.2,5.2L311.8,126.3z"/>
</g>
<linearGradient id="SVGID_1_" gradientUnits="userSpaceOnUse" x1="-491.3062" y1="481.4618" x2="-478.4791" y2="470.4257" gradientTransform="matrix(2.9577 0 0 -2.9863 1478.2384 1513.354)">
	<stop  offset="0" style="stop-color:#5A9FD4"/>
	<stop  offset="1" style="stop-color:#306998"/>
</linearGradient>
<path class="st1" d="M60.8,73.6c-2.8,0-5.5,0.3-7.9,0.7c-7,1.2-8.3,3.8-8.3,8.6v6.3h16.6v2.1H38.3c-4.8,0-9,2.9-10.4,8.4
	c-1.5,6.3-1.6,10.3,0,16.9c1.2,4.9,4,8.4,8.8,8.4h5.7v-7.6c0-5.5,4.7-10.3,10.4-10.3h16.6c4.6,0,8.3-3.8,8.3-8.4V82.9
	c0-4.5-3.8-7.9-8.3-8.6C66.5,73.8,63.6,73.6,60.8,73.6L60.8,73.6z M51.8,78.7c1.7,0,3.1,1.4,3.1,3.2c0,1.7-1.4,3.2-3.1,3.2
	c-1.7,0-3.1-1.4-3.1-3.2C48.7,80.1,50.1,78.7,51.8,78.7L51.8,78.7z"/>
<linearGradient id="SVGID_2_" gradientUnits="userSpaceOnUse" x1="-473.52" y1="463.7462" x2="-478.1006" y2="470.227" gradientTransform="matrix(2.9577 0 0 -2.9863 1478.2384 1513.354)">
	<stop  offset="0" style="stop-color:#FFD43B"/>
	<stop  offset="1" style="stop-color:#FFE873"/>
</linearGradient>
<path class="st2" d="M79.8,91.3v7.4c0,5.7-4.8,10.5-10.4,10.5H52.8c-4.5,0-8.3,3.9-8.3,8.4v15.8c0,4.5,3.9,7.1,8.3,8.4
	c5.3,1.5,10.3,1.8,16.6,0c4.2-1.2,8.3-3.6,8.3-8.4v-6.3H61.1V125H86c4.8,0,6.6-3.4,8.3-8.4c1.7-5.2,1.7-10.2,0-16.9
	c-1.2-4.8-3.5-8.4-8.3-8.4H79.8z M70.4,131.3c1.7,0,3.1,1.4,3.1,3.2c0,1.7-1.4,3.2-3.1,3.2c-1.7,0-3.1-1.4-3.1-3.2
	C67.3,132.7,68.7,131.3,70.4,131.3z"/>
</svg>
