<?xml version="1.0" standalone="no"?><!DOCTYPE svg PUBLIC "-//W3C//DTD SVG 1.1//EN" "http://www.w3.org/Graphics/SVG/1.1/DTD/svg11.dtd"><svg t="1605772080460" class="icon" viewBox="0 0 1024 1024" version="1.1" xmlns="http://www.w3.org/2000/svg" p-id="11895" xmlns:xlink="http://www.w3.org/1999/xlink" width="200" height="200"><defs><style type="text/css"></style></defs><path d="M675.6352 826.8928l122.176 39.1936v156.096l-122.1888-42.5984V826.8928z m-344.832-110.464l41.6512 13.3504a93.952 93.952 0 0 1-2.5856 20.6976c5.0176-5.312 9.472-11.1104 13.376-17.216l90.944 29.12a533.1584 533.1584 0 0 1-11.4432 22.72c9.984-5.7088 19.3024-11.52 27.9936-17.4208l161.9072 51.8656v152.0256l-321.856-112.1536 0.0128-142.976z m-291.6096-93.44l136.0256 43.5968c11.8784 43.264 47.8208 80.3328 118.1184 118.5152-22.9632-47.296-21.248-65.2288-9.4976-83.712l23.9744 7.68v142.336L39.1808 757.8112V622.9888z m553.2416 13.0176l205.376 65.8304v140.1216l-280.7936-90.0096v-3.904c43.4688-35.8784 66.2656-74.2144 75.4176-112.0384z m-184.64-18.432c70.5536 49.408 96.384 66.368 75.4048 123.5456l-89.0368-28.544c15.6416-36.224 17.2928-76.8 13.632-94.9888z m-50.5728 62.6944s7.296 8.832 11.776 24.2432l-70.784-22.6816c1.7024-2.24 3.456-4.5824 5.248-7.0528 27.8016-40.128 53.76 5.504 53.76 5.504z m318.4128-175.7824l122.176 37.3504v135.9744l-122.176-39.1936v-134.144zM39.1936 458.7392l130.688 41.8304v140.1216l-130.688-41.8432V458.752z m519.8976 10.0992l93.5552 28.6336v133.7984l-56.2944-18.0352c5.5936-53.2992-13.568-104.32-37.2608-144.3968z m-366.208 39.2064l16.2688 5.2224c-5.3504 10.7264-11.008 21.44-16.2816 32.3328V508.032zM39.1808 123.328L797.824 344.0256v173.9008l-258.688-79.2192a347.3792 347.3792 0 0 0-22.1184-27.1104V278.272h-22.976l-0.0128 111.3344a48.576 48.576 0 0 0-0.9216-0.6784l0.9216 1.9584v34.048l-33.0368-10.112c-43.5072-92.2368-110.6944-114.9184-114.3808-116.096l-0.1536-0.064c4.288 25.5616 0.9984 52.2752-7.296 78.8736l-146.2784-44.7744v-154.368h-22.9888V325.632l-130.688-40V123.328z m0 186.3296l268.6208 82.304v53.824c-12.7744 21.5552-27.5456 42.2144-42.7264 61.2096l-13.7728-4.4032c-1.8688-20.6208-4.9792-38.3232-18.6496-63.5136-0.8576 18.5984-6.3104 36.0576-13.6448 53.1456L39.1936 434.5984v-124.9408z m433.1904 132.6336l26.2144 8.0256c-2.8928 10.3296-7.9744 19.6224-15.616 26.368a368.6016 368.6016 0 0 0-10.5984-34.3936z" fill="#f44336" p-id="11896"></path><path d="M252.3776 725.3376c0-33.1136 6.4128-35.456 27.904-65.536C303.9232 625.408 348.8 640 348.8 640s39.1936 10.048 30.592 46.5792c20.5568-44.16 18.88-73.984 14.592-95.4624 73.0624 51.584 150.5792 71.808 107.5968 153.472 146.3296-164.3264 24.704-294.4384 8.896-314.7136-12.5824 43.3536-46.72-30.912-59.7248 61.6192-32.2432-126.8096-86.5024-147.4688-86.5024-147.4688 10.752 64.4736-57.216 146.24-102.3488 199.9744-3.968-16.6912-14.9632-20.0448-30.0032-47.9744-2.1504 47.2704-19.7248 51.6224-30.4768 98.9056-12.8896 66.624-28.6336 73.024 50.9696 130.4064z" fill="#f44336" p-id="11897"></path><path d="M981.7216 691.9552v134.8224L797.824 1022.1824V868.736l183.9104-176.7808z m0-32.8704L797.824 835.84V703.4624l183.9104-162.9952v118.6304z m0-149.7728L797.824 672.2944V544.256l183.9104-148.9664v114.0224zM797.824 344.0256l183.9104-149.4272v171.1488L797.824 514.8288V344.0256z" fill="#f44336" p-id="11898"></path><path d="M39.1936 123.328L797.824 344.0256l183.9104-149.4272L264.0256 14.592z" fill="#3ED6FF" p-id="11899"></path><path d="M2.4192 117.5808l799.5392 224.832L1019.8912 193.92 264.0256 0.8064z" fill="#f44336" p-id="11900"></path><path d="M0.8064 142.1824V117.5808l801.152 224.832v28.5056z" fill="#cdcdcd" p-id="11901"></path><path d="M1019.8912 193.92v27.3408L801.9584 370.9184v-28.5056z" fill="#cdcdcd" p-id="11902"></path></svg>