<?xml version="1.0" encoding="utf-8"?>
<!-- Generator: Adobe Illustrator 21.0.0, SVG Export Plug-In . SVG Version: 6.00 Build 0)  -->
<svg version="1.1" id="Layer_1" xmlns="http://www.w3.org/2000/svg" xmlns:xlink="http://www.w3.org/1999/xlink" x="0px" y="0px"
	 width="1400px" height="980px" viewBox="0 0 1400 980" enable-background="new 0 0 1400 980" xml:space="preserve">
<g>
	<g>
		<g>
			<linearGradient id="XMLID_10_" gradientUnits="userSpaceOnUse" x1="700" y1="650.7852" x2="700" y2="180.283">
				<stop  offset="4.594595e-02" style="stop-color:#92D7E7"/>
				<stop  offset="1" style="stop-color:#00BBD6"/>
			</linearGradient>
			<rect id="XMLID_2_" fill="url(#XMLID_10_)" width="1400" height="980"/>
		</g>
	</g>
	<path id="XMLID_3_" fill="#9BDAEA" d="M634.8,374.9c51.3-45.5,360.9,7.4,459.4,0c98.5-7.4,69.3-22.3,146.7-67.1
		c50.6-29.3,113.4-26.2,150.7-20.6v133.2H8.3v-33.6C134.7,393.3,590.6,414.1,634.8,374.9z"/>
	<path id="XMLID_7_" fill="#9BDAEA" d="M765.1,303.3c-51.3-19.8-360.9,3.2-459.4,0c-98.5-3.2-69.3-9.7-146.7-29.2
		c-50.6-12.8-113.4-11.4-150.7-9v57.9h1383.3v-14.6C1265.3,311.3,809.3,320.3,765.1,303.3z"/>
	<path fill="#4899C3" d="M1371.7,747.3c0,0-86.9,11-125.9,0c-39-11-132-31.5-132-31.5s-36,9.4-78,19.1c-42,9.6-108,5.5-108,5.5
		s-114,42-227.8,42.3c-113.8,0.3-276.2-35.5-276.2-35.5h-42l-39-21c0,0-39,10-117,35.3C147.8,786.9,0,800.1,0,800.1V954h1400V766.6
		L1371.7,747.3z"/>
	<g>
		<path fill="#E0E9ED" d="M735.7,807.9c5,5.4,9.7,11.3,13.9,17h39.5c-21-62.6-83.5-219.9-208.7-320.5c60.2-21,111.1-23.7,111.1-23.7
			c-70-41.2-144.6-42.2-201.6-33.1c-179.8-89.6-264.1-27.2-292.3-24.7c-29.9,2.7-46.5-8.7-48.7,6.7s55.7,98.8,119.2,144.1
			C331.7,619,715.8,786.1,735.7,807.9z"/>
		<path fill="#1B4856" d="M455.3,782.1c-89.9-121-51.9-206.5-51.9-206.5l91,58.7C455.2,675.7,455.3,782.1,455.3,782.1z"/>
		<path fill="#1B4856" d="M704.6,691.1c6.8,26.4-89.6,14.8-70.6,36.1c19,21.3,114.4,45.2,126.2,76.7c11.9,31.5,5.4,44.6,5.4,44.6
			c-9.9,4.7-41.3,21.1-50,43.6c-1.6,4.1-2.9,8.4-4.1,12.9h153.9c-2.7-8-6.7-14.8-12.4-19.7c-25.2-21.7-48.9-36.2-57.9-41.5
			C783,803,721.4,617.7,580.5,504.4c60.2-21,111.1-23.7,111.1-23.7c-70-41.2-144.6-42.2-201.6-33.1
			c-179.8-89.6-264.1-27.2-292.3-24.7c-29.9,2.7-46.5-8.7-48.7,6.7c0,0,71.9,64.2,96.2,89.8c38.6,40.6,290.6,128.8,311.4,151.2
			C577.4,692.9,697.8,664.7,704.6,691.1z"/>
		<path fill="#D1D3D4" d="M314.8,530.1c0,0,1.6-15.9-4.1-20.8s-65.4-23.2-65.1-13.1C245.9,506.3,292.7,548.1,314.8,530.1z"/>
	</g>
	<path fill="#E0E9ED" d="M507.3,846.3c0,0,72.7-32.8,63.4-61.1c-9.2-28.3-31.3-56.6-31.3-56.6s64.3,52.1,74.9,52.1s14.5-39,14.5-39
		s25.1,41.2,47.6,45.8c22.5,4.5,38.3-20.4,38.3-20.4s21.6,47.4,43.8,50.3c22.2,2.9,33.7-123.9,34.5-119.4s-1.8,58.9,14.1,63.4
		C823,766,910.2,631.2,910.2,631.2s-95.1,169.8-60.8,240c34.4,70.2-215.4,91.7-215.4,91.7L507.3,846.3z"/>
	<g>
		<g>
			<rect id="XMLID_4_" x="0" y="816" fill="#00BBD6" width="1400" height="164"/>
		</g>
	</g>
	<g>
		<path fill="#E2E3E4" d="M1193.2,828.4c0,0-4.3-0.1-12.4-0.4c-8.1-0.2-19.9-0.5-35-0.8c-7.5-0.2-15.9-0.3-25-0.4
			c-9.1-0.2-18.9-0.3-29.4-0.4c-21-0.3-44.7-0.5-70.5-0.7c-25.8-0.1-53.8-0.3-83.5-0.1c-29.6,0.1-60.8,0.7-93.1,1.2
			c-32.3,0.5-65.7,0.9-99.6,0.8c-33.9,0-68.4-0.4-102.8-0.9c-17.2-0.2-34.5-0.5-51.6-0.7c-8.6-0.1-17.1-0.2-25.7-0.3
			c-8.5-0.1-17.1-0.1-25.5-0.2c-33.9-0.2-67.3-0.4-99.6-0.6c-32.3-0.2-63.5-0.2-93.1,0c-29.6,0.1-57.6,0.4-83.5,0.6
			c-25.8,0.3-49.5,0.5-70.5,0.8c-10.5,0.1-20.3,0.3-29.4,0.5c-9.1,0.2-17.4,0.3-25,0.5c-15.1,0.3-26.9,0.6-35,0.8
			c-8.1,0.2-12.4,0.3-12.4,0.3v0.7c0,0,4.3,0.1,12.4,0.3c8.1,0.2,19.9,0.5,35,0.8c7.5,0.1,15.9,0.3,25,0.5
			c9.1,0.2,18.9,0.3,29.4,0.5c21,0.3,44.7,0.6,70.5,0.8c25.8,0.2,53.8,0.5,83.5,0.6c29.6,0.1,60.8,0.1,93.1,0
			c32.3-0.2,65.7-0.4,99.6-0.6c8.5-0.1,17-0.1,25.5-0.2c8.5-0.1,17.1-0.2,25.7-0.3c17.2-0.2,34.4-0.5,51.6-0.7
			c34.5-0.5,68.9-0.9,102.8-0.9c33.9-0.1,67.3,0.3,99.6,0.8c32.3,0.5,63.5,1.1,93.1,1.2c29.6,0.2,57.6,0,83.5-0.1
			c25.8-0.2,49.5-0.4,70.5-0.7c10.5-0.1,20.3-0.3,29.4-0.4c9.1-0.1,17.4-0.3,25-0.4c15.1-0.3,26.9-0.6,35-0.8
			c8.1-0.2,12.4-0.4,12.4-0.4V828.4z"/>
		<path fill="#E2E3E4" d="M1106.5,840.7c0,0-14.7-0.6-40.5-1.2c-6.4-0.2-13.6-0.3-21.3-0.4c-7.8-0.2-16.1-0.3-25.1-0.4
			c-17.9-0.3-38.2-0.5-60.2-0.7c-22.1-0.1-46-0.3-71.3-0.1c-25.3,0.1-52,0.7-79.5,1.2c-27.6,0.5-56.1,0.9-85.1,0.8
			c-29,0-58.4-0.4-87.8-0.9c-14.7-0.2-29.4-0.5-44.1-0.7c-7.3-0.1-14.6-0.2-21.9-0.3c-7.3-0.1-14.6-0.1-21.8-0.2
			c-29-0.2-57.5-0.4-85.1-0.6c-27.6-0.2-54.3-0.2-79.5,0c-25.3,0.1-49.2,0.4-71.3,0.6c-22.1,0.3-42.3,0.5-60.2,0.8
			c-9,0.1-17.4,0.3-25.1,0.5c-7.8,0.2-14.9,0.3-21.3,0.5c-12.9,0.3-23,0.6-29.9,0.8c-6.9,0.2-10.6,0.3-10.6,0.3v0.7
			c0,0,3.7,0.1,10.6,0.3c6.9,0.2,17,0.5,29.9,0.8c6.4,0.2,13.6,0.3,21.3,0.5c7.8,0.2,16.1,0.3,25.1,0.5c17.9,0.3,38.2,0.6,60.2,0.8
			c22.1,0.2,46,0.5,71.3,0.6c25.3,0.1,52,0.1,79.5,0c27.6-0.1,56.1-0.3,85.1-0.6c7.2-0.1,14.5-0.1,21.8-0.2
			c7.3-0.1,14.6-0.2,21.9-0.3c14.7-0.2,29.4-0.5,44.1-0.7c29.4-0.5,58.8-0.9,87.8-0.9c29-0.1,57.5,0.3,85.1,0.8
			c27.6,0.5,54.3,1.1,79.5,1.2c25.3,0.2,49.2,0,71.3-0.1c22.1-0.2,42.3-0.4,60.2-0.7c9-0.1,17.4-0.3,25.1-0.4
			c7.8-0.1,14.9-0.3,21.3-0.4c25.7-0.6,40.5-1.2,40.5-1.2V840.7z"/>
		<path fill="#E2E3E4" d="M976.4,853.1c0,0-9.6-0.6-26.4-1.2c-4.2-0.2-8.8-0.3-13.9-0.4c-5.1-0.2-10.5-0.3-16.4-0.4
			c-11.7-0.3-24.9-0.5-39.2-0.6c-14.4-0.1-29.9-0.3-46.4-0.1c-16.5,0.1-33.8,0.7-51.8,1.2c-18,0.5-36.5,0.9-55.4,0.8
			c-18.9,0-38-0.4-57.2-0.9c-9.6-0.2-19.2-0.5-28.7-0.7c-4.8-0.1-9.5-0.2-14.3-0.3c-4.7-0.1-9.5-0.1-14.2-0.2
			c-18.9-0.2-37.4-0.4-55.4-0.6c-18-0.2-35.3-0.2-51.8,0c-16.5,0.1-32,0.4-46.4,0.6c-14.4,0.3-27.5,0.5-39.2,0.8
			c-5.8,0.1-11.3,0.3-16.4,0.5c-5.1,0.2-9.7,0.3-13.9,0.5c-8.4,0.3-15,0.6-19.5,0.8c-4.5,0.2-6.9,0.3-6.9,0.3v0.7
			c0,0,2.4,0.1,6.9,0.3c4.5,0.2,11.1,0.5,19.5,0.8c4.2,0.2,8.8,0.3,13.9,0.5c5.1,0.2,10.5,0.3,16.4,0.5c11.7,0.3,24.9,0.6,39.2,0.8
			c14.4,0.2,29.9,0.5,46.4,0.6c16.5,0.1,33.8,0.1,51.8,0c18-0.1,36.5-0.3,55.4-0.6c4.7-0.1,9.5-0.1,14.2-0.2
			c4.7-0.1,9.5-0.2,14.3-0.3c9.5-0.2,19.1-0.5,28.7-0.7c19.2-0.5,38.3-0.9,57.2-0.9c18.9-0.1,37.4,0.3,55.4,0.8
			c18,0.5,35.3,1.1,51.8,1.2c16.5,0.2,32,0,46.4-0.1c14.4-0.2,27.5-0.4,39.2-0.6c5.8-0.1,11.3-0.3,16.4-0.4
			c5.1-0.1,9.7-0.3,13.9-0.4c16.8-0.6,26.4-1.2,26.4-1.2V853.1z"/>
		<path fill="#E2E3E4" d="M1063.1,865.4c0,0-6.4-0.6-17.6-1.2c-11.2-0.6-27.1-1.2-46.3-1.5c-9.6-0.1-20-0.3-30.9-0.1
			c-11,0.1-22.6,0.7-34.5,1.2c-12,0.5-24.4,0.9-36.9,0.8c-12.6,0-25.4-0.4-38.1-0.9c-12.8-0.5-25.6-1-38.1-1.2
			c-12.6-0.2-25-0.4-36.9-0.6c-12-0.1-23.6-0.2-34.5,0c-11,0.1-21.4,0.3-30.9,0.6c-9.6,0.2-18.4,0.5-26.2,0.8
			c-7.8,0.3-14.6,0.6-20.2,0.9c-11.2,0.6-17.6,1.1-17.6,1.1v0.7c0,0,6.4,0.5,17.6,1.1c5.6,0.3,12.4,0.6,20.2,0.9
			c7.8,0.3,16.6,0.6,26.2,0.8c9.6,0.2,20,0.4,30.9,0.6c11,0.1,22.6,0.1,34.5,0c12-0.1,24.4-0.4,36.9-0.6c12.6-0.2,25.4-0.7,38.1-1.2
			c12.8-0.5,25.6-0.9,38.1-0.9c12.6-0.1,25,0.3,36.9,0.8c12,0.5,23.6,1.1,34.5,1.2c11,0.2,21.4,0,30.9-0.1
			c19.2-0.3,35.1-0.9,46.3-1.5c11.2-0.6,17.6-1.2,17.6-1.2V865.4z"/>
		<path fill="#E2E3E4" d="M734.8,883.9c0,0-6.9-0.6-18.9-1.2c-12-0.6-29.2-1.2-49.8-1.5c-10.3-0.1-21.5-0.3-33.3-0.1
			c-11.8,0.1-24.3,0.7-37.2,1.2c-12.9,0.5-26.2,0.9-39.7,0.8c-13.5,0-27.3-0.4-41-0.9c-13.7-0.5-27.5-1-41-1.2
			c-13.5-0.2-26.8-0.4-39.7-0.6c-12.9-0.1-25.3-0.2-37.2,0c-11.8,0.1-23,0.3-33.3,0.6c-10.3,0.2-19.8,0.5-28.1,0.8
			c-8.4,0.3-15.7,0.6-21.7,0.9c-12,0.6-18.9,1.1-18.9,1.1v0.7c0,0,6.9,0.5,18.9,1.1c6,0.3,13.3,0.6,21.7,0.9
			c8.4,0.3,17.8,0.6,28.1,0.8c10.3,0.2,21.5,0.4,33.3,0.6c11.8,0.1,24.3,0.1,37.2,0c12.9-0.1,26.2-0.4,39.7-0.6
			c13.5-0.2,27.3-0.7,41-1.2c13.7-0.5,27.5-0.9,41-0.9c13.5-0.1,26.8,0.3,39.7,0.8c12.9,0.5,25.3,1.1,37.2,1.2
			c11.8,0.2,23,0,33.3-0.1c20.6-0.3,37.8-0.9,49.8-1.5c12-0.6,18.9-1.2,18.9-1.2V883.9z"/>
		<path fill="#E2E3E4" d="M580,865.4c0,0-6.3-0.6-17.3-1.2c-11-0.6-26.7-1.2-45.6-1.5c-9.4-0.1-19.7-0.3-30.5-0.1
			c-10.8,0.1-22.2,0.7-34,1.2c-11.8,0.5-24,0.9-36.4,0.8c-12.4,0-25-0.4-37.6-0.9c-12.6-0.5-25.2-1-37.6-1.2
			c-12.4-0.2-24.6-0.4-36.4-0.6c-11.8-0.1-23.2-0.2-34,0c-10.8,0.1-21,0.3-30.5,0.6c-9.4,0.2-18.1,0.5-25.8,0.8
			c-7.7,0.3-14.4,0.6-19.9,0.9c-11,0.6-17.3,1.1-17.3,1.1v0.7c0,0,6.3,0.5,17.3,1.1c5.5,0.3,12.2,0.6,19.9,0.9
			c7.7,0.3,16.3,0.6,25.8,0.8c9.4,0.2,19.7,0.4,30.5,0.6c10.8,0.1,22.2,0.1,34,0c11.8-0.1,24-0.4,36.4-0.6c12.4-0.2,25-0.7,37.6-1.2
			c12.6-0.5,25.2-0.9,37.6-0.9c12.4-0.1,24.6,0.3,36.4,0.8c11.8,0.5,23.2,1.1,34,1.2c10.8,0.2,21,0,30.5-0.1
			c18.9-0.3,34.6-0.9,45.6-1.5c11-0.6,17.3-1.2,17.3-1.2V865.4z"/>
	</g>
	<g>
		<path fill="#1B4856" d="M1193.2,826.8c0,0-3.4-0.1-9.7-0.2c-6.3-0.1-15.6-0.3-27.4-0.4c-5.9-0.1-12.4-0.2-19.6-0.2
			c-7.1-0.1-14.8-0.2-23-0.2c-16.4-0.2-35-0.3-55.2-0.4c-20.2,0-42.2-0.2-65.4-0.1c-23.2,0.1-47.7,0.4-73,0.7
			c-25.3,0.3-51.4,0.5-78,0.4c-26.6,0-53.6-0.2-80.5-0.5c-13.5-0.1-27-0.3-40.4-0.4c-6.7-0.1-13.4-0.1-20.1-0.2
			c-6.7,0-13.4-0.1-20-0.1c-26.6-0.1-52.7-0.2-78-0.3c-25.3-0.1-49.8-0.1-73,0c-23.2,0.1-45.1,0.2-65.4,0.3
			c-20.2,0.2-38.8,0.3-55.2,0.5c-8.2,0.1-15.9,0.2-23,0.3c-7.1,0.1-13.7,0.2-19.6,0.2c-11.8,0.2-21.1,0.3-27.4,0.4
			c-6.3,0.1-9.7,0.2-9.7,0.2v0.4c0,0,3.4,0.1,9.7,0.2c6.3,0.1,15.6,0.3,27.4,0.4c5.9,0.1,12.4,0.2,19.6,0.2c7.1,0.1,14.8,0.2,23,0.3
			c16.4,0.2,35,0.3,55.2,0.5c20.2,0.1,42.2,0.3,65.4,0.3c23.2,0.1,47.7,0.1,73,0c25.3-0.1,51.4-0.2,78-0.3c6.6,0,13.3-0.1,20-0.1
			c6.7-0.1,13.4-0.1,20.1-0.2c13.4-0.1,26.9-0.3,40.4-0.4c27-0.3,54-0.5,80.5-0.5c26.6,0,52.7,0.2,78,0.4c25.3,0.3,49.8,0.6,73,0.7
			c23.2,0.1,45.1,0,65.4-0.1c20.2-0.1,38.8-0.2,55.2-0.4c8.2-0.1,15.9-0.1,23-0.2c7.1-0.1,13.7-0.2,19.6-0.2
			c11.8-0.2,21.1-0.3,27.4-0.4c6.3-0.1,9.7-0.2,9.7-0.2V826.8z"/>
		<path fill="#1B4856" d="M1125.3,833.6c0,0-11.5-0.3-31.7-0.6c-5-0.1-10.6-0.2-16.7-0.2c-6.1-0.1-12.6-0.2-19.7-0.2
			c-14-0.2-29.9-0.3-47.2-0.4c-17.3-0.1-36-0.1-55.8-0.1c-19.8,0.1-40.7,0.4-62.3,0.7c-21.6,0.3-43.9,0.5-66.6,0.4
			c-22.7,0-45.7-0.2-68.8-0.5c-11.5-0.1-23-0.3-34.5-0.4c-5.7-0.1-11.5-0.1-17.2-0.2c-5.7,0-11.4-0.1-17.1-0.1
			c-22.7-0.1-45-0.2-66.6-0.3c-21.6-0.1-42.5-0.1-62.3,0c-19.8,0.1-38.5,0.2-55.8,0.3c-17.3,0.2-33.1,0.3-47.2,0.5
			c-7,0.1-13.6,0.2-19.7,0.3c-6.1,0.1-11.7,0.2-16.7,0.2c-10.1,0.2-18,0.3-23.4,0.4c-5.4,0.1-8.3,0.2-8.3,0.2v0.4
			c0,0,2.9,0.1,8.3,0.2c5.4,0.1,13.3,0.3,23.4,0.4c5,0.1,10.6,0.2,16.7,0.2c6.1,0.1,12.6,0.2,19.7,0.3c14,0.2,29.9,0.3,47.2,0.5
			c17.3,0.1,36,0.3,55.8,0.3c19.8,0.1,40.7,0.1,62.3,0c21.6-0.1,43.9-0.2,66.6-0.3c5.7,0,11.4-0.1,17.1-0.1
			c5.7-0.1,11.4-0.1,17.2-0.2c11.5-0.1,23-0.3,34.5-0.4c23-0.3,46.1-0.5,68.8-0.5c22.7-0.1,45,0.2,66.6,0.4
			c21.6,0.3,42.5,0.6,62.3,0.7c19.8,0.1,38.5,0,55.8-0.1c17.3-0.1,33.1-0.2,47.2-0.4c7-0.1,13.6-0.1,19.7-0.2
			c6.1-0.1,11.7-0.2,16.7-0.2c20.2-0.3,31.7-0.6,31.7-0.6V833.6z"/>
		<path fill="#1B4856" d="M1023.4,840.4c0,0-7.5-0.3-20.6-0.6c-3.3-0.1-6.9-0.2-10.9-0.2c-4-0.1-8.2-0.2-12.8-0.2
			c-9.1-0.1-19.5-0.3-30.7-0.4c-11.3-0.1-23.5-0.1-36.4-0.1c-12.9,0.1-26.5,0.4-40.6,0.7c-14.1,0.3-28.6,0.5-43.4,0.5
			c-14.8,0-29.8-0.2-44.8-0.5c-7.5-0.1-15-0.3-22.5-0.4c-3.7-0.1-7.5-0.1-11.2-0.2c-3.7,0-7.4-0.1-11.1-0.1
			c-14.8-0.1-29.3-0.2-43.4-0.3c-14.1-0.1-27.7-0.1-40.6,0c-12.9,0.1-25.1,0.2-36.4,0.3c-11.3,0.2-21.6,0.3-30.7,0.5
			c-4.6,0.1-8.9,0.2-12.8,0.3c-4,0.1-7.6,0.2-10.9,0.2c-6.6,0.2-11.7,0.3-15.2,0.4c-3.5,0.1-5.4,0.2-5.4,0.2v0.4
			c0,0,1.9,0.1,5.4,0.2c3.5,0.1,8.7,0.3,15.2,0.4c3.3,0.1,6.9,0.2,10.9,0.2c4,0.1,8.2,0.2,12.8,0.3c9.1,0.2,19.5,0.3,30.7,0.5
			c11.3,0.1,23.5,0.3,36.4,0.3c12.9,0.1,26.5,0.1,40.6,0c14.1-0.1,28.6-0.2,43.4-0.3c3.7,0,7.4-0.1,11.1-0.1
			c3.7-0.1,7.5-0.1,11.2-0.2c7.5-0.1,15-0.3,22.5-0.4c15-0.3,30-0.5,44.8-0.5c14.8,0,29.3,0.2,43.4,0.5c14.1,0.3,27.7,0.6,40.6,0.7
			c12.9,0.1,25.1,0,36.4-0.1c11.3-0.1,21.6-0.2,30.7-0.4c4.6-0.1,8.9-0.2,12.8-0.2c4-0.1,7.6-0.2,10.9-0.2
			c13.1-0.3,20.6-0.6,20.6-0.6V840.4z"/>
		<path fill="#1B4856" d="M1091.3,847.1c0,0-5-0.3-13.8-0.6c-8.8-0.3-21.3-0.7-36.3-0.8c-7.5-0.1-15.6-0.1-24.2-0.1
			c-8.6,0.1-17.7,0.4-27,0.7c-9.4,0.3-19.1,0.5-28.9,0.5c-9.9,0-19.9-0.2-29.9-0.5c-10-0.3-20-0.6-29.9-0.7
			c-9.9-0.1-19.5-0.2-28.9-0.3c-9.4-0.1-18.5-0.1-27,0c-8.6,0.1-16.7,0.2-24.2,0.3c-7.5,0.1-14.4,0.3-20.5,0.5
			c-6.1,0.2-11.4,0.3-15.8,0.5c-8.8,0.3-13.8,0.6-13.8,0.6v0.4c0,0,5,0.3,13.8,0.6c4.4,0.2,9.7,0.3,15.8,0.5
			c6.1,0.2,13,0.3,20.5,0.5c7.5,0.1,15.6,0.2,24.2,0.3c8.6,0.1,17.7,0.1,27,0c9.4-0.1,19.1-0.2,28.9-0.3c9.9-0.1,19.9-0.4,29.9-0.7
			c10-0.3,20-0.5,29.9-0.5c9.9,0,19.5,0.2,28.9,0.5c9.4,0.3,18.5,0.6,27,0.7c8.6,0.1,16.7,0,24.2-0.1c15-0.2,27.5-0.5,36.3-0.8
			c8.8-0.3,13.8-0.6,13.8-0.6V847.1z"/>
		<path fill="#1B4856" d="M834.2,857.3c0,0-5.4-0.3-14.8-0.6c-9.4-0.3-22.9-0.7-39-0.8c-8.1-0.1-16.8-0.1-26.1-0.1
			c-9.3,0.1-19,0.4-29.1,0.7c-10.1,0.3-20.5,0.5-31.1,0.5c-10.6,0-21.4-0.2-32.1-0.5c-10.8-0.3-21.5-0.6-32.1-0.7
			c-10.6-0.1-21-0.2-31.1-0.3c-10.1-0.1-19.8-0.1-29.1,0c-9.3,0.1-18,0.2-26.1,0.3c-8.1,0.1-15.5,0.3-22,0.5
			c-6.6,0.2-12.3,0.3-17,0.5c-9.4,0.3-14.8,0.6-14.8,0.6v0.4c0,0,5.4,0.3,14.8,0.6c4.7,0.2,10.4,0.3,17,0.5c6.6,0.2,14,0.3,22,0.5
			c8.1,0.1,16.8,0.2,26.1,0.3c9.3,0.1,19,0.1,29.1,0c10.1-0.1,20.5-0.2,31.1-0.3c10.6-0.1,21.4-0.4,32.1-0.7
			c10.8-0.3,21.5-0.5,32.1-0.5c10.6,0,21,0.2,31.1,0.5c10.1,0.3,19.8,0.6,29.1,0.7c9.3,0.1,18,0,26.1-0.1c16.1-0.2,29.6-0.5,39-0.8
			c9.4-0.3,14.8-0.6,14.8-0.6V857.3z"/>
		<path fill="#1B4856" d="M712.9,847.1c0,0-4.9-0.3-13.6-0.6c-8.6-0.3-20.9-0.7-35.7-0.8c-7.4-0.1-15.4-0.1-23.9-0.1
			c-8.5,0.1-17.4,0.4-26.6,0.7c-9.2,0.3-18.8,0.5-28.5,0.5c-9.7,0-19.6-0.2-29.4-0.5c-9.9-0.3-19.7-0.6-29.4-0.7
			c-9.7-0.1-19.2-0.2-28.5-0.3c-9.2-0.1-18.2-0.1-26.6,0c-8.5,0.1-16.5,0.2-23.9,0.3c-7.4,0.1-14.2,0.3-20.2,0.5
			c-6,0.2-11.2,0.3-15.6,0.5c-8.6,0.3-13.6,0.6-13.6,0.6v0.4c0,0,4.9,0.3,13.6,0.6c4.3,0.2,9.5,0.3,15.6,0.5
			c6,0.2,12.8,0.3,20.2,0.5c7.4,0.1,15.4,0.2,23.9,0.3c8.5,0.1,17.4,0.1,26.6,0c9.2-0.1,18.8-0.2,28.5-0.3
			c9.7-0.1,19.6-0.4,29.4-0.7c9.9-0.3,19.7-0.5,29.4-0.5c9.7,0,19.2,0.2,28.5,0.5c9.2,0.3,18.2,0.6,26.6,0.7
			c8.5,0.1,16.5,0,23.9-0.1c14.8-0.2,27.1-0.5,35.7-0.8c8.6-0.3,13.6-0.6,13.6-0.6V847.1z"/>
	</g>
	<g>
		<path fill="#FFC74E" d="M906,451.7c0,0-44.5,11.3-55.8,25.9c-11.3,14.6-10.6,36.2-10.6,36.2s11.1-15.2,23.3-11.6
			s49.2,19.3,49.2,19.3L906,451.7z"/>
		<path fill="#414042" d="M999.1,516.2c0,0,152.9,173.1,122.8,270.8c0,0-73.3-141.9-122.7-171.8L999.1,516.2z"/>
		<path fill="#E0E9ED" d="M1006.5,525.7c5.6-11.5,8.8-24.7,8.8-38.8c0-43.5-30.4-78.8-67.8-78.8c-37.4,0-67.8,35.3-67.8,78.8
			c0,26,10.9,49.1,27.6,63.4c-0.1,2.6,0,5.2,0.3,7.9l2.9,76.3c-29.1,65.4-58.4,155.3-30.6,208.3c0,0,17.5-57.6,40.9-110.9
			l18.4,173.3l47.7-49.2l64.6-14l37.9,43.5C1089.6,885.6,1032.3,675.6,1006.5,525.7z"/>
		<path fill="#414042" d="M1006.5,525.7c5.6-11.5,8.8-24.7,8.8-38.8c0-43.5-30.4-78.8-67.8-78.8c-37.4,0-67.8,35.3-67.8,78.8
			c0,26,10.9,49.1,27.6,63.4c-0.1,2.6,0,5.2,0.3,7.9l1.8,47l22.8-47l-21.7,76.3c-29.1,65.4-58.4,155.3-30.6,208.3
			c0,0,17.5-57.6,40.9-110.9l34.6-42.6L930.4,821l8.9,84.2l47.7-49.2c0,0,69-65.7,64.6-14l37.9,43.5
			C1089.6,885.6,1108.8,622.4,1006.5,525.7z"/>
	</g>
	<g>
		<path fill="#FFC74E" d="M1162.6,565.7c0,0-19.6,23.6-19.9,35.9s8.5,23.7,8.5,23.7s0-12.5,8-15.4c8-2.9,34.1-8.9,34.1-8.9
			L1162.6,565.7z"/>
		<path fill="#414042" d="M1223.7,595.5c0,0,102.1,115.5,81.9,180.7c0,0-48.9-94.7-81.9-114.6L1223.7,595.5z"/>
		<path fill="#E0E9ED" d="M1228.7,601.9c3.7-7.6,5.9-16.5,5.9-25.9c0-29-20.3-52.6-45.2-52.6c-25,0-45.2,23.5-45.2,52.6
			c0,17.4,7.2,32.7,18.4,42.3c0,1.7,0,3.5,0.2,5.3l2,50.9c-19.4,43.6-39,103.6-20.4,139c0,0,11.7-38.4,27.3-74l12.3,115.7l31.9-32.8
			l43.1-9.4l25.3,29.1C1284.1,842,1245.9,701.9,1228.7,601.9z"/>
		<path fill="#414042" d="M1228.7,601.9c3.7-7.6,5.9-16.5,5.9-25.9c0-29-20.3-52.6-45.2-52.6c-25,0-45.2,23.5-45.2,52.6
			c0,17.4,7.2,32.7,18.4,42.3c0,1.7,0,3.5,0.2,5.3l1.2,31.4l15.2-31.4l-14.5,50.9c-19.4,43.6-39,103.6-20.4,139
			c0,0,11.7-38.4,27.3-74l23.1-28.4l-16.8,87.9l6,56.2l31.9-32.8c0,0,46-43.8,43.1-9.4l25.3,29.1
			C1284.1,842,1296.9,666.4,1228.7,601.9z"/>
	</g>
	<path fill="#E2E3E4" d="M1213.2,756.2c0,0-41.6-45-88-3.2s-48.9,83.1-78.3,110.1c-29.3,27.1-98.4-1-134.8,27.7S827,980,827,980
		h559.9V599.5C1386.9,599.5,1291.5,632,1213.2,756.2z"/>
	<path fill="#FFFFFF" d="M0,0v980h1400V0H0z M1371.7,891.9c0,37.8-30.6,68.4-68.4,68.4H96.6c-37.8,0-68.4-30.6-68.4-68.4V88.1
		c0-37.8,30.6-68.4,68.4-68.4h1206.7c37.8,0,68.4,30.6,68.4,68.4V891.9z"/>
</g>
</svg>
