<svg id="图层_1" data-name="图层 1" xmlns="http://www.w3.org/2000/svg" viewBox="0 0 622 283"><rect width="622" height="283" style="fill:#ffc941"/><path d="M484.64,45.07c.12-1.77-.06-3-2.24-3H471.48L467,38.35c0-2.06.31-7.71.31-7.71V29.47c0-2-1-3.64-3.06-3.64h-3.58c-2,0-2.78,1.63-2.78,3.64v8.89l-4.52,3.75H442.64c-2.18,0-2.53,1.2-2.53,3h-50.3V231H535.33V45.07H484.64ZM462.43,28.85A2.14,2.14,0,1,1,460.29,31h0A2.14,2.14,0,0,1,462.43,28.85Z" style="fill:#ddd"/><rect x="385.32" y="45.07" width="145.53" height="185.93" style="fill:#f05751"/><rect x="395.01" y="54.23" width="126.12" height="168.71" style="fill:#f6f6f6"/><path d="M480,47.94c0-3.22,1.16-5.84-2.06-5.84H467l-4.52-3.75c0-2.06.3-7.71.3-7.71V29.47c0-2-1-3.64-3.05-3.64h-3.59c-2,0-2.77,1.63-2.77,3.64v8.89l-4.52,3.75H438.15c-3.22,0-2.44,2.61-2.44,5.84v4.41c0,3.22-.65,5.84,2.57,5.84h39.37c3.22,0,2.32-2.61,2.32-5.84V47.94ZM458,28.85A2.14,2.14,0,1,1,455.87,31h0a2.13,2.13,0,0,1,2.06-2.14Z" style="fill:#9fa3a9"/><path d="M215.55,42.19h-7.37V40.65h-6.67v1.56l-66.73.07A2.59,2.59,0,0,0,132.31,45l-.08,122.66a3.57,3.57,0,0,0,3.39,3.74h65.86v1a.51.51,0,0,0,.46.41h.69v.14h.61v-.14h1.27v.14h.61v-.14h1.33v.14H207v-.14h.84a.36.36,0,0,0,.28-.41h0v-.89H215c4.85,0,8.79-4.33,8.79-9.68l.07-110.24C223.87,46.45,220.15,42.19,215.55,42.19Z" style="fill:#ddd"/><path d="M212.22,171.44l-79.38-.06a3.57,3.57,0,0,1-3.39-3.74L129.53,45A2.59,2.59,0,0,1,132,42.28l80.77-.09c4.59,0,8.32,4.26,8.32,9.33L221,161.74c0,5.35-3.94,9.68-8.79,9.68" style="fill:#5fc39f"/><rect x="142.03" y="42.32" width="3.52" height="129.04" style="fill:#fff"/><path d="M199.16,172.8h6a.36.36,0,0,0,.28-.41h0V40.65h-6.71V172.38a.51.51,0,0,0,.46.41" style="fill:#8fd5fb"/><rect x="205.41" y="42.2" width="2.65" height="129.12" style="fill:#ddd"/><rect x="199.85" y="40.64" width="0.61" height="132.3" style="fill:#fff"/><rect x="201.73" y="40.64" width="0.61" height="132.3" style="fill:#fff"/><rect x="203.67" y="40.64" width="0.61" height="132.3" style="fill:#fff"/><path d="M297.75,88.22a11.62,11.62,0,0,0-11.59,11.6,11.63,11.63,0,0,0-11.6-11.6H192.33V213.11H223.9V223.4l5.38-3.15,5.37,3.15V213.11H275c5.28,0,9.75-1.48,11.17-3.49,1.42,2,5.9,3.49,11.17,3.49H380V88.22Z" style="fill:#ddd;fill-rule:evenodd"/><path d="M189.33,203.89H272c6.22,0,11.34,2.05,11.64,4.61-.3,2.56-5.42,4.61-11.64,4.61H189.33Z" style="fill:#ddd;fill-rule:evenodd"/><path d="M377,203.89H294.33c-6.22,0-11.35,2.05-11.65,4.61.3,2.56,5.42,4.61,11.65,4.61H377Z" style="fill:#ddd;fill-rule:evenodd"/><path d="M283.15,207.38V99.82a11.62,11.62,0,0,0-11.6-11.6H189.33V203.89H272C277.26,203.89,281.74,205.37,283.15,207.38Z" style="fill:#fff;fill-rule:evenodd"/><path d="M294.76,88.22a11.64,11.64,0,0,0-11.61,11.6V207.38c1.42-2,5.9-3.49,11.18-3.49H377V88.22Z" style="fill:#8fd5fb;fill-rule:evenodd"/><rect x="193.69" y="98.34" width="79.7" height="0.87" style="fill:#ddd"/><path d="M193.69,101.39h79.7v.87h-79.7Z" style="fill:#ddd;fill-rule:evenodd"/><path d="M193.69,104.43h79.7v.87h-79.7Z" style="fill:#ddd;fill-rule:evenodd"/><path d="M193.69,107.48h79.7v.87h-79.7Z" style="fill:#ddd;fill-rule:evenodd"/><path d="M193.69,110.53h79.7v.87h-79.7Z" style="fill:#ddd;fill-rule:evenodd"/><path d="M193.69,113.58h79.7v.87h-79.7Z" style="fill:#ddd;fill-rule:evenodd"/><path d="M193.69,116.63h79.7v.87h-79.7Z" style="fill:#ddd;fill-rule:evenodd"/><path d="M193.69,119.68h79.7v.87h-79.7Z" style="fill:#ddd;fill-rule:evenodd"/><path d="M193.69,122.74h79.7v.87h-79.7Z" style="fill:#ddd;fill-rule:evenodd"/><path d="M193.69,125.74h79.7v.87h-79.7Z" style="fill:#ddd;fill-rule:evenodd"/><path d="M193.69,128.82h79.7v.92h-79.7Z" style="fill:#ddd;fill-rule:evenodd"/><path d="M193.69,131.87h79.7v.87h-79.7Z" style="fill:#ddd;fill-rule:evenodd"/><path d="M193.69,134.92h79.7v.87h-79.7Z" style="fill:#ddd;fill-rule:evenodd"/><path d="M193.69,138h79.7v.87h-79.7Z" style="fill:#ddd;fill-rule:evenodd"/><path d="M193.69,141h79.7v.87h-79.7Z" style="fill:#ddd;fill-rule:evenodd"/><path d="M193.69,144.06h79.7v.87h-79.7Z" style="fill:#ddd;fill-rule:evenodd"/><path d="M193.69,147.11h79.7V148h-79.7Z" style="fill:#ddd;fill-rule:evenodd"/><path d="M193.69,150.16h79.7V151h-79.7Z" style="fill:#ddd;fill-rule:evenodd"/><path d="M193.69,153.21h79.7v.87h-79.7Z" style="fill:#ddd;fill-rule:evenodd"/><path d="M193.69,156.26h79.7v.87h-79.7Z" style="fill:#ddd;fill-rule:evenodd"/><path d="M193.69,159.31h79.7v.87h-79.7Z" style="fill:#ddd;fill-rule:evenodd"/><path d="M193.69,162.36h79.7v.87h-79.7Z" style="fill:#ddd;fill-rule:evenodd"/><path d="M193.69,165.4h79.7v.87h-79.7Z" style="fill:#ddd;fill-rule:evenodd"/><path d="M193.69,168.45h79.7v.87h-79.7Z" style="fill:#ddd;fill-rule:evenodd"/><path d="M193.69,171.5h79.7v.87h-79.7Z" style="fill:#ddd;fill-rule:evenodd"/><path d="M193.69,174.55h79.7v.87h-79.7Z" style="fill:#ddd;fill-rule:evenodd"/><path d="M193.69,177.6h79.7v.87h-79.7Z" style="fill:#ddd;fill-rule:evenodd"/><path d="M193.69,180.65h79.7v.87h-79.7Z" style="fill:#ddd;fill-rule:evenodd"/><path d="M193.69,183.74h79.7v.87h-79.7Z" style="fill:#ddd;fill-rule:evenodd"/><path d="M193.69,186.74h79.7v.87h-79.7Z" style="fill:#ddd;fill-rule:evenodd"/><path d="M193.69,189.79h79.7v.87h-79.7Z" style="fill:#ddd;fill-rule:evenodd"/><rect x="193.69" y="192.84" width="79.7" height="0.87" style="fill:#ddd"/><rect x="193.69" y="98.34" width="38.54" height="34.41" style="fill:#fff"/><rect x="193.69" y="98.34" width="38.29" height="33.53" style="fill:#f05751"/><rect x="231.99" y="98.34" width="3.11" height="96.8" style="fill:#fff"/><rect x="292.37" y="98.34" width="38.29" height="0.87" style="fill:#fff"/><rect x="333.78" y="98.34" width="38.29" height="0.87" style="fill:#fff"/><rect x="292.37" y="101.04" width="38.29" height="0.87" style="fill:#fff"/><rect x="333.78" y="101.04" width="38.29" height="0.87" style="fill:#fff"/><rect x="292.37" y="103.74" width="38.29" height="0.87" style="fill:#fff"/><rect x="333.78" y="103.74" width="38.29" height="0.87" style="fill:#fff"/><rect x="292.37" y="106.43" width="38.29" height="0.87" style="fill:#fff"/><rect x="333.78" y="106.43" width="38.29" height="0.87" style="fill:#fff"/><rect x="292.37" y="109.13" width="38.29" height="0.87" style="fill:#fff"/><rect x="333.78" y="109.13" width="38.29" height="0.87" style="fill:#fff"/><rect x="292.37" y="111.83" width="38.29" height="0.87" style="fill:#fff"/><rect x="333.78" y="111.83" width="38.29" height="0.87" style="fill:#fff"/><rect x="292.37" y="114.53" width="38.29" height="0.87" style="fill:#fff"/><rect x="333.78" y="114.53" width="38.29" height="0.87" style="fill:#fff"/><rect x="292.37" y="117.23" width="38.29" height="0.87" style="fill:#fff"/><rect x="333.78" y="117.23" width="38.29" height="0.87" style="fill:#fff"/><rect x="292.37" y="119.93" width="38.29" height="0.87" style="fill:#fff"/><rect x="333.78" y="119.93" width="38.29" height="0.87" style="fill:#fff"/><rect x="292.37" y="122.63" width="38.29" height="0.87" style="fill:#fff"/><rect x="333.78" y="122.63" width="38.29" height="0.87" style="fill:#fff"/><rect x="292.37" y="125.33" width="38.29" height="0.87" style="fill:#fff"/><rect x="333.78" y="125.33" width="38.29" height="0.87" style="fill:#fff"/><rect x="292.37" y="128.03" width="38.29" height="0.87" style="fill:#fff"/><rect x="333.78" y="128.03" width="38.29" height="0.87" style="fill:#fff"/><rect x="292.37" y="130.73" width="38.29" height="0.87" style="fill:#fff"/><rect x="333.78" y="130.73" width="38.29" height="0.87" style="fill:#fff"/><rect x="292.37" y="133.43" width="38.29" height="0.87" style="fill:#fff"/><rect x="333.78" y="133.43" width="38.29" height="0.87" style="fill:#fff"/><rect x="292.37" y="136.13" width="38.29" height="0.87" style="fill:#fff"/><rect x="333.78" y="136.13" width="38.29" height="0.87" style="fill:#fff"/><rect x="292.37" y="138.83" width="38.29" height="0.87" style="fill:#fff"/><rect x="333.78" y="138.83" width="38.29" height="0.87" style="fill:#fff"/><rect x="292.37" y="141.53" width="38.29" height="0.87" style="fill:#fff"/><rect x="333.78" y="141.53" width="38.29" height="0.87" style="fill:#fff"/><rect x="292.37" y="144.23" width="38.29" height="0.87" style="fill:#fff"/><rect x="333.78" y="144.23" width="38.29" height="0.87" style="fill:#fff"/><rect x="292.37" y="146.93" width="38.29" height="0.87" style="fill:#fff"/><rect x="333.78" y="146.93" width="38.29" height="0.87" style="fill:#fff"/><rect x="292.37" y="149.62" width="38.29" height="0.87" style="fill:#fff"/><rect x="333.78" y="149.62" width="38.29" height="0.87" style="fill:#fff"/><rect x="292.37" y="152.33" width="38.29" height="0.87" style="fill:#fff"/><rect x="333.78" y="152.33" width="38.29" height="0.87" style="fill:#fff"/><rect x="292.37" y="155.02" width="38.29" height="0.87" style="fill:#fff"/><rect x="333.78" y="155.02" width="38.29" height="0.87" style="fill:#fff"/><rect x="292.37" y="157.72" width="38.29" height="0.87" style="fill:#fff"/><rect x="333.78" y="157.72" width="38.29" height="0.87" style="fill:#fff"/><rect x="292.37" y="160.42" width="38.29" height="0.87" style="fill:#fff"/><rect x="333.78" y="160.42" width="38.29" height="0.87" style="fill:#fff"/><rect x="292.37" y="163.12" width="38.29" height="0.87" style="fill:#fff"/><rect x="333.78" y="163.12" width="38.29" height="0.87" style="fill:#fff"/><rect x="292.37" y="165.82" width="38.29" height="0.87" style="fill:#fff"/><rect x="333.78" y="165.82" width="38.29" height="0.87" style="fill:#fff"/><rect x="292.37" y="168.52" width="38.29" height="0.87" style="fill:#fff"/><rect x="333.78" y="168.52" width="38.29" height="0.87" style="fill:#fff"/><rect x="292.37" y="171.22" width="38.29" height="0.87" style="fill:#fff"/><rect x="333.78" y="171.22" width="38.29" height="0.87" style="fill:#fff"/><rect x="292.37" y="173.92" width="38.29" height="0.87" style="fill:#fff"/><rect x="333.78" y="173.92" width="38.29" height="0.87" style="fill:#fff"/><rect x="292.37" y="176.62" width="38.29" height="0.87" style="fill:#fff"/><rect x="333.78" y="176.62" width="38.29" height="0.87" style="fill:#fff"/><rect x="292.37" y="179.32" width="38.29" height="0.87" style="fill:#fff"/><rect x="333.78" y="179.32" width="38.29" height="0.87" style="fill:#fff"/><rect x="292.37" y="182.02" width="38.29" height="0.87" style="fill:#fff"/><rect x="333.78" y="182.02" width="38.29" height="0.87" style="fill:#fff"/><rect x="292.37" y="184.72" width="38.29" height="0.87" style="fill:#fff"/><rect x="333.78" y="184.72" width="38.29" height="0.87" style="fill:#fff"/><rect x="292.37" y="187.42" width="38.29" height="0.87" style="fill:#fff"/><rect x="333.78" y="187.42" width="38.29" height="0.87" style="fill:#fff"/><rect x="292.37" y="190.12" width="38.29" height="0.87" style="fill:#fff"/><rect x="333.78" y="190.12" width="38.29" height="0.87" style="fill:#fff"/><rect x="292.37" y="192.81" width="38.29" height="0.87" style="fill:#fff"/><rect x="333.78" y="192.81" width="38.29" height="0.87" style="fill:#fff"/><rect x="193.69" y="168.53" width="38.29" height="3.92" style="fill:#8fd5fb"/><rect x="235.1" y="116.63" width="38.29" height="3.92" style="fill:#5fc39f"/><polygon points="220.9 208.08 231.66 208.08 231.66 223.4 226.28 220.24 220.9 223.4 220.9 208.08" style="fill:#f05751;fill-rule:evenodd"/><path d="M208.42,209.43a36.89,36.89,0,1,0-30.84,42.09,36.89,36.89,0,0,0,30.84-42.09Z" style="fill:#ddd"/><path d="M204.52,209.43a36.89,36.89,0,1,1-42.08-30.84A36.9,36.9,0,0,1,204.52,209.43Z" style="fill:#fff"/><circle cx="168.14" cy="215.13" r="35.16" style="fill:#ededed"/><path d="M194.34,210.74A23.36,23.36,0,0,0,148,212l-8.15.06s-2.22-.12-2.26,1.85,2.16,2,2.16,2H148a12.54,12.54,0,0,0,.21,1.91,23.37,23.37,0,0,0,46.38-5.78C194.48,211.61,194.41,211.17,194.34,210.74Z" style="fill:#ddd"/><path d="M191,210.74a23.36,23.36,0,0,0-46.34,1.3l-8.15.06s-2.22-.12-2.26,1.85,2.16,2,2.16,2h8.19a12.54,12.54,0,0,0,.21,1.91,23.37,23.37,0,0,0,46.28-6.48Z" style="fill:#fff"/><circle cx="167.94" cy="214.27" r="20.36" style="fill:#4a2e22"/><path d="M149.54,219.09a20.35,20.35,0,0,1,33.59-18.35,20.35,20.35,0,0,0-30.42,27,19.6,19.6,0,0,0,1.77,1.76A20.18,20.18,0,0,1,149.54,219.09Z" style="fill:#ddd"/><path d="M154.14,226.2c-6.57-7.82,1.77,4,18.36-6.86,15.67-12.29,3.38-24.72,9.94-16.9a18.48,18.48,0,0,1-28.3,23.76Z" style="fill:#fff;opacity:0.20000000298023224;isolation:isolate"/><path d="M234.75,44.65a4.1,4.1,0,0,1,5.81.3h0l11,12.15a5.37,5.37,0,0,1-8,7.18l-9.76-10.83.93-.84,9.77,10.83A4.1,4.1,0,0,0,250.6,58l-11-12.21a2.86,2.86,0,1,0-4.25,3.84l9.26,10.27a1.61,1.61,0,1,0,2.75-1.67,1.84,1.84,0,0,0-.39-.44l-8.25-9.15,1-.85L248,56.9a2.88,2.88,0,0,1-4.29,3.84l-9.26-10.27a4.12,4.12,0,0,1,.28-5.82Z" style="fill:#fff"/><path d="M205.57,240.81a4.13,4.13,0,0,1,4.13-4.07H226a5.36,5.36,0,0,1,.46,10.71,3.53,3.53,0,0,1-.46,0H211.43v-1.26H226a4.1,4.1,0,0,0,0-8.2H209.65a2.87,2.87,0,1,0,0,5.73h13.83a1.61,1.61,0,0,0,0-3.21H211.16v-1.26h12.32a2.87,2.87,0,0,1,0,5.73H209.65a4.13,4.13,0,0,1-4.09-4.16Z" style="fill:#5fc39f"/><path d="M249.29,222.16a4.14,4.14,0,0,1,4.11,4.14l-.09,16.36a5.36,5.36,0,0,1-10.71-.06l.08-14.58h1.26l-.08,14.58a4.1,4.1,0,0,0,8.2,0l.09-16.36a2.87,2.87,0,1,0-5.73,0l-.07,13.83a1.61,1.61,0,0,0,1.73,1.48,1.63,1.63,0,0,0,1.48-1.48l.05-12.33h1.26l-.08,12.32a2.86,2.86,0,1,1-5.72,0l.07-13.83A4.11,4.11,0,0,1,249.29,222.16Z" style="fill:#596374"/><text transform="translate(395.11 99.04)" style="font-size:45.74829864501953px;stroke:#f05751;stroke-miterlimit:10;font-family:MicrosoftYaHei-Bold, Microsoft YaHei;font-weight:700"><tspan xml:space="preserve"> xray</tspan><tspan x="0" y="54.9" xml:space="preserve">  </tspan><tspan x="0" y="109.8" xml:space="preserve">  xtls</tspan></text></svg>