<svg id="图层_1" data-name="图层 1" xmlns="http://www.w3.org/2000/svg" viewBox="0 0 662 298.74"><defs><style>.cls-1{fill:#004712;}.cls-2{fill:#00b259;}</style></defs><path d="M274.13,112l15.49-3.74V183c0,8.28,2.41,13.09,7.22,14.7-2.41,4.54-6.41,6.94-12.29,6.94-6.95,0-10.69-4.81-10.69-14.69V112Zm39,91.38v-54h-8.55V136.54H328.9v66.8Zm8-92.45a9.12,9.12,0,1,1-6.41,2.67A8.67,8.67,0,0,1,321.15,110.89Zm68.67,92.45V164.86c0-5.61-1.07-9.88-3.21-12.29-2.14-2.67-5.61-4-10.69-4a14.59,14.59,0,0,0-7.21,1.87,19,19,0,0,0-6.14,4.81v48.1h-15.5V136.81h11.22l2.94,6.14c4.27-5.07,10.42-7.48,18.7-7.48,8,0,14.16,2.41,18.7,7.22s6.95,11.49,6.95,19.77v40.88Zm27.78-33.4q0-15.23,8.82-24.85t23.25-9.62c10.15,0,17.9,2.94,23.51,9.09s8.28,14.42,8.28,25.11-2.94,19-8.55,25.38c-5.61,6.15-13.36,9.36-23.51,9.36s-17.9-3.21-23.51-9.36C420.54,188.64,417.6,180.36,417.6,169.94Zm16.3,0c0,14.69,5.35,21.91,15.77,21.91a13.79,13.79,0,0,0,11.48-5.61c2.94-3.74,4.28-9.35,4.28-16.3,0-14.43-5.34-21.64-15.76-21.64a13.48,13.48,0,0,0-11.49,5.61C435.24,157.65,433.9,163,433.9,169.94Zm102.87,33.4v-4a17.78,17.78,0,0,1-6.42,3.74,27.85,27.85,0,0,1-9.61,1.6c-9.36,0-16.57-2.94-21.91-8.81s-8-14.17-8-24.59,2.94-19,9.09-25.64,13.62-9.89,23-9.89a30.37,30.37,0,0,1,13.9,3.21V112.23l15.49-3.74v94.85Zm0-50.77a16,16,0,0,0-10.42-4q-9.23,0-14.43,5.62c-3.47,3.74-5.08,9.35-5.08,16.29q0,20.85,20,20.84a18.48,18.48,0,0,0,5.61-1.33,11.76,11.76,0,0,0,4.28-2.67V152.57Zm90.57,22.18H579.78c.27,5.34,2.14,9.35,5.35,12.29,3.47,2.94,7.74,4.54,13.62,4.54,7,0,12.56-1.87,16-5.61l6.15,11.76c-5.34,4.54-13.63,6.68-24.58,6.68q-15.23,0-24.05-8.82t-8.82-24.85c0-10.42,3.21-19,9.62-25.38a31.69,31.69,0,0,1,23.25-9.62c9.62,0,17.36,2.94,23.24,8.55,5.88,5.88,8.82,13.09,8.82,21.91.27,1.87-.27,4.54-1.07,8.55Zm-47-11.76h32.59c-1.07-9.62-6.41-14.69-16-14.69C588.07,148.56,582.45,153.37,580.32,163Z"/><path class="cls-1" d="M199.58,164.33l-2.67,30.72-8.81-6.14,1.06-15.5v-.53l-.26-.27-.27-.27-19-12.55.27-13.63,29.65,18.17Zm-46.48,33.4-13.63-10.42v2.4a2.06,2.06,0,0,1-.54,1.34L128.78,198,140,207.08l.27.26v.54l.54,10.69L153.36,229l-.26-31.26ZM67.33,211.08l6.41,30.73,26.45,28.05-4.54-31L67.33,211.08Zm24.85,4.55-6.41-43L53.7,145.89l8.55,41.68ZM82,146.16,73.21,85.24l-36.87-23,12,57.44Z"/><path class="cls-2" d="M225.77,147.76l-4,29.13-21.91,17.63,2.67-29.92,23.25-16.84Zm-69.74,50,.27,31.52,28.06-22.44,1.87-30.73Zm-18.16,12.82L98.32,238.87l4.81,32.6,35.8-28.59-1.06-32.33Zm-1.07-21.37-1.87-42.75L88.71,172.88l6.41,44.35Zm-2.94-67.6-2.41-57.71L75.88,85.24l9.08,62,48.9-25.65Z"/><path d="M229,144.56h0V144a.25.25,0,0,0-.26-.26.26.26,0,0,1-.27-.27l-32.06-17.9a1.19,1.19,0,0,0-1.34,0l-27.25,16.56h-.27v1.61l-.26,14.42-11-7.21a1.68,1.68,0,0,0-1.6,0l-16.3,9.08-.8-16v-1.33h-.27l-16.56-11,15.49-8a1.46,1.46,0,0,0,.8-1.34l-2.93-60.65v-.27a.26.26,0,0,0-.27-.26.26.26,0,0,0-.27-.27L91.64,40.62a1,1,0,0,0-.8-.26L33.93,58a.26.26,0,0,0-.26.27.26.26,0,0,0-.27.26v1.61L46,121.31c0,.27.26.54.53.8l17.1,13.36L51,141.35a.26.26,0,0,0-.26.27.26.26,0,0,1-.27.27v.53l9.62,46c0,.27.26.54.53.81l12,11.22-8,4.81-.27.26a.26.26,0,0,1-.27.27v.8l7.49,35.54c0,.26.26.53.26.8L101,274.94h.26a.26.26,0,0,1,.27.27h1.34l38.47-30.73a2,2,0,0,0,.53-1.07l-.8-21.1L153.9,233a.26.26,0,0,1,.26.27h1.34l31-24.58a1.38,1.38,0,0,0,.54-1.07l1.07-15.5,9.35,6.42h1.07a.26.26,0,0,0,.26-.27l25.12-20c.27-.27.53-.53.53-.8L229,144.56Zm-29.12,50,2.67-29.92L226,147.76l-4,29.13-22.18,17.63Zm-11.75-5.61,1.06-15.5v-.53l-.26-.27-.27-.27-19-12.55.27-13.63,29.65,18.44-2.67,30.72-8.81-6.41Zm-4,17.9L156,229.25l-.26-31.52L186,176.08ZM139.2,242.88l-36.07,28.59-4.81-32.6,39.28-28.05Zm-65.72-1.07-6.42-30.73,28.59,27.79,4.54,31L73.48,241.81ZM72.94,85.24l8.82,60.92-33.4-26.45-12-57.44,36.6,23Zm58.51-21.37,2.41,57.71L85,147.23l-9.08-62,55.57-21.37Zm5.35,125.31L95.12,217l-6.41-44.35,46.22-26.45,1.87,43Zm-51-16.3,6.41,43L62.25,187.57,53.7,145.89Zm54.77,35v-.54l-.27-.26L129.05,198l10.15-6.94c.54-.27.54-.81.54-1.34v-2.4l13.62,10.42.27,31.52-12.56-10.42-.53-11Z"/></svg>