<?xml version="1.0" standalone="no"?><!DOCTYPE svg PUBLIC "-//W3C//DTD SVG 1.1//EN" "http://www.w3.org/Graphics/SVG/1.1/DTD/svg11.dtd"><svg t="1605769781900" class="icon" viewBox="0 0 1024 1024" version="1.1" xmlns="http://www.w3.org/2000/svg" p-id="3184" xmlns:xlink="http://www.w3.org/1999/xlink" width="200" height="200"><defs><style type="text/css"></style></defs><path d="M512 0c409.6 0 512 102.4 512 512S921.6 1024 512 1024 0 921.6 0 512 102.4 0 512 0z" fill="#5CB663" p-id="3185"></path><path d="M522.216594 249.967177c131.31776 0 263.197257 55.313554 263.197257 55.313554v307.428206c-69.251657 155.314469-263.197257 242.968869-263.197257 242.968869s-161.715931-69.257509-260.230583-242.968869V305.269029s129.831497-55.307703 260.230583-55.307703z m143.541395 141.370514l-186.169052 210.282789-96.571977-91.884983-31.890286 32.68608 127.210057 120.91392 31.878583-32.569051-0.117028-0.117029 186.174903-210.171611-30.5152-29.140115z" fill="#53AD5A" p-id="3186"></path><path d="M510.513737 214.858606c131.31776 0 263.197257 55.313554 263.197257 55.313554V577.594514c-69.251657 155.314469-263.197257 242.968869-263.197257 242.968869S348.803657 751.311726 250.283154 577.600366V270.160457s129.831497-55.307703 260.230583-55.307703z m143.541394 141.370514L467.88608 566.511909 371.314103 474.626926l-31.890286 32.68608 127.210057 120.91392 31.878583-32.569052-0.117028-0.117028 186.174902-210.171612-30.5152-29.140114z" fill="#FFFFFF" p-id="3187"></path></svg>