<?xml version="1.0" encoding="utf-8"?>
<!-- Generator: Adobe Illustrator 23.0.6, SVG Export Plug-In . SVG Version: 6.00 Build 0)  -->
<svg version="1.1" id="图层_1" xmlns="http://www.w3.org/2000/svg" xmlns:xlink="http://www.w3.org/1999/xlink" x="0px" y="0px"
	 viewBox="0 0 2850 1000" style="enable-background:new 0 0 2850 1000;" xml:space="preserve">
<style type="text/css">
	.st0{fill:#646464;}
	.st1{fill:url(#SVGID_1_);}
	.st2{fill:url(#SVGID_2_);}
</style>
<g>
	<path class="st0" d="M1212.5,491.1c0-76.6-21.8-115.9-65.5-118c-17.3-0.8-34.7,2-50.8,8.4c-13.2,4.7-22,9.4-26.7,14.1v182.8
		c27.9,17.5,52.7,25.7,74.4,24.4C1189.6,599.6,1212.5,562.4,1212.5,491.1L1212.5,491.1z M1266.3,494.2c0,38.9-9.1,71.2-27.5,96.9
		c-20.4,29.1-48.8,44-85,44.8c-27.3,0.9-55.5-7.7-84.4-25.6v166.1l-46.8-16.7V391c7.7-9.4,17.6-17.5,29.6-24.4
		c27.9-16.2,61.8-24.6,101.6-25l0.7,0.7c36.4-0.5,64.5,14.5,84.3,44.8C1257.1,414.9,1266.3,450.6,1266.3,494.2L1266.3,494.2z
		 M1552.6,603.2c0,52.2-5.2,88.3-15.7,108.4c-10.5,20.1-30.5,36.1-60,48.1c-23.9,9.4-49.8,14.6-77.6,15.4l-7.7-29.5
		c28.2-3.8,48.1-7.7,59.6-11.5c22.7-7.7,38.3-19.5,46.8-35.3c6.9-12.9,10.3-37.4,10.3-73.7v-12.2c-32,14.6-65.6,21.8-100.7,21.8
		c-23.1,0-43.4-7.2-60.9-21.8c-19.7-15.8-29.5-35.9-29.5-60.3V357.7l46.8-16v196.2c0,21,6.8,37.1,20.3,48.4
		c13.5,11.3,31.1,16.8,52.5,16.4c21.5-0.5,44.5-8.8,68.9-25V348.7h46.8L1552.6,603.2z M1735.5,633.4c-5.1,0.4-10.3,0.7-15.4,0.7
		c-26.5,0-47.2-6.3-61.9-19c-14.7-12.7-22.1-30.1-22.1-52.4V378.2H1604v-29.5h32.1v-78.3l46.8-16.7v94.9h52.6v29.5h-52.6v183.2
		c0,17.6,4.7,30,14.1,37.3c8.1,6,21,9.4,38.5,10.3L1735.5,633.4z M2019.1,629.5h-46.8V448.7c0-18.4-4.3-34.2-12.9-47.5
		c-9.9-15-23.6-22.4-41.3-22.4c-21.5,0-48.3,11.3-80.6,34v216.7h-46.8V197.3l46.8-14.8v196.8c29.9-21.8,62.6-32.7,98.1-32.7
		c24.8,0,44.9,8.3,60.3,25c15.4,16.7,23.1,37.4,23.1,62.2V629.5z M2268,483.7c0-29.4-5.6-53.7-16.7-72.9
		c-13.2-23.4-33.8-35.8-61.6-37.1c-51.3,3-77,39.8-77,110.3c0,32.3,5.3,59.3,16.1,81c13.7,27.6,34.3,41.3,61.8,40.8
		C2242.3,605.4,2268,564.7,2268,483.7L2268,483.7z M2319.3,484c0,41.9-10.7,76.7-32.1,104.5c-23.5,31.2-56,46.8-97.5,46.8
		c-41.1,0-73.1-15.6-96.2-46.8c-21-27.8-31.4-62.7-31.4-104.5c0-39.4,11.3-72.5,34-99.4c23.9-28.6,55.4-42.9,94.3-42.9
		s70.6,14.3,95,42.9C2308,411.5,2319.3,444.6,2319.3,484L2319.3,484z M2587.9,629.5H2541V438.5c0-21-6.3-37.3-18.9-49.1
		c-12.6-11.7-29.4-17.4-50.4-17c-22.2,0.4-43.4,7.7-63.5,21.8v235.3h-46.8V388.4c27-19.6,51.8-32.4,74.4-38.4
		c21.4-5.6,40.2-8.4,56.5-8.4c11.1,0,21.6,1.1,31.4,3.2c18.4,4.3,33.4,12.1,44.9,23.7c12.9,12.8,19.3,28.2,19.3,46.2L2587.9,629.5z"
		/>
</g>
<linearGradient id="SVGID_1_" gradientUnits="userSpaceOnUse" x1="418.41" y1="943.0569" x2="527.426" y2="849.2629" gradientTransform="matrix(2.9577 0 0 -2.9863 -980.6619 3032.124)">
	<stop  offset="0" style="stop-color:#5A9FD4"/>
	<stop  offset="1" style="stop-color:#306998"/>
</linearGradient>
<path class="st1" d="M560,199.1c-24.1,0.1-47.1,2.2-67.4,5.8c-59.7,10.5-70.5,32.6-70.5,73.3v53.7h141v17.9H369.2
	c-41,0-76.8,24.6-88.1,71.5c-12.9,53.7-13.5,87.2,0,143.3c10,41.7,33.9,71.5,74.9,71.5h48.5v-64.4c0-46.5,40.3-87.6,88.1-87.6h140.8
	c39.2,0,70.5-32.3,70.5-71.6V278.1c0-38.2-32.2-66.9-70.5-73.3C609.2,200.8,584.1,199,560,199.1L560,199.1z M483.7,242.3
	c14.6,0,26.5,12.1,26.5,26.9c0,14.8-11.9,26.8-26.4,26.8c-14.6,0-26.5-12-26.5-26.8C457.3,254.4,469.1,242.3,483.7,242.3
	L483.7,242.3z"/>
<linearGradient id="SVGID_2_" gradientUnits="userSpaceOnUse" x1="569.5728" y1="792.495" x2="530.6428" y2="847.574" gradientTransform="matrix(2.9577 0 0 -2.9863 -980.6619 3032.124)">
	<stop  offset="0" style="stop-color:#FFD43B"/>
	<stop  offset="1" style="stop-color:#FFE873"/>
</linearGradient>
<path class="st2" d="M721.5,349.7v62.6c0,48.5-41.1,89.4-88.1,89.4H492.6c-38.6,0-70.5,33-70.5,71.6v134.2
	c0,38.2,33.2,60.7,70.5,71.6c44.6,13.1,87.4,15.5,140.8,0c35.5-10.3,70.5-31,70.5-71.6v-53.7H563.1V636h211.3
	c41,0,56.2-28.6,70.5-71.5c14.7-44.2,14.1-86.6,0-143.3c-10.1-40.8-29.5-71.5-70.5-71.5H721.5z M642.3,689.7
	c14.6,0,26.5,12,26.5,26.8c0,14.9-11.8,26.9-26.5,26.9c-14.6,0-26.4-12.1-26.4-26.9C615.8,701.7,627.7,689.7,642.3,689.7z"/>
</svg>
