<?xml version="1.0" encoding="utf-8"?>
<!-- Generator: Adobe Illustrator 23.0.6, SVG Export Plug-In . SVG Version: 6.00 Build 0)  -->
<svg version="1.1" id="Layer_1" xmlns="http://www.w3.org/2000/svg" xmlns:xlink="http://www.w3.org/1999/xlink" x="0px" y="0px"
	 viewBox="0 0 2850 2005.2" style="enable-background:new 0 0 2850 2005.2;" xml:space="preserve">
<style type="text/css">
	.st0{display:none;}
	.st1{display:inline;}
	.st2{clip-path:url(#SVGID_2_);fill:url(#SVGID_3_);}
	.st3{clip-path:url(#SVGID_5_);fill:#FFF8DB;}
	.st4{clip-path:url(#SVGID_7_);fill:#FFF8DB;}
	.st5{clip-path:url(#SVGID_9_);fill:#736CB0;}
	.st6{clip-path:url(#SVGID_11_);fill:#736CB0;}
	.st7{clip-path:url(#SVGID_13_);fill:#736CB0;}
	.st8{clip-path:url(#SVGID_15_);fill:#736CB0;}
	.st9{clip-path:url(#SVGID_17_);fill:url(#SVGID_18_);}
	.st10{clip-path:url(#SVGID_20_);fill:url(#SVGID_21_);}
	.st11{clip-path:url(#SVGID_23_);fill:url(#SVGID_24_);}
	.st12{clip-path:url(#SVGID_26_);fill:url(#SVGID_27_);}
	.st13{clip-path:url(#SVGID_29_);fill:url(#SVGID_30_);}
	.st14{clip-path:url(#SVGID_32_);fill:url(#SVGID_33_);}
	.st15{clip-path:url(#SVGID_35_);fill:#190D55;}
	.st16{opacity:0.2;clip-path:url(#SVGID_37_);}
	.st17{fill:#FFFFFF;}
	.st18{opacity:0.5;clip-path:url(#SVGID_39_);fill:#0E004F;enable-background:new    ;}
	.st19{clip-path:url(#SVGID_41_);}
	.st20{opacity:0.2;fill:#E2CFF4;enable-background:new    ;}
	.st21{clip-path:url(#SVGID_43_);}
	.st22{opacity:0.93;fill:#FFFFFF;enable-background:new    ;}
	.st23{opacity:0.5;clip-path:url(#SVGID_45_);fill:#0E004F;enable-background:new    ;}
	.st24{opacity:0.5;clip-path:url(#SVGID_47_);fill:#0E004F;enable-background:new    ;}
	.st25{opacity:0.5;clip-path:url(#SVGID_49_);fill:#0E004F;enable-background:new    ;}
	.st26{clip-path:url(#SVGID_51_);fill:#190D55;}
	.st27{clip-path:url(#SVGID_53_);fill:#190D55;}
	.st28{clip-path:url(#SVGID_55_);fill:#190D55;}
	.st29{opacity:0.15;clip-path:url(#SVGID_57_);}
	.st30{clip-path:url(#SVGID_59_);fill:#FFF8DB;}
	.st31{clip-path:url(#SVGID_61_);fill:#FFF8DB;}
	.st32{clip-path:url(#SVGID_63_);fill:#FFF8DB;}
	.st33{clip-path:url(#SVGID_65_);fill:#FFF8DB;}
	.st34{clip-path:url(#SVGID_67_);fill:#FFF8DB;}
	.st35{clip-path:url(#SVGID_69_);fill:#FFF8DB;}
	.st36{clip-path:url(#SVGID_71_);fill:#FFF8DB;}
	.st37{clip-path:url(#SVGID_73_);fill:#FFF8DB;}
	.st38{clip-path:url(#SVGID_75_);fill:#736CB0;}
	.st39{clip-path:url(#SVGID_77_);fill:#736CB0;}
	.st40{clip-path:url(#SVGID_79_);fill:#736CB0;}
	.st41{clip-path:url(#SVGID_81_);fill:#736CB0;}
	.st42{clip-path:url(#SVGID_83_);fill:#736CB0;}
	.st43{clip-path:url(#SVGID_85_);fill:#736CB0;}
	.st44{clip-path:url(#SVGID_87_);fill:#736CB0;}
	.st45{clip-path:url(#SVGID_89_);fill:#736CB0;}
	.st46{clip-path:url(#SVGID_91_);fill:#736CB0;}
	.st47{clip-path:url(#SVGID_93_);fill:#190D55;}
	.st48{clip-path:url(#SVGID_95_);fill:#190D55;}
	.st49{clip-path:url(#SVGID_97_);fill:#190D55;}
	.st50{clip-path:url(#SVGID_99_);fill:#190D55;}
	.st51{clip-path:url(#SVGID_101_);fill:#190D55;}
	.st52{clip-path:url(#SVGID_103_);fill:#190D55;}
	.st53{clip-path:url(#SVGID_105_);fill:#190D55;}
	.st54{clip-path:url(#SVGID_107_);fill:none;}
	.st55{fill:#932279;}
	.st56{fill:#EFA724;}
	.st57{fill:#262577;}
	.st58{fill:#9CCD2A;}
</style>
<g class="st0">
	<g class="st1">
		<defs>
			<rect id="SVGID_1_" x="0" width="2850" height="2005.2"/>
		</defs>
		<clipPath id="SVGID_2_">
			<use xlink:href="#SVGID_1_"  style="overflow:visible;"/>
		</clipPath>
		
			<linearGradient id="SVGID_3_" gradientUnits="userSpaceOnUse" x1="1424.9985" y1="635.4961" x2="1424.9985" y2="1982.5831" gradientTransform="matrix(1 0 0 -1 0 2006)">
			<stop  offset="0" style="stop-color:#DEC9F0"/>
			<stop  offset="0.2187" style="stop-color:#C7F0D6"/>
			<stop  offset="0.4453" style="stop-color:#8EBCC7"/>
			<stop  offset="0.5883" style="stop-color:#6F9FBF"/>
			<stop  offset="0.769" style="stop-color:#6872BE"/>
			<stop  offset="0.9154" style="stop-color:#6455BD"/>
			<stop  offset="0.9987" style="stop-color:#624ABD"/>
		</linearGradient>
		<rect x="0" class="st2" width="2850" height="2005.2"/>
	</g>
	<g class="st1">
		<defs>
			<rect id="SVGID_4_" x="0" width="2850" height="2005.2"/>
		</defs>
		<clipPath id="SVGID_5_">
			<use xlink:href="#SVGID_4_"  style="overflow:visible;"/>
		</clipPath>
		<ellipse class="st3" cx="1448.3" cy="1192.6" rx="423.7" ry="425.9"/>
	</g>
	<g class="st1">
		<defs>
			<rect id="SVGID_6_" x="0" width="2850" height="2005.2"/>
		</defs>
		<clipPath id="SVGID_7_">
			<use xlink:href="#SVGID_6_"  style="overflow:visible;"/>
		</clipPath>
		<ellipse class="st4" cx="1448.3" cy="1192.6" rx="423.7" ry="425.9"/>
	</g>
	<g class="st1">
		<defs>
			<rect id="SVGID_8_" x="0" width="2850" height="2005.2"/>
		</defs>
		<clipPath id="SVGID_9_">
			<use xlink:href="#SVGID_8_"  style="overflow:visible;"/>
		</clipPath>
		<path class="st5" d="M860,1261.3c10.2-1.5,91.9-0.1,99.4,0c0.4,0,0.7,0,1.2,0c7.9-0.6,89.5-7.6,89.5-60.1v-64.4
			c0-7.1,5-13.2,12-14.5l11.5-2.2c6.9-1.3,12-7.4,12-14.5v-48.8c0-6.9,4.8-12.9,11.5-14.4l7.4-1.6c9.2-2,17.9,5,17.9,14.4l0,0
			c0,6.7,4.5,12.6,10.9,14.3l17.9,4.8c6.4,1.7,10.9,7.6,10.9,14.3v12.6c0,6.4,4.1,12,10.1,14l16.8,5.6c6,2,10.1,7.7,10.1,14v61.1
			c0,3.5,1.2,6.9,3.5,9.6c7.4,8.8,26.9,31.1,58.8,63.2"/>
	</g>
	<g class="st1">
		<defs>
			<rect id="SVGID_10_" x="0" width="2850" height="2005.2"/>
		</defs>
		<clipPath id="SVGID_11_">
			<use xlink:href="#SVGID_10_"  style="overflow:visible;"/>
		</clipPath>
		<path class="st6" d="M1676.2,1247.3l92.6-27.8c0,0,38.9-10.6,38.9-100c0-19.1-0.1-30.7-0.2-37.8c-0.1-7,3.1-13.6,8.6-17.8
			l26.2-19.9c5.4-4.1,8.6-10.6,8.6-17.4v-42.1c0-6.6,3-12.9,8.1-17l13-10.5c3.9-3.1,8.7-4.8,13.6-4.8h24.1c5.8,0,11.4,2.3,15.5,6.5
			l13.9,14.1c4.1,4.2,9.7,6.5,15.5,6.5h3.5c12,0,21.7,9.8,21.7,21.9v14.4c0,12.1,9.8,21.9,21.8,21.9l0,0c12,0,21.8,9.7,21.8,21.9
			v33.8c0,5.1,1.7,9.9,4.9,13.9c9.6,11.8,34.6,33.8,88.7,33.8"/>
	</g>
	<g class="st1">
		<defs>
			<rect id="SVGID_12_" x="0" width="2850" height="2005.2"/>
		</defs>
		<clipPath id="SVGID_13_">
			<use xlink:href="#SVGID_12_"  style="overflow:visible;"/>
		</clipPath>
		<path class="st7" d="M701,853.1c0-7-3.9-13.4-10.1-16.5l-21.8-10.9c-6.2-3.1-10.1-9.5-10.1-16.5v-93.8c0-7.3-4.2-13.8-10.8-16.8
			l-19.7-8.9c-4.9-2.2-8.6-6.5-10.1-11.7l-7.1-24.7c-2.3-7.9-9.5-13.3-17.6-13.3H543c-1.7,0-3.5-0.2-5.1-0.7l-54.2-15.8
			c-1.7-0.5-3.4-0.7-5.1-0.7h-21.1c-10.1,0-18.4,8.3-18.4,18.5v253.1c0,6.7-3.6,12.8-9.3,16.1l-3.4,1.9c-12.2,6.9-27.4-2-27.4-16.1
			v-29.6c0-3.7-1.1-7.4-3.2-10.4l-18.4-27.1c-2.1-3.1-3.2-6.7-3.2-10.4v-54.6c0-10.2-8.2-18.4-18.3-18.4h-35.9
			c-10.1,0-18.4,8.3-18.4,18.4v123.7c0,4.9-1.9,9.6-5.4,13l-24.6,24.7c-3.4,3.5-5.4,8.1-5.4,13v145.8c0,10.2-8.2,18.4-18.4,18.4H232
			c-10.1,0-18.4,8.3-18.4,18.4v26.7c0,0.7,0,1.4-0.1,2.2c-1.1,8.8-11.6,64.1-103.1,64.1l593.7,13h117.2c0,0-96.8-16.2-96.8-123.7
			V990.9l-28-25.6L701,853.1z"/>
	</g>
	<g class="st1">
		<defs>
			<rect id="SVGID_14_" x="0" width="2850" height="2005.2"/>
		</defs>
		<clipPath id="SVGID_15_">
			<use xlink:href="#SVGID_14_"  style="overflow:visible;"/>
		</clipPath>
		<path class="st8" d="M2746.2,1256.1c0,0-104.6-22.3-104.6-88.2V982.2c0-4.6-1.6-9-4.6-12.5l-28.8-33.4c-3-3.5-4.6-7.9-4.6-12.5
			V803.9c0-10.6-8.6-19.2-19.2-19.1l-10,0.1c-10.4,0.1-18.8,8.6-18.8,19.1v261.9c0,15.6-17.6,24.6-30.1,15.5l-9.9-7.2
			c-5-3.6-7.9-9.4-7.9-15.5V693.2c0-10-7.7-18.3-17.6-19.1l-18.7-1.4c-9.9-0.7-17.6-9.1-17.6-19.1v-9.5c0-9.7-7.3-17.9-16.9-19
			l-80.2-9.2c-8.4-1-16.4,3.8-19.7,11.6l-4,9.6c-3.6,8.6-12.7,13.3-21.7,11.3l0,0c-9.3-2.1-18.8,3.1-22.1,12.2l-4.1,11.3
			c-0.8,2.2-1.2,4.6-1.1,7l4.7,168.6c0.1,4-1,7.9-3.2,11.2l-21.3,32c-1.6,2.4-2.7,5.2-3,8.1l-16.2,121.7c-0.3,2-0.8,3.9-1.7,5.7
			l-24.1,50.5c-1.7,3.5-4.3,6.4-7.7,8.3c-14.2,8.1-56.5,28.6-116.9,28.6c-75.1,0,40.5,78.9,40.5,78.9"/>
	</g>
	<g class="st1">
		<defs>
			<rect id="SVGID_16_" x="0" width="2850" height="2005.2"/>
		</defs>
		<clipPath id="SVGID_17_">
			<use xlink:href="#SVGID_16_"  style="overflow:visible;"/>
		</clipPath>
		
			<linearGradient id="SVGID_18_" gradientUnits="userSpaceOnUse" x1="-195.0181" y1="613.5645" x2="1260.9309" y2="613.5645" gradientTransform="matrix(1 0 0 -1 0 2006)">
			<stop  offset="0" style="stop-color:#746BA6"/>
			<stop  offset="0.8296" style="stop-color:#411B82"/>
		</linearGradient>
		<path class="st9" d="M171.9,1640.6h153.9c206.3-9.7,309-56.4,309-56.4s-3.6-347.8-108.9-430.4c-35.9-28.1-76.5-38.2-117.3-37.8
			c-89.4,11.5-408.6,75.5-518.1,203.4v349.6l272.6-28.7C166.1,1640.4,169,1640.5,171.9,1640.6z"/>
	</g>
	<g class="st1">
		<defs>
			<rect id="SVGID_19_" x="0" width="2850" height="2005.2"/>
		</defs>
		<clipPath id="SVGID_20_">
			<use xlink:href="#SVGID_19_"  style="overflow:visible;"/>
		</clipPath>
		
			<linearGradient id="SVGID_21_" gradientUnits="userSpaceOnUse" x1="433.6064" y1="629.8022" x2="1293.5177" y2="629.8022" gradientTransform="matrix(1 0 0 -1 0 2006)">
			<stop  offset="0" style="stop-color:#7ADEE0"/>
			<stop  offset="9.059999e-02" style="stop-color:#74CAD5"/>
			<stop  offset="0.3883" style="stop-color:#608EB4"/>
			<stop  offset="0.6416" style="stop-color:#52629B"/>
			<stop  offset="0.8378" style="stop-color:#49478D"/>
			<stop  offset="0.9529" style="stop-color:#463D87"/>
		</linearGradient>
		<path class="st10" d="M1775.6,1375.3c-193.3-4.8-206.3,9.1-523.3-71.6c-317-80.8-614.5-207.3-823-189.9
			c-6.9,0.6-13.8,1.3-20.7,2.2c40.8-0.3,81.4,9.7,117.3,37.8c63,49.5-36.1,116.4,35,174.9c130,106.9-116.7,101-73.9,209.4
			c23.7,59.9-62.1,102.1-323.9,102.1h1612.4V1375.3z"/>
	</g>
	<g class="st1">
		<defs>
			<rect id="SVGID_22_" x="0" width="2850" height="2005.2"/>
		</defs>
		<clipPath id="SVGID_23_">
			<use xlink:href="#SVGID_22_"  style="overflow:visible;"/>
		</clipPath>
		
			<linearGradient id="SVGID_24_" gradientUnits="userSpaceOnUse" x1="1469.8555" y1="613.5645" x2="2925.8037" y2="613.5645" gradientTransform="matrix(1 0 0 -1 0 2006)">
			<stop  offset="0" style="stop-color:#746BA6"/>
			<stop  offset="0.8296" style="stop-color:#411B82"/>
		</linearGradient>
		<path class="st11" d="M1836.8,1640.6h153.9c206.3-9.7,309-56.4,309-56.4s-3.6-347.8-108.9-430.4c-35.9-28.1-76.5-38.2-117.3-37.8
			c-89.4,11.5-408.6,75.5-518.1,203.4v349.6l272.6-28.7C1831,1640.4,1833.9,1640.5,1836.8,1640.6z"/>
	</g>
	<g class="st1">
		<defs>
			<rect id="SVGID_25_" x="0" width="2850" height="2005.2"/>
		</defs>
		<clipPath id="SVGID_26_">
			<use xlink:href="#SVGID_25_"  style="overflow:visible;"/>
		</clipPath>
		
			<linearGradient id="SVGID_27_" gradientUnits="userSpaceOnUse" x1="2098.4785" y1="629.8022" x2="2958.3896" y2="629.8022" gradientTransform="matrix(1 0 0 -1 0 2006)">
			<stop  offset="0" style="stop-color:#7ADEE0"/>
			<stop  offset="9.059999e-02" style="stop-color:#74CAD5"/>
			<stop  offset="0.3883" style="stop-color:#608EB4"/>
			<stop  offset="0.6416" style="stop-color:#52629B"/>
			<stop  offset="0.8378" style="stop-color:#49478D"/>
			<stop  offset="0.9529" style="stop-color:#463D87"/>
		</linearGradient>
		<path class="st12" d="M3440.5,1375.3c-193.3-4.8-206.3,9.1-523.3-71.6c-317-80.8-614.5-207.3-823-189.9
			c-6.9,0.6-13.8,1.3-20.7,2.2c40.8-0.3,81.4,9.7,117.3,37.8c63,49.5-36.1,116.4,35,174.9c130,106.9-116.7,101-73.9,209.4
			c23.7,59.9-62.1,102.1-323.9,102.1h1612.4L3440.5,1375.3L3440.5,1375.3z"/>
	</g>
	<g class="st1">
		<defs>
			<rect id="SVGID_28_" x="0" width="2850" height="2005.2"/>
		</defs>
		<clipPath id="SVGID_29_">
			<use xlink:href="#SVGID_28_"  style="overflow:visible;"/>
		</clipPath>
		
			<linearGradient id="SVGID_30_" gradientUnits="userSpaceOnUse" x1="1384.8701" y1="376.7909" x2="-115.7958" y2="376.7909" gradientTransform="matrix(1 0 0 -1 0 2006)">
			<stop  offset="0" style="stop-color:#321C63"/>
			<stop  offset="0.2486" style="stop-color:#442574"/>
			<stop  offset="0.6879" style="stop-color:#5F328D"/>
			<stop  offset="0.9467" style="stop-color:#693796"/>
		</linearGradient>
		<path class="st13" d="M1235.6,1307c-51.5-40.4-109.7-54.8-168.3-54.3c-128.3,16.5-247.1,68.5-356,127.9
			c-19.6,10.7-39,21.6-58,32.7c-110.5,64.2-210.1,130.8-298,167.6C162.1,1661.5,0,1606.7,0,1606.7v398.5h657.3H715
			c4.3,0.2,8.4,0.3,12.6,0.5h220.9c296-14,443.4-81,443.4-81S1386.8,1425.6,1235.6,1307z"/>
	</g>
	<g class="st1">
		<defs>
			<rect id="SVGID_31_" x="0" width="2850" height="2005.2"/>
		</defs>
		<clipPath id="SVGID_32_">
			<use xlink:href="#SVGID_31_"  style="overflow:visible;"/>
		</clipPath>
		
			<linearGradient id="SVGID_33_" gradientUnits="userSpaceOnUse" x1="1103.1748" y1="379.7958" x2="2337.2363" y2="379.7958" gradientTransform="matrix(1 0 0 -1 0 2006)">
			<stop  offset="0" style="stop-color:#70CDCF"/>
			<stop  offset="1.430000e-02" style="stop-color:#6FCACE"/>
			<stop  offset="0.3384" style="stop-color:#5E8EAF"/>
			<stop  offset="0.6141" style="stop-color:#51629A"/>
			<stop  offset="0.8276" style="stop-color:#49478C"/>
			<stop  offset="0.9529" style="stop-color:#463D87"/>
		</linearGradient>
		<path class="st14" d="M3029.1,1624.9c-277.4-6.8-296.1,13.1-751-102.8c-455-115.9-881.9-297.5-1181.1-272.5
			c-9.9,0.8-19.8,1.9-29.6,3.2c58.6-0.5,116.8,13.9,168.3,54.3c90.5,71-51.8,167.1,50.3,251c186.6,153.5-167.5,144.9-106,300.5
			c34,86-89.1,146.6-464.8,146.6h2314V1624.9z"/>
	</g>
	<g class="st1">
		<defs>
			<rect id="SVGID_34_" x="0" width="2850" height="2005.2"/>
		</defs>
		<clipPath id="SVGID_35_">
			<use xlink:href="#SVGID_34_"  style="overflow:visible;"/>
		</clipPath>
		<path class="st15" d="M1624.9,1082.7c0.6-3.7-4.6-7.2-7.4-4.9c-4.7,3.8-7.1,0.7-10.4-1.5c-3-2-6.3-3.8-9.4-5.6l-4.4-0.1
			c-4.9,2.8-9.7,5.7-14.7,8.2c-1.4,0.7-3.8,1-5.2,0.3c-5.2-2.5-9.3-1-9,4.5c0.2,4.6,1.9,9.3,3.8,13.6c1.4,3.1,2,5.4,0.4,8.6
			c-1.2,2.4-1.6,5.1-2.1,7.7c-2.2,11.4-3.7,23-6.6,34.3c-1,3.8-5,7-7.9,10.2c-2.2,2.4-4.9,1.7-6.5-0.8c-3.3-5.5-6.7-11.1-9.2-17
			c-4-9.9-9.4-18.8-18.5-24.9c-9.6-6.4-20.8-8.2-32-9.1c-8-0.6-14.1-3.4-18.9-9.5c-2.3-2.8-4.8-5.4-7.1-8.3
			c-9.6-11.8-17.7-11.6-31.2-3.4c-10.7,6.4-17.9,16.5-24.7,26.5c-4.7,6.9-10.1,12.3-17.9,16c-6.6,3.2-12.5,8-18.4,12.6
			c-3.7,2.9-7.3,6.2-10,9.9c-5.6,7.6-12.8,15.1-15.3,23.7c-2.4,8.1-4,39.3-3.4,48.2c3.3,0.7,6.5,1.2,9.8,1.7l-5.9-0.2
			c0.1,0.1,0.2,0.2,0.4,0.4c0.1,0.1-0.3,0.8-0.6,1.3c-1.7,3.1-3.5,6.2-5.5,9.7c3.5,0.1,2.6-5.8,6.8-4.9c-1.8,5-6.3,7-9.9,9.7
			c0.1,0.3,0.3,0.5,0.4,0.8c1.3-0.7,2.8-1.3,4-2.1c1.3-0.9,2.4-2,4-2.6c-2.3,3.2-4.5,6.4-6.8,9.7c3.2,1.7-0.9,3.4-0.3,5.3
			c1,3.1-0.6,6.2-0.8,9.3c-0.1,2.8,0.3,5.3,0.7,8.2c0.8-2.3,1.4-4.4,2.1-6.4c0.2,0.1,0.4,0.1,0.6,0.2c0.1,1.8,0.1,3.6,0.1,5.5
			c0.3,0,0.6,0.1,0.8,0.1c0.3-1.6,0.7-3.3,1.1-5.1c0.3,0.5,0.6,1,0.8,1.4c0.2-4.4,1.2-8.5,4.7-12.3c0.5,2.6,1,4.9,1.4,7.1
			c0.7-5.7,1.6-11.1,5.3-15.7c0.4-0.5,0.9-0.9,1.3-1.3c0.3,0.5,0.8,1,0.8,1.4c-0.1,4.7,0.1,9.6-0.6,14.2c-1.2,7.6-3.2,15-4.5,22.5
			c-1.1,6.1-2.7,12.1-6,17.4c-1.7,2.7-1.5,5.3-0.8,8.1c0.6,2.6,1.4,5.2,1.6,7.9c0.5,5.3,0.2,10.8,1,16c1.5,9.8,0.5,19.6-0.4,29.3
			c-0.3,3.1-0.9,6.2-1.9,9.1c-1.1,3.4-0.1,5.3,3.5,5.4c5.1,0.1,10.3-0.1,15.4-0.2c0.9,0,1.8-0.6,2.7-0.8c-0.3-1-0.4-2.1-1-2.9
			c-0.9-1.2-2.2-2.1-3.1-3.2c-0.9-1-2.6-2.6-2.3-3.3c1.2-3.4-1-6.1-1.2-9.1c-0.6-6.6-1.4-13.3-1.2-19.9c0.3-8.1,1.5-16.3,2.5-24.4
			c0.6-4.8,1.1-9.7,2.4-14.3c2.4-8.5,5.6-16.7,8-25.2c1.4-5,4.4-8.7,8-12.2c-0.1,3.5-0.3,7-1,10.4c-0.9,4.6-2,9.2-3.3,13.8
			c-1.1,3.9-2.1,8.1-4.1,11.6c-3.5,5.8-2.5,11.3-0.2,16.9c3.8,9.2,8,18.2,11.5,27.5c3.3,8.8,6.1,17.9,9,26.8c0.3,1,0,2.3-0.3,3.3
			c-0.9,2.4-0.1,4.4,2.5,4.6c6.3,0.5,12.7,0.9,19,1.1c1,0,2.1-0.9,3.1-1.4c-0.9-1.4-1.4-3.6-2.7-4.2c-4.3-1.8-7.7-4.5-10.7-8.2
			c-5.8-7.2-7.5-15.9-10-24.3c-2.3-7.9-3.2-16.1-5.3-24c-1.7-6.3-0.5-12.1,1.5-18c2.7-7.8,5.2-15.6,7.9-23.4
			c0.9-2.6,1.9-5.3,3.4-7.6c2.8-4.1,6.1-7.9,8.9-12c1.4-2,2.3-4.4,3.1-6.7c0.9-2.5,1.3-5.1,2-8.1c21.3,20.4,44.7,26.1,71.9,13.5
			c0.1,0.9,0.3,1.9,0.2,3c-1.3,8-2.3,16-4.2,23.8c-1.6,6.6-4.5,12.9-6.7,19.4c-0.6,1.8-1.1,3.7-1.1,5.6c0.2,11.5,1.8,23.1-1.2,34.5
			c-1.4,5.2-3,10.4-4.4,15.7c-1.1,4-3.5,7.8-2.4,12.3c0.3,1.3-0.6,2.9-0.8,4.4c-0.3,2.2-0.6,4.5-0.6,6.8c0,0.6,1.1,1.6,1.7,1.6
			c5-0.1,10-0.2,15-0.6c1-0.1,2.5-1.3,2.7-2.2c0.2-0.9-0.9-2.3-1.7-3.1c-2.5-2.3-4.1-4.6-2.9-8.2c0.4-1.2,0.1-2.8-0.3-4.1
			c-1.1-3.2-2-6.3-1.3-9.7c1-5,1.6-10.2,2.8-15.2c1.5-6.4,2.3-13.1,5.2-18.8c3.2-6.4,5-12.7,5.7-19.8c0.7-7,2.6-14.1,4.9-20.8
			c2.4-6.9,6-13.4,9-20.2c2.4-5.3,3.8-11.2,9.5-14.3c0.8-0.4,1.8-0.7,2.7-1c0.3,0.9,0.8,1.8,0.9,2.7c0.1,1.7-0.1,3.4-0.3,5.2
			c-1.4,11.1-2.7,22.2-4.4,33.3c-1,6.5-2.6,12.8-3.8,19.2c-0.4,2.3-1.2,4.9-0.7,7.1c2.2,9.8,2.1,19.7,2.4,29.5
			c0.2,7.9,0,15.8,0.1,23.7c0,1.4,0.2,2.9,0.7,4.2c1,2.5,1.9,4.8-0.1,7.3c-0.5,0.7-0.2,2.1-0.3,3.7l23,0.6c0.1-0.2,0.3-0.4,0.5-0.6
			c-1.3-0.9-2.4-2.1-3.8-2.8c-3.9-2-7.1-4.4-7.7-9.1c-0.2-1.5-0.3-3-0.7-4.5c-1-3.2-2.4-6.4-3.1-9.7c-2.4-11.5-1.2-22.9,1-34.3
			c0.8-4,2.4-8.2,2.1-12.1c-0.6-7.1,1.6-13.6,2.7-20.3c0.5-3.2,2-6.3,3.1-9.5c2.2-6,4.3-11.9,6.6-17.8c2-5.4,4.7-10.5,6.2-16
			c0.6-2.1,1.5-3.7,2.7-5.2c0.1-0.3,0.2-0.6,0.2-0.9c1.7-0.6,4.1-0.7,7.6-0.5c6.8,0.2,14.5,0.3,20.4-2.4
			c11.6-5.2,18.3-15.4,22.5-27.2c2.7-7.6,5.5-15.2,9.1-22.3c5.9-11.6,9.7-23.5,8.8-36.7c-0.3-4.7-0.3-10.3,2-14.1
			c4.1-6.8,5.1-13.7,4.9-21.1c-0.1-4.5,1.5-8.1,4-11.9C1622.8,1091.9,1624.1,1087.2,1624.9,1082.7z"/>
	</g>
	<g class="st1">
		<defs>
			<rect id="SVGID_36_" x="0" width="2850" height="2005.2"/>
		</defs>
		<clipPath id="SVGID_37_">
			<use xlink:href="#SVGID_36_"  style="overflow:visible;"/>
		</clipPath>
		<g class="st16">
			<path class="st17" d="M1342.3,1186.5c2.5-8.7,9.7-16.1,15.3-23.7c2.8-3.7,6.3-7,10-9.9c5.9-4.5,11.7-9.4,18.4-12.6
				c7.8-3.8,13.3-9.1,17.9-16c6.8-10,14-20.1,24.7-26.5c13.6-8.2,21.7-8.4,31.2,3.4c2.3,2.8,4.8,5.4,7.1,8.3
				c4.8,6,10.9,8.9,18.9,9.5c11.2,0.8,22.4,2.7,32,9.1c9.1,6.1,14.5,15,18.5,24.9c2.4,5.9,5.9,11.5,9.2,17c1.5,2.5,4.2,3.2,6.5,0.8
				c3-3.2,7-6.4,7.9-10.2c2.9-11.3,4.4-22.8,6.6-34.3c0.5-2.6,1-5.3,2.1-7.7c1.6-3.1,0.9-5.5-0.4-8.6c-0.2-0.4-0.4-0.9-0.6-1.3
				c-0.5,1.6-0.8,3.2-1.1,4.8c-2.2,11.4-3.7,23-6.6,34.3c-1,3.8-5,7-7.9,10.2c-2.2,2.4-4.9,1.7-6.5-0.8c-3.3-5.5-6.7-11.1-9.2-17
				c-4-9.9-9.4-18.8-18.5-24.9c-9.6-6.4-20.8-8.2-32-9.1c-8-0.6-14.1-3.4-18.9-9.5c-2.3-2.8-4.8-5.4-7.1-8.3
				c-9.6-11.8-17.7-11.6-31.2-3.4c-10.7,6.4-17.9,16.5-24.7,26.5c-4.7,6.9-10.1,12.3-17.9,16c-6.6,3.2-12.5,8-18.4,12.6
				c-3.7,2.9-7.3,6.2-10,9.9c-5.6,7.6-12.8,15.1-15.3,23.7"/>
			<path class="st17" d="M1573.4,1091.8c1.4,0.7,3.8,0.4,5.2-0.3c5-2.5,9.8-5.4,14.7-8.2l4.4,0.1c3.1,1.9,6.4,3.6,9.4,5.6
				c3.2,2.2,5.7,5.3,10.4,1.5c1.4-1.2,3.5-0.8,5.1,0.3c1-2.7,1.8-5.4,2.3-8.2c0.6-3.7-4.6-7.2-7.4-4.9c-4.7,3.8-7.1,0.7-10.4-1.5
				c-3-2-6.3-3.8-9.4-5.6l-4.4-0.1c-4.9,2.8-9.7,5.7-14.7,8.2c-1.4,0.7-3.8,0.9-5.2,0.3c-5.2-2.5-9.3-1-9,4.5
				c0.1,2.8,0.8,5.5,1.7,8.3C1567.7,1090.4,1570.3,1090.3,1573.4,1091.8z"/>
		</g>
	</g>
	<g class="st1">
		<defs>
			<rect id="SVGID_38_" x="0" width="2850" height="2005.2"/>
		</defs>
		<clipPath id="SVGID_39_">
			<use xlink:href="#SVGID_38_"  style="overflow:visible;"/>
		</clipPath>
		<path class="st18" d="M1616.2,1518.6c0.5,1.8-4.8,3.5-7.5,2.3c-4.6-1.9-7.1-0.4-10.4,0.6c-3.1,1-6.4,1.8-9.6,2.6l-4.4,0
			c-4.8-1.4-9.5-2.9-14.5-4.3c-1.4-0.4-3.8-0.5-5.2-0.2c-5.2,1.2-9.3,0.4-8.9-2.4c0.3-2.3,2.2-4.6,4.2-6.7c1.5-1.5,2.1-2.7,0.7-4.2
			c-1.1-1.2-1.5-2.5-1.9-3.8c-1.9-5.7-3.1-11.4-5.7-17.1c-0.9-1.9-4.8-3.6-7.7-5.2c-2.2-1.2-4.9-0.9-6.5,0.3
			c-3.5,2.7-7.1,5.4-9.6,8.3c-4.3,4.8-9.9,9.2-19.2,12c-9.8,3-21,3.8-32.2,4c-8,0.2-14.2,1.5-19.2,4.4c-2.3,1.4-5,2.6-7.3,4
			c-9.9,5.7-18,5.5-31.3,1.2c-10.5-3.3-17.4-8.4-23.9-13.5c-4.5-3.5-9.8-6.2-17.5-8.2c-6.5-1.7-12.3-4.1-18-6.5
			c-3.6-1.5-7.1-3.1-9.8-5c-5.4-3.9-12.4-7.6-14.7-11.9c-2.1-4-2.9-19.5-2.1-23.9c3.3-0.3,6.6-0.5,9.9-0.7h-5.9
			c0.1-0.1,0.2-0.1,0.4-0.2c0.1,0-0.3-0.4-0.5-0.6c-1.7-1.6-3.3-3.1-5.2-4.9c3.5,0,2.5,2.9,6.6,2.5c-1.7-2.5-6.1-3.5-9.6-4.9
			c0.1-0.1,0.3-0.3,0.4-0.4c1.3,0.4,2.7,0.7,3.9,1.1c1.3,0.5,2.3,1.1,4,1.4c-2.2-1.6-4.3-3.2-6.6-4.9c3.3-0.8-0.8-1.7-0.1-2.6
			c1.1-1.5-0.4-3.1-0.5-4.6c-0.1-1.4,0.4-2.6,0.9-4c0.7,1.2,1.3,2.2,1.9,3.2c0.2,0,0.4-0.1,0.6-0.1c0.1-0.9,0.2-1.8,0.3-2.7
			c0.3,0,0.6,0,0.8,0c0.3,0.8,0.6,1.6,0.9,2.5c0.3-0.2,0.6-0.5,0.8-0.7c0.1,2.2,0.9,4.2,4.4,6.2c0.6-1.3,1.1-2.4,1.6-3.5
			c0.6,2.8,1.3,5.5,4.9,7.8c0.4,0.2,0.8,0.4,1.2,0.7c0.3-0.2,0.9-0.5,0.9-0.7c0-2.3,0.4-4.7-0.2-7c-1-3.7-2.7-7.5-3.9-11.2
			c-0.9-3-2.3-6-5.6-8.7c-1.6-1.3-1.4-2.6-0.6-4c0.7-1.3,1.5-2.6,1.8-3.9c0.6-2.6,0.5-5.3,1.4-7.9c1.8-4.8,1-9.7,0.4-14.5
			c-0.2-1.5-0.8-3.1-1.7-4.5c-1-1.7,0-2.6,3.7-2.6c5.1,0,10.3,0.2,15.4,0.3c0.9,0,1.8,0.3,2.7,0.4c-0.4,0.5-0.5,1-1.1,1.4
			c-0.9,0.6-2.2,1-3.2,1.5c-0.9,0.5-2.6,1.2-2.4,1.6c1.1,1.7-1.2,3-1.5,4.5c-0.7,3.3-1.8,6.6-1.7,9.8c0.1,4,1.1,8.1,1.9,12.1
			c0.5,2.4,0.8,4.8,2,7.1c2.2,4.2,5.2,8.4,7.3,12.6c1.2,2.5,4.2,4.3,7.6,6.2c0-1.7-0.1-3.5-0.7-5.1c-0.8-2.3-1.8-4.6-3-6.9
			c-1-2-1.8-4.1-3.8-5.8c-3.4-2.9-2.2-5.6,0.3-8.4c4.1-4.5,8.5-8.9,12.3-13.5c3.6-4.3,6.6-8.7,9.7-13.1c0.3-0.5,0.1-1.1-0.2-1.6
			c-0.8-1.2,0.1-2.1,2.7-2.2c6.3-0.2,12.7-0.2,19-0.3c1,0,2.1,0.5,3.1,0.7c-0.9,0.7-1.5,1.8-2.8,2c-4.4,0.8-7.8,2.1-10.9,3.9
			c-6,3.5-8,7.8-10.6,11.9c-2.5,3.9-3.6,7.9-5.9,11.8c-1.9,3.1-0.8,6,1,8.9c2.5,3.9,4.8,7.8,7.3,11.7c0.8,1.3,1.8,2.7,3.2,3.8
			c2.7,2.1,5.9,4,8.6,6.1c1.3,1,2.2,2.2,2.9,3.4c0.8,1.2,1.2,2.5,1.8,4c21.8-9.8,45.5-12.2,72.3-5.6c0.1-0.4,0.4-1,0.2-1.5
			c-1.1-4-1.8-8-3.5-11.9c-1.5-3.3-4.1-6.5-6.1-9.7c-0.6-0.9-1-1.9-1-2.8c0.6-5.7,2.4-11.4-0.3-17.1c-1.2-2.6-2.7-5.2-4-7.8
			c-1-2-3.3-3.9-2-6.1c0.4-0.6-0.5-1.4-0.7-2.2c-0.2-1.1-0.5-2.2-0.4-3.4c0-0.3,1.2-0.8,1.8-0.8c5,0.1,10,0.2,15,0.5
			c1,0.1,2.5,0.7,2.6,1.1c0.1,0.4-0.9,1.1-1.8,1.5c-2.5,1.1-4.2,2.2-3.1,4c0.4,0.6,0,1.4-0.4,2c-1.2,1.5-2.2,3.1-1.6,4.8
			c0.8,2.5,1.3,5,2.4,7.5c1.3,3.2,2,6.5,4.7,9.4c3.1,3.2,4.6,6.3,5.1,9.9c0.5,3.5,2.2,7,4.3,10.3c2.2,3.5,5.6,6.7,8.4,10.1
			c2.2,2.7,3.5,5.6,9.1,7.2c0.8,0.2,1.8,0.4,2.7,0.5c0.3-0.4,0.9-0.9,0.9-1.3c0.1-0.8,0-1.7-0.1-2.6c-1.1-5.5-2.1-11-3.5-16.5
			c-0.8-3.2-2.2-6.4-3.3-9.5c-0.4-1.2-1.1-2.4-0.5-3.5c2.4-4.8,2.7-9.7,3.2-14.6c0.4-3.9,0.4-7.8,0.7-11.7c0-0.7,0.3-1.4,0.8-2
			c1-1.2,2-2.3,0.1-3.6c-0.5-0.3-0.2-1-0.2-1.8l23,0c0.1,0.1,0.3,0.2,0.4,0.3c-1.3,0.4-2.5,1-3.9,1.3c-4,0.9-7.3,2.1-8,4.4
			c-0.2,0.7-0.4,1.5-0.8,2.2c-1.1,1.6-2.6,3.1-3.4,4.7c-2.7,5.6-1.9,11.3,0,17c0.7,2,2.2,4.1,1.7,6c-0.8,3.5,1.2,6.7,2.1,10.1
			c0.4,1.6,1.8,3.2,2.8,4.7c2,3,4,6,6.1,8.9c1.9,2.7,4.4,5.3,5.7,8c0.5,1,1.4,1.9,2.6,2.6c0.1,0.2,0.1,0.3,0.2,0.4
			c1.7,0.3,4,0.4,7.5,0.4c6.8,0,14.5,0.1,20.4,1.5c11.5,2.7,17.9,7.9,21.7,13.8c2.5,3.8,5.1,7.6,8.5,11.2c5.6,5.8,9.1,11.7,7.8,18.3
			c-0.5,2.3-0.6,5.1,1.6,7c3.9,3.4,4.7,6.9,4.3,10.5c-0.3,2.2,1.3,4,3.6,6C1614.4,1514,1615.6,1516.4,1616.2,1518.6z"/>
	</g>
	<g class="st1">
		<defs>
			<rect id="SVGID_40_" x="0" width="2850" height="2005.2"/>
		</defs>
		<clipPath id="SVGID_41_">
			<use xlink:href="#SVGID_40_"  style="overflow:visible;"/>
		</clipPath>
		<g class="st19">
			<path class="st20" d="M-54.3,347.4l765.1,51.1c0.3,0,0.6,0,0.9,0.1l388.9,60.4c11.3,1.8,12.2,17.8,1.1,20.8l0,0
				c-12,3.2-9.6,21,2.8,21h243c12.7,0,14.7,18.4,2.2,21.1L834.2,632.3c-15.4,3.3-31.3,3.2-46.6-0.1l-227.9-50.1
				c-13.5-3-27.2-4.6-41-4.8l-573-8.2"/>
			<path class="st20" d="M869.3,278.1l498.2,69c9.3,1.3,12.5,13.3,5,19l-56.6,43.4c-9,6.9-2.5,21.2,8.6,18.9l518.4-107
				c2.3-0.5,4.8-0.2,6.9,0.9l144.5,73c13.6,6.9,29,9.3,44.1,7l406.1-63.4c12.4-1.9,11.8-20.2-0.8-21.2l-759.6-60.9
				c-0.3,0-0.6,0-0.8,0h-406.4H870.7C857.5,256.9,856.2,276.3,869.3,278.1z"/>
			<path class="st20" d="M1802.8,439.9l196.7,52c1.2,0.3,2.4,0.4,3.6,0.3l354.4-31.9l738.6-52.2c6.9-0.5,12.4,5.6,11.2,12.5
				l-53.1,309.9c-0.7,3.9-3.5,7.2-7.3,8.4l-215.1,68.5c-75.3,24-157.2,15.8-226.3-22.6l-224.2-124.6c-26.4-14.7-56.9-20-86.7-15.1
				l-149.1,24.4c-41.9,6.9-84.8-2-120.5-25c-106.4-68.5-345.8-182.6-348.9-184.5c-23.3-14.2,51.5-23.4,73-24.9
				C1767.1,433.5,1785.3,435.2,1802.8,439.9z"/>
			<path class="st20" d="M322.9,185.2c-12.3,3.3-9.5,21.6,3.2,21L768.5,185h214.8c11,0,14.7-14.7,5.1-20l-64.8-35.8
				c-1.6-0.9-3.3-1.3-5.1-1.3H540.8c-0.9,0-1.8,0.1-2.7,0.3L322.9,185.2z"/>
			<path class="st20" d="M1806.9,671.4h105.2c1.3,0,2.6,0.2,3.8,0.7l247.4,94c1.2,0.5,2.5,0.7,3.7,0.7h50.3c12.4,0,14.7,17.7,2.8,21
				l-131.9,36.1c-2.4,0.6-4.9,0.4-7.1-0.6l-166.9-75.2l-111.9-56.5C1792.2,686.5,1795.8,671.4,1806.9,671.4z"/>
			<path class="st20" d="M260.5,762l308.1-42c1.3-0.2,2.7-0.1,4,0.2l183.4,46.2c0.8,0.2,1.7,0.3,2.6,0.3h208.9
				c12.8,0,14.6,18.6,2.1,21.1l-391.3,79.2c-1.3,0.3-2.7,0.3-4,0l-227.8-42c-0.9-0.2-1.8-0.5-2.7-0.9l-86.5-42.1
				C247.8,777.6,250.1,763.4,260.5,762z"/>
			<path class="st20" d="M2089.6,182.7l221.5,40.2c0.3,0,0.5,0.1,0.8,0.1l247.9,25.9c0.4,0,0.7,0.1,1.1,0.1h174.7
				c9.8,0,14.4-12.2,7-18.7l-28.7-25.1c-1.6-1.4-3.5-2.2-5.6-2.5l-306.9-41c-0.5-0.1-0.9-0.1-1.4-0.1h-167.7h-140.9
				C2078.6,161.6,2076.9,180.4,2089.6,182.7z"/>
		</g>
	</g>
	<g class="st1">
		<defs>
			<rect id="SVGID_42_" x="0" width="2850" height="2005.2"/>
		</defs>
		<clipPath id="SVGID_43_">
			<use xlink:href="#SVGID_42_"  style="overflow:visible;"/>
		</clipPath>
		<g class="st21">
			<polygon class="st22" points="2611.9,506.8 2609.7,510.1 2607.3,506.9 2609.2,510.9 2607.5,515 2609.8,511.9 2612.1,514.9 
				2610.3,511 			"/>
			<polygon class="st22" points="1518.1,1028.1 1514.2,1031.4 1510.1,1028.3 1513.3,1032.2 1510.2,1036.3 1514.3,1033.2 
				1518.2,1036.1 1515.1,1032.3 			"/>
			<polygon class="st22" points="2341.8,1015.7 2334.4,1021.9 2326.5,1016 2332.7,1023.6 2326.9,1031.4 2334.6,1025.5 
				2342.2,1031.1 2336.2,1023.8 			"/>
			<polygon class="st22" points="2076.6,1073.8 2072.6,1077 2068.6,1073.9 2071.8,1077.9 2068.7,1082 2072.8,1078.8 2076.7,1081.8 
				2073.6,1078 			"/>
			<polygon class="st22" points="2364.4,638.5 2360.5,641.7 2356.4,638.6 2359.7,642.6 2356.6,646.7 2360.7,643.5 2364.6,646.5 
				2361.5,642.7 			"/>
			<polygon class="st22" points="821.9,864.9 818,868.1 813.9,865 817.1,869 814.1,873.1 818.1,870 822.1,872.9 819,869.1 			"/>
			<polygon class="st22" points="1703.4,476.4 1699.5,479.6 1695.4,476.6 1698.7,480.5 1695.6,484.6 1699.6,481.5 1703.6,484.4 
				1700.5,480.6 			"/>
			<polygon class="st22" points="1942.8,533.2 1939.6,529.3 1942.7,525.2 1938.7,528.4 1934.7,525.4 1937.8,529.4 1934.8,533.4 
				1938.6,530.3 			"/>
			<polygon class="st22" points="159.3,877 156.1,873.1 159.1,869 155.2,872.2 151.2,869.2 154.3,873.2 151.3,877.2 155.1,874.1 			
				"/>
			<polygon class="st22" points="189.8,1113.1 186.5,1109.2 189.6,1105.1 185.7,1108.4 181.6,1105.3 184.7,1109.3 181.8,1113.3 
				185.6,1110.2 			"/>
			<polygon class="st22" points="407.7,861.7 404.4,857.8 407.5,853.7 403.6,856.9 399.5,853.9 402.6,857.9 399.7,861.9 
				403.4,858.8 			"/>
			<polygon class="st22" points="465.9,891.2 462.7,887.3 465.7,883.1 461.8,886.4 457.7,883.3 460.8,887.4 457.9,891.4 
				461.7,888.2 			"/>
			<polygon class="st22" points="679.7,716.8 676.5,712.9 679.6,708.8 675.7,712.1 671.6,709 674.7,713.1 671.8,717 675.5,713.9 			
				"/>
			<polygon class="st22" points="2575.6,1148.8 2572.4,1144.9 2575.4,1140.8 2571.5,1144 2567.4,1141 2570.6,1145 2567.6,1149 
				2571.4,1145.9 			"/>
			<polygon class="st22" points="2732,673.6 2728.8,669.7 2731.8,665.6 2727.9,668.8 2723.9,665.8 2727,669.8 2724,673.8 
				2727.8,670.7 			"/>
			<polygon class="st22" points="2796.5,704.2 2793.3,700.2 2796.3,696.1 2792.4,699.4 2788.4,696.3 2791.5,700.4 2788.5,704.3 
				2792.3,701.2 			"/>
			<polygon class="st22" points="2563.5,792.9 2560.3,788.9 2563.4,784.8 2559.5,788.1 2555.4,785 2558.5,789.1 2555.5,793 
				2559.3,789.9 			"/>
			<polygon class="st22" points="2292.7,424 2289.4,420.1 2292.5,416 2288.6,419.2 2284.5,416.2 2287.6,420.2 2284.7,424.2 
				2288.4,421.1 			"/>
			<polygon class="st22" points="2692.6,320.8 2689.4,316.9 2692.4,312.8 2688.5,316 2684.5,313 2687.6,317 2684.6,321 
				2688.4,317.9 			"/>
			<polygon class="st22" points="1054.9,1103.2 1049.1,1108.1 1043,1103.5 1047.8,1109.4 1043.2,1115.5 1049.3,1110.8 
				1055.2,1115.3 1050.5,1109.6 			"/>
			<polygon class="st22" points="2216,800.1 2210.2,804.9 2204.1,800.3 2209,806.2 2204.4,812.3 2210.4,807.7 2216.3,812.1 
				2211.7,806.4 			"/>
			<polygon class="st22" points="1375.5,342 1371.6,345.2 1367.5,342.2 1370.7,346.1 1367.7,350.2 1371.7,347.1 1375.7,350 
				1372.6,346.2 			"/>
			<polygon class="st22" points="1042.1,369.9 1039.9,373.1 1037.6,370 1039.5,373.9 1037.8,378 1040,374.9 1042.3,377.9 
				1040.5,374.1 			"/>
			<polygon class="st22" points="1289.2,113.8 1285.3,117.1 1281.2,114 1284.5,117.9 1281.4,122 1285.5,118.9 1289.4,121.8 
				1286.3,118 			"/>
			<polygon class="st22" points="772.1,878.7 764.6,885 756.8,879.1 763,886.6 757.1,894.5 764.9,888.5 772.4,894.1 766.5,886.9 			
				"/>
			<polygon class="st22" points="506.8,936.8 502.9,940.1 498.8,937 502,940.9 499,945 503,941.9 507,944.8 503.9,941.1 			"/>
			<polygon class="st22" points="794.7,501.5 790.8,504.8 786.7,501.7 789.9,505.6 786.9,509.7 790.9,506.6 794.8,509.5 
				791.7,505.7 			"/>
			<polygon class="st22" points="1263.5,773.5 1257.6,778.4 1251.5,773.8 1256.4,779.7 1251.8,785.8 1257.8,781.2 1263.7,785.6 
				1259.1,779.9 			"/>
			<polygon class="st22" points="1575.2,639.3 1571.9,635.3 1575,631.2 1571.1,634.5 1567,631.4 1570.1,635.5 1567.2,639.5 
				1570.9,636.3 			"/>
			<polygon class="st22" points="1835.2,555 1831.9,551.1 1835,547 1831.1,550.2 1827,547.2 1830.1,551.2 1827.2,555.2 
				1830.9,552.1 			"/>
			<polygon class="st22" points="1877.4,983.1 1874.2,979.1 1877.2,975 1873.3,978.3 1869.3,975.2 1872.4,979.3 1869.4,983.2 
				1873.2,980.1 			"/>
			<polygon class="st22" points="1757.2,815.9 1753.9,812 1757,807.9 1753.1,811.2 1749,808.1 1752.1,812.2 1749.2,816.1 1753,813 
							"/>
			<polygon class="st22" points="1804.9,783.6 1801.6,779.7 1804.7,775.6 1800.8,778.8 1796.7,775.8 1799.8,779.8 1796.9,783.8 
				1800.6,780.7 			"/>
			<polygon class="st22" points="1524.2,979 1521,975 1524.1,970.9 1520.2,974.2 1516.1,971.1 1519.2,975.2 1516.2,979.1 1520,976 
							"/>
			<polygon class="st22" points="1330.5,1076.6 1327.2,1072.6 1330.3,1068.5 1326.4,1071.8 1322.3,1068.7 1325.4,1072.8 
				1322.5,1076.7 1326.3,1073.6 			"/>
			<polygon class="st22" points="1005.9,1011.9 1002.6,1007.9 1005.7,1003.8 1001.8,1007.1 997.7,1004 1000.8,1008.1 997.9,1012 
				1001.6,1008.9 			"/>
			<polygon class="st22" points="1162.3,536.7 1159,532.7 1162.1,528.6 1158.2,531.9 1154.1,528.8 1157.2,532.9 1154.3,536.8 
				1158,533.7 			"/>
			<polygon class="st22" points="1226.8,567.2 1223.5,563.3 1226.6,559.2 1222.7,562.4 1218.6,559.4 1221.7,563.4 1218.8,567.4 
				1222.5,564.3 			"/>
			<polygon class="st22" points="993.8,655.9 990.5,652 993.6,647.9 989.7,651.2 985.6,648.1 988.7,652.1 985.8,656.1 989.5,653 			
				"/>
			<polygon class="st22" points="722.9,287.1 719.7,283.1 722.7,279 718.8,282.3 714.7,279.2 717.8,283.3 714.9,287.2 718.7,284.1 
							"/>
			<polygon class="st22" points="1122.9,183.9 1119.6,179.9 1122.7,175.8 1118.8,179.1 1114.7,176 1117.8,180.1 1114.9,184 
				1118.6,180.9 			"/>
			<polygon class="st22" points="646.3,663.1 640.4,668 634.3,663.4 639.2,669.3 634.6,675.4 640.7,670.7 646.6,675.1 641.9,669.5 
							"/>
			<polygon class="st22" points="932.6,171.7 928.7,175 924.6,171.9 927.9,175.8 924.8,179.9 928.9,176.8 932.8,179.7 929.7,176 			
				"/>
			<polygon class="st22" points="590.8,321.6 588.6,324.8 586.3,321.7 588.2,325.6 586.5,329.7 588.7,326.6 591,329.6 589.2,325.8 
							"/>
			<polygon class="st22" points="837.9,65.5 834,68.8 829.9,65.7 833.2,69.6 830.1,73.7 834.2,70.6 838.1,73.5 835,69.8 			"/>
			<polygon class="st22" points="320.8,830.4 313.3,836.7 305.5,830.8 311.7,838.3 305.8,846.2 313.6,840.2 321.1,845.8 
				315.2,838.6 			"/>
			<polygon class="st22" points="55.5,888.5 51.6,891.8 47.5,888.7 50.7,892.6 47.7,896.7 51.7,893.6 55.7,896.5 52.6,892.8 			"/>
			<polygon class="st22" points="343.4,453.2 339.5,456.5 335.4,453.4 338.6,457.3 335.6,461.4 339.6,458.3 343.5,461.2 
				340.4,457.5 			"/>
			<polygon class="st22" points="812.2,725.3 806.3,730.1 800.2,725.5 805.1,731.4 800.5,737.5 806.5,732.9 812.4,737.3 
				807.8,731.6 			"/>
			<polygon class="st22" points="1123.9,591 1120.6,587.1 1123.7,582.9 1119.8,586.2 1115.7,583.1 1118.8,587.2 1115.9,591.2 
				1119.7,588 			"/>
			<polygon class="st22" points="1383.9,506.7 1380.6,502.8 1383.7,498.7 1379.8,501.9 1375.7,498.9 1378.8,502.9 1375.9,506.9 
				1379.6,503.8 			"/>
			<polygon class="st22" points="1426.1,934.8 1422.9,930.8 1425.9,926.7 1422,930 1417.9,926.9 1421.1,931 1418.1,934.9 
				1421.9,931.8 			"/>
			<polygon class="st22" points="1305.9,767.6 1302.6,763.7 1305.7,759.6 1301.8,762.9 1297.7,759.8 1300.8,763.9 1297.9,767.8 
				1301.7,764.7 			"/>
			<polygon class="st22" points="1353.6,735.3 1350.3,731.4 1353.4,727.3 1349.5,730.5 1345.4,727.5 1348.5,731.5 1345.6,735.5 
				1349.4,732.4 			"/>
			<polygon class="st22" points="1072.9,930.7 1069.7,926.7 1072.8,922.6 1068.9,925.9 1064.8,922.8 1067.9,926.9 1064.9,930.8 
				1068.7,927.7 			"/>
			<polygon class="st22" points="879.2,1028.3 875.9,1024.3 879,1020.2 875.1,1023.5 871,1020.4 874.1,1024.5 871.2,1028.4 
				875,1025.3 			"/>
			<polygon class="st22" points="554.6,963.6 551.3,959.6 554.4,955.5 550.5,958.8 546.4,955.7 549.5,959.8 546.6,963.7 
				550.3,960.6 			"/>
			<polygon class="st22" points="711,488.4 707.7,484.4 710.8,480.3 706.9,483.6 702.8,480.5 705.9,484.6 703,488.5 706.7,485.4 			
				"/>
			<polygon class="st22" points="775.5,518.9 772.2,515 775.3,510.9 771.4,514.1 767.3,511.1 770.4,515.1 767.5,519.1 771.2,516 			
				"/>
			<polygon class="st22" points="542.5,607.6 539.2,603.7 542.3,599.6 538.4,602.9 534.3,599.8 537.4,603.8 534.5,607.8 
				538.3,604.7 			"/>
			<polygon class="st22" points="271.6,238.8 268.4,234.8 271.4,230.7 267.5,234 263.4,230.9 266.5,235 263.6,238.9 267.4,235.8 			
				"/>
			<polygon class="st22" points="671.6,135.6 668.3,131.6 671.4,127.5 667.5,130.8 663.4,127.7 666.5,131.8 663.6,135.7 
				667.3,132.6 			"/>
			<polygon class="st22" points="195,614.8 189.1,619.7 183,615.1 187.9,621 183.3,627.1 189.4,622.4 195.3,626.8 190.6,621.2 			
				"/>
			<polygon class="st22" points="2022.8,763 2026.7,759.7 2030.8,762.8 2027.6,758.9 2030.6,754.8 2026.6,757.9 2022.6,755 
				2025.7,758.8 			"/>
			<polygon class="st22" points="2356.2,735.1 2358.4,731.9 2360.7,735 2358.8,731 2360.6,727 2358.3,730 2356,727.1 2357.8,730.9 
							"/>
			<polygon class="st22" points="2109.1,991.2 2113,987.9 2117.1,991 2113.8,987.1 2116.9,983 2112.9,986.1 2108.9,983.2 
				2112,986.9 			"/>
			<polygon class="st22" points="2626.2,226.3 2633.7,220 2641.6,225.9 2635.3,218.4 2641.2,210.5 2633.5,216.5 2625.9,210.8 
				2631.8,218.1 			"/>
			<polygon class="st22" points="2603.6,603.5 2607.6,600.2 2611.6,603.3 2608.4,599.4 2611.5,595.3 2607.4,598.4 2603.5,595.4 
				2606.6,599.2 			"/>
			<polygon class="st22" points="2134.9,331.4 2140.7,326.6 2146.8,331.2 2142,325.3 2146.5,319.2 2140.5,323.8 2134.6,319.4 
				2139.2,325.1 			"/>
			<polygon class="st22" points="1823.1,465.7 1826.4,469.6 1823.3,473.7 1827.2,470.5 1831.3,473.6 1828.2,469.5 1831.1,465.5 
				1827.4,468.6 			"/>
			<polygon class="st22" points="1563.2,550 1566.4,553.9 1563.3,558 1567.2,554.7 1571.3,557.8 1568.2,553.8 1571.1,549.8 
				1567.4,552.9 			"/>
			<polygon class="st22" points="1520.9,121.9 1524.1,125.8 1521.1,130 1525,126.7 1529.1,129.8 1526,125.7 1528.9,121.7 
				1525.1,124.9 			"/>
			<polygon class="st22" points="1641.1,289 1644.4,293 1641.3,297.1 1645.2,293.8 1649.3,296.9 1646.2,292.8 1649.1,288.9 
				1645.4,292 			"/>
			<polygon class="st22" points="1593.4,321.4 1596.7,325.3 1593.6,329.4 1597.5,326.1 1601.6,329.2 1598.5,325.2 1601.4,321.2 
				1597.7,324.3 			"/>
			<polygon class="st22" points="1874.1,126 1877.3,130 1874.3,134.1 1878.2,130.8 1882.3,133.9 1879.1,129.8 1882.1,125.8 
				1878.3,129 			"/>
			<polygon class="st22" points="2067.8,28.4 2071.1,32.3 2068,36.5 2071.9,33.2 2076,36.3 2072.9,32.2 2075.8,28.2 2072,31.4 			
				"/>
			<polygon class="st22" points="2392.5,93.1 2395.7,97 2392.6,101.2 2396.6,97.9 2400.6,101 2397.5,96.9 2400.5,92.9 2396.7,96.1 
							"/>
			<polygon class="st22" points="2236.1,568.3 2239.3,572.3 2236.2,576.4 2240.1,573.1 2244.2,576.2 2241.1,572.1 2244,568.2 
				2240.3,571.3 			"/>
			<polygon class="st22" points="2171.6,537.8 2174.8,541.7 2171.7,545.8 2175.6,542.5 2179.7,545.6 2176.6,541.5 2179.6,537.6 
				2175.8,540.7 			"/>
			<polygon class="st22" points="2404.5,449.1 2407.8,453 2404.7,457.1 2408.6,453.8 2412.7,456.9 2409.6,452.8 2412.5,448.9 
				2408.8,452 			"/>
			<polygon class="st22" points="2675.4,817.9 2678.7,821.9 2675.6,826 2679.5,822.7 2683.6,825.8 2680.5,821.7 2683.4,817.8 
				2679.7,820.9 			"/>
			<polygon class="st22" points="2275.5,921.1 2278.7,925.1 2275.6,929.2 2279.5,925.9 2283.6,929 2280.5,924.9 2283.4,921 
				2279.7,924.1 			"/>
			<polygon class="st22" points="2752,441.9 2757.9,437 2764,441.6 2759.1,435.7 2763.7,429.6 2757.7,434.3 2751.8,429.9 
				2756.4,435.5 			"/>
		</g>
	</g>
	<g class="st1">
		<defs>
			<rect id="SVGID_44_" x="0" width="2850" height="2005.2"/>
		</defs>
		<clipPath id="SVGID_45_">
			<use xlink:href="#SVGID_44_"  style="overflow:visible;"/>
		</clipPath>
		<polyline class="st23" points="1788.9,1843.2 1804.4,1932.5 1752.6,1955.2 1728.4,2022.4 1733.4,2021.3 1743.7,2011.3 
			1748.1,2018.3 1760.3,2015.8 1774.7,1962.1 1796.5,1953.7 1811.5,2032.1 1832.2,2033.8 1836.2,2014.3 1847.6,2035 1871.6,2036.9 
			1834.6,1913.9 1880.4,1937.6 1888.8,1934.6 1884.3,1928 1895.9,1932.1 1903.2,1929.5 1826.1,1885.7 1809.9,1836.8 		"/>
	</g>
	<g class="st1">
		<defs>
			<rect id="SVGID_46_" x="0" width="2850" height="2005.2"/>
		</defs>
		<clipPath id="SVGID_47_">
			<use xlink:href="#SVGID_46_"  style="overflow:visible;"/>
		</clipPath>
		<polyline class="st24" points="793,1401.5 762,1454.1 721.3,1441.6 677,1464.6 680.3,1466.4 690.9,1466 690.3,1471.6 698.7,1476 
			731.2,1455.4 747.8,1461.2 721.4,1508 732.8,1518.4 743.9,1510.4 741.3,1526.1 754.6,1538.2 788.1,1458.6 804.3,1491.8 
			810.6,1494.2 810.9,1488.7 815.9,1496.2 821.4,1498.2 795.7,1440.3 808.2,1408 		"/>
	</g>
	<g class="st1">
		<defs>
			<rect id="SVGID_48_" x="0" width="2850" height="2005.2"/>
		</defs>
		<clipPath id="SVGID_49_">
			<use xlink:href="#SVGID_48_"  style="overflow:visible;"/>
		</clipPath>
		<polyline class="st25" points="1944.3,1651.6 1981.3,1734.4 1936.6,1769.2 1929.7,1840.3 1934.3,1838.1 1941.8,1825.8 
			1947.8,1831.5 1959,1826 1959.7,1770.4 1978.8,1756.9 2012.7,1829.2 2033,1825.6 2032.2,1805.8 2048.3,1823 2072.1,1818.9 
			2005.9,1708.9 2056.1,1720.5 2063.5,1715.5 2057.6,1710.2 2069.8,1711.3 2076.3,1707 1990.8,1683.7 1963.1,1640.3 		"/>
	</g>
	<g class="st1">
		<defs>
			<rect id="SVGID_50_" x="0" width="2850" height="2005.2"/>
		</defs>
		<clipPath id="SVGID_51_">
			<use xlink:href="#SVGID_50_"  style="overflow:visible;"/>
		</clipPath>
		<polyline class="st26" points="1944.7,1654.6 1935.9,1533.7 1891.1,1525 1857.2,1448 1861.2,1447.4 1871.4,1456.3 1873.2,1445.5 
			1883.1,1444 1906.4,1507.4 1925,1509.6 1918.4,1402.9 1933.8,1392.8 1941.4,1416.2 1945.4,1385.1 1963.3,1373.3 1963.3,1545.8 
			1992.8,1497.5 1999.9,1498 1998,1508.3 2005.9,1498.5 2012.1,1498.9 1963.3,1585.4 1962.2,1654.6 		"/>
	</g>
	<g class="st1">
		<defs>
			<rect id="SVGID_52_" x="0" width="2850" height="2005.2"/>
		</defs>
		<clipPath id="SVGID_53_">
			<use xlink:href="#SVGID_52_"  style="overflow:visible;"/>
		</clipPath>
		<polyline class="st27" points="794.4,1409.9 787.7,1316.5 753.1,1309.8 726.9,1250.3 729.9,1249.9 737.8,1256.7 739.2,1248.4 
			746.9,1247.2 764.9,1296.2 779.2,1297.9 774.2,1215.5 786,1207.7 791.9,1225.7 794.9,1201.8 808.8,1192.6 808.8,1325.9 
			831.6,1288.5 837.1,1289 835.6,1296.9 841.7,1289.3 846.5,1289.7 808.8,1356.4 807.9,1409.9 		"/>
	</g>
	<g class="st1">
		<defs>
			<rect id="SVGID_54_" x="0" width="2850" height="2005.2"/>
		</defs>
		<clipPath id="SVGID_55_">
			<use xlink:href="#SVGID_54_"  style="overflow:visible;"/>
		</clipPath>
		<polyline class="st28" points="1788.1,1845.1 1777.2,1693.7 1721,1682.7 1678.6,1586.3 1683.6,1585.5 1696.4,1596.6 
			1698.5,1583.2 1711,1581.3 1740.2,1660.6 1763.5,1663.4 1755.3,1529.9 1774.5,1517.1 1784,1546.4 1789,1507.6 1811.4,1492.7 
			1811.4,1708.8 1848.4,1648.3 1857.3,1648.9 1854.9,1661.8 1864.9,1649.5 1872.6,1650.1 1811.4,1758.4 1810.1,1845.1 		"/>
	</g>
	<g class="st1">
		<defs>
			<rect id="SVGID_56_" x="0" width="2850" height="2005.2"/>
		</defs>
		<clipPath id="SVGID_57_">
			<use xlink:href="#SVGID_56_"  style="overflow:visible;"/>
		</clipPath>
		<g class="st29">
			<polygon class="st17" points="1690.6,1595.5 1703.5,1606.6 1705.6,1593.2 1714.8,1591.7 1711,1581.3 1698.5,1583.2 
				1696.4,1596.6 1683.6,1585.5 1678.6,1586.3 1721,1682.7 1724,1683.2 1685.6,1596.3 			"/>
			<polygon class="st17" points="1796.1,1517.5 1811.4,1507.3 1811.4,1492.7 1789,1507.6 1785.1,1537.9 1791.1,1556.3 			"/>
			<polygon class="st17" points="1768.3,1668.9 1762.3,1539.8 1778.4,1529.1 1774.5,1517.1 1755.3,1529.9 1763.5,1663.4 
				1740.2,1660.6 1740.2,1660.6 			"/>
			<polyline class="st17" points="1857.3,1648.9 1848.4,1648.3 1811.4,1708.8 1811.4,1708.8 1857.3,1648.9 			"/>
		</g>
	</g>
	<g class="st1">
		<defs>
			<rect id="SVGID_58_" x="0" width="2850" height="2005.2"/>
		</defs>
		<clipPath id="SVGID_59_">
			<use xlink:href="#SVGID_58_"  style="overflow:visible;"/>
		</clipPath>
		<path class="st30" d="M1064.2,920.3c-0.9-2.9-2.4-6.2-5.3-6.6c-1.7-0.2-3.2,0.7-4.7,1.5c-21.4,12.7-39.4,31.1-51.6,52.8
			c0.1-11.3,0.2-22.6,0.4-33.9c0-1.9-0.3-4.2-2-4.8c-1.1-0.4-2.2,0.1-3.2,0.7c-11.7,6.5-17,21.7-14.4,34.9c2.6,13.2,11.9,24.4,23,32
			c11.1,7.6,23.9,12.1,36.7,16.2c-14.8,11.9-29.6,23.8-44.5,35.6c-4.3,3.5-9.2,8.4-7.7,13.7c0.8,2.9,3.3,5,5.7,6.8
			c7.9,6.2,15.8,12.4,23.8,18.6c1.3,1,2.7,2.2,3.1,3.8c0.4,1.6-0.2,3.3-1,4.8c-8.4,17.2-29.1,30.2-26.6,49.2
			c1.6,12.2,15,21.4,26.9,18.5c2.9-0.7,5.7-2.1,7.7-4.3c2.4-2.7,3.4-6.3,4.3-9.8c9.4-36.5,18.8-72.1,23.4-109.5
			C1063.3,999.1,1076.9,962.4,1064.2,920.3z"/>
	</g>
	<g class="st1">
		<defs>
			<rect id="SVGID_60_" x="0" width="2850" height="2005.2"/>
		</defs>
		<clipPath id="SVGID_61_">
			<use xlink:href="#SVGID_60_"  style="overflow:visible;"/>
		</clipPath>
		<path class="st31" d="M1386.3,781.1c-10.7-0.9-21.3-3.7-31-8.3c-1.6-0.7-3.2-1.6-4-3.2c-1.9-3.8,2.7-7.6,6.7-9.2
			c22.5-9,48.5-8.8,70.8,0.6c-2.1-4.3-4.8-8.3-8-11.9c-4-4.5-2.6-11.5,2.6-14.5c14.1-8.2,29.5-14.2,44.5-9.4
			c4.4,1.4,8.5,3.7,12.9,5.1c9.8,3,20.3,1.2,30.4-0.7c10.1-1.9,20.6-3.8,30.4-0.9c2.3,0.7,4.5,1.7,6.5,3c8.5,5.4,3.5,18.7-6.4,17.5
			l-30.7-3.7c-12-1.5-15.1,16.5-3.2,18.8c12.5,2.4,25.7,2.9,38.2,2.4c26.2-1,53.8-4.4,78.3,3.7c6.6,2.2,8.5,10.7,3.7,15.7
			c-5.8,6.1-14.3,10.1-22.7,11.4c-12.9,2-26.1-1-38.8-4c-33.7-7.9-67.4-15.8-101.1-23.7"/>
	</g>
	<g class="st1">
		<defs>
			<rect id="SVGID_62_" x="0" width="2850" height="2005.2"/>
		</defs>
		<clipPath id="SVGID_63_">
			<use xlink:href="#SVGID_62_"  style="overflow:visible;"/>
		</clipPath>
		<path class="st32" d="M1694.7,854.2c-4.2-3.6-7.5-8.2-9.7-13.2c-4.2-9.8,8.5-18.1,15.8-10.3l0,0c5.7,6.1,15.8,2.5,16.5-5.8
			l0.5-6.7c0.3-3.5,0.8-7.5,3.7-9.4c3.2-2.2,7.6-0.8,10.7,1.6c11.4,8.8,11.2,25.8,16.8,39.1c8.6,20.5,31.4,31.7,53.3,34.3
			c8.8,1,18.8,1.5,24.6,8.3c1.8,2.1,2.9,4.5,3.8,7.1c2.6,7.7-4.7,15-12.3,12.2l-20.1-7.3c-9.9-3.6-17.6,9.3-9.7,16.2
			c5.7,5,12.8,9.1,19.6,12.2c10.5,4.7,22.1,9.2,30.6,16.4c6.1,5.2,3,15.6-5,16.6c-16.2,2-33.3-2.4-47.6-10.5
			c-18.8-10.7-33.7-27.3-47.1-44.4"/>
	</g>
	<g class="st1">
		<defs>
			<rect id="SVGID_64_" x="0" width="2850" height="2005.2"/>
		</defs>
		<clipPath id="SVGID_65_">
			<use xlink:href="#SVGID_64_"  style="overflow:visible;"/>
		</clipPath>
		<path class="st33" d="M1116,979.4c17.4-11.4,30.2-29.4,35.9-49.4c2.2-7.8-6.9-14-13.4-9.4c-10.4,7.3-20.2,15.3-29.3,24.1
			c-6.5,6.3-17.4-0.2-14.5-8.7c1.8-5.3,4.8-10.3,8.7-14.3c3.6-3.7,7.7-6.6,12.3-8.9c7.1-3.6,6.7-13.8-0.8-16.4
			c-0.1,0-0.2-0.1-0.4-0.1c-5.8-2-7.9-9-4.2-13.8c11-14.2,29.8-22.5,47.7-20.3c4.9,0.6,9.6-2.6,10-7.6c0.3-4.2-1-9-3-12.8
			c-3.7-7-9.1-14.4-6.9-22.1c1.1-3.8,3.9-6.8,6.7-9.6c8.4-8.1,18.1-14.8,28.6-19.8c5.8-2.8,12.4,1.8,12.3,8.2l-0.7,38.3
			c0,1.2,0,2.6,0.7,3.6c1.7,2.6,5.7,1.3,8.2-0.4c31.3-19.6,55.6-52.5,91.5-61.2c2.5-0.6,5.3-1,7.4,0.5c4.9,3.4,0.1,10.9-4.7,14.5
			c-24.1,18.1-49.8,34.1-76.6,47.7c-9.7,4.9-20.8,11.1-22.7,21.9l32-10.6c8.6-2.9,15.5,7.9,9.1,14.5c-2.3,2.4-4.9,4.6-7.4,6.6
			c-14.4,11.6-28.8,23.3-43.2,34.9"/>
	</g>
	<g class="st1">
		<defs>
			<rect id="SVGID_66_" x="0" width="2850" height="2005.2"/>
		</defs>
		<clipPath id="SVGID_67_">
			<use xlink:href="#SVGID_66_"  style="overflow:visible;"/>
		</clipPath>
		<path class="st34" d="M1642.8,753c12,3,24.7,7.1,36.3,3.1c3.2-1.1,6.6-3.6,6.2-6.9c-0.2-2.3-2.2-4-4.2-5.2
			c-5.3-3.1-11.6-4.3-17.6-3.4c-2.4,0.4-4.7,1-7.1,0.9c-5.9-0.2-10.6-4.8-15.6-8c-13.3-8.4-31-6.6-45.1,0.2
			c-2.4,1.1-4.7,2.4-7.3,3.1c-14.3,3.5-26.2,11.3-4.4,10.7C1604,747,1623.1,748.1,1642.8,753z"/>
	</g>
	<g class="st1">
		<defs>
			<rect id="SVGID_68_" x="0" width="2850" height="2005.2"/>
		</defs>
		<clipPath id="SVGID_69_">
			<use xlink:href="#SVGID_68_"  style="overflow:visible;"/>
		</clipPath>
		<path class="st35" d="M1837.6,887.5c2.3,0.6,4.8,1,7.1,0.5c2.3-0.6,4.5-2.5,4.5-5c0.1-4.4-6.1-5.8-10.4-4.9
			c-4.3,0.9-9.7,2.2-12.5-1.2c-1.5-1.8-1.6-4.2-2.5-6.4c-3.6-9.3-29-12.6-25.9,0.1C1799.8,878.4,1830.7,885.8,1837.6,887.5z"/>
	</g>
	<g class="st1">
		<defs>
			<rect id="SVGID_70_" x="0" width="2850" height="2005.2"/>
		</defs>
		<clipPath id="SVGID_71_">
			<use xlink:href="#SVGID_70_"  style="overflow:visible;"/>
		</clipPath>
		<path class="st36" d="M1208.3,776.6c-5.6-3.8-4.3-14,1.9-16.7c6.2-2.7,14.2,2.6,14.6,9.5c0.1,1.3-0.1,2.7,0.3,4
			c1.2,3.6,6,4.1,9.8,3.9c2.5,1.3,2.6,5,1,7.3c-1.6,2.3-4.3,3.5-6.8,4.6c-12.3,5.5-3.4,15-8.3,24.1
			C1211.7,801.8,1222.6,786.3,1208.3,776.6z"/>
	</g>
	<g class="st1">
		<defs>
			<rect id="SVGID_72_" x="0" width="2850" height="2005.2"/>
		</defs>
		<clipPath id="SVGID_73_">
			<use xlink:href="#SVGID_72_"  style="overflow:visible;"/>
		</clipPath>
		<path class="st37" d="M1043.8,894.4c-4.6,7.3-8.1,6.8-15.4,7.8c-4.1,0.6-16.8-2-17.1,5.9c-0.2,5.5,7.7,4.3,11.3,6.9
			c4.5,3.2-1,7.2,5.7,7.7c3.6,0.3,26.2-16.5,28.4-19.3c3.6-4.5,6.3-12.1,1.4-16.9C1050.9,879.4,1047.5,888.5,1043.8,894.4z"/>
	</g>
	<g class="st1">
		<defs>
			<rect id="SVGID_74_" x="0" width="2850" height="2005.2"/>
		</defs>
		<clipPath id="SVGID_75_">
			<use xlink:href="#SVGID_74_"  style="overflow:visible;"/>
		</clipPath>
		<path class="st38" d="M733.7,1047.7c0.6,5.7,2.4,12.5,7.9,14.1c4,1.2,8.5-1.3,10.4-4.9c1.9-3.7,1.6-8.3,0-12.1
			c-2-4.6-5.8-8.8-5.6-13.8c0.1-4.2,3-7.7,5-11.3c2-3.7,2.8-8.8-0.3-11.6c-0.9-0.8-2.1-1.3-2.9-2.2c-1-1.2-1.2-2.8-1.3-4.4
			c-0.3-6.4,0.1-19.4-7.9-22.2c-6.6-2.3-4.3,3.7-3.8,9C737,1008,731.8,1027.7,733.7,1047.7z"/>
	</g>
	<g class="st1">
		<defs>
			<rect id="SVGID_76_" x="0" width="2850" height="2005.2"/>
		</defs>
		<clipPath id="SVGID_77_">
			<use xlink:href="#SVGID_76_"  style="overflow:visible;"/>
		</clipPath>
		<path class="st39" d="M240.9,975.5c-0.6-3-1.1-6.1-0.6-9.1c1.3-7.8,9.3-12.9,11.6-20.5c2.4-7.8-1.6-16.6,1.4-24.2
			c2.3-5.8,8.4-12.1,4.5-17c-1.8-2.3-5.1-2.8-8-2.8c-7.5-0.2-15.8,1.4-20.1,7.5c-8.1,11.4,3.7,28.3-2.1,41.1
			c-0.9,2.1-2.4,4.4-1.5,6.6c0.5,1.4,2,2.3,3,3.5c3.9,4.5,0.9,11.5-2.7,16.2c-3.6,4.7-7.9,10.3-6.1,16c2.3,6.9,11.5,7.9,18.7,7.6
			c1.1,0-4.9,44.2,7.4,27.3C254.4,1016.6,243.1,987.1,240.9,975.5z"/>
	</g>
	<g class="st1">
		<defs>
			<rect id="SVGID_78_" x="0" width="2850" height="2005.2"/>
		</defs>
		<clipPath id="SVGID_79_">
			<use xlink:href="#SVGID_78_"  style="overflow:visible;"/>
		</clipPath>
		<path class="st40" d="M607.7,621.6c-0.9-8.3-11-12-19.3-12.2c-2.7-0.1-5.6,0.1-8.1,1.2c-2.3,1-4.2,2.9-6.4,4.2
			c-12,7.2-27.8-2.3-41.2,1.7c-6.5,1.9-12.5,6.9-19.2,5.6c-9.2-1.9-12.9-11.7-23.6-8.5c-8.8,2.7-14.6,16.4-13.5,25.1
			c1.9,15.7,11.6,13,24.2,8.6c16.8-5.9,33-18.6,50.9-20.9C562.1,624.9,610.7,648.6,607.7,621.6z"/>
	</g>
	<g class="st1">
		<defs>
			<rect id="SVGID_80_" x="0" width="2850" height="2005.2"/>
		</defs>
		<clipPath id="SVGID_81_">
			<use xlink:href="#SVGID_80_"  style="overflow:visible;"/>
		</clipPath>
		<path class="st41" d="M402.5,669.7c1.1-7.5,7.7-14.3,15.2-14.2c2.1,0,4.3,0.6,5.9,2c7.7,6.3,0.8,14.8,3,21.6
			c3.9,11.9,3.4,2.3,12.5,6.2c11.5,5,10.2,19.1,0.6,30.6c-11.9,14.2-7.9,3.6-11.6-7.2c-3.2-9.4-6.6-8.1-14.9-15.4
			C406.6,687.3,401.1,679.1,402.5,669.7z"/>
	</g>
	<g class="st1">
		<defs>
			<rect id="SVGID_82_" x="0" width="2850" height="2005.2"/>
		</defs>
		<clipPath id="SVGID_83_">
			<use xlink:href="#SVGID_82_"  style="overflow:visible;"/>
		</clipPath>
		<path class="st42" d="M2253.3,760.1l-34.8-19.3c-5.2-2.9-9.8-7-12.5-12.3c-8.3-16.7,7.5-29.7,22.3-34.6c7.5-2.5,16.7-3.6,22.3,1.9
			c8.3,8.3,1.3,23.3,6.1,34c0.1,0,0.2-0.1,0.3-0.1c10.7-4.4,22,2.3,23,13.9c0.1,1.7,0.3,3.4,0.7,5c2.8,14.1,31,70.6-3.1,66.1
			C2250,811.1,2278.7,774.3,2253.3,760.1z"/>
	</g>
	<g class="st1">
		<defs>
			<rect id="SVGID_84_" x="0" width="2850" height="2005.2"/>
		</defs>
		<clipPath id="SVGID_85_">
			<use xlink:href="#SVGID_84_"  style="overflow:visible;"/>
		</clipPath>
		<path class="st43" d="M2666.6,1146.7c-2.3-22.7-3.6-45.6-3.8-68.4c8,8.6,9.4,22.7,3.3,32.8c1.8,1.7,4.7,2.3,7,1.4
			c2,19.1,2.4,38.4,1,57.6c-12.7-5.1-19.9-20.8-15.7-33.8"/>
	</g>
	<g class="st1">
		<defs>
			<rect id="SVGID_86_" x="0" width="2850" height="2005.2"/>
		</defs>
		<clipPath id="SVGID_87_">
			<use xlink:href="#SVGID_86_"  style="overflow:visible;"/>
		</clipPath>
		<path class="st44" d="M2559,992.6c5-13.2-3.1-27.5-10.6-39.5c-7.5-12-14.8-27-8.4-39.6c1.1-2.2,2.6-4.3,2.4-6.8
			c-0.3-2.6-2.4-4.5-4.3-6.2c-18.8-17.5-21.8-49.5-6.6-70.3c1.3-1.8,3-3.6,5.2-3.6c3,0,4.8,3.2,5.8,6.1c4.2,12.4,4.2,26.1,0.2,38.6
			c-0.7,2.1-1.4,4.4-0.5,6.3c0.6,1.2,1.7,2,2.8,2.8c8.4,5.6,20.1,9.2,22.4,19c1,4.3-0.2,8.8-0.6,13.3c-0.9,13.2,6.6,25.9,16.6,34.5
			c10.1,8.6,22.5,13.8,34.7,18.8"/>
	</g>
	<g class="st1">
		<defs>
			<rect id="SVGID_88_" x="0" width="2850" height="2005.2"/>
		</defs>
		<clipPath id="SVGID_89_">
			<use xlink:href="#SVGID_88_"  style="overflow:visible;"/>
		</clipPath>
		<path class="st45" d="M1209,1192.8c-0.6-11.8-1.3-23.5-1.9-35.3c-0.3-5.2,0.1-11.5,4.8-13.7c0.6,7.8-0.3,15.7-2.6,23.2
			c5.3-2.2,11.3,2.6,12.7,8.2c1.3,5.6-0.6,11.4-2.6,16.8c-0.5,1.3-1,2.7-2.1,3.5c-2.4,1.7-6-0.5-6.7-3.4c-0.7-2.9,0.4-5.9,1.6-8.6"
			/>
	</g>
	<g class="st1">
		<defs>
			<rect id="SVGID_90_" x="0" width="2850" height="2005.2"/>
		</defs>
		<clipPath id="SVGID_91_">
			<use xlink:href="#SVGID_90_"  style="overflow:visible;"/>
		</clipPath>
		<path class="st46" d="M1799.7,1080.9c2.1-7.3,4.9-16.1,8.3-18.9c2.2-1.8,4.6-1.4,6.3-5.9c1.5-4,0.6-7.3-0.6-9
			c-1.4-2-3-3.6-4.7-4.7c-0.4-0.3-0.9-0.4-1.5,0.4c-1.6,2.3-0.3,5.5-0.8,8.9c-3.1,5.1-6.1,10.8-8.9,16.9c-0.9,2-1.8,4.1-2.5,6.4
			c-1.8,6.4-1.1,11.7-0.2,16c3-5.4,5.4-12.6,6.5-19.3"/>
	</g>
	<g class="st1">
		<defs>
			<rect id="SVGID_92_" x="0" width="2850" height="2005.2"/>
		</defs>
		<clipPath id="SVGID_93_">
			<use xlink:href="#SVGID_92_"  style="overflow:visible;"/>
		</clipPath>
		<path class="st47" d="M1790.5,1778.1c-7.1-1.6-13.9-4.7-19.7-9.1c-1.3-1-2.5-2-3.2-3.5c-2.6-5.7,5.1-10.8,6.4-16.9
			c1.7-7.7-6.6-13.4-10.6-20.3c-3.5-6.2-3.3-14.3,0.6-20.3c0.6-0.9,1.3-1.7,2.2-2c1.1-0.4,2.4,0,3.5,0.5c3.5,1.3,7.1,2.7,10,5.1
			c2.9,2.4,5.1,6,4.8,9.8c-0.4,4.3-3.9,7.8-4.7,12.1c-2,9.8,10.3,18.3,8.4,28.1"/>
	</g>
	<g class="st1">
		<defs>
			<rect id="SVGID_94_" x="0" width="2850" height="2005.2"/>
		</defs>
		<clipPath id="SVGID_95_">
			<use xlink:href="#SVGID_94_"  style="overflow:visible;"/>
		</clipPath>
		<path class="st48" d="M1822.1,1609c-0.6-14.2,2-28.5,7.4-41.6c5,6.5,0.7,15.6-1,23.6c-0.6,3,0,7.2,3.1,7.4
			c-1.3,9.3-0.8,18.9,1.4,28.1c0.4,1.5,0.8,3.2,0.1,4.6c-1.5,3-7.5,6-10.1,6.9C1821,1629.9,1822.5,1617.9,1822.1,1609z"/>
	</g>
	<g class="st1">
		<defs>
			<rect id="SVGID_96_" x="0" width="2850" height="2005.2"/>
		</defs>
		<clipPath id="SVGID_97_">
			<use xlink:href="#SVGID_96_"  style="overflow:visible;"/>
		</clipPath>
		<path class="st49" d="M1951.7,1524c0.5-8.5,1.8-17,3.9-25.2c0.6-2.3,1.3-4.6,2.7-6.5c2.4-3.1,6.6-4.5,8.5-7.9
			c2.8-5-0.6-11.1-0.4-16.8c0.2-6.1,4.5-11.9,3.2-17.9c-1.3-6.1-7.7-9.4-13.5-11.8c-1.7-0.7-3.7-1.5-5.5-0.9c-3.7,1.3-3,7.1-0.3,9.9
			c2.7,2.8,6.7,4.4,8.9,7.6c3,4.5,1.8,10.5,0.4,15.7c-2.3,8.6-4.5,17.2-6.8,25.8"/>
	</g>
	<g class="st1">
		<defs>
			<rect id="SVGID_98_" x="0" width="2850" height="2005.2"/>
		</defs>
		<clipPath id="SVGID_99_">
			<use xlink:href="#SVGID_98_"  style="overflow:visible;"/>
		</clipPath>
		<path class="st50" d="M1917.6,1544.2c-0.9-2.4-4-3.1-6.5-3.4c-5.6-0.7-11.1-1.4-16.7-2.1c11.6-4.1,46.4,3.2,32.7,20.6
			C1916.6,1553.2,1921.1,1553.3,1917.6,1544.2z"/>
	</g>
	<g class="st1">
		<defs>
			<rect id="SVGID_100_" x="0" width="2850" height="2005.2"/>
		</defs>
		<clipPath id="SVGID_101_">
			<use xlink:href="#SVGID_100_"  style="overflow:visible;"/>
		</clipPath>
		<path class="st51" d="M1391.2,1096.4c0.1-0.9,0.3-1.9,0.8-2.7c1.3-1.9,3.9-2,6.1-2.1c4.1-0.1,8.2-0.8,11.9-2.6
			c3.7-1.8,6.9-4.8,8.2-8.7c0.6-1.8,0.7-3.9-0.4-5.3c-0.7-0.8-1.7-1.3-2.7-1.6c-6.6-2-14.4,3.2-15.1,10.1c-0.1,1.2-0.2,2.6-1.2,3.3
			c-0.7,0.4-1.5,0.4-2.3,0.3c-3.5-0.2-7.1,0.1-10.5,0.9c-1.2,0.3-2.5,0.7-3.2,1.6c-1.3,1.6-0.7,3.8-0.2,5.8
			c1.8,6.5,3.2,13.9,2.1,20.6C1391.8,1114.9,1390.4,1101.9,1391.2,1096.4z"/>
	</g>
	<g class="st1">
		<defs>
			<rect id="SVGID_102_" x="0" width="2850" height="2005.2"/>
		</defs>
		<clipPath id="SVGID_103_">
			<use xlink:href="#SVGID_102_"  style="overflow:visible;"/>
		</clipPath>
		<path class="st52" d="M1586.7,1226c1.2-0.5,2.5-0.6,3.7-1c6.1-2.2,5.4-11,8-16.9c0.6-1.4,1.6-2.8,3-3.3c3.3-1.2,6.3,3.2,5.4,6.5
			c-0.9,3.4-3.9,5.6-6.8,7.7c-2.8,2-5.8,4.5-6.4,7.9c-0.4,2.4,0.1,5.6-2,6.8c-1.4,0.8-3.2,0.1-4.7,0.5c-3.1,0.8-3.5,5-3.6,8.2
			c-0.1,3.2-1.5,7.4-4.7,7.2c-4.8-0.4-18.6-5.8-15.5-6.5c4.5-1.5,10.2-1.1,14.2-4.2C1581.8,1235.7,1581.7,1228.2,1586.7,1226z"/>
	</g>
	<g class="st1">
		<defs>
			<rect id="SVGID_104_" x="0" width="2850" height="2005.2"/>
		</defs>
		<clipPath id="SVGID_105_">
			<use xlink:href="#SVGID_104_"  style="overflow:visible;"/>
		</clipPath>
		<path class="st53" d="M814.7,1253.8c-1,3.3-1.9,6.6-1.8,10.1c0.1,2.2,0.7,4.4,0.9,6.6c0.3,2.5,0.1,5,0.3,7.5
			c0.2,2.5,1,5.1,2.8,6.9c0.4,0.4,0.8,0.7,1.3,0.7c0.5,0,0.8-0.3,1.2-0.6c1-0.8,2-1.6,2.5-2.7c0.6-1.1,0.5-2.6-0.3-3.5
			c-1.2-1.2-3.6-1.1-4.1-2.8c-0.4-1.5,1.4-2.5,2.6-3.3c2-1.4,3.5-3.9,2.6-6.2c-0.4-1-1.1-1.8-1.7-2.7c-3-5.1,0.9-11.8-1.1-17.4
			c-0.3-0.7-0.7-1.4-1.3-1.8c-1.1-0.7-2.7-0.2-3.6,0.8c-0.9,1-1.3,2.3-1.6,3.6c-1,4.2-1.3,8.6-0.5,12.9c0.9,4.2,3,8.3,6.4,10.9"/>
	</g>
	<g class="st1">
		<defs>
			<rect id="SVGID_106_" x="0" width="2850" height="2005.2"/>
		</defs>
		<clipPath id="SVGID_107_">
			<use xlink:href="#SVGID_106_"  style="overflow:visible;"/>
		</clipPath>
		<rect x="0" class="st54" width="2850" height="2005.2"/>
	</g>
</g>
<path class="st55" d="M1338.9,944l50.5,50.3l-50.5,50.2H983.2v167.4l-217-217.7l217-214V944H1338.9z"/>
<path class="st56" d="M1500,884.9l-50.2,50.5l-50.3-50.5V529.2h-167.4l217.7-217l214,217H1500V884.9z"/>
<path class="st57" d="M1559.1,1046l-50.6-50.2l50.6-50.3h355.8V778.1l217,217.7l-217,214V1046L1559.1,1046z"/>
<path class="st58" d="M1398,1105.1l50.2-50.6l50.3,50.6v355.8h167.4l-217.7,217l-214-217H1398V1105.1L1398,1105.1z M970.4,516.4
	h432.3v432.3H970.4V516.4z"/>
<path class="st17" d="M955,501h463.2v463.2H955L955,501L955,501z M985.8,933.3h401.4V531.8H985.8V933.3z"/>
<path class="st55" d="M1495.3,516.4h432.3v432.3h-432.3V516.4z"/>
<path class="st17" d="M1479.9,501H1943v463.2h-463.2V501z M1510.8,933.3h401.4V531.8h-401.4V933.3z"/>
<path class="st56" d="M1495.3,1041.3h432.3v432.3h-432.3V1041.3z"/>
<path class="st17" d="M1479.9,1025.9H1943V1489h-463.2V1025.9z M1510.8,1458.2h401.4v-401.4h-401.4V1458.2z"/>
<path class="st57" d="M970.4,1041.3h432.3v432.3H970.4V1041.3z"/>
<path class="st17" d="M955,1025.9h463.2V1489H955L955,1025.9L955,1025.9z M985.8,1458.2h401.4v-401.4H985.8V1458.2z"/>
<path class="st17" d="M1077.8,1322.5L750.3,995l327.5-327.5L1405.3,995L1077.8,1322.5L1077.8,1322.5z M794,995l283.8,283.8
	L1361.7,995l-283.8-283.8L794,995L794,995z M1449,951.3l-327.5-327.5L1449,296.3l327.5,327.5L1449,951.3z M1165.2,623.8L1449,907.7
	l283.8-283.8L1449,340L1165.2,623.8z M1820.2,1322.5L1492.7,995l327.5-327.5L2147.7,995L1820.2,1322.5L1820.2,1322.5z M1536.3,995
	l283.8,283.8L2104,995l-283.8-283.8L1536.3,995L1536.3,995z M1449,1693.7l-327.5-327.5l327.5-327.5l327.5,327.5L1449,1693.7z
	 M1165.2,1366.2L1449,1650l283.8-283.8L1449,1082.3L1165.2,1366.2z"/>
</svg>
