<svg id="图层_1" data-name="图层 1" xmlns="http://www.w3.org/2000/svg" xmlns:xlink="http://www.w3.org/1999/xlink" viewBox="0 0 622 283"><defs><linearGradient id="未命名的渐变_3" x1="149.47" y1="207.36" x2="506.45" y2="207.36" gradientTransform="matrix(1, 0, 0, -1, 0, 284)" gradientUnits="userSpaceOnUse"><stop offset="0" stop-color="#00ffc8" stop-opacity="0"/><stop offset="0.5" stop-color="#00ffc8" stop-opacity="0.4"/><stop offset="1" stop-color="#00ffc8" stop-opacity="0"/></linearGradient><linearGradient id="未命名的渐变_7" x1="499.61" y1="157.38" x2="558.55" y2="157.38" gradientTransform="matrix(1, 0, 0, -1, 0, 284)" gradientUnits="userSpaceOnUse"><stop offset="0" stop-color="#00ffc8" stop-opacity="0"/><stop offset="0.5" stop-color="#00ffc8" stop-opacity="0.2"/><stop offset="1" stop-color="#00ffc8" stop-opacity="0"/></linearGradient><linearGradient id="未命名的渐变_10" x1="159.32" y1="34.8" x2="509.59" y2="34.8" gradientTransform="matrix(1, 0, 0, -1, 0, 284)" gradientUnits="userSpaceOnUse"><stop offset="0" stop-color="#00ffc8" stop-opacity="0"/><stop offset="0.5" stop-color="#00ffc8" stop-opacity="0.5"/><stop offset="1" stop-color="#00ffc8" stop-opacity="0"/></linearGradient><linearGradient id="未命名的渐变_7-2" x1="414.38" y1="264.7" x2="568" y2="264.7" xlink:href="#未命名的渐变_7"/><linearGradient id="未命名的渐变_10-2" x1="405.48" y1="19.46" x2="458.62" y2="19.46" xlink:href="#未命名的渐变_10"/><linearGradient id="未命名的渐变_10-3" x1="91.87" y1="200.13" x2="181.27" y2="200.13" xlink:href="#未命名的渐变_10"/><linearGradient id="未命名的渐变_10-4" x1="505.75" y1="30.44" x2="558.9" y2="30.44" xlink:href="#未命名的渐变_10"/><linearGradient id="未命名的渐变_11" x1="192.14" y1="211.11" x2="281.54" y2="211.11" gradientTransform="matrix(1, 0, 0, -1, 0, 284)" gradientUnits="userSpaceOnUse"><stop offset="0" stop-color="#00ffc8" stop-opacity="0"/><stop offset="0.5" stop-color="#00ffc8" stop-opacity="0.7"/><stop offset="1" stop-color="#00ffc8" stop-opacity="0"/></linearGradient></defs><rect x="0.34" y="-0.01" width="621.66" height="283.35" style="fill:#0f000e"/><polygon points="149.47 70.98 505.01 69.37 506.45 75.88 150.55 83.91 149.47 70.98" style="fill-rule:evenodd;fill:url(#未命名的渐变_3)"/><text/><polygon points="556.78 119.23 499.61 127.16 501.61 134 558.55 125.28 556.78 119.23" style="fill-rule:evenodd;fill:url(#未命名的渐变_7)"/><polygon points="159.32 300.88 509.59 197.52 173.9 300.88 159.32 300.88" style="fill-rule:evenodd;fill:url(#未命名的渐变_10)"/><polygon points="414.38 8 568 26.84 568 30.6 415.89 13.75 414.38 8" style="fill-rule:evenodd;fill:url(#未命名的渐变_7-2)"/><path d="M405.48,236.38q9.45-2.64,18.46-5.12c5.87-1.65,11.6-3.22,17.22-4.8q4.18,14.72,8.55,29.85,4.41,15.36,8.91,31.14c-5.62,2.36-11.41,4.79-17.32,7.3-6.08,2.54-12.31,5.19-18.68,7.87q-4.46-17.17-8.77-33.85-4.23-16.42-8.37-32.39Zm2,1.93,17.11-4.83c5.44-1.54,10.77-3,16-4.55l7.94,27.78q4.08,14.28,8.27,28.88-7.89,3.27-16.11,6.69l-17.25,7.16q-4.12-15.84-8.12-31.25c-2.72-10.05-5.3-20-7.84-29.88Z" style="fill-rule:evenodd;fill:url(#未命名的渐变_10-2)"/><path d="M91.87,44.55q17.88.6,35,1.19c11.13.35,22,.75,32.68,1.07,3.43,11.59,7,23.44,10.55,35.54q5.49,18.47,11.21,37.72-16.59.75-34,1.5c-11.88.54-24.09,1.07-36.54,1.61q-5-20.72-9.74-40.58-4.67-19.44-9.12-38Zm3.29,2.8c11,.32,21.83.68,32.39,1,10.34.32,20.47.61,30.38.93,3.19,10.81,6.44,21.87,9.77,33.07,3.37,11.41,6.8,23.12,10.31,35q-15.4.65-31.57,1.29-16.47.69-33.71,1.39-4.62-19.11-9-37.43-4.35-18-8.52-35.25Z" style="fill-rule:evenodd;fill:url(#未命名的渐变_10-3)"/><path d="M505.75,225.4c6.3-1.75,12.46-3.47,18.47-5.12s11.59-3.22,17.21-4.79q4.19,14.7,8.56,29.84l8.91,31.14c-5.62,2.36-11.42,4.79-17.32,7.3-6.09,2.54-12.31,5.19-18.69,7.87-3-11.45-5.86-22.72-8.76-33.85q-4.25-16.43-8.38-32.39Zm2,1.93,17.1-4.83c5.44-1.54,10.78-3,16-4.55q3.92,13.7,7.95,27.78,4.08,14.28,8.26,28.88-7.89,3.27-16.1,6.69l-17.25,7.16c-2.76-10.56-5.44-21-8.13-31.25-2.72-10-5.29-20-7.83-29.88Z" style="fill-rule:evenodd;fill:url(#未命名的渐变_10-4)"/><path d="M192.14,33.58q17.88.59,35,1.18c11.13.35,22,.75,32.67,1.07q5.16,17.4,10.56,35.54,5.48,18.47,11.2,37.72-16.59.75-34,1.5-17.82.81-36.54,1.61-5-20.72-9.73-40.58-4.68-19.44-9.13-38Zm3.29,2.79c11,.32,21.84.68,32.39,1,10.35.32,20.47.61,30.39.93,3.18,10.81,6.44,21.87,9.77,33.07,3.36,11.41,6.8,23.12,10.3,35q-15.4.64-31.56,1.29-16.49.69-33.71,1.39Q208.39,89.94,204,71.62q-4.35-18-8.52-35.25Z" style="fill-rule:evenodd;fill:url(#未命名的渐变_11)"/><text transform="translate(13.48 166.7)" style="font-size:45.74829864501953px;fill:#fc0303;font-family:MicrosoftYaHei-Bold, Microsoft YaHei;font-weight:700">VLESS <tspan x="152.55" y="0" style="letter-spacing:0.020513911780239917em">X</tspan><tspan x="185.52" y="0">TLS XR</tspan><tspan x="344.27" y="0" style="letter-spacing:-0.08105236527530797em">A</tspan><tspan x="374.97" y="0">Y原生配置</tspan></text><text transform="translate(13.48 166.7)" style="font-size:45.74829864501953px;stroke:#f70b0b;font-family:MicrosoftYaHei-Bold, Microsoft YaHei;font-weight:700">VLESS <tspan x="152.55" y="0" style="letter-spacing:0.020513911780239917em">X</tspan><tspan x="185.52" y="0">TLS XR</tspan><tspan x="344.27" y="0" style="letter-spacing:-0.08105236527530797em">A</tspan><tspan x="374.97" y="0">Y原生配置</tspan></text></svg>