<?xml version="1.0" encoding="utf-8"?>
<!-- Generator: Adobe Illustrator 23.0.6, SVG Export Plug-In . SVG Version: 6.00 Build 0)  -->
<svg version="1.1"
	 id="Laag_1" shape-rendering="geometricPrecision" image-rendering="optimizeQuality" text-rendering="geometricPrecision"
	 xmlns="http://www.w3.org/2000/svg" xmlns:xlink="http://www.w3.org/1999/xlink" x="0px" y="0px" viewBox="0 0 1768 1069.7"
	 style="enable-background:new 0 0 1768 1069.7;" xml:space="preserve">
<style type="text/css">
	.st0{display:none;fill:#ABCD03;}
	.st1{display:none;fill:#FEFBDA;}
	.st2{display:none;fill:#FFFCDB;}
	.st3{display:none;}
	.st4{display:none;fill:#69685A;}
	.st5{display:none;fill:#8C8A78;}
</style>
<path class="st0" d="M935.8,328.1l-0.3,1.1L935.8,328.1z M962.6,325.5c0.1-0.1,0.2,0.1,0.2,0.2L962.6,325.5z M935.8,328.1
	c0.1-2.7,6.7-27.9,7.6-31.3c1.4-5.4,2.6-10.5,3.9-15.5c0.8-3.3,3.7-12.8,3.8-15.6c-1.8,1.3-6.8,12.3-8.1,14.5
	c-6.7,11.1-23.2,50.3-27.2,64.7c-3.6,12.9-13.3,46-12.4,56.8l9.3,6.8l1.9,0.8l-0.3,0.5c3.4-0.1,0.7-0.2,1.8,0.8v414.9l0.6-0.2
	c-0.9-1.9-0.4-309.7-0.4-363.3c0-16.7-0.8-35.4,0.1-51.9l3.9,1.4c1.8-0.7,11.7,1.2,14.5,1.5c17.2-26.6,29.8-43.4,48.1-66.8l13-15.8
	c0.9-1.2,1.4-1.4,2.3-2.5l39.2-42.8L1074,250c1.5-1.1,1.9-0.9,2.4-2.8l-17.1,6.5c-10.4,4.1-18.3,7.7-27.9,13.1
	c-16.8,9.4-31.2,18.5-45.2,32.5c-6.8,6.8-11.3,10.9-17.2,18.5c-1.2,1.6-4.3,5.7-5.5,6.6c0.6-2.7,6-11.8,7.7-14.9
	c6.7-12,14.6-23,22.5-34.3c5.5-7.9,13.8-18.3,19.7-26c1.6-2.1,3.3-4.4,5.2-6.4c0.9-1,20.2-23.6,20.6-25.1c-2.6,1.7-5,3.5-7.6,5.5
	L995,253.4c-2.2,2.1-4.3,4.7-6.6,6.5c-5.5,4.4-20.3,21.3-25.7,27.9c-12.3,15.2-16.3,22.6-25.4,38.2c-0.5,0.8,0.1,0-0.6,0.9
	C936.4,327.5,936.1,327.8,935.8,328.1L935.8,328.1z"/>
<path class="st0" d="M951,265.6h0.5l-0.4-0.6L951,265.6z"/>
<path class="st1" d="M916.6,825.4c10.7-20.4,13.5-54.5,13.6-80.2c0.3-34.8-12-67.3-11.1-82.4c6.9,29.5,18.1,52.5,19.1,86.1
	c0.4,14.3-1.8,34.9-3.9,49.1c-2.4,16.5-9.1,26.3-16.9,35.4l-0.1,0.6c4.2-2.4,8.4-6.5,11.3-9.6c10.8-12,16.8-25.8,20.4-42.6
	c4.4-20.6,9.1-55.4,6.9-76.9c-1.1-11.1-4.6-24.2-7.5-34.4c-10.1-35.1-21.5-34.1-25.7-58.4c-2-11.4-1.5-28.2-1.1-40.2
	c1.5,11.4,2.2,24.5,4.3,35.9c2.1,11.7,8.1,18.6,13,27.5c23.9,43.9,29,82.5,20.2,132.9c-2,11.3-4.3,22.1-8.1,32.2
	c-6.5,17.1-8.5,16.2-13.8,26.1c6.6-5.7,16.1-23.6,20-34.6c7.3-20.2,15.2-70.1,16.6-92.5c1.2-19.5-0.6-32.2-3.9-50.4
	c-6-33.1-16.6-53.5-29.8-79.5c-7.6-15.1-12.1-19.4-15.2-39.5c-2.2-14.7-4.3-35.9-4-50.9c0.7,1.4,0.5,1.5,0.7,3.4l2.1,20.4
	c0.9,7.5,1.9,15.1,3.2,22.4c3.6,20,5.9,20,14.8,36.7c11,20.9,25.4,45.7,31.5,71.4c6.8,28.5,9.4,64.4,5,94.3
	c-2.2,15.1-11.9,56.7-18.3,72.1c-1.2,2.9-3,6-3.9,8.8c3.5-2.9,9.4-12.9,12-18c4-7.5,5.7-12.4,7.8-21.7
	c11.2-50.6,15.5-110.2,8.4-161.4c-12.7-91.3-53.1-95.7-56-149.8c-0.5-9.6,0.9-25.1,0.6-28.6l-0.1-13.5l-8.7-4.3l-3.9-1.4
	c-0.9,16.5-0.1,35.2-0.1,51.9C916.3,515.7,915.7,823.5,916.6,825.4L916.6,825.4z M914.1,670.9c-2.8,5.8-1.5,9.2-8.2,19.7
	c-11.6,18-23.9,29.6-25.2,57.7c-0.8,18,4.3,30.6,10.3,44.7c5,11.6,13.8,27.2,23.2,31.8L914.1,670.9z"/>
<path class="st2" d="M914.3,409.8l0.3-0.5l-1.9-0.8l-36.1-14.6c4.1,7.6,11.7,23.4,13.9,32.5c2.8,11.5,3.5,30.2-1.4,40.5
	c-8.7,18.4-30.6,34.7-47.5,44.9c-19.5,11.7-24.4,15.6-40.5,28.8l-24.9,21.2c-7.9,7.9-9.5,8.7-16.9,17.8c-1.7,2-3.3,4.1-5,6.6
	c-2.7,3.8-6.5,9.5-8.8,14.3c-22,45.6-22.4,105.9,4.5,149.6c16.8,27.3,42.2,54.3,71,67.7c8.3,3.9,23.9,11.5,33.4,12.9
	c-8.1-7.1-14.2-1.7-39.9-33.2c-10.3-12.6-20-27.5-28.7-43.7c-8.8-16.3-15.3-32.6-19.7-52.7c-5.3-23.9,1.1-39.5,9.9-58.6
	c9.1-19.7,17.7-28,30.8-42.2c8.5-9.1,41.1-31.8,52.4-38.5c24.8-14.7,28.4-20.1,38.7-51.7l8.4-27.9c-4.1,21.6-6.6,41.9-16.5,60.2
	c-5.7,10.4-10.9,12.9-19.6,19.3c-27.1,19.8-53.5,32.9-74.8,61.3c-8.3,11.1-15.2,24.1-20,37.8c-4.3,12.3-6.3,18.8-4.2,33.1
	c5.5,37.9,28.9,75.4,51.9,103.6l16.1,18.1c5.3,5.8,19,12.1,28.6,15c7.6,2.3,22.8,7.2,30.2,7.8c-3.9-0.7-15.9-6.2-20-8.1
	c-18.1-8.2-35.1-22.3-47.1-37.5c-15-19.1-28.2-55.4-21.2-87.2c6.5-29.5,29.3-51.4,49.6-63.4c6.4-3.7,12.2-6.6,17.7-10.7
	c17.1-12.8,24.6-31.5,31.4-52.5c-0.2,5.4-4,17.3-5.7,22.4c-11.9,33.8-31.9,34.5-56.4,56.5c-13.1,11.8-28,34-31.7,52.8
	c-5.5,28.2,13.9,61.5,29.1,81.8c16.9,22.5,32.7,32,60,39.2c1.9,0.5,8.9,2.8,10.7,1.9c-0.8-1.5-0.4-0.8-2.4-1.8
	c-12.4-6.6-20.6-20-26-32.8c-7.8-18.5-11.9-28.4-10.1-51.4c3.8-49,25.9-49.3,36.3-74c2.4-5.8,2.1-6.2,2.1-13.2
	c0-41.8,0-83.7,0-125.5C914.3,493.6,913.3,451.2,914.3,409.8L914.3,409.8z"/>
<path class="st3" d="M934.5,829.7c0.9-1.5,0.2-1.1,2.2-2.3L934.5,829.7z M933.7,851.8h-10.5c-8.9-0.1-17.9-0.4-24.7-0.5l-23.9-2.4
	c-7.9-1.1-14.8-2.5-22-4.3c-22.7-5.7-44.3-15.4-63.1-28.3c-8.3-5.7-21.8-16.7-28.6-24c-12.9-14-18.1-21.6-27.4-37.7
	c-21.2-36.6-25-91-14-130.7c7.8-28.4,18.6-42.7,34.8-63.4c3.4-4.4,12-12.7,15.9-16.7c10.9-10.9,31.6-25.4,44.3-33.9
	c5.4-3.6,10.4-6.9,15.8-10.5c2.7-1.8,5.1-3.4,7.9-5.3c11.6-7.7,29.6-17.1,36-29.2c18.4-34.4-9.5-75.4-10.8-81.3
	c0.7-1,1.7-1.5,2.8-2.4c1.4-1,1.8-1.5,2.9-2.3c3,1.5,5.7,3.6,8.6,5.6l17,11.3c2.9,2,5.7,4,8.7,5.7l9.3,6.8l-36.1-14.6
	c4.1,7.6,11.7,23.4,13.9,32.5c2.8,11.5,3.5,30.2-1.4,40.5c-8.7,18.4-30.6,34.7-47.5,44.9c-19.5,11.7-24.4,15.6-40.5,28.8l-24.8,21.2
	c-7.9,7.9-9.5,8.7-16.9,17.8c-1.7,2-3.3,4.1-5,6.6c-2.7,3.8-6.5,9.5-8.8,14.3c-22,45.6-22.4,105.9,4.5,149.6
	c16.8,27.3,42.2,54.3,71,67.7c8.3,3.9,23.9,11.5,33.4,12.9c-8.1-7.1-14.2-1.7-39.9-33.2c-10.3-12.6-20-27.5-28.7-43.7
	c-8.8-16.3-15.3-32.6-19.7-52.7c-5.3-23.9,1.1-39.5,9.9-58.6c9.1-19.7,17.7-28,30.8-42.2c8.5-9.1,41.1-31.8,52.4-38.5
	c24.8-14.7,28.4-20.1,38.7-51.7l8.4-27.9c-4.1,21.6-6.6,41.9-16.5,60.2c-5.7,10.4-10.9,12.9-19.6,19.3
	c-27.1,19.8-53.5,32.9-74.8,61.3c-8.3,11.1-15.2,24.1-20,37.8c-4.3,12.3-6.3,18.8-4.2,33.1c5.5,37.9,28.9,75.4,51.9,103.6l16.1,18.1
	c5.3,5.8,19,12.1,28.6,15c7.6,2.3,22.8,7.2,30.2,7.8c-3.9-0.7-15.9-6.2-20-8.1c-18.1-8.2-35.1-22.3-47.1-37.5
	c-15-19.1-28.2-55.4-21.2-87.2c6.5-29.5,29.3-51.4,49.6-63.4c6.4-3.7,12.2-6.6,17.7-10.7c17.1-12.8,24.6-31.5,31.4-52.5
	c-0.2,5.4-4,17.3-5.7,22.4c-11.9,33.8-31.9,34.5-56.4,56.5c-13.1,11.8-28,34-31.7,52.8c-5.5,28.2,13.9,61.5,29.1,81.8
	c16.9,22.5,32.7,32,60,39.2c1.9,0.5,8.9,2.8,10.7,1.9c-0.8-1.5-0.4-0.8-2.4-1.8c-12.4-6.6-20.6-20-26-32.8
	c-7.8-18.5-11.9-28.4-10.1-51.4c3.8-49,25.9-49.3,36.3-74c2.4-5.8,2.1-6.2,2.1-13.2c0-41.8,0-83.7,0-125.5
	c0-41.5-0.9-83.9,0.1-125.2c3.4-0.1,0.7-0.2,1.8,0.8v414.9l0.6-0.2c10.7-20.4,13.5-54.5,13.6-80.2c0.3-34.8-12-67.3-11.1-82.4
	c6.9,29.5,18.1,52.5,19.1,86.1c0.4,14.3-1.8,34.9-3.9,49.1c-2.4,16.5-9.1,26.3-16.9,35.4c-1.3,0.7-1.1,0.1-1.6,1.6
	c1.6-0.5,1.1-0.6,1.5-1c4.2-2.4,8.4-6.5,11.3-9.6c10.8-12,16.8-25.8,20.4-42.6c4.4-20.6,9.1-55.4,6.9-76.9
	c-1.1-11.1-4.6-24.2-7.5-34.4C938.6,635,927.2,636,923,611.7c-2-11.4-1.5-28.2-1.1-40.2c1.5,11.4,2.2,24.5,4.3,35.9
	c2.1,11.7,8.1,18.6,13,27.5c23.9,43.9,29,82.5,20.2,132.9c-2,11.3-4.3,22.1-8.1,32.2c-6.5,17.1-8.5,16.2-13.8,26.1
	c6.6-5.7,16.1-23.6,20-34.6c7.3-20.2,15.2-70.1,16.6-92.5c1.2-19.5-0.6-32.2-3.9-50.4c-6-33.1-16.6-53.5-29.8-79.5
	c-7.6-15.1-12.1-19.4-15.2-39.5c-2.2-14.7-4.3-35.9-4-50.9c0.7,1.4,0.5,1.5,0.7,3.4l2.1,20.4c0.9,7.5,1.9,15.1,3.2,22.4
	c3.6,20,5.9,20,14.8,36.7c11,20.9,25.4,45.7,31.5,71.4c6.8,28.5,9.4,64.4,5,94.3c-2.2,15.1-11.9,56.7-18.3,72.1
	c-1.2,2.9-3,6-3.9,8.8c3.5-2.9,9.4-12.9,12-18c4-7.5,5.7-12.4,7.8-21.7c11.2-50.6,15.5-110.2,8.4-161.4
	c-12.7-91.3-53.1-95.7-56-149.8c-0.5-9.6,0.9-25.1,0.6-28.6c1.2,6.8-0.2,13.6,3.3,30c4.1,19.4,10,31.3,20.7,46.6
	c4.6,6.5,8.7,13.7,12.9,20.8c8.3,14.2,15.4,29.3,20.1,47.1c4.6,17.2,9.4,37.1,12,55.2c5.6,40.1,5.2,85.6-2.8,124.6
	c-6,29.6-12.8,48.3-30.3,70.5c-7.8,9.9-14.7,14-17,16.8c20.6-1.7,55.4-14.2,71.6-22.6c11.3-5.9,20.1-10.5,29.3-17.4
	c2.4-1.7,4.6-3.5,6.8-5.3l11.9-11.1c1.8-1.7,3.4-3.9,5.4-6.2c33-37,45.3-94.7,33-144.3c-15.6-63.1-57.3-93.2-108.6-125.6
	c-4.9-3.1-9.5-5.7-14.8-8.8c-13.2-7.8-26.1-21.9-33-36.9c-6.3-13.8-7.5-22.7-4.8-39l-15.4-7.9l-8.7-4.3c1.8-0.7,11.7,1.2,14.5,1.5
	l25.7,3.3c0,2.5-0.6,3.8-1,5.8c-4.1,19.2,4,40.2,16.9,52.9c12.9,12.8,13.9,13,30,22c20.1,11.2,33.3,19.9,51.6,33.5l17.2,15.4
	c2.4,2.4,3.9,4.4,6.3,6.8c1.5,1.4,1.8,2.2,3.1,3.7c15.8,17.7,27.3,40.4,34.7,62.9c9.8,29.6,10.7,62.8,4.2,92.3
	c-1.7,7.4-3.6,14-5.9,20.3c-2.4,6.4-4.6,12.2-7.6,18.1c-2.4,4.8-8.9,16.7-12.1,21c-7.5,10.3-11.6,16-20.7,25
	c-6.9,6.9-6.8,6.4-13.4,12.3c-16.6,14.9-49,29.6-69.8,34.7c-11.7,2.9-21,5.1-33,6.4l-11.9,1.2C944.8,851.5,939.5,851.7,933.7,851.8
	L933.7,851.8z M914.1,670.9l0.1,153.9c-9.4-4.6-18.3-20.2-23.2-31.8c-6-14.1-11.1-26.8-10.3-44.7c1.3-28.1,13.6-39.7,25.2-57.7
	C912.7,680.1,911.4,676.7,914.1,670.9L914.1,670.9z"/>
<path class="st4" d="M940.4,1039.4l0.1-1c-2.2,1.1-1.8,0.2-2.7,2.7C940.4,1040.4,939.7,1040.2,940.4,1039.4L940.4,1039.4z"/>
<path class="st5" d="M936.7,827.4c-2,1.2-1.3,0.8-2.2,2.3L936.7,827.4z"/>
<image style="overflow:visible;" width="896" height="896" xlink:href="v2ray.png"  transform="matrix(1 0 0 1 455.3413 87.5)">
</image>
</svg>
