<?xml version="1.0" standalone="no"?><!DOCTYPE svg PUBLIC "-//W3C//DTD SVG 1.1//EN" "http://www.w3.org/Graphics/SVG/1.1/DTD/svg11.dtd"><svg t="1608964960173" class="icon" viewBox="0 0 3413 1024" version="1.1" xmlns="http://www.w3.org/2000/svg" p-id="8392" xmlns:xlink="http://www.w3.org/1999/xlink" width="666.6015625" height="200"><defs><style type="text/css"></style></defs><path d="M1075.2 253.781333a134.570667 134.570667 0 0 0-94.890667-94.890666C896.682667 136.533333 561.152 136.533333 561.152 136.533333S225.792 136.533333 141.994667 158.890667c-46.08 12.288-82.432 48.64-94.890667 94.890666C24.746667 337.408 24.746667 512 24.746667 512s0 174.592 22.357333 258.218667c12.288 46.08 48.64 82.432 94.890667 94.890666C225.792 887.466667 561.152 887.466667 561.152 887.466667s335.530667 0 419.157333-22.357334c46.08-12.288 82.432-48.64 94.890667-94.890666C1097.557333 686.592 1097.557333 512 1097.557333 512s0-174.592-22.357333-258.218667z" fill="#FF0000" p-id="8393"></path><path d="M453.973333 672.938667L732.672 512 453.973333 351.061333z" fill="#FFFFFF" p-id="8394"></path><path d="M1581.909333 819.712c-21.162667-14.336-36.352-36.522667-45.226666-66.730667s-13.482667-70.314667-13.482667-120.490666v-68.266667c0-50.688 5.12-91.306667 15.36-122.026667 10.24-30.72 26.282667-53.077333 47.957333-67.072 21.674667-13.994667 50.176-21.162667 85.504-21.162666 34.816 0 62.634667 7.168 83.626667 21.504 20.992 14.336 36.352 36.693333 46.08 67.072 9.728 30.378667 14.506667 70.997333 14.506667 121.514666v68.266667c0 50.176-4.778667 90.453333-14.165334 120.832-9.386667 30.378667-24.746667 52.736-46.08 66.730667-21.162667 13.994667-50.005333 21.162667-86.357333 21.162666-37.205333 0.170667-66.56-6.997333-87.722667-21.333333z m118.954667-73.728c5.802667-15.36 8.874667-40.448 8.874667-75.093333v-146.602667c0-33.792-2.901333-58.368-8.874667-74.069333-5.802667-15.530667-16.213333-23.381333-31.061333-23.381334-14.336 0-24.405333 7.850667-30.378667 23.381334-5.802667 15.530667-8.874667 40.277333-8.874667 74.069333v146.602667c0 34.816 2.730667 59.904 8.362667 75.093333 5.632 15.36 15.872 23.04 30.72 23.04 15.018667 0 25.258667-7.68 31.232-23.04zM3211.264 633.685333v23.722667c0 30.208 0.853333 52.736 2.730667 67.925333 1.706667 15.018667 5.461333 26.112 11.093333 32.938667 5.632 6.826667 14.336 10.410667 26.112 10.410667 15.872 0 26.794667-6.144 32.597333-18.432 5.802667-12.288 9.045333-32.768 9.557334-61.44l91.306666 5.290666c0.512 4.096 0.682667 9.728 0.682667 16.896 0 43.52-11.946667 75.946667-35.669333 97.450667-23.722667 21.504-57.344 32.256-100.864 32.256-52.224 0-88.746667-16.384-109.738667-49.152-20.992-32.768-31.402667-83.285333-31.402667-151.893333v-82.090667c0-70.656 10.922667-122.026667 32.597334-154.624 21.674667-32.426667 58.88-48.64 111.616-48.64 36.352 0 64.170667 6.656 83.626666 19.968 19.456 13.312 33.109333 33.962667 41.130667 62.122667 7.850667 28.16 11.946667 67.072 11.946667 116.565333v80.554667h-177.322667z m13.482667-197.973333c-5.290667 6.656-8.874667 17.578667-10.752 32.597333-1.877333 15.018667-2.730667 38.058667-2.730667 68.608v33.792h77.482667v-33.792c0-30.208-1.024-53.077333-3.072-68.608-2.048-15.530667-5.802667-26.624-11.093334-32.938666-5.290667-6.314667-13.653333-9.557333-24.917333-9.557334-11.264-0.170667-19.626667 3.242667-24.917333 9.898667zM1324.202667 624.810667l-120.490667-435.029334h105.130667l42.154666 197.12c10.752 48.64 18.602667 89.941333 23.722667 124.245334h3.072c3.584-24.576 11.434667-65.706667 23.722667-123.562667l43.690666-197.973333h105.130667l-121.856 435.2v208.725333h-104.277333V624.810667zM2158.08 363.178667v470.186666h-82.773333l-9.216-57.514666h-2.218667c-22.528 43.52-56.32 65.194667-101.205333 65.194666-31.232 0-54.272-10.24-69.12-30.72-14.848-20.48-22.186667-52.394667-22.186667-95.914666V363.178667h105.813333v345.258666c0 20.992 2.218667 36.010667 6.826667 44.885334s12.288 13.482667 23.04 13.482666c9.216 0 18.090667-2.730667 26.453333-8.362666 8.362667-5.632 14.677333-12.8 18.773334-21.504v-373.76h105.813333zM2701.141333 363.178667v470.186666h-82.773333l-9.216-57.514666h-2.218667c-22.528 43.52-56.32 65.194667-101.205333 65.194666-31.232 0-54.272-10.24-69.12-30.72-14.848-20.48-22.186667-52.394667-22.186667-95.914666V363.178667h105.813334v345.258666c0 20.992 2.218667 36.010667 6.826666 44.885334s12.288 13.482667 23.04 13.482666c9.216 0 18.090667-2.730667 26.453334-8.362666 8.362667-5.632 14.677333-12.8 18.773333-21.504v-373.76h105.813333z" fill="#282828" p-id="8395"></path><path d="M2445.824 274.944h-105.130667v558.421333h-103.594666V274.944h-105.130667v-85.162667h313.685333v85.162667zM3051.52 438.442667c-6.485333-29.696-16.725333-51.2-31.061333-64.512-14.336-13.312-33.962667-19.968-59.050667-19.968-19.456 0-37.546667 5.461333-54.442667 16.554666-16.896 10.922667-29.866667 25.429333-39.082666 43.349334h-0.853334V166.058667h-102.058666v667.477333h87.381333l10.752-44.544h2.218667c8.192 15.872 20.48 28.330667 36.864 37.546667 16.384 9.216 34.474667 13.824 54.442666 13.824 35.84 0 62.122667-16.554667 79.018667-49.493334 16.896-32.938667 25.258667-84.48 25.258667-154.624v-74.410666c0.170667-52.565333-3.072-93.696-9.386667-123.392z m-97.109333 191.829333c0 34.304-1.365333 61.098667-4.266667 80.554667-2.730667 19.456-7.509333 33.28-14.165333 41.472-6.656 8.192-15.530667 12.288-26.794667 12.288-8.704 0-16.725333-2.048-24.234667-6.144-7.338667-4.096-13.482667-10.24-18.090666-18.432V472.917333c3.584-12.8 9.728-23.210667 18.432-31.402666 8.704-8.192 18.090667-12.288 28.330666-12.288 10.752 0 19.114667 4.266667 24.917334 12.629333 5.802667 8.362667 9.898667 22.698667 12.288 42.496 2.218667 19.968 3.413333 48.298667 3.413333 85.162667v60.757333z" fill="#282828" p-id="8396"></path></svg>