<?xml version="1.0" standalone="no"?><!DOCTYPE svg PUBLIC "-//W3C//DTD SVG 1.1//EN" "http://www.w3.org/Graphics/SVG/1.1/DTD/svg11.dtd"><svg t="1606299845347" class="icon" viewBox="0 0 1024 1024" version="1.1" xmlns="http://www.w3.org/2000/svg" p-id="12799" xmlns:xlink="http://www.w3.org/1999/xlink" width="200" height="200"><defs><style type="text/css"></style></defs><path d="M548.214634 1014.259512h-72.429268C221.009171 1014.259512 12.487805 805.738146 12.487805 550.912V478.532683C12.487805 223.706537 220.984195 15.235122 475.785366 15.235122h72.429268C802.990829 15.235122 1011.512195 223.681561 1011.512195 478.532683v72.404293c0 254.826146-208.49639 463.297561-463.297561 463.297561z" fill="#DD1829" p-id="12800"></path><path d="M775.79239 387.246829c-12.163122-39.960976-21.72878-62.06439-62.014439-66.884683 0 0-107.894634-5.444683-215.189853-5.444683-106.071415 0-211.543415 5.444683-211.543415 5.444683-42.708293 4.820293-52.873366 28.147512-63.812683 66.884683 0 0-10.939317 61.689756-10.939317 124.178732 0 64.062439 10.939317 128.974049 10.939317 128.974049 8.491707 37.538341 25.974634 62.089366 63.837659 66.909658 0 0 117.060683 7.242927 228.526829 7.242927 101.400976 0 198.181463-7.242927 198.181463-7.242927 37.863024-7.242927 51.075122-26.973659 62.014439-66.909658 0 0 10.939317-59.342049 10.939317-120.557269 0-65.211317-10.939317-132.595512-10.939317-132.595512zM442.068293 620.519024v-213.366634l165.937951 106.67083-165.937951 106.695804z" fill="#FFFFFF" p-id="12801"></path></svg>