<?xml version="1.0" standalone="no"?><!DOCTYPE svg PUBLIC "-//W3C//DTD SVG 1.1//EN" "http://www.w3.org/Graphics/SVG/1.1/DTD/svg11.dtd"><svg t="1606299278810" class="icon" viewBox="0 0 1024 1024" version="1.1" xmlns="http://www.w3.org/2000/svg" p-id="5321" xmlns:xlink="http://www.w3.org/1999/xlink" width="200" height="200"><defs><style type="text/css"></style></defs><path d="M1002.464 264.736a128.832 128.832 0 0 0-88.192-88.864l-0.896-0.224c-79.776-21.376-400.896-21.376-400.896-21.376s-320.288-0.416-400.896 21.376A128.832 128.832 0 0 0 22.72 263.84l-0.224 0.896C8.32 337.728 0.224 421.632 0.224 507.456v5.216-0.256 4.032c0 85.824 8.096 169.728 23.584 251.04l-1.312-8.32a128.832 128.832 0 0 0 88.192 88.864l0.896 0.224c79.712 21.408 400.896 21.408 400.896 21.408s320.256 0 400.896-21.408a128.832 128.832 0 0 0 88.864-88.192l0.224-0.896c13.6-71.456 21.376-153.696 21.376-237.728l-0.032-9.504v0.48l0.032-9.92c0-84.032-7.776-166.272-22.656-245.984l1.28 8.256zM409.984 665.632V358.72l267.264 153.696z" fill="#FF0000" p-id="5322"></path></svg>