<?xml version="1.0" standalone="no"?><!DOCTYPE svg PUBLIC "-//W3C//DTD SVG 1.1//EN" "http://www.w3.org/Graphics/SVG/1.1/DTD/svg11.dtd"><svg t="1606299155345" class="icon" viewBox="0 0 3413 1024" version="1.1" xmlns="http://www.w3.org/2000/svg" p-id="5181" xmlns:xlink="http://www.w3.org/1999/xlink" width="666.6015625" height="200"><defs><style type="text/css"></style></defs><path d="M1075.2 253.781a134.57 134.57 0 0 0-94.89-94.89c-83.627-22.358-419.158-22.358-419.158-22.358s-335.36 0-419.157 22.358c-46.08 12.288-82.432 48.64-94.891 94.89C24.747 337.408 24.747 512 24.747 512s0 174.592 22.357 258.219c12.288 46.08 48.64 82.432 94.89 94.89 83.798 22.358 419.158 22.358 419.158 22.358s335.53 0 419.157-22.358c46.08-12.288 82.432-48.64 94.891-94.89C1097.557 686.592 1097.557 512 1097.557 512s0-174.592-22.357-258.219z" fill="#FF0000" p-id="5182"></path><path d="M453.973 672.939L732.672 512 453.973 351.061z" fill="#FFFFFF" p-id="5183"></path><path d="M1581.91 819.712c-21.163-14.336-36.353-36.523-45.227-66.73S1523.2 682.666 1523.2 632.49v-68.267c0-50.688 5.12-91.307 15.36-122.027 10.24-30.72 26.283-53.077 47.957-67.072 21.675-13.994 50.176-21.162 85.504-21.162 34.816 0 62.635 7.168 83.627 21.504 20.992 14.336 36.352 36.693 46.08 67.072 9.728 30.378 14.507 70.997 14.507 121.514v68.267c0 50.176-4.779 90.453-14.166 120.832-9.386 30.379-24.746 52.736-46.08 66.73-21.162 13.995-50.005 21.163-86.357 21.163-37.205 0.171-66.56-6.997-87.723-21.333z m118.954-73.728c5.803-15.36 8.875-40.448 8.875-75.093V524.288c0-33.792-2.902-58.368-8.875-74.07-5.803-15.53-16.213-23.38-31.061-23.38-14.336 0-24.406 7.85-30.379 23.38-5.803 15.531-8.875 40.278-8.875 74.07v146.603c0 34.816 2.731 59.904 8.363 75.093 5.632 15.36 15.872 23.04 30.72 23.04 15.019 0 25.259-7.68 31.232-23.04z m1510.4-112.299v23.723c0 30.208 0.853 52.736 2.73 67.925 1.707 15.019 5.462 26.112 11.094 32.939 5.632 6.827 14.336 10.41 26.112 10.41 15.872 0 26.795-6.143 32.597-18.431 5.803-12.288 9.046-32.768 9.558-61.44l91.306 5.29c0.512 4.096 0.683 9.728 0.683 16.896 0 43.52-11.947 75.947-35.67 97.451-23.722 21.504-57.343 32.256-100.863 32.256-52.224 0-88.747-16.384-109.739-49.152-20.992-32.768-31.403-83.285-31.403-151.893v-82.091c0-70.656 10.923-122.027 32.598-154.624 21.674-32.427 58.88-48.64 111.616-48.64 36.352 0 64.17 6.656 83.626 19.968 19.456 13.312 33.11 33.963 41.131 62.123 7.85 28.16 11.947 67.072 11.947 116.565v80.555h-177.323z m13.483-197.973c-5.291 6.656-8.875 17.579-10.752 32.597-1.878 15.019-2.731 38.059-2.731 68.608v33.792h77.483v-33.792c0-30.208-1.024-53.077-3.072-68.608-2.048-15.53-5.803-26.624-11.094-32.938-5.29-6.315-13.653-9.558-24.917-9.558-11.264-0.17-19.627 3.243-24.917 9.899zM1324.203 624.811l-120.491-435.03h105.13l42.155 197.12c10.752 48.64 18.603 89.942 23.723 124.246h3.072c3.584-24.576 11.435-65.707 23.723-123.563l43.69-197.973h105.131l-121.856 435.2v208.725h-104.277V624.811z m833.877-261.632v470.186h-82.773l-9.216-57.514h-2.219c-22.528 43.52-56.32 65.194-101.205 65.194-31.232 0-54.272-10.24-69.12-30.72-14.848-20.48-22.187-52.394-22.187-95.914V363.179h105.813v345.258c0 20.992 2.219 36.011 6.827 44.886s12.288 13.482 23.04 13.482c9.216 0 18.09-2.73 26.453-8.362s14.678-12.8 18.774-21.504v-373.76h105.813z m543.061 0v470.186h-82.773l-9.216-57.514h-2.219c-22.528 43.52-56.32 65.194-101.205 65.194-31.232 0-54.272-10.24-69.12-30.72-14.848-20.48-22.187-52.394-22.187-95.914V363.179h105.814v345.258c0 20.992 2.218 36.011 6.826 44.886s12.288 13.482 23.04 13.482c9.216 0 18.091-2.73 26.454-8.362 8.362-5.632 14.677-12.8 18.773-21.504v-373.76h105.813z" fill="#282828" p-id="5184"></path><path d="M2445.824 274.944h-105.13v558.421h-103.595V274.944h-105.131v-85.163h313.685v85.163z m605.696 163.499c-6.485-29.696-16.725-51.2-31.061-64.512-14.336-13.312-33.963-19.968-59.051-19.968-19.456 0-37.547 5.461-54.443 16.554-16.896 10.923-29.866 25.43-39.082 43.35h-0.854V166.059h-102.058v667.477h87.381l10.752-44.544h2.219c8.192 15.872 20.48 28.33 36.864 37.547 16.384 9.216 34.474 13.824 54.442 13.824 35.84 0 62.123-16.555 79.019-49.494 16.896-32.938 25.259-84.48 25.259-154.624v-74.41c0.17-52.566-3.072-93.696-9.387-123.392z m-97.11 191.829c0 34.304-1.365 61.099-4.266 80.555-2.73 19.456-7.51 33.28-14.165 41.472-6.656 8.192-15.531 12.288-26.795 12.288-8.704 0-16.725-2.048-24.235-6.144-7.338-4.096-13.482-10.24-18.09-18.432V472.917c3.584-12.8 9.728-23.21 18.432-31.402 8.704-8.192 18.09-12.288 28.33-12.288 10.752 0 19.115 4.266 24.918 12.629 5.802 8.363 9.898 22.699 12.288 42.496 2.218 19.968 3.413 48.299 3.413 85.163v60.757z" fill="#282828" p-id="5185"></path></svg>