<?xml version="1.0" standalone="no"?><!DOCTYPE svg PUBLIC "-//W3C//DTD SVG 1.1//EN" "http://www.w3.org/Graphics/SVG/1.1/DTD/svg11.dtd"><svg t="1605772159814" class="icon" viewBox="0 0 1024 1024" version="1.1" xmlns="http://www.w3.org/2000/svg" p-id="13557" xmlns:xlink="http://www.w3.org/1999/xlink" width="200" height="200"><defs><style type="text/css"></style></defs><path d="M29.556364 512c0 266.472727 215.970909 482.443636 482.443636 482.443636 266.472727 0 482.443636-215.970909 482.443636-482.443636 0-266.472727-215.970909-482.443636-482.443636-482.443636C245.527273 29.556364 29.556364 245.527273 29.556364 512z" fill="#E72D14" p-id="13558"></path><path d="M539.648 501.248l-20.689455 24.738909-29.696-10.472727 17.012364 26.949818-20.666182 24.738909 30.813091-7.703273 17.570909 26.926546v-31.883637l31.348364-8.28509-29.696-11.589819 4.002909-33.419636z m118.737455-67.072h-31.883637l-9.937454-28.602182-9.937455 30.813091h-31.906909l25.832727 18.688-9.914182 30.813091 25.832728-19.246545 25.856 19.246545-9.914182-30.813091 25.972364-20.898909z m-52.247273-117.643636l4.980363 34.117818 14.801455-28.602182 31.930182 4.957091-23.086546-22.528 14.801455-28.625455-27.554909 12.148364-22.551273-22.528 4.957091 31.883636-28.602182 14.289455 30.324364 4.887273z m-65.954909-146.804364l-20.666182 24.738909-30.254546-12.125091 17.57091 27.578182-20.689455 24.203636 31.371636-7.749818 17.012364 26.949818v-32.116363l32.465455-7.703273-29.696-12.148364 2.885818-31.627636z m-223.790546 141.079273l-30.254545-92.904728-29.975273 92.904728H158.836364l78.661818 57.204363-30.254546 92.369455 79.173819-55.156364 78.638545 55.156364-30.254545-92.369455 79.19709-55.133091-97.605818-2.071272z" fill="#FFD700" p-id="13559"></path></svg>