<?xml version="1.0" standalone="no"?><!DOCTYPE svg PUBLIC "-//W3C//DTD SVG 1.1//EN" "http://www.w3.org/Graphics/SVG/1.1/DTD/svg11.dtd"><svg t="1606355918543" class="icon" viewBox="0 0 1024 1024" version="1.1" xmlns="http://www.w3.org/2000/svg" p-id="15489" xmlns:xlink="http://www.w3.org/1999/xlink" width="200" height="200"><defs><style type="text/css"></style></defs><path d="M921.6 864l-147.2-147.2c121.6-147.2 115.2-371.2-25.6-512C601.6 64 358.4 64 211.2 211.2 64 358.4 64 601.6 211.2 748.8c140.8 140.8 358.4 147.2 512 25.6l147.2 147.2h12.8l44.8-44.8c-6.4 0-6.4-6.4-6.4-12.8z m-224-166.4c-121.6 121.6-313.6 121.6-428.8 0C147.2 576 147.2 384 268.8 268.8 384 147.2 576 147.2 697.6 268.8c115.2 115.2 115.2 307.2 0 428.8z" fill="#597EF7" p-id="15490"></path><path d="M480 480m-307.2 0a307.2 307.2 0 1 0 614.4 0 307.2 307.2 0 1 0-614.4 0Z" fill="#D6E4FF" p-id="15491"></path></svg>