<?xml version="1.0" standalone="no"?><!DOCTYPE svg PUBLIC "-//W3C//DTD SVG 1.1//EN" "http://www.w3.org/Graphics/SVG/1.1/DTD/svg11.dtd"><svg t="1607679793609" class="icon" viewBox="0 0 1024 1024" version="1.1" xmlns="http://www.w3.org/2000/svg" p-id="15533" xmlns:xlink="http://www.w3.org/1999/xlink" width="200" height="200"><defs><style type="text/css"></style></defs><path d="M240.39424 148.45952A342.69184 342.69184 0 0 1 493.7728 77.94688a342.40512 342.40512 0 0 1 228.98688 129.24928 342.6304 342.6304 0 0 1 70.53312 253.37856 342.34368 342.34368 0 0 1-83.8656 186.40896 83.59936 83.59936 0 0 1 56.50432 31.55968l112.14848 143.2576a84.2752 84.2752 0 0 1-14.41792 117.9648c-36.37248 28.5696-89.47712 22.05696-118.00576-14.336l-112.14848-143.21664a83.78368 83.78368 0 0 1-17.22368-61.17376 342.4256 342.4256 0 0 1-205.57824 39.1168 342.528 342.528 0 0 1-229.0688-129.26976 342.46656 342.46656 0 0 1-70.5536-253.3376 342.4256 342.4256 0 0 1 129.31072-229.08928z m48.10752 291.24608c48.57856-102.46144 134.79936-152.35072 260.5056-175.34976-122.79808-79.01184-282.7264 38.2976-260.5056 175.34976z m191.30368-247.07072a227.40992 227.40992 0 0 0-168.16128 46.77632 227.06176 227.06176 0 0 0-85.79072 152.02304 227.20512 227.20512 0 0 0 46.7968 168.16128 227.24608 227.24608 0 0 0 152.02304 85.83168 227.20512 227.20512 0 0 0 168.12032-46.83776 227.5328 227.5328 0 0 0 85.85216-152.02304c7.02464-57.97888-7.9872-118.5792-46.81728-168.16128a227.4304 227.4304 0 0 0-152.02304-85.77024z" fill="#01A9FE" p-id="15534"></path></svg>