<?xml version="1.0" standalone="no"?><!DOCTYPE svg PUBLIC "-//W3C//DTD SVG 1.1//EN" "http://www.w3.org/Graphics/SVG/1.1/DTD/svg11.dtd"><svg t="1607738313486" class="icon" viewBox="0 0 1024 1024" version="1.1" xmlns="http://www.w3.org/2000/svg" p-id="3170" xmlns:xlink="http://www.w3.org/1999/xlink" width="200" height="200"><defs><style type="text/css"></style></defs><path d="M913.152 335.04h-204.096a45.44 45.44 0 0 1-46.08-44.672V82.752l250.176 252.288z m-204.096 62.72h222.72v454.784c0 59.2-49.792 107.456-110.976 107.456h-609.28c-61.184 0-110.976-48.256-110.976-107.456V171.52C100.544 112.256 150.4 64 211.52 64h386.624v226.368c0 59.2 49.792 107.456 110.912 107.456z m-27.712 368c17.92 0 32.384-13.952 32.384-31.36a31.872 31.872 0 0 0-32.384-31.36H350.976a31.872 31.872 0 0 0-32.384 31.36c0 17.408 14.464 31.36 32.384 31.36h330.368z m0-188.8c17.92 0 32.384-14.016 32.384-31.36a31.872 31.872 0 0 0-32.384-31.36H350.976a31.872 31.872 0 0 0-32.384 31.36c0 17.344 14.464 31.36 32.384 31.36h330.368z" fill="#457CFC" p-id="3171"></path></svg>