<?xml version="1.0" standalone="no"?><!DOCTYPE svg PUBLIC "-//W3C//DTD SVG 1.1//EN" "http://www.w3.org/Graphics/SVG/1.1/DTD/svg11.dtd"><svg t="1607740975998" class="icon" viewBox="0 0 1024 1024" version="1.1" xmlns="http://www.w3.org/2000/svg" p-id="31982" xmlns:xlink="http://www.w3.org/1999/xlink" width="200" height="200"><defs><style type="text/css"></style></defs><path d="M875.2 148.8h-52.4v104c0 42.6-35.4 77.5-78.9 77.5-43.5 0-78.9-35-78.9-77.5v-104H355.4v104c0 42.6-35.4 77.5-78.9 77.5-43.5 0-78.9-35-78.9-77.5v-104h-52c-46.2 0-83.3 36.7-83.3 81.6V877c0 45.3 37.2 81.6 83.3 81.6h729.5c46.2 0 83.3-36.7 83.3-81.6V230.3c0.1-44.8-37.1-81.5-83.2-81.5z m10.7 728.1c0 5.8-4.9 10.8-10.8 10.8H145.7c-5.8 0-10.8-4.9-10.8-10.8V363.8h751v513.1z m0 0" fill="#94BBF0" p-id="31983"></path><path d="M743.9 300.7c-26.9 0-49.3-21.5-49.3-48.4v-142c0-26.4 22-47.9 49.3-47.9 27.3 0 49.3 21.5 49.3 47.9v142.5c0 26.3-22.4 47.9-49.3 47.9z m-467.8 0c-26.9 0-48.8-21.5-49.3-48.4v-142c0-26.4 22.4-47.9 49.3-47.9 27.3 0 49.3 21.5 49.3 47.9v142.5c0 26.3-22.4 47.9-49.3 47.9z m482.6 229.4H264c-19.7 0-35.8-16.1-35.8-35.8 0-19.7 16.1-35.8 35.8-35.8h494.7c19.7 0 35.8 16.1 35.8 35.8 0 19.6-16.1 35.8-35.8 35.8z m-83.4 167.6H264c-19.7 0-35.8-16.1-35.8-35.8 0-19.7 16.1-35.8 35.8-35.8h411.3c19.7 0 35.8 16.1 35.8 35.8 0.1 19.6-16.1 35.8-35.8 35.8z m0 0" fill="#94BBF0" p-id="31984"></path></svg>