<?xml version="1.0" standalone="no"?><!DOCTYPE svg PUBLIC "-//W3C//DTD SVG 1.1//EN" "http://www.w3.org/Graphics/SVG/1.1/DTD/svg11.dtd"><svg t="1607740657785" class="icon" viewBox="0 0 1024 1024" version="1.1" xmlns="http://www.w3.org/2000/svg" p-id="31843" xmlns:xlink="http://www.w3.org/1999/xlink" width="200" height="200"><defs><style type="text/css"></style></defs><path d="M445.9 632c-1.6-0.8-3.1-1.4-4.7-2.2 4.3 2 8.4 4.3 12.6 6.6-2.7-1.5-5.2-3.1-7.9-4.4zM617 259.6c22.5 0 32.2-13.8 32.2-26v-77.8c0-11.6-8.1-25.9-32.2-25.9s-32.2 14.2-32.2 25.9v77.8c0.1 11.6 9.7 26 32.2 26zM258.7 259.6c22.5 0 32.6-13.8 32.6-26v-77.8c0-11.6-8.1-25.9-32.2-25.9s-32.6 14.3-32.6 25.9v77.8c0 11.6 9.7 26 32.2 26zM367.5 608.8c-22.1-2.5-44.3-1.9-66.1 1.9 21.8-3.8 44.1-4.4 66.1-1.9z" fill="#B3FCB1" p-id="31844"></path><path d="M201.2 653.7V438.3c0.2-75.2 52.2-140.3 125.5-157.2 4.8-1 9.8 0.2 13.5 3.3 3.8 3.1 6 7.7 6 12.6v30.2c0 17.5 14.5 38.9 48.4 38.9 33.8 0 48.4-21.4 48.4-38.9v-33.9c0-8.9 7.2-16.1 16.1-16.1h228.3c8.9 0 16.1 7.2 16.1 16.1v33.9c0 17.5 14.5 38.9 48.4 38.9 31.9 0 46.5-19 48.1-35.9-1.9-17.5-6.6-34.3-13.7-49.9v44.6c0 12.2-9.7 26-32.2 26s-32.2-14.3-32.2-26v-77.8c0-9.5 5.5-20.4 20.2-24.4-16.7-13.8-36.3-24.3-58.1-30.6-4.9-1.4-10.2-0.5-14.3 2.6-4.1 3.1-6.5 7.9-6.4 13.1v28c0 17.5-14.5 38.9-48.4 38.9-33.8 0-48.4-21.4-48.4-38.9V202c0-8.9-7.2-16.1-16.1-16.1H322c-8.9 0-16.1 7.2-16.1 16.1v33.9c0 17.5-14.5 38.9-48.4 38.9-33.8 0-48.4-21.4-48.4-38.9v-30.2c0-4.9-2.2-9.5-6-12.6-3.8-3.1-8.8-4.3-13.5-3.3-73.3 16.9-125.3 82-125.5 157.2v304.5c0.3 86.1 68 156.2 153.1 160.7-10.1-21-16-44.5-16-69.3v-89.2z m162.4-406.6c0-11.6 8.5-25.9 32.6-25.9s32.2 14.3 32.2 25.9v77.8c0 12.2-10.1 26-32.6 26s-32.2-14.3-32.2-26v-77.8z" fill="#B3FCB1" p-id="31845"></path><path d="M812.8 632.1c-82 0-148.4 66.5-148.4 148.4 0 20.2 4.1 39.5 11.4 57.1 22.4 53.6 75.3 91.4 137 91.4 82 0 148.4-66.5 148.4-148.4s-66.4-148.5-148.4-148.5z m87.5 121.7v-0.1l-87.6 87.6c-7.1 7.1-17.4 8.8-26.1 5.3-2.9-1.2-5.7-2.9-8-5.3L753 815.8l-27.6-27.6c-6.7-6-9.5-15.2-7.4-23.8 2.2-8.7 9-15.5 17.6-17.7 8.7-2.1 17.9 0.7 23.8 7.4l36.1 36.1 70.5-70.5s0.1 0 0.1-0.1c4.5-5 10.8-7.8 17.3-8 2.1-0.1 4.3 0.2 6.4 0.7 8.7 2.2 15.5 9 17.6 17.6 2.4 8.8-0.4 18-7.1 23.9zM721.9 247.1v77.8c0 11.6 9.7 26 32.2 26s32.2-13.8 32.2-26V247.1c0-11.6-8.1-25.9-32.2-25.9-4.6 0-8.5 0.7-12 1.6-14.8 3.9-20.2 14.8-20.2 24.3zM395.7 350.9c22.5 0 32.6-13.8 32.6-26v-77.8c0-11.6-8.1-25.9-32.2-25.9s-32.6 14.3-32.6 25.9v77.8c0.1 11.7 9.7 26 32.2 26z" fill="#01C700" p-id="31846"></path><path d="M624.7 828.4c-15.8-65.2 2.9-135.5 52.6-184.3 30.6-29.9 69-47.9 109.2-53.5 43-6 88 2.3 127.2 26.1 5 3 11.2 3.1 16.2 0.2 5.1-2.9 8.1-8.2 8.1-14V438.3c-0.3-71.9-47.9-134.9-117-154.8-4.9-1.4-10.2-0.5-14.3 2.6-4.1 3.1-6.5 7.9-6.4 13.1v28c0 1-0.2 2-0.3 3-1.6 16.9-16.1 35.9-48.1 35.9-33.8 0-48.4-21.4-48.4-38.9v-33.9c0-8.9-7.2-16.1-16.1-16.1H459.1c-8.9 0-16.1 7.2-16.1 16.1v33.9c0 17.5-14.5 38.9-48.4 38.9-33.8 0-48.4-21.4-48.4-38.9V297c0-4.9-2.2-9.5-6-12.6-3.8-3.1-8.8-4.3-13.5-3.3-73.3 16.9-125.3 82-125.5 157.2v215.4c4.8-3.6 9.7-6.9 14.7-10.1 1.3-0.8 2.7-1.6 4-2.4 3.7-2.3 7.4-4.4 11.3-6.5 1.6-0.9 3.2-1.6 4.8-2.4 3.6-1.8 7.3-3.6 11-5.2 1.7-0.7 3.3-1.4 5-2.1 3.8-1.6 7.6-3 11.4-4.4 1.6-0.6 3.2-1.1 4.8-1.6 4.1-1.3 8.3-2.6 12.4-3.7 1.3-0.4 2.7-0.7 4-1.1 4.7-1.2 9.5-2.2 14.3-3.1 0.8-0.1 1.6-0.3 2.4-0.5 21.8-3.8 44.1-4.4 66.1-1.9 7.3 0.8 14.6 2 21.9 3.5 0.3 0.1 0.5 0.1 0.8 0.2 5.5 1.2 10.9 2.6 16.3 4.1 0.5 0.1 0.9 0.3 1.4 0.4 5.3 1.6 10.5 3.3 15.7 5.3 0.4 0.2 0.8 0.3 1.2 0.5 5.4 2.1 10.8 4.3 16 6.8 0.1 0.1 0.2 0.1 0.3 0.1 1.6 0.7 3.2 1.4 4.7 2.2 2.7 1.4 5.2 3 7.9 4.4 2 1.1 4 2.2 5.9 3.3 3.6 2.2 7.2 4.4 10.7 6.7 0.9 0.6 1.9 1.1 2.8 1.8 0.8 0.5 1.5 1.2 2.3 1.8 5.7 4.1 11.2 8.3 16.5 12.8 1.5 1.2 3 2.4 4.4 3.7 6.3 5.6 12.4 11.5 18 17.7 0.1 0.1 0.2 0.2 0.3 0.4 5.9 6.6 11.5 13.5 16.6 20.7 0.1 0.2 0.3 0.4 0.4 0.6 5.1 7.2 9.8 14.7 14.1 22.5 4.3 7.8 8.1 15.7 11.4 23.9 0 0.1 0.1 0.2 0.1 0.3 3.2 7.8 5.9 15.7 8.2 23.8 0.3 0.9 0.5 1.8 0.8 2.7 2.1 7.8 3.9 15.7 5.2 23.7 0.2 1.1 0.3 2.1 0.5 3.2 1.2 8.2 2.2 16.4 2.5 24.8v1.3c0.1 3 0.3 6 0.3 9.1h-0.2c0 0.7-0.1 1.4-0.1 2 0 4-0.2 8.1-0.4 12.1-0.1 1.4-0.2 2.8-0.3 4.3-0.3 4.1-0.7 8.3-1.3 12.4-0.2 1.1-0.4 2.3-0.5 3.4-1.4 9.5-3.3 19.1-5.9 28.5h65c5.7 0.1 11.1-3 14-7.9 2.9-5 2.9-11.1 0-16.1-9.2-16.2-15.9-33.6-20.2-51.3z m-304.1-317c-11.8-0.1-21.4-9.6-21.5-21.5v-53.7c0.1-11.8 9.6-21.4 21.5-21.5H818.9c11.8 0 21.4 9.6 21.5 21.5v53.7c-0.1 11.8-9.6 21.4-21.5 21.5H320.6z" fill="#01C700" p-id="31847"></path><path d="M572.6 871.9c0.6-4.1 0.9-8.3 1.3-12.4 0.1-1.4 0.2-2.8 0.3-4.3 0.2-4 0.4-8.1 0.4-12.1 0-3.7 0.1-7.4 0-11.1v-1.3c-0.4-8.4-1.3-16.6-2.5-24.8-0.2-1.1-0.3-2.1-0.5-3.2-1.3-8-3.1-15.9-5.2-23.7-0.2-0.9-0.5-1.8-0.8-2.7-2.3-8.1-5-16-8.2-23.8 0-0.1-0.1-0.2-0.1-0.3-3.3-8.2-7.2-16.1-11.4-23.9-4.3-7.8-9-15.3-14.1-22.5-0.1-0.2-0.3-0.4-0.4-0.6-5.1-7.2-10.7-14.1-16.6-20.7-0.1-0.1-0.2-0.2-0.3-0.4-5.6-6.2-11.7-12.1-18-17.7-1.4-1.3-3-2.5-4.4-3.7-5.3-4.5-10.8-8.8-16.5-12.8-0.8-0.6-1.5-1.2-2.3-1.8-0.9-0.6-1.9-1.1-2.8-1.8-3.5-2.3-7.1-4.6-10.7-6.7-2-1.2-3.9-2.2-5.9-3.3-4.2-2.3-8.3-4.6-12.6-6.6-0.1-0.1-0.2-0.1-0.3-0.1-5.3-2.5-10.6-4.8-16-6.8-0.4-0.2-0.8-0.3-1.2-0.5-5.2-2-10.4-3.7-15.7-5.3-0.5-0.1-0.9-0.3-1.4-0.4-5.4-1.6-10.8-3-16.3-4.1-0.3-0.1-0.5-0.1-0.8-0.2-7.3-1.5-14.6-2.7-21.9-3.5-22-2.5-44.3-1.9-66.1 1.9-0.8 0.1-1.6 0.3-2.4 0.5-4.8 0.9-9.6 1.9-14.3 3.1-1.3 0.3-2.7 0.7-4 1.1-4.2 1.1-8.3 2.3-12.4 3.7-1.6 0.5-3.2 1.1-4.8 1.6-3.8 1.4-7.6 2.8-11.4 4.4-1.7 0.7-3.4 1.4-5 2.1-3.7 1.6-7.4 3.4-11 5.2l-4.8 2.4c-3.8 2-7.5 4.2-11.3 6.5-1.3 0.8-2.7 1.6-4 2.4-5 3.2-9.9 6.5-14.7 10.1v89.1c0.1 24.9 5.9 48.3 16 69.3 26 54.1 81.1 91.6 145.1 91.8h203.7c2.6-9.5 4.5-19 5.9-28.5 0.1-1.4 0.3-2.5 0.4-3.6z" fill="#3DD240" p-id="31848"></path></svg>