<?xml version="1.0" standalone="no"?><!DOCTYPE svg PUBLIC "-//W3C//DTD SVG 1.1//EN" "http://www.w3.org/Graphics/SVG/1.1/DTD/svg11.dtd"><svg t="1607741169183" class="icon" viewBox="0 0 1084 1024" version="1.1" xmlns="http://www.w3.org/2000/svg" p-id="36877" xmlns:xlink="http://www.w3.org/1999/xlink" width="211.71875" height="200"><defs><style type="text/css"></style></defs><path d="M120.470588 0h843.294118c66.258824 0 120.470588 54.211765 120.470588 120.470588v783.058824c0 66.258824-54.211765 120.470588-120.470588 120.470588H120.470588c-66.258824 0-120.470588-54.211765-120.470588-120.470588V120.470588C0 54.211765 54.211765 0 120.470588 0z" fill="#21D4BC" p-id="36878"></path><path d="M180.705882 963.764706h722.82353c66.258824 0 120.470588-54.211765 120.470588-120.470588V361.411765H60.235294v481.882353c0 66.258824 54.211765 120.470588 120.470588 120.470588zM240.941176 0h120.470589v120.470588c0 36.141176-24.094118 60.235294-60.235294 60.235294s-60.235294-24.094118-60.235295-60.235294V0zM722.823529 0h120.470589v120.470588c0 36.141176-24.094118 60.235294-60.235294 60.235294s-60.235294-24.094118-60.235295-60.235294V0z" fill="#FFFFFF" p-id="36879"></path><path d="M240.941176 542.117647m-60.235294 0a60.235294 60.235294 0 1 0 120.470589 0 60.235294 60.235294 0 1 0-120.470589 0Z" fill="#CCCCCC" p-id="36880"></path><path d="M240.941176 783.058824m-60.235294 0a60.235294 60.235294 0 1 0 120.470589 0 60.235294 60.235294 0 1 0-120.470589 0Z" fill="#CCCCCC" p-id="36881"></path><path d="M542.117647 542.117647m-60.235294 0a60.235294 60.235294 0 1 0 120.470588 0 60.235294 60.235294 0 1 0-120.470588 0Z" fill="#21D4BC" p-id="36882"></path><path d="M542.117647 783.058824m-60.235294 0a60.235294 60.235294 0 1 0 120.470588 0 60.235294 60.235294 0 1 0-120.470588 0Z" fill="#CCCCCC" p-id="36883"></path><path d="M843.294118 542.117647m-60.235294 0a60.235294 60.235294 0 1 0 120.470588 0 60.235294 60.235294 0 1 0-120.470588 0Z" fill="#CCCCCC" p-id="36884"></path><path d="M843.294118 783.058824m-60.235294 0a60.235294 60.235294 0 1 0 120.470588 0 60.235294 60.235294 0 1 0-120.470588 0Z" fill="#CCCCCC" p-id="36885"></path></svg>