<?xml version="1.0" standalone="no"?><!DOCTYPE svg PUBLIC "-//W3C//DTD SVG 1.1//EN" "http://www.w3.org/Graphics/SVG/1.1/DTD/svg11.dtd"><svg t="1607741154163" class="icon" viewBox="0 0 1024 1024" version="1.1" xmlns="http://www.w3.org/2000/svg" p-id="36739" xmlns:xlink="http://www.w3.org/1999/xlink" width="200" height="200"><defs><style type="text/css"></style></defs><path d="M896 934.4H128c-56.3 0-102.4-46.1-102.4-102.4V268.8c0-56.3 46.1-102.4 102.4-102.4h768c56.3 0 102.4 46.1 102.4 102.4V832c0 56.3-46.1 102.4-102.4 102.4z m0 0" fill="#FFFFFF" p-id="36740"></path><path d="M918.8 169.2c1.7 7.4 2.8 15 2.8 22.8v563.2c0 56.3-46.1 102.4-102.4 102.4h-768c-7.9 0-15.4-1.1-22.8-2.8 10.5 45.4 51.1 79.6 99.6 79.6h768c56.3 0 102.4-46.1 102.4-102.4V268.8c0-48.4-34.2-89.1-79.6-99.6z m0 0" fill="#DDEBFF" p-id="36741"></path><path d="M998.4 396.8H25.6v-128c0-56.3 46.1-102.4 102.4-102.4h768c56.3 0 102.4 46.1 102.4 102.4v128z m0 0" fill="#76AEFD" p-id="36742"></path><path d="M896 960H128C57.4 960 0 902.6 0 832V268.8c0-70.6 57.4-128 128-128h768c70.6 0 128 57.4 128 128V832c0 70.6-57.4 128-128 128zM128 192c-42.3 0-76.8 34.5-76.8 76.8V832c0 42.3 34.5 76.8 76.8 76.8h768c42.3 0 76.8-34.5 76.8-76.8V268.8c0-42.3-34.5-76.8-76.8-76.8H128z m0 0" fill="#5399FC" p-id="36743"></path><path d="M291.3 551.8H188.9c-14.1 0-25.6-11.5-25.6-25.6 0-14.1 11.5-25.6 25.6-25.6h102.4c14.1 0 25.6 11.5 25.6 25.6 0 14.1-11.4 25.6-25.6 25.6z m0 0" fill="#5399FC" p-id="36744"></path><path d="M295.8 551.8H193.4c-14.1 0-25.6-11.5-25.6-25.6 0-14.1 11.5-25.6 25.6-25.6h102.4c14.1 0 25.6 11.5 25.6 25.6 0 14.1-11.5 25.6-25.6 25.6z m267.4 0H460.8c-14.1 0-25.6-11.5-25.6-25.6 0-14.1 11.5-25.6 25.6-25.6h102.4c14.1 0 25.6 11.5 25.6 25.6 0 14.1-11.5 25.6-25.6 25.6z m267.4 0H728.2c-14.1 0-25.6-11.5-25.6-25.6 0-14.1 11.5-25.6 25.6-25.6h102.4c14.1 0 25.6 11.5 25.6 25.6 0 14.1-11.4 25.6-25.6 25.6z m0 0M295.8 682.1H193.4c-14.1 0-25.6-11.5-25.6-25.6 0-14.1 11.5-25.6 25.6-25.6h102.4c14.1 0 25.6 11.5 25.6 25.6 0 14.1-11.5 25.6-25.6 25.6z m267.4 0H460.8c-14.1 0-25.6-11.5-25.6-25.6 0-14.1 11.5-25.6 25.6-25.6h102.4c14.1 0 25.6 11.5 25.6 25.6 0 14.1-11.5 25.6-25.6 25.6z m267.4 0H728.2c-14.1 0-25.6-11.5-25.6-25.6 0-14.1 11.5-25.6 25.6-25.6h102.4c14.1 0 25.6 11.5 25.6 25.6 0 14.1-11.4 25.6-25.6 25.6z m0 0M295.8 812.4H193.4c-14.1 0-25.6-11.5-25.6-25.6 0-14.1 11.5-25.6 25.6-25.6h102.4c14.1 0 25.6 11.5 25.6 25.6 0 14.2-11.5 25.6-25.6 25.6z m267.4 0H460.8c-14.1 0-25.6-11.5-25.6-25.6 0-14.1 11.5-25.6 25.6-25.6h102.4c14.1 0 25.6 11.5 25.6 25.6 0 14.2-11.5 25.6-25.6 25.6z m0 0M316.6 268.8c-14.1 0-25.6-11.5-25.6-25.6V89.6c0-14.1 11.5-25.6 25.6-25.6 14.1 0 25.6 11.5 25.6 25.6v153.6c0 6.8-2.7 13.3-7.5 18.1-4.7 4.8-11.3 7.5-18.1 7.5z m389.8 0c-6.8 0-13.3-2.7-18.1-7.5-4.8-4.8-7.5-11.3-7.5-18.1V89.6c0-14.1 11.5-25.6 25.6-25.6 14.1 0 25.6 11.5 25.6 25.6v153.6c0 6.8-2.7 13.3-7.5 18.1-4.8 4.8-11.3 7.5-18.1 7.5z m0 0" fill="#5399FC" p-id="36745"></path></svg>