<?xml version="1.0" standalone="no"?><!DOCTYPE svg PUBLIC "-//W3C//DTD SVG 1.1//EN" "http://www.w3.org/Graphics/SVG/1.1/DTD/svg11.dtd"><svg t="1607739243097" class="icon" viewBox="0 0 1705 1024" version="1.1" xmlns="http://www.w3.org/2000/svg" p-id="22318" xmlns:xlink="http://www.w3.org/1999/xlink" width="333.0078125" height="200"><defs><style type="text/css"></style></defs><path d="M0 697.852469s847.211064 724.765686 1705.715635 13.472955c0 0-335.238803-579.535165-848.597987-554.768705A1016.811783 1016.811783 0 0 0 0 697.852469z" fill="#FDF2EA" p-id="22319"></path><path d="M1209.792039 581.351041a356.637024 356.637024 0 1 1-353.070654-358.816472 356.637024 356.637024 0 0 1 353.070654 358.816472z" fill="#0F578A" p-id="22320"></path><path d="M1042.767033 579.96412a189.017623 189.017623 0 1 1-187.43257-190.404545 188.819491 188.819491 0 0 1 187.43257 190.404545z" fill="#100705" p-id="22321"></path><path d="M854.740068 467.623457a99.06584 99.06584 0 1 1-99.06584-100.650894 99.06584 99.06584 0 0 1 99.06584 100.650894zM994.224771 721.232008a47.15534 47.15534 0 1 1-46.759076-47.551604 47.15534 47.15534 0 0 1 46.759076 47.551604z" fill="#FFFFFF" p-id="22322"></path><path d="M858.306439 0.032692C146.419312-5.514995 0 697.852469 0 697.852469 233.002856 302.976031 619.359632 228.082256 856.523253 229.865441s622.331607 108.774292 849.192382 481.459983c0 0-142.852941-705.745045-847.409196-711.292732z" fill="#FFE293" p-id="22323"></path><path d="M79.252672 583.134226h-9.510321A812.339889 812.339889 0 0 0 0 697.852469a1154.315169 1154.315169 0 0 0 118.879008 85.196623c-59.439504-36.654361-39.626336-199.914865-39.626336-199.914866z" fill="#F0290C" p-id="22324"></path></svg>