<?xml version="1.0" standalone="no"?><!DOCTYPE svg PUBLIC "-//W3C//DTD SVG 1.1//EN" "http://www.w3.org/Graphics/SVG/1.1/DTD/svg11.dtd"><svg t="1607741318872" class="icon" viewBox="0 0 1596 1024" version="1.1" xmlns="http://www.w3.org/2000/svg" p-id="45431" xmlns:xlink="http://www.w3.org/1999/xlink" width="311.71875" height="200"><defs><style type="text/css"></style></defs><path d="M1586.41739 491.94316a1021.915662 1021.915662 0 0 0-180.904831-230.889623c-180.904831-170.679776-381.473231-261.01421-602.373762-261.01421A878.174975 878.174975 0 0 0 200.765036 251.025117a1014.404179 1014.404179 0 0 0-190.736616 230.889623l-10.02842 30.124587 10.02842 20.096167a219.445426 219.445426 0 0 1 30.124587 50.181427A2205.15124 2205.15124 0 0 0 181.101467 762.946463a851.58983 851.58983 0 0 0 612.402182 261.01421c230.889623 0 431.693986-90.452416 612.402181-250.98579a1021.954989 1021.954989 0 0 0 180.904831-230.889623l10.02842-20.096167z m-793.110377 311.234964a301.206544 301.206544 0 1 1 0-602.373761 301.206544 301.206544 0 1 1 0 602.373761z" fill="#3E5BFF" p-id="45432"></path><path d="M592.541977 501.97158a200.804363 200.804363 0 1 0 200.804363-200.804363 200.804363 200.804363 0 0 0-200.804363 200.804363z" fill="#3E5BFF" p-id="45433"></path></svg>